<svg class="main-svg" xmlns="http://www.w3.org/2000/svg" xmlns:xlink="http://www.w3.org/1999/xlink" width="1200" height="500" style="" viewBox="0 0 1200 500"><rect x="0" y="0" width="1200" height="500" style="fill: rgb(255, 255, 255); fill-opacity: 1;"/><defs id="defs-a1faf5"><g class="clips"><clipPath id="clipa1faf5xyplot" class="plotclip"><rect width="508.5" height="441"/></clipPath><clipPath id="clipa1faf5x2y2plot" class="plotclip"><rect width="508.49999999999994" height="441"/></clipPath><clipPath class="axesclip" id="clipa1faf5x"><rect x="50" y="0" width="508.5" height="500"/></clipPath><clipPath class="axesclip" id="clipa1faf5y"><rect x="0" y="30" width="1200" height="441"/></clipPath><clipPath class="axesclip" id="clipa1faf5xy"><rect x="50" y="30" width="508.5" height="441"/></clipPath><clipPath class="axesclip" id="clipa1faf5y2"><rect x="0" y="30" width="1200" height="441"/></clipPath><clipPath class="axesclip" id="clipa1faf5xy2"><rect x="50" y="30" width="508.5" height="441"/></clipPath><clipPath class="axesclip" id="clipa1faf5x2"><rect x="671.5" y="0" width="508.49999999999994" height="500"/></clipPath><clipPath class="axesclip" id="clipa1faf5x2y"><rect x="671.5" y="30" width="508.49999999999994" height="441"/></clipPath><clipPath class="axesclip" id="clipa1faf5x2y2"><rect x="671.5" y="30" width="508.49999999999994" height="441"/></clipPath></g><g class="gradients"/><g class="patterns"/></defs><g class="bglayer"/><g class="layer-below"><g class="imagelayer"/><g class="shapelayer"/></g><g class="cartesianlayer"><g class="subplot xy"><g class="layer-subplot"><g class="shapelayer"/><g class="imagelayer"/></g><g class="minor-gridlayer"><g class="x"/><g class="y"/></g><g class="gridlayer"><g class="x"/><g class="y"><path class="ygrid crisp" transform="translate(0,453.61)" d="M50,0h508.5" style="stroke: rgb(211, 211, 211); stroke-opacity: 1; stroke-width: 1px;"/><path class="ygrid crisp" transform="translate(0,402.68)" d="M50,0h508.5" style="stroke: rgb(211, 211, 211); stroke-opacity: 1; stroke-width: 1px;"/><path class="ygrid crisp" transform="translate(0,364.15)" d="M50,0h508.5" style="stroke: rgb(211, 211, 211); stroke-opacity: 1; stroke-width: 1px;"/><path class="ygrid crisp" transform="translate(0,325.63)" d="M50,0h508.5" style="stroke: rgb(211, 211, 211); stroke-opacity: 1; stroke-width: 1px;"/><path class="ygrid crisp" transform="translate(0,274.7)" d="M50,0h508.5" style="stroke: rgb(211, 211, 211); stroke-opacity: 1; stroke-width: 1px;"/><path class="ygrid crisp" transform="translate(0,236.17)" d="M50,0h508.5" style="stroke: rgb(211, 211, 211); stroke-opacity: 1; stroke-width: 1px;"/><path class="ygrid crisp" transform="translate(0,197.64)" d="M50,0h508.5" style="stroke: rgb(211, 211, 211); stroke-opacity: 1; stroke-width: 1px;"/><path class="ygrid crisp" transform="translate(0,146.70999999999998)" d="M50,0h508.5" style="stroke: rgb(211, 211, 211); stroke-opacity: 1; stroke-width: 1px;"/><path class="ygrid crisp" transform="translate(0,108.19)" d="M50,0h508.5" style="stroke: rgb(211, 211, 211); stroke-opacity: 1; stroke-width: 1px;"/><path class="ygrid crisp" transform="translate(0,69.66)" d="M50,0h508.5" style="stroke: rgb(211, 211, 211); stroke-opacity: 1; stroke-width: 1px;"/></g></g><g class="zerolinelayer"/><g class="layer-between"><g class="shapelayer"/><g class="imagelayer"/></g><path class="xlines-below"/><path class="ylines-below"/><g class="overlines-below"/><g class="xaxislayer-below"/><g class="yaxislayer-below"/><g class="overaxes-below"/><g class="plot" transform="translate(50,30)" clip-path="url(#clipa1faf5xyplot)"><g class="boxlayer mlayer"><g class="trace boxes" style="opacity: 1;"><path class="box" d="M25.43,367.42H85.12M25.43,380.37H85.12V349.26H25.43ZM55.27,380.37V418.95M55.27,349.26V331M40.35,418.95H70.2M40.35,331H70.2" style="vector-effect: none; stroke-width: 2px; stroke: rgb(31, 119, 180); stroke-opacity: 1; fill: rgb(31, 119, 180); fill-opacity: 0.5;"/><g class="points"/></g><g class="trace boxes" style="opacity: 1;"><path class="box" d="M224.4,158.91H284.1M224.4,190.62H284.1V141.71H224.4ZM254.25,190.62V318.04M254.25,141.71V108.6M239.33,318.04H269.17M239.33,108.6H269.17" style="vector-effect: none; stroke-width: 2px; stroke: rgb(44, 160, 44); stroke-opacity: 1; fill: rgb(44, 160, 44); fill-opacity: 0.5;"/><g class="points"><path class="point" transform="translate(254.25,101.73)" d="M3,0A3,3 0 1,1 0,-3A3,3 0 0,1 3,0Z" style="opacity: 1; stroke-width: 0px; fill: rgb(44, 160, 44); fill-opacity: 1;"/><path class="point" transform="translate(254.25,98.76)" d="M3,0A3,3 0 1,1 0,-3A3,3 0 0,1 3,0Z" style="opacity: 1; stroke-width: 0px; fill: rgb(44, 160, 44); fill-opacity: 1;"/></g></g><g class="trace boxes" style="opacity: 1;"><path class="box" d="M423.38,128.52H483.08M423.38,158H483.08V73.44H423.38ZM453.23,158V273.15M453.23,73.44V34.15M438.3,273.15H468.15M438.3,34.15H468.15" style="vector-effect: none; stroke-width: 2px; stroke: rgb(255, 127, 14); stroke-opacity: 1; fill: rgb(255, 127, 14); fill-opacity: 0.5;"/><g class="points"><path class="point" transform="translate(453.23,27.44)" d="M3,0A3,3 0 1,1 0,-3A3,3 0 0,1 3,0Z" style="opacity: 1; stroke-width: 0px; fill: rgb(255, 127, 14); fill-opacity: 1;"/><path class="point" transform="translate(453.23,23.3)" d="M3,0A3,3 0 1,1 0,-3A3,3 0 0,1 3,0Z" style="opacity: 1; stroke-width: 0px; fill: rgb(255, 127, 14); fill-opacity: 1;"/><path class="point" transform="translate(453.23,22.71)" d="M3,0A3,3 0 1,1 0,-3A3,3 0 0,1 3,0Z" style="opacity: 1; stroke-width: 0px; fill: rgb(255, 127, 14); fill-opacity: 1;"/><path class="point" transform="translate(453.23,22.09)" d="M3,0A3,3 0 1,1 0,-3A3,3 0 0,1 3,0Z" style="opacity: 1; stroke-width: 0px; fill: rgb(255, 127, 14); fill-opacity: 1;"/><path class="point" transform="translate(453.23,22.05)" d="M3,0A3,3 0 1,1 0,-3A3,3 0 0,1 3,0Z" style="opacity: 1; stroke-width: 0px; fill: rgb(255, 127, 14); fill-opacity: 1;"/></g></g></g></g><g class="overplot"/><path class="xlines-above crisp" d="M48,472H560.5M48,29H560.5" style="fill: none; stroke-width: 2px; stroke: rgb(0, 0, 0); stroke-opacity: 1;"/><path class="ylines-above crisp" d="M49,30V471M559.5,30V471" style="fill: none; stroke-width: 2px; stroke: rgb(0, 0, 0); stroke-opacity: 1;"/><g class="overlines-above"/><g class="xaxislayer-above"><g class="xtick"><text text-anchor="middle" x="0" y="494.6" transform="translate(105.27000000000001,0)" style="font-family: 'Open Sans', verdana, arial, sans-serif; font-size: 18px; fill: rgb(42, 63, 95); fill-opacity: 1; white-space: pre; opacity: 1;">Multi-query GCS</text></g><g class="xtick"><text text-anchor="middle" x="0" y="494.6" transform="translate(304.25,0)" style="font-family: 'Open Sans', verdana, arial, sans-serif; font-size: 18px; fill: rgb(42, 63, 95); fill-opacity: 1; white-space: pre; opacity: 1;">SPP in GCS</text></g><g class="xtick"><text text-anchor="middle" x="0" y="494.6" transform="translate(503.23,0)" style="font-family: 'Open Sans', verdana, arial, sans-serif; font-size: 18px; fill: rgb(42, 63, 95); fill-opacity: 1; white-space: pre; opacity: 1;">sPRM</text></g></g><g class="yaxislayer-above"><g class="ytick"><text text-anchor="end" x="44.6" y="4.4624999999999995" transform="translate(0,453.61)" style="font-family: 'Open Sans', verdana, arial, sans-serif; font-size: 12.75px; fill: rgb(42, 63, 95); fill-opacity: 1; white-space: pre; opacity: 1;">2</text></g><g class="ytick"><text text-anchor="end" x="44.6" y="4.4624999999999995" style="font-family: 'Open Sans', verdana, arial, sans-serif; font-size: 12.75px; fill: rgb(42, 63, 95); fill-opacity: 1; white-space: pre; opacity: 1;" transform="translate(0,402.68)">5</text></g><g class="ytick"><text text-anchor="end" x="44.6" y="5.949999999999999" style="font-family: 'Open Sans', verdana, arial, sans-serif; font-size: 17px; fill: rgb(42, 63, 95); fill-opacity: 1; white-space: pre; opacity: 1;" transform="translate(0,364.15)">10</text></g><g class="ytick"><text text-anchor="end" x="44.6" y="4.4624999999999995" style="font-family: 'Open Sans', verdana, arial, sans-serif; font-size: 12.75px; fill: rgb(42, 63, 95); fill-opacity: 1; white-space: pre; opacity: 1;" transform="translate(0,325.63)">2</text></g><g class="ytick"><text text-anchor="end" x="44.6" y="4.4624999999999995" style="font-family: 'Open Sans', verdana, arial, sans-serif; font-size: 12.75px; fill: rgb(42, 63, 95); fill-opacity: 1; white-space: pre; opacity: 1;" transform="translate(0,274.7)">5</text></g><g class="ytick"><text text-anchor="end" x="44.6" y="5.949999999999999" style="font-family: 'Open Sans', verdana, arial, sans-serif; font-size: 17px; fill: rgb(42, 63, 95); fill-opacity: 1; white-space: pre; opacity: 1;" transform="translate(0,236.17)">100</text></g><g class="ytick"><text text-anchor="end" x="44.6" y="4.4624999999999995" style="font-family: 'Open Sans', verdana, arial, sans-serif; font-size: 12.75px; fill: rgb(42, 63, 95); fill-opacity: 1; white-space: pre; opacity: 1;" transform="translate(0,197.64)">2</text></g><g class="ytick"><text text-anchor="end" x="44.6" y="4.4624999999999995" style="font-family: 'Open Sans', verdana, arial, sans-serif; font-size: 12.75px; fill: rgb(42, 63, 95); fill-opacity: 1; white-space: pre; opacity: 1;" transform="translate(0,146.70999999999998)">5</text></g><g class="ytick"><text text-anchor="end" x="44.6" y="5.949999999999999" style="font-family: 'Open Sans', verdana, arial, sans-serif; font-size: 17px; fill: rgb(42, 63, 95); fill-opacity: 1; white-space: pre; opacity: 1;" transform="translate(0,108.19)">1000</text></g><g class="ytick"><text text-anchor="end" x="44.6" y="4.4624999999999995" style="font-family: 'Open Sans', verdana, arial, sans-serif; font-size: 12.75px; fill: rgb(42, 63, 95); fill-opacity: 1; white-space: pre; opacity: 1;" transform="translate(0,69.66)">2</text></g></g><g class="overaxes-above"/></g><g class="subplot x2y2"><g class="layer-subplot"><g class="shapelayer"/><g class="imagelayer"/></g><g class="minor-gridlayer"><g class="x2"/><g class="y2"/></g><g class="gridlayer"><g class="x2"/><g class="y2"><path class="y2grid crisp" transform="translate(0,425.77)" d="M671.5,0h508.49999999999994" style="stroke: rgb(211, 211, 211); stroke-opacity: 1; stroke-width: 1px;"/><path class="y2grid crisp" transform="translate(0,369.23)" d="M671.5,0h508.49999999999994" style="stroke: rgb(211, 211, 211); stroke-opacity: 1; stroke-width: 1px;"/><path class="y2grid crisp" transform="translate(0,312.69)" d="M671.5,0h508.49999999999994" style="stroke: rgb(211, 211, 211); stroke-opacity: 1; stroke-width: 1px;"/><path class="y2grid crisp" transform="translate(0,256.15)" d="M671.5,0h508.49999999999994" style="stroke: rgb(211, 211, 211); stroke-opacity: 1; stroke-width: 1px;"/><path class="y2grid crisp" transform="translate(0,199.62)" d="M671.5,0h508.49999999999994" style="stroke: rgb(211, 211, 211); stroke-opacity: 1; stroke-width: 1px;"/><path class="y2grid crisp" transform="translate(0,143.07999999999998)" d="M671.5,0h508.49999999999994" style="stroke: rgb(211, 211, 211); stroke-opacity: 1; stroke-width: 1px;"/><path class="y2grid crisp" transform="translate(0,86.53999999999999)" d="M671.5,0h508.49999999999994" style="stroke: rgb(211, 211, 211); stroke-opacity: 1; stroke-width: 1px;"/></g></g><g class="zerolinelayer"/><g class="layer-between"><g class="shapelayer"/><g class="imagelayer"/></g><path class="xlines-below"/><path class="ylines-below"/><g class="overlines-below"/><g class="xaxislayer-below"/><g class="yaxislayer-below"/><g class="overaxes-below"/><g class="plot" transform="translate(671.5,30)" clip-path="url(#clipa1faf5x2y2plot)"><g class="boxlayer mlayer"><g class="trace boxes" style="opacity: 1;"><path class="box" d="M25.43,273.91H85.12M25.43,328.25H85.12V231.1H25.43ZM55.27,328.25V434.45M55.27,231.1V184.54M40.35,434.45H70.2M40.35,184.54H70.2" style="vector-effect: none; stroke-width: 2px; stroke: rgb(31, 119, 180); stroke-opacity: 1; fill: rgb(31, 119, 180); fill-opacity: 0.5;"/><g class="points"/></g><g class="trace boxes" style="opacity: 1;"><path class="box" d="M224.4,310.38H284.1M224.4,346H284.1V247.95H224.4ZM254.25,346V434.45M254.25,247.95V186.61M239.33,434.45H269.17M239.33,186.61H269.17" style="vector-effect: none; stroke-width: 2px; stroke: rgb(44, 160, 44); stroke-opacity: 1; fill: rgb(44, 160, 44); fill-opacity: 0.5;"/><g class="points"/></g><g class="trace boxes" style="opacity: 1;"><path class="box" d="M423.38,289.6H483.08M423.38,320.83H483.08V189.51H423.38ZM453.23,320.83V425.82M453.23,189.51V49.12M438.3,425.82H468.15M438.3,49.12H468.15" style="vector-effect: none; stroke-width: 2px; stroke: rgb(255, 127, 14); stroke-opacity: 1; fill: rgb(255, 127, 14); fill-opacity: 0.5;"/><g class="points"/></g></g></g><g class="overplot"/><path class="xlines-above crisp" d="M669.5,472H1182M669.5,29H1182" style="fill: none; stroke-width: 2px; stroke: rgb(0, 0, 0); stroke-opacity: 1;"/><path class="ylines-above crisp" d="M670.5,30V471M1181,30V471" style="fill: none; stroke-width: 2px; stroke: rgb(0, 0, 0); stroke-opacity: 1;"/><g class="overlines-above"/><g class="xaxislayer-above"><g class="x2tick"><text text-anchor="middle" x="0" y="494.6" transform="translate(726.77,0)" style="font-family: 'Open Sans', verdana, arial, sans-serif; font-size: 18px; fill: rgb(42, 63, 95); fill-opacity: 1; white-space: pre; opacity: 1;">Multi-query GCS</text></g><g class="x2tick"><text text-anchor="middle" x="0" y="494.6" transform="translate(925.75,0)" style="font-family: 'Open Sans', verdana, arial, sans-serif; font-size: 18px; fill: rgb(42, 63, 95); fill-opacity: 1; white-space: pre; opacity: 1;">SPP in GCS</text></g><g class="x2tick"><text text-anchor="middle" x="0" y="494.6" transform="translate(1124.73,0)" style="font-family: 'Open Sans', verdana, arial, sans-serif; font-size: 18px; fill: rgb(42, 63, 95); fill-opacity: 1; white-space: pre; opacity: 1;">sPRM</text></g></g><g class="yaxislayer-above"><g class="y2tick"><text text-anchor="end" x="666.1" y="5.949999999999999" transform="translate(0,425.77)" style="font-family: 'Open Sans', verdana, arial, sans-serif; font-size: 17px; fill: rgb(42, 63, 95); fill-opacity: 1; white-space: pre; opacity: 1;">3</text></g><g class="y2tick"><text text-anchor="end" x="666.1" y="5.949999999999999" style="font-family: 'Open Sans', verdana, arial, sans-serif; font-size: 17px; fill: rgb(42, 63, 95); fill-opacity: 1; white-space: pre; opacity: 1;" transform="translate(0,369.23)">4</text></g><g class="y2tick"><text text-anchor="end" x="666.1" y="5.949999999999999" style="font-family: 'Open Sans', verdana, arial, sans-serif; font-size: 17px; fill: rgb(42, 63, 95); fill-opacity: 1; white-space: pre; opacity: 1;" transform="translate(0,312.69)">5</text></g><g class="y2tick"><text text-anchor="end" x="666.1" y="5.949999999999999" style="font-family: 'Open Sans', verdana, arial, sans-serif; font-size: 17px; fill: rgb(42, 63, 95); fill-opacity: 1; white-space: pre; opacity: 1;" transform="translate(0,256.15)">6</text></g><g class="y2tick"><text text-anchor="end" x="666.1" y="5.949999999999999" style="font-family: 'Open Sans', verdana, arial, sans-serif; font-size: 17px; fill: rgb(42, 63, 95); fill-opacity: 1; white-space: pre; opacity: 1;" transform="translate(0,199.62)">7</text></g><g class="y2tick"><text text-anchor="end" x="666.1" y="5.949999999999999" style="font-family: 'Open Sans', verdana, arial, sans-serif; font-size: 17px; fill: rgb(42, 63, 95); fill-opacity: 1; white-space: pre; opacity: 1;" transform="translate(0,143.07999999999998)">8</text></g><g class="y2tick"><text text-anchor="end" x="666.1" y="5.949999999999999" style="font-family: 'Open Sans', verdana, arial, sans-serif; font-size: 17px; fill: rgb(42, 63, 95); fill-opacity: 1; white-space: pre; opacity: 1;" transform="translate(0,86.53999999999999)">9</text></g><g class="y2tick"><text text-anchor="end" x="666.1" y="5.949999999999999" style="font-family: 'Open Sans', verdana, arial, sans-serif; font-size: 17px; fill: rgb(42, 63, 95); fill-opacity: 1; white-space: pre; opacity: 1;" transform="translate(0,30)">10</text></g></g><g class="overaxes-above"/></g></g><g class="polarlayer"/><g class="smithlayer"/><g class="ternarylayer"/><g class="geolayer"/><g class="funnelarealayer"/><g class="pielayer"/><g class="iciclelayer"/><g class="treemaplayer"/><g class="sunburstlayer"/><g class="glimages"/><defs id="topdefs-a1faf5"><g class="clips"/></defs><g class="layer-above"><g class="imagelayer"/><g class="shapelayer"/></g><g class="infolayer"><g class="g-gtitle"/><g class="g-xtitle"/><g class="g-x2title"/><g class="g-ytitle"/><g class="g-y2title"/><g class="annotation" data-index="0" style="opacity: 1;"><g class="annotation-text-g" transform="rotate(0,304.25,13.499999999999993)"><g class="cursor-pointer" transform="translate(205,-3)"><rect class="bg" x="0.5" y="0.5" width="197" height="32" style="stroke-width: 1px; stroke: rgb(0, 0, 0); stroke-opacity: 0; fill: rgb(0, 0, 0); fill-opacity: 0;"/><text class="annotation-text" text-anchor="middle" x="99.140625" y="26" style="font-family: 'Open Sans', verdana, arial, sans-serif; font-size: 24px; fill: rgb(42, 63, 95); fill-opacity: 1; white-space: pre;">Solve time (ms)</text></g></g></g><g class="annotation" data-index="1" style="opacity: 1;"><g class="annotation-text-g" transform="rotate(0,925.75,13.499999999999993)"><g class="cursor-pointer" transform="translate(820,-3)"><rect class="bg" x="0.5" y="0.5" width="211" height="32" style="stroke-width: 1px; stroke: rgb(0, 0, 0); stroke-opacity: 0; fill: rgb(0, 0, 0); fill-opacity: 0;"/><text class="annotation-text" text-anchor="middle" x="105.75" y="26" style="font-family: 'Open Sans', verdana, arial, sans-serif; font-size: 24px; fill: rgb(42, 63, 95); fill-opacity: 1; white-space: pre;">Path length (rad)</text></g></g></g></g></svg>