<svg class="main-svg" xmlns="http://www.w3.org/2000/svg" xmlns:xlink="http://www.w3.org/1999/xlink" width="925" height="800" style="" viewBox="0 0 925 800"><rect x="0" y="0" width="925" height="800" style="fill: rgb(255, 255, 255); fill-opacity: 1;"/><defs id="defs-07d74a"><g class="clips"><clipPath id="clip07d74axyplot" class="plotclip"><rect width="919" height="645"/></clipPath><clipPath class="axesclip" id="clip07d74ax"><rect x="4" y="0" width="919" height="800"/></clipPath><clipPath class="axesclip" id="clip07d74ay"><rect x="0" y="152" width="925" height="645"/></clipPath><clipPath class="axesclip" id="clip07d74axy"><rect x="4" y="152" width="919" height="645"/></clipPath><clipPath class="contourclip" id="clipeb7405"><path d="M790.38,307.06Q788.86,305.55 788.86,305.55C788.86,305.55 787.18,305.55 787.18,305.55C787.18,305.55 785.49,305.55 785.49,305.55C785.49,305.55 785.32,305.38 785.32,305.38C785.32,305.38 783.81,303.86 783.81,303.86C783.81,303.86 783.64,303.69 783.64,303.69C783.64,303.69 783.64,302.01 783.64,302.01C783.64,302.01 783.64,300.33 783.64,300.33Q783.64,300.33 782.12,298.81L782.12,298.47Q783.64,296.96 783.64,296.96C783.64,296.96 783.64,295.27 783.64,295.27C783.64,295.27 783.64,293.59 783.64,293.59C783.64,293.59 783.81,293.42 783.81,293.42C783.81,293.42 785.32,291.9 785.32,291.9C785.32,291.9 785.49,291.74 785.49,291.74C785.49,291.74 787.18,291.74 787.18,291.74C787.18,291.74 788.86,291.74 788.86,291.74Q788.86,291.74 790.38,290.22L790.71,290.22Q792.23,291.74 792.23,291.74C792.23,291.74 793.91,291.74 793.91,291.74C793.91,291.74 795.6,291.74 795.6,291.74C795.6,291.74 795.77,291.9 795.77,291.9C795.77,291.9 797.28,293.42 797.28,293.42C797.28,293.42 797.45,293.59 797.45,293.59C797.45,293.59 797.45,295.27 797.45,295.27C797.45,295.27 797.45,296.96 797.45,296.96Q797.45,296.96 798.97,298.47L798.97,298.81Q797.45,300.33 797.45,300.33C797.45,300.33 797.45,302.01 797.45,302.01C797.45,302.01 797.45,303.69 797.45,303.69C797.45,303.69 797.28,303.86 797.28,303.86C797.28,303.86 795.77,305.38 795.77,305.38C795.77,305.38 795.6,305.55 795.6,305.55C795.6,305.55 793.91,305.55 793.91,305.55C793.91,305.55 792.23,305.55 792.23,305.55Q792.23,305.55 790.71,307.06Z"/></clipPath><clipPath class="contourclip" id="clipc67f2a"><path d="M110.39,330.92Q108.88,329.41 108.88,329.41C108.88,329.41 107.19,329.41 107.19,329.41C107.19,329.41 105.51,329.41 105.51,329.41C105.51,329.41 105.34,329.24 105.34,329.24C105.34,329.24 103.82,327.72 103.82,327.72C103.82,327.72 103.66,327.55 103.66,327.55C103.66,327.55 103.66,325.87 103.66,325.87C103.66,325.87 103.66,324.18 103.66,324.18Q103.66,324.18 102.14,322.67L102.14,322.33Q103.66,320.82 103.66,320.82C103.66,320.82 103.66,319.13 103.66,319.13C103.66,319.13 103.66,317.45 103.66,317.45C103.66,317.45 103.82,317.28 103.82,317.28C103.82,317.28 105.34,315.76 105.34,315.76C105.34,315.76 105.51,315.59 105.51,315.59C105.51,315.59 107.19,315.59 107.19,315.59C107.19,315.59 108.88,315.59 108.88,315.59Q108.88,315.59 110.39,314.08L110.73,314.08Q112.24,315.59 112.24,315.59C112.24,315.59 113.93,315.59 113.93,315.59C113.93,315.59 115.61,315.59 115.61,315.59C115.61,315.59 115.78,315.76 115.78,315.76C115.78,315.76 117.3,317.28 117.3,317.28C117.3,317.28 117.47,317.45 117.47,317.45C117.47,317.45 117.47,319.13 117.47,319.13C117.47,319.13 117.47,320.82 117.47,320.82Q117.47,320.82 118.98,322.33L118.98,322.67Q117.47,324.18 117.47,324.18C117.47,324.18 117.47,325.87 117.47,325.87C117.47,325.87 117.47,327.55 117.47,327.55C117.47,327.55 117.3,327.72 117.3,327.72C117.3,327.72 115.78,329.24 115.78,329.24C115.78,329.24 115.61,329.41 115.61,329.41C115.61,329.41 113.93,329.41 113.93,329.41C113.93,329.41 112.24,329.41 112.24,329.41Q112.24,329.41 110.73,330.92Z"/></clipPath><clipPath class="contourclip" id="clip3cff60"><path d="M271.44,259.34Q269.93,257.83 269.93,257.83C269.93,257.83 268.24,257.83 268.24,257.83C268.24,257.83 266.56,257.83 266.56,257.83C266.56,257.83 266.39,257.66 266.39,257.66C266.39,257.66 264.87,256.14 264.87,256.14C264.87,256.14 264.7,255.98 264.7,255.98C264.7,255.98 264.7,254.29 264.7,254.29C264.7,254.29 264.7,252.61 264.7,252.61Q264.7,252.61 263.19,251.09L263.19,250.75Q264.7,249.24 264.7,249.24C264.7,249.24 264.7,247.55 264.7,247.55C264.7,247.55 264.7,245.87 264.7,245.87C264.7,245.87 264.87,245.7 264.87,245.7C264.87,245.7 266.39,244.19 266.39,244.19C266.39,244.19 266.56,244.02 266.56,244.02C266.56,244.02 268.24,244.02 268.24,244.02C268.24,244.02 269.93,244.02 269.93,244.02Q269.93,244.02 271.44,242.5L271.78,242.5Q273.29,244.02 273.29,244.02C273.29,244.02 274.98,244.02 274.98,244.02C274.98,244.02 276.66,244.02 276.66,244.02C276.66,244.02 276.83,244.19 276.83,244.19C276.83,244.19 278.35,245.7 278.35,245.7C278.35,245.7 278.51,245.87 278.51,245.87C278.51,245.87 278.51,247.55 278.51,247.55C278.51,247.55 278.51,249.24 278.51,249.24Q278.51,249.24 280.03,250.75L280.03,251.09Q278.51,252.61 278.51,252.61C278.51,252.61 278.51,254.29 278.51,254.29C278.51,254.29 278.51,255.98 278.51,255.98C278.51,255.98 278.35,256.14 278.35,256.14C278.35,256.14 276.83,257.66 276.83,257.66C276.83,257.66 276.66,257.83 276.66,257.83C276.66,257.83 274.98,257.83 274.98,257.83C274.98,257.83 273.29,257.83 273.29,257.83Q273.29,257.83 271.78,259.34Z"/></clipPath><clipPath class="contourclip" id="clip8c4926"><path d="M307.23,116.19Q305.71,114.67 305.71,114.67C305.71,114.67 304.03,114.67 304.03,114.67C304.03,114.67 302.35,114.67 302.35,114.67C302.35,114.67 302.18,114.5 302.18,114.5C302.18,114.5 300.66,112.99 300.66,112.99C300.66,112.99 300.49,112.82 300.49,112.82C300.49,112.82 300.49,111.14 300.49,111.14C300.49,111.14 300.49,109.45 300.49,109.45Q300.49,109.45 298.98,107.94L298.98,107.6Q300.49,106.08 300.49,106.08C300.49,106.08 300.49,104.4 300.49,104.4C300.49,104.4 300.49,102.72 300.49,102.72C300.49,102.72 300.66,102.55 300.66,102.55C300.66,102.55 302.18,101.03 302.18,101.03C302.18,101.03 302.35,100.86 302.35,100.86C302.35,100.86 304.03,100.86 304.03,100.86C304.03,100.86 305.71,100.86 305.71,100.86Q305.71,100.86 307.23,99.35L307.57,99.35Q309.08,100.86 309.08,100.86C309.08,100.86 310.77,100.86 310.77,100.86C310.77,100.86 312.45,100.86 312.45,100.86C312.45,100.86 312.62,101.03 312.62,101.03C312.62,101.03 314.13,102.55 314.13,102.55C314.13,102.55 314.3,102.72 314.3,102.72C314.3,102.72 314.3,104.4 314.3,104.4C314.3,104.4 314.3,106.08 314.3,106.08Q314.3,106.08 315.82,107.6L315.82,107.94Q314.3,109.45 314.3,109.45C314.3,109.45 314.3,111.14 314.3,111.14C314.3,111.14 314.3,112.82 314.3,112.82C314.3,112.82 314.13,112.99 314.13,112.99C314.13,112.99 312.62,114.5 312.62,114.5C312.62,114.5 312.45,114.67 312.45,114.67C312.45,114.67 310.77,114.67 310.77,114.67C310.77,114.67 309.08,114.67 309.08,114.67Q309.08,114.67 307.57,116.19Z"/></clipPath><clipPath class="contourclip" id="clipd31ec6"><path d="M296.49,524.18Q294.98,522.66 294.98,522.66C294.98,522.66 293.29,522.66 293.29,522.66C293.29,522.66 291.61,522.66 291.61,522.66C291.61,522.66 291.44,522.5 291.44,522.5C291.44,522.5 289.92,520.98 289.92,520.98C289.92,520.98 289.76,520.81 289.76,520.81C289.76,520.81 289.76,519.13 289.76,519.13C289.76,519.13 289.76,517.44 289.76,517.44Q289.76,517.44 288.24,515.93L288.24,515.59Q289.76,514.07 289.76,514.07C289.76,514.07 289.76,512.39 289.76,512.39C289.76,512.39 289.76,510.71 289.76,510.71C289.76,510.71 289.92,510.54 289.92,510.54C289.92,510.54 291.44,509.02 291.44,509.02C291.44,509.02 291.61,508.85 291.61,508.85C291.61,508.85 293.29,508.85 293.29,508.85C293.29,508.85 294.98,508.85 294.98,508.85Q294.98,508.85 296.49,507.34L296.83,507.34Q298.35,508.85 298.35,508.85C298.35,508.85 300.03,508.85 300.03,508.85C300.03,508.85 301.71,508.85 301.71,508.85C301.71,508.85 301.88,509.02 301.88,509.02C301.88,509.02 303.4,510.54 303.4,510.54C303.4,510.54 303.57,510.71 303.57,510.71C303.57,510.71 303.57,512.39 303.57,512.39C303.57,512.39 303.57,514.07 303.57,514.07Q303.57,514.07 305.08,515.59L305.08,515.93Q303.57,517.44 303.57,517.44C303.57,517.44 303.57,519.13 303.57,519.13C303.57,519.13 303.57,520.81 303.57,520.81C303.57,520.81 303.4,520.98 303.4,520.98C303.4,520.98 301.88,522.5 301.88,522.5C301.88,522.5 301.71,522.66 301.71,522.66C301.71,522.66 300.03,522.66 300.03,522.66C300.03,522.66 298.35,522.66 298.35,522.66Q298.35,522.66 296.83,524.18Z"/></clipPath><clipPath class="contourclip" id="clip23cc2c"><path d="M539.86,557.58Q538.34,556.07 538.34,556.07C538.34,556.07 536.66,556.07 536.66,556.07C536.66,556.07 534.97,556.07 534.97,556.07C534.97,556.07 534.8,555.9 534.8,555.9C534.8,555.9 533.29,554.38 533.29,554.38C533.29,554.38 533.12,554.21 533.12,554.21C533.12,554.21 533.12,552.53 533.12,552.53C533.12,552.53 533.12,550.85 533.12,550.85Q533.12,550.85 531.6,549.33L531.6,548.99Q533.12,547.48 533.12,547.48C533.12,547.48 533.12,545.79 533.12,545.79C533.12,545.79 533.12,544.11 533.12,544.11C533.12,544.11 533.29,543.94 533.29,543.94C533.29,543.94 534.8,542.42 534.8,542.42C534.8,542.42 534.97,542.26 534.97,542.26C534.97,542.26 536.66,542.26 536.66,542.26C536.66,542.26 538.34,542.26 538.34,542.26Q538.34,542.26 539.86,540.74L540.19,540.74Q541.71,542.26 541.71,542.26C541.71,542.26 543.39,542.26 543.39,542.26C543.39,542.26 545.08,542.26 545.08,542.26C545.08,542.26 545.25,542.42 545.25,542.42C545.25,542.42 546.76,543.94 546.76,543.94C546.76,543.94 546.93,544.11 546.93,544.11C546.93,544.11 546.93,545.79 546.93,545.79C546.93,545.79 546.93,547.48 546.93,547.48Q546.93,547.48 548.45,548.99L548.45,549.33Q546.93,550.85 546.93,550.85C546.93,550.85 546.93,552.53 546.93,552.53C546.93,552.53 546.93,554.21 546.93,554.21C546.93,554.21 546.76,554.38 546.76,554.38C546.76,554.38 545.25,555.9 545.25,555.9C545.25,555.9 545.08,556.07 545.08,556.07C545.08,556.07 543.39,556.07 543.39,556.07C543.39,556.07 541.71,556.07 541.71,556.07Q541.71,556.07 540.19,557.58Z"/></clipPath><clipPath class="contourclip" id="clipb48152"><path d="M683.01,474.08Q681.5,472.56 681.5,472.56C681.5,472.56 679.81,472.56 679.81,472.56C679.81,472.56 678.13,472.56 678.13,472.56C678.13,472.56 677.96,472.39 677.96,472.39C677.96,472.39 676.44,470.88 676.44,470.88C676.44,470.88 676.27,470.71 676.27,470.71C676.27,470.71 676.27,469.02 676.27,469.02C676.27,469.02 676.27,467.34 676.27,467.34Q676.27,467.34 674.76,465.82L674.76,465.49Q676.27,463.97 676.27,463.97C676.27,463.97 676.27,462.29 676.27,462.29C676.27,462.29 676.27,460.6 676.27,460.6C676.27,460.6 676.44,460.43 676.44,460.43C676.44,460.43 677.96,458.92 677.96,458.92C677.96,458.92 678.13,458.75 678.13,458.75C678.13,458.75 679.81,458.75 679.81,458.75C679.81,458.75 681.5,458.75 681.5,458.75Q681.5,458.75 683.01,457.23L683.35,457.23Q684.86,458.75 684.86,458.75C684.86,458.75 686.55,458.75 686.55,458.75C686.55,458.75 688.23,458.75 688.23,458.75C688.23,458.75 688.4,458.92 688.4,458.92C688.4,458.92 689.92,460.43 689.92,460.43C689.92,460.43 690.08,460.6 690.08,460.6C690.08,460.6 690.08,462.29 690.08,462.29C690.08,462.29 690.08,463.97 690.08,463.97Q690.08,463.97 691.6,465.49L691.6,465.82Q690.08,467.34 690.08,467.34C690.08,467.34 690.08,469.02 690.08,469.02C690.08,469.02 690.08,470.71 690.08,470.71C690.08,470.71 689.92,470.88 689.92,470.88C689.92,470.88 688.4,472.39 688.4,472.39C688.4,472.39 688.23,472.56 688.23,472.56C688.23,472.56 686.55,472.56 686.55,472.56C686.55,472.56 684.86,472.56 684.86,472.56Q684.86,472.56 683.35,474.08Z"/></clipPath><clipPath class="contourclip" id="clip15da73"><path d="M468.28,366.71Q466.76,365.19 466.76,365.19C466.76,365.19 465.08,365.19 465.08,365.19C465.08,365.19 463.39,365.19 463.39,365.19C463.39,365.19 463.23,365.03 463.23,365.03C463.23,365.03 461.71,363.51 461.71,363.51C461.71,363.51 461.54,363.34 461.54,363.34C461.54,363.34 461.54,361.66 461.54,361.66C461.54,361.66 461.54,359.97 461.54,359.97Q461.54,359.97 460.03,358.46L460.03,358.12Q461.54,356.6 461.54,356.6C461.54,356.6 461.54,354.92 461.54,354.92C461.54,354.92 461.54,353.24 461.54,353.24C461.54,353.24 461.71,353.07 461.71,353.07C461.71,353.07 463.23,351.55 463.23,351.55C463.23,351.55 463.39,351.38 463.39,351.38C463.39,351.38 465.08,351.38 465.08,351.38C465.08,351.38 466.76,351.38 466.76,351.38Q466.76,351.38 468.28,349.87L468.62,349.87Q470.13,351.38 470.13,351.38C470.13,351.38 471.82,351.38 471.82,351.38C471.82,351.38 473.5,351.38 473.5,351.38C473.5,351.38 473.67,351.55 473.67,351.55C473.67,351.55 475.18,353.07 475.18,353.07C475.18,353.07 475.35,353.24 475.35,353.24C475.35,353.24 475.35,354.92 475.35,354.92C475.35,354.92 475.35,356.6 475.35,356.6Q475.35,356.6 476.87,358.12L476.87,358.46Q475.35,359.97 475.35,359.97C475.35,359.97 475.35,361.66 475.35,361.66C475.35,361.66 475.35,363.34 475.35,363.34C475.35,363.34 475.18,363.51 475.18,363.51C475.18,363.51 473.67,365.03 473.67,365.03C473.67,365.03 473.5,365.19 473.5,365.19C473.5,365.19 471.82,365.19 471.82,365.19C471.82,365.19 470.13,365.19 470.13,365.19Q470.13,365.19 468.62,366.71Z"/></clipPath><clipPath class="contourclip" id="clip8e3f46"><path d="M611.43,151.98Q609.92,150.46 609.92,150.46C609.92,150.46 608.23,150.46 608.23,150.46C608.23,150.46 606.55,150.46 606.55,150.46C606.55,150.46 606.38,150.29 606.38,150.29C606.38,150.29 604.87,148.78 604.87,148.78C604.87,148.78 604.7,148.61 604.7,148.61C604.7,148.61 604.7,146.92 604.7,146.92C604.7,146.92 604.7,145.24 604.7,145.24Q604.7,145.24 603.18,143.73L603.18,143.39Q604.7,141.87 604.7,141.87C604.7,141.87 604.7,140.19 604.7,140.19C604.7,140.19 604.7,138.5 604.7,138.5C604.7,138.5 604.87,138.34 604.87,138.34C604.87,138.34 606.38,136.82 606.38,136.82C606.38,136.82 606.55,136.65 606.55,136.65C606.55,136.65 608.23,136.65 608.23,136.65C608.23,136.65 609.92,136.65 609.92,136.65Q609.92,136.65 611.43,135.14L611.77,135.14Q613.29,136.65 613.29,136.65C613.29,136.65 614.97,136.65 614.97,136.65C614.97,136.65 616.65,136.65 616.65,136.65C616.65,136.65 616.82,136.82 616.82,136.82C616.82,136.82 618.34,138.34 618.34,138.34C618.34,138.34 618.51,138.5 618.51,138.5C618.51,138.5 618.51,140.19 618.51,140.19C618.51,140.19 618.51,141.87 618.51,141.87Q618.51,141.87 620.02,143.39L620.02,143.73Q618.51,145.24 618.51,145.24C618.51,145.24 618.51,146.92 618.51,146.92C618.51,146.92 618.51,148.61 618.51,148.61C618.51,148.61 618.34,148.78 618.34,148.78C618.34,148.78 616.82,150.29 616.82,150.29C616.82,150.29 616.65,150.46 616.65,150.46C616.65,150.46 614.97,150.46 614.97,150.46C614.97,150.46 613.29,150.46 613.29,150.46Q613.29,150.46 611.77,151.98Z"/></clipPath></g><g class="gradients"/><g class="patterns"/></defs><g class="bglayer"/><g class="layer-below"><g class="imagelayer"/><g class="shapelayer"/></g><g class="cartesianlayer"><g class="subplot xy"><g class="layer-subplot"><g class="shapelayer"/><g class="imagelayer"/></g><g class="minor-gridlayer"><g class="x"/><g class="y"/></g><g class="gridlayer"><g class="x"><path class="xgrid crisp" transform="translate(114.56,0)" d="M0,152v645" style="stroke: rgb(211, 211, 211); stroke-opacity: 1; stroke-width: 1px;"/><path class="xgrid crisp" transform="translate(257.72,0)" d="M0,152v645" style="stroke: rgb(211, 211, 211); stroke-opacity: 1; stroke-width: 1px;"/><path class="xgrid crisp" transform="translate(400.87,0)" d="M0,152v645" style="stroke: rgb(211, 211, 211); stroke-opacity: 1; stroke-width: 1px;"/><path class="xgrid crisp" transform="translate(544.02,0)" d="M0,152v645" style="stroke: rgb(211, 211, 211); stroke-opacity: 1; stroke-width: 1px;"/><path class="xgrid crisp" transform="translate(687.18,0)" d="M0,152v645" style="stroke: rgb(211, 211, 211); stroke-opacity: 1; stroke-width: 1px;"/><path class="xgrid crisp" transform="translate(830.33,0)" d="M0,152v645" style="stroke: rgb(211, 211, 211); stroke-opacity: 1; stroke-width: 1px;"/></g><g class="y"><path class="ygrid crisp" transform="translate(0,725.02)" d="M4,0h919" style="stroke: rgb(211, 211, 211); stroke-opacity: 1; stroke-width: 1px;"/><path class="ygrid crisp" transform="translate(0,581.87)" d="M4,0h919" style="stroke: rgb(211, 211, 211); stroke-opacity: 1; stroke-width: 1px;"/><path class="ygrid crisp" transform="translate(0,438.71)" d="M4,0h919" style="stroke: rgb(211, 211, 211); stroke-opacity: 1; stroke-width: 1px;"/><path class="ygrid crisp" transform="translate(0,295.56)" d="M4,0h919" style="stroke: rgb(211, 211, 211); stroke-opacity: 1; stroke-width: 1px;"/></g></g><g class="zerolinelayer"/><g class="layer-between"><g class="shapelayer"/><g class="imagelayer"/></g><path class="xlines-below"/><path class="ylines-below"/><g class="overlines-below"/><g class="xaxislayer-below"/><g class="yaxislayer-below"/><g class="overaxes-below"/><g class="plot" transform="translate(4,152)" clip-path="url(#clip07d74axyplot)"><g class="contourlayer mlayer"><g class="contour" clip-path="url(#clipeb7405)" style="opacity: 1;"><g class="heatmapcoloring"/><g class="contourbg"><path d="M782.12,290.22L798.97,290.22L798.97,307.06L782.12,307.06Z" style="stroke: none; fill: rgb(68, 1, 84);"/></g><g class="contourfill"/><g class="contourlines"><g class="contourlevel"/><g class="contourlevel"/><g class="contourlevel"/><g class="contourlevel"/><g class="contourlevel"/><g class="contourlevel"/><g class="contourlevel"/><g class="contourlevel"/><g class="contourlevel"/><g class="contourlevel"/><g class="contourlevel"/><g class="contourlevel"/><g class="contourlevel"/></g></g><g class="contour" clip-path="url(#clipc67f2a)" style="opacity: 1;"><g class="heatmapcoloring"/><g class="contourbg"><path d="M102.14,314.08L118.98,314.08L118.98,330.92L102.14,330.92Z" style="stroke: none; fill: rgb(68, 1, 84);"/></g><g class="contourfill"><path d="M102.14,314.08L118.98,314.08L118.98,330.92L102.14,330.92Z" style="stroke: none; fill: rgb(70, 16, 98);"/><path d="M102.14,314.08L118.98,314.08L118.98,330.92L102.14,330.92Z" style="stroke: none; fill: rgb(71, 44, 122);"/><path d="M102.14,314.08L118.98,314.08L118.98,330.92L102.14,330.92Z" style="stroke: none; fill: rgb(63, 69, 135);"/><path d="M102.14,314.08L118.98,314.08L118.98,330.92L102.14,330.92Z" style="stroke: none; fill: rgb(54, 92, 140);"/><path d="M102.14,314.08L118.98,314.08L118.98,330.92L102.14,330.92Z" style="stroke: none; fill: rgb(45, 114, 142);"/><path d="M102.14,314.08L118.98,314.08L118.98,330.92L102.14,330.92Z" style="stroke: none; fill: rgb(37, 134, 141);"/><path d="M102.14,314.08L118.98,314.08L118.98,330.92L102.14,330.92Z" style="stroke: none; fill: rgb(32, 155, 138);"/><path d="M102.14,314.08L118.98,314.08L118.98,330.92L102.14,330.92Z" style="stroke: none; fill: rgb(45, 174, 127);"/><path d="M102.14,314.08L118.98,314.08L118.98,330.92L102.14,330.92Z" style="stroke: none; fill: rgb(74, 192, 109);"/><path d="M102.14,314.08L118.98,314.08L118.98,330.92L102.14,330.92Z" style="stroke: none; fill: rgb(119, 208, 82);"/><path d="M102.14,314.08L118.98,314.08L118.98,330.92L102.14,330.92Z" style="stroke: none; fill: rgb(172, 220, 49);"/><path d="M102.14,314.08L118.98,314.08L118.98,330.92L102.14,330.92Z" style="stroke: none; fill: rgb(226, 228, 39);"/><path d="M102.14,314.08L118.98,314.08L118.98,330.92L102.14,330.92Z" style="stroke: none; fill: rgb(253, 231, 37);"/></g><g class="contourlines"><g class="contourlevel"/><g class="contourlevel"/><g class="contourlevel"/><g class="contourlevel"/><g class="contourlevel"/><g class="contourlevel"/><g class="contourlevel"/><g class="contourlevel"/><g class="contourlevel"/><g class="contourlevel"/><g class="contourlevel"/><g class="contourlevel"/><g class="contourlevel"/></g></g><g class="contour" clip-path="url(#clip3cff60)" style="opacity: 1;"><g class="heatmapcoloring"/><g class="contourbg"><path d="M263.19,242.5L280.03,242.5L280.03,259.34L263.19,259.34Z" style="stroke: none; fill: rgb(68, 1, 84);"/></g><g class="contourfill"><path d="M263.19,242.5L280.03,242.5L280.03,259.34L263.19,259.34Z" style="stroke: none; fill: rgb(70, 16, 98);"/><path d="M263.19,242.5L280.03,242.5L280.03,259.34L263.19,259.34Z" style="stroke: none; fill: rgb(71, 44, 122);"/><path d="M263.19,242.5L280.03,242.5L280.03,259.34L263.19,259.34Z" style="stroke: none; fill: rgb(63, 69, 135);"/><path d="M263.19,242.5L280.03,242.5L280.03,259.34L263.19,259.34Z" style="stroke: none; fill: rgb(54, 92, 140);"/><path d="M263.19,242.5L280.03,242.5L280.03,259.34L263.19,259.34Z" style="stroke: none; fill: rgb(45, 114, 142);"/><path d="M263.19,242.5L280.03,242.5L280.03,259.34L263.19,259.34Z" style="stroke: none; fill: rgb(37, 134, 141);"/><path d="M263.19,242.5L280.03,242.5L280.03,259.34L263.19,259.34Z" style="stroke: none; fill: rgb(32, 155, 138);"/><path d="M263.19,242.5L280.03,242.5L280.03,259.34L263.19,259.34Z" style="stroke: none; fill: rgb(45, 174, 127);"/><path d="M263.19,242.5L280.03,242.5L280.03,259.34L263.19,259.34Z" style="stroke: none; fill: rgb(74, 192, 109);"/><path d="M263.19,242.5L280.03,242.5L280.03,259.34L263.19,259.34Z" style="stroke: none; fill: rgb(119, 208, 82);"/><path d="M263.19,242.5L280.03,242.5L280.03,259.34L263.19,259.34Z" style="stroke: none; fill: rgb(172, 220, 49);"/><path d="M263.19,242.5L280.03,242.5L280.03,259.34L263.19,259.34Z" style="stroke: none; fill: rgb(226, 228, 39);"/><path d="M263.19,242.5L280.03,242.5L280.03,259.34L263.19,259.34Z" style="stroke: none; fill: rgb(253, 231, 37);"/></g><g class="contourlines"><g class="contourlevel"/><g class="contourlevel"/><g class="contourlevel"/><g class="contourlevel"/><g class="contourlevel"/><g class="contourlevel"/><g class="contourlevel"/><g class="contourlevel"/><g class="contourlevel"/><g class="contourlevel"/><g class="contourlevel"/><g class="contourlevel"/><g class="contourlevel"/></g></g><g class="contour" clip-path="url(#clip8c4926)" style="opacity: 1;"><g class="heatmapcoloring"/><g class="contourbg"><path d="M298.98,99.35L315.82,99.35L315.82,116.19L298.98,116.19Z" style="stroke: none; fill: rgb(68, 1, 84);"/></g><g class="contourfill"><path d="M298.98,99.35L315.82,99.35L315.82,116.19L298.98,116.19Z" style="stroke: none; fill: rgb(70, 16, 98);"/><path d="M298.98,99.35L315.82,99.35L315.82,116.19L298.98,116.19Z" style="stroke: none; fill: rgb(71, 44, 122);"/><path d="M298.98,99.35L315.82,99.35L315.82,116.19L298.98,116.19Z" style="stroke: none; fill: rgb(63, 69, 135);"/><path d="M298.98,99.35L315.82,99.35L315.82,116.19L298.98,116.19Z" style="stroke: none; fill: rgb(54, 92, 140);"/><path d="M298.98,99.35L315.82,99.35L315.82,116.19L298.98,116.19Z" style="stroke: none; fill: rgb(45, 114, 142);"/><path d="M298.98,99.35L315.82,99.35L315.82,116.19L298.98,116.19Z" style="stroke: none; fill: rgb(37, 134, 141);"/><path d="M298.98,99.35L315.82,99.35L315.82,116.19L298.98,116.19Z" style="stroke: none; fill: rgb(32, 155, 138);"/><path d="M298.98,99.35L315.82,99.35L315.82,116.19L298.98,116.19Z" style="stroke: none; fill: rgb(45, 174, 127);"/><path d="M298.98,99.35L315.82,99.35L315.82,116.19L298.98,116.19Z" style="stroke: none; fill: rgb(74, 192, 109);"/><path d="M298.98,99.35L315.82,99.35L315.82,116.19L298.98,116.19Z" style="stroke: none; fill: rgb(119, 208, 82);"/><path d="M298.98,99.35L315.82,99.35L315.82,116.19L298.98,116.19Z" style="stroke: none; fill: rgb(172, 220, 49);"/><path d="M298.98,99.35L315.82,99.35L315.82,116.19L298.98,116.19Z" style="stroke: none; fill: rgb(226, 228, 39);"/><path d="M298.98,99.35L315.82,99.35L315.82,116.19L298.98,116.19Z" style="stroke: none; fill: rgb(253, 231, 37);"/></g><g class="contourlines"><g class="contourlevel"/><g class="contourlevel"/><g class="contourlevel"/><g class="contourlevel"/><g class="contourlevel"/><g class="contourlevel"/><g class="contourlevel"/><g class="contourlevel"/><g class="contourlevel"/><g class="contourlevel"/><g class="contourlevel"/><g class="contourlevel"/><g class="contourlevel"/></g></g><g class="contour" clip-path="url(#clipd31ec6)" style="opacity: 1;"><g class="heatmapcoloring"/><g class="contourbg"><path d="M288.24,507.34L305.08,507.34L305.08,524.18L288.24,524.18Z" style="stroke: none; fill: rgb(68, 1, 84);"/></g><g class="contourfill"><path d="M288.24,507.34L305.08,507.34L305.08,524.18L288.24,524.18Z" style="stroke: none; fill: rgb(70, 16, 98);"/><path d="M288.24,507.34L305.08,507.34L305.08,524.18L288.24,524.18Z" style="stroke: none; fill: rgb(71, 44, 122);"/><path d="M288.24,507.34L305.08,507.34L305.08,524.18L288.24,524.18Z" style="stroke: none; fill: rgb(63, 69, 135);"/><path d="M288.24,507.34L305.08,507.34L305.08,524.18L288.24,524.18Z" style="stroke: none; fill: rgb(54, 92, 140);"/><path d="M288.24,507.34L305.08,507.34L305.08,524.18L288.24,524.18Z" style="stroke: none; fill: rgb(45, 114, 142);"/><path d="M288.24,507.34L305.08,507.34L305.08,524.18L288.24,524.18Z" style="stroke: none; fill: rgb(37, 134, 141);"/><path d="M288.24,507.34L305.08,507.34L305.08,524.18L288.24,524.18Z" style="stroke: none; fill: rgb(32, 155, 138);"/><path d="M288.24,507.34L305.08,507.34L305.08,524.18L288.24,524.18Z" style="stroke: none; fill: rgb(45, 174, 127);"/><path d="M288.24,507.34L305.08,507.34L305.08,524.18L288.24,524.18Z" style="stroke: none; fill: rgb(74, 192, 109);"/><path d="M288.24,507.34L305.08,507.34L305.08,524.18L288.24,524.18Z" style="stroke: none; fill: rgb(119, 208, 82);"/><path d="M288.24,507.34L305.08,507.34L305.08,524.18L288.24,524.18Z" style="stroke: none; fill: rgb(172, 220, 49);"/></g><g class="contourlines"><g class="contourlevel"/><g class="contourlevel"/><g class="contourlevel"/><g class="contourlevel"/><g class="contourlevel"/><g class="contourlevel"/><g class="contourlevel"/><g class="contourlevel"/><g class="contourlevel"/><g class="contourlevel"/><g class="contourlevel"/><g class="contourlevel"/><g class="contourlevel"/></g></g><g class="contour" clip-path="url(#clip23cc2c)" style="opacity: 1;"><g class="heatmapcoloring"/><g class="contourbg"><path d="M531.6,540.74L548.45,540.74L548.45,557.58L531.6,557.58Z" style="stroke: none; fill: rgb(68, 1, 84);"/></g><g class="contourfill"><path d="M531.6,540.74L548.45,540.74L548.45,557.58L531.6,557.58Z" style="stroke: none; fill: rgb(70, 16, 98);"/><path d="M531.6,540.74L548.45,540.74L548.45,557.58L531.6,557.58Z" style="stroke: none; fill: rgb(71, 44, 122);"/><path d="M531.6,540.74L548.45,540.74L548.45,557.58L531.6,557.58Z" style="stroke: none; fill: rgb(63, 69, 135);"/><path d="M531.6,540.74L548.45,540.74L548.45,557.58L531.6,557.58Z" style="stroke: none; fill: rgb(54, 92, 140);"/><path d="M531.6,540.74L548.45,540.74L548.45,557.58L531.6,557.58Z" style="stroke: none; fill: rgb(45, 114, 142);"/><path d="M531.6,540.74L548.45,540.74L548.45,557.58L531.6,557.58Z" style="stroke: none; fill: rgb(37, 134, 141);"/></g><g class="contourlines"><g class="contourlevel"/><g class="contourlevel"/><g class="contourlevel"/><g class="contourlevel"/><g class="contourlevel"/><g class="contourlevel"/><g class="contourlevel"/><g class="contourlevel"/><g class="contourlevel"/><g class="contourlevel"/><g class="contourlevel"/><g class="contourlevel"/><g class="contourlevel"/></g></g><g class="contour" clip-path="url(#clipb48152)" style="opacity: 1;"><g class="heatmapcoloring"/><g class="contourbg"><path d="M674.76,457.23L691.6,457.23L691.6,474.08L674.76,474.08Z" style="stroke: none; fill: rgb(68, 1, 84);"/></g><g class="contourfill"><path d="M674.76,457.23L691.6,457.23L691.6,474.08L674.76,474.08Z" style="stroke: none; fill: rgb(70, 16, 98);"/><path d="M674.76,457.23L691.6,457.23L691.6,474.08L674.76,474.08Z" style="stroke: none; fill: rgb(71, 44, 122);"/><path d="M674.76,457.23L691.6,457.23L691.6,474.08L674.76,474.08Z" style="stroke: none; fill: rgb(63, 69, 135);"/><path d="M674.76,457.23L691.6,457.23L691.6,474.08L674.76,474.08Z" style="stroke: none; fill: rgb(54, 92, 140);"/></g><g class="contourlines"><g class="contourlevel"/><g class="contourlevel"/><g class="contourlevel"/><g class="contourlevel"/><g class="contourlevel"/><g class="contourlevel"/><g class="contourlevel"/><g class="contourlevel"/><g class="contourlevel"/><g class="contourlevel"/><g class="contourlevel"/><g class="contourlevel"/><g class="contourlevel"/></g></g><g class="contour" clip-path="url(#clip15da73)" style="opacity: 1;"><g class="heatmapcoloring"/><g class="contourbg"><path d="M460.03,349.87L476.87,349.87L476.87,366.71L460.03,366.71Z" style="stroke: none; fill: rgb(68, 1, 84);"/></g><g class="contourfill"><path d="M460.03,349.87L476.87,349.87L476.87,366.71L460.03,366.71Z" style="stroke: none; fill: rgb(70, 16, 98);"/><path d="M460.03,349.87L476.87,349.87L476.87,366.71L460.03,366.71Z" style="stroke: none; fill: rgb(71, 44, 122);"/><path d="M460.03,349.87L476.87,349.87L476.87,366.71L460.03,366.71Z" style="stroke: none; fill: rgb(63, 69, 135);"/><path d="M460.03,349.87L476.87,349.87L476.87,366.71L460.03,366.71Z" style="stroke: none; fill: rgb(54, 92, 140);"/><path d="M460.03,349.87L476.87,349.87L476.87,366.71L460.03,366.71Z" style="stroke: none; fill: rgb(45, 114, 142);"/><path d="M460.03,349.87L476.87,349.87L476.87,366.71L460.03,366.71Z" style="stroke: none; fill: rgb(37, 134, 141);"/><path d="M460.03,349.87L476.87,349.87L476.87,366.71L460.03,366.71Z" style="stroke: none; fill: rgb(32, 155, 138);"/><path d="M460.03,349.87L476.87,349.87L476.87,366.71L460.03,366.71Z" style="stroke: none; fill: rgb(45, 174, 127);"/><path d="M460.03,349.87L476.87,349.87L476.87,366.71L460.03,366.71Z" style="stroke: none; fill: rgb(74, 192, 109);"/></g><g class="contourlines"><g class="contourlevel"/><g class="contourlevel"/><g class="contourlevel"/><g class="contourlevel"/><g class="contourlevel"/><g class="contourlevel"/><g class="contourlevel"/><g class="contourlevel"/><g class="contourlevel"/><g class="contourlevel"/><g class="contourlevel"/><g class="contourlevel"/><g class="contourlevel"/></g></g><g class="contour" clip-path="url(#clip8e3f46)" style="opacity: 1;"><g class="heatmapcoloring"/><g class="contourbg"><path d="M603.18,135.14L620.02,135.14L620.02,151.98L603.18,151.98Z" style="stroke: none; fill: rgb(68, 1, 84);"/></g><g class="contourfill"><path d="M603.18,135.14L620.02,135.14L620.02,151.98L603.18,151.98Z" style="stroke: none; fill: rgb(70, 16, 98);"/><path d="M603.18,135.14L620.02,135.14L620.02,151.98L603.18,151.98Z" style="stroke: none; fill: rgb(71, 44, 122);"/><path d="M603.18,135.14L620.02,135.14L620.02,151.98L603.18,151.98Z" style="stroke: none; fill: rgb(63, 69, 135);"/><path d="M603.18,135.14L620.02,135.14L620.02,151.98L603.18,151.98Z" style="stroke: none; fill: rgb(54, 92, 140);"/><path d="M603.18,135.14L620.02,135.14L620.02,151.98L603.18,151.98Z" style="stroke: none; fill: rgb(45, 114, 142);"/></g><g class="contourlines"><g class="contourlevel"/><g class="contourlevel"/><g class="contourlevel"/><g class="contourlevel"/><g class="contourlevel"/><g class="contourlevel"/><g class="contourlevel"/><g class="contourlevel"/><g class="contourlevel"/><g class="contourlevel"/><g class="contourlevel"/><g class="contourlevel"/><g class="contourlevel"/></g></g></g><g class="scatterlayer mlayer"><g class="trace scatter tracebe23e5" style="stroke-miterlimit: 2;"><g class="fills"><g><path class="js-fill" d="M790.55,286.71L790.55,286.71L790.55,290.22L793.99,290.96L794.04,290.98L797.07,293.32L797.11,293.36L798.83,297.13L798.84,297.18L798.6,301.11L798.58,301.16L796.74,304.34L796.71,304.38L793.87,306.38L793.82,306.4L790.2,307.05L790.15,307.05L786.65,306.11L786.6,306.08L784.04,303.98L784,303.94L782.43,300.9L782.42,300.85L782.23,297.28L782.24,297.23L783.64,293.83L783.67,293.78L786.21,291.42L786.25,291.39L790.17,290.23L790.23,290.23L790.55,290.22" style="fill: rgb(0, 0, 0); fill-opacity: 0; stroke-width: 0;"/></g></g><g class="errorbars"/><g class="lines"><path class="js-line" d="M790.55,290.22L793.99,290.96L794.04,290.98L797.07,293.32L797.11,293.36L798.83,297.13L798.84,297.18L798.6,301.11L798.58,301.16L796.74,304.34L796.71,304.38L793.87,306.38L793.82,306.4L790.2,307.05L790.15,307.05L786.65,306.11L786.6,306.08L784.04,303.98L784,303.94L782.43,300.9L782.42,300.85L782.23,297.28L782.24,297.23L783.64,293.83L783.67,293.78L786.21,291.42L786.25,291.39L790.17,290.23L790.23,290.23L790.55,290.22" style="vector-effect: none; fill: none; stroke: rgb(0, 0, 0); stroke-opacity: 1; stroke-width: 3px; opacity: 1;"/></g><g class="points"/><g class="text"/></g><g class="trace scatter trace47b3e6" style="stroke-miterlimit: 2; opacity: 1;"><g class="fills"/><g class="errorbars"/><g class="lines"/><g class="points"/><g class="text"><g class="textpoint" transform="translate(0,10)"><text x="790.55" y="273.59" text-anchor="middle" style="font-family: 'Open Sans', verdana, arial, sans-serif; font-size: 40px; fill: rgb(42, 63, 95); fill-opacity: 1; white-space: pre;"><tspan style="font-style:italic">t</tspan></text></g></g></g><g class="trace scatter trace3fb0a0" style="stroke-miterlimit: 2;"><g class="fills"><g><path class="js-fill" d="M110.56,286.71L110.56,286.71L110.56,314.08L114,314.82L114.05,314.84L116.63,316.66L116.67,316.7L118.56,319.86L118.57,319.91L118.94,323.36L118.93,323.41L117.77,326.85L117.74,326.89L115.49,329.33L115.45,329.36L112.11,330.78L112.06,330.79L108.18,330.58L108.13,330.56L105.25,329.04L105.21,329L102.99,326.2L102.97,326.15L102.14,322.62L102.14,322.57L102.89,319.02L102.91,318.97L105.23,315.98L105.27,315.95L108.31,314.39L108.36,314.37L110.56,314.08" style="fill: rgb(0, 0, 0); fill-opacity: 0; stroke-width: 0;"/></g></g><g class="errorbars"/><g class="lines"><path class="js-line" d="M110.56,314.08L114,314.82L114.05,314.84L116.63,316.66L116.67,316.7L118.56,319.86L118.57,319.91L118.94,323.36L118.93,323.41L117.77,326.85L117.74,326.89L115.49,329.33L115.45,329.36L112.11,330.78L112.06,330.79L108.18,330.58L108.13,330.56L105.25,329.04L105.21,329L102.99,326.2L102.97,326.15L102.14,322.62L102.14,322.57L102.89,319.02L102.91,318.97L105.23,315.98L105.27,315.95L108.31,314.39L108.36,314.37L110.56,314.08" style="vector-effect: none; fill: none; stroke: rgb(0, 0, 0); stroke-opacity: 1; stroke-width: 3px; opacity: 1;"/></g><g class="points"/><g class="text"/></g><g class="trace scatter trace3943fc" style="stroke-miterlimit: 2; opacity: 1;"><g class="fills"/><g class="errorbars"/><g class="lines"/><g class="points"/><g class="text"><g class="textpoint" transform="translate(0,10)"><text x="110.56" y="297.45" text-anchor="middle" style="font-family: 'Open Sans', verdana, arial, sans-serif; font-size: 40px; fill: rgb(42, 63, 95); fill-opacity: 1; white-space: pre;"><tspan style="font-style:italic">s</tspan></text></g></g></g><g class="trace scatter trace746724" style="stroke-miterlimit: 2;"><g class="fills"><g><path class="js-fill" d="M271.61,286.71L271.61,286.71L271.61,242.5L275.05,243.24L275.1,243.26L277.97,245.4L278,245.44L279.71,248.63L279.73,248.69L279.92,252.31L279.91,252.36L278.53,255.71L278.5,255.76L275.97,258.13L275.92,258.16L272.69,259.27L272.64,259.28L269.13,258.97L269.08,258.95L266.3,257.46L266.26,257.42L264.04,254.62L264.02,254.57L263.2,251.31L263.2,251.25L263.74,247.93L263.76,247.88L265.76,244.86L265.8,244.82L269.31,242.82L269.36,242.81L271.61,242.5" style="fill: rgb(0, 0, 0); fill-opacity: 0; stroke-width: 0;"/></g></g><g class="errorbars"/><g class="lines"><path class="js-line" d="M271.61,242.5L275.05,243.24L275.1,243.26L277.97,245.4L278,245.44L279.71,248.63L279.73,248.69L279.92,252.31L279.91,252.36L278.53,255.71L278.5,255.76L275.97,258.13L275.92,258.16L272.69,259.27L272.64,259.28L269.13,258.97L269.08,258.95L266.3,257.46L266.26,257.42L264.04,254.62L264.02,254.57L263.2,251.31L263.2,251.25L263.74,247.93L263.76,247.88L265.76,244.86L265.8,244.82L269.31,242.82L269.36,242.81L271.61,242.5" style="vector-effect: none; fill: none; stroke: rgb(0, 0, 0); stroke-opacity: 1; stroke-width: 3px; opacity: 1;"/></g><g class="points"/><g class="text"/></g><g class="trace scatter trace81e005" style="stroke-miterlimit: 2;"><g class="fills"><g><path class="js-fill" d="M307.4,286.71L307.4,286.71L307.4,99.35L310.84,100.08L310.89,100.11L313.61,102.09L313.65,102.13L315.38,105.08L315.39,105.13L315.78,108.63L315.77,108.68L314.61,112.12L314.58,112.16L312.33,114.59L312.29,114.62L308.95,116.04L308.9,116.05L305.43,115.96L305.38,115.94L302.09,114.3L302.05,114.27L299.98,111.75L299.95,111.7L298.98,108.1L298.98,108.05L299.73,104.29L299.75,104.24L302.07,101.25L302.11,101.22L305.15,99.65L305.2,99.64L307.4,99.35" style="fill: rgb(0, 0, 0); fill-opacity: 0; stroke-width: 0;"/></g></g><g class="errorbars"/><g class="lines"><path class="js-line" d="M307.4,99.35L310.84,100.08L310.89,100.11L313.61,102.09L313.65,102.13L315.38,105.08L315.39,105.13L315.78,108.63L315.77,108.68L314.61,112.12L314.58,112.16L312.33,114.59L312.29,114.62L308.95,116.04L308.9,116.05L305.43,115.96L305.38,115.94L302.09,114.3L302.05,114.27L299.98,111.75L299.95,111.7L298.98,108.1L298.98,108.05L299.73,104.29L299.75,104.24L302.07,101.25L302.11,101.22L305.15,99.65L305.2,99.64L307.4,99.35" style="vector-effect: none; fill: none; stroke: rgb(0, 0, 0); stroke-opacity: 1; stroke-width: 3px; opacity: 1;"/></g><g class="points"/><g class="text"/></g><g class="trace scatter traced66afc" style="stroke-miterlimit: 2;"><g class="fills"><g><path class="js-fill" d="M296.66,286.71L296.66,286.71L296.66,507.34L300.11,508.07L300.15,508.1L302.73,509.92L302.77,509.96L304.66,513.12L304.67,513.17L305.04,516.62L305.03,516.67L303.85,520.15L303.82,520.2L301.02,522.96L300.97,522.99L297.74,524.11L297.69,524.12L293.73,523.65L293.68,523.63L290.95,521.95L290.91,521.91L288.78,518.73L288.76,518.68L288.28,514.93L288.29,514.87L289.49,511.34L289.52,511.3L291.71,508.95L291.75,508.92L295.13,507.48L295.19,507.47L296.66,507.34" style="fill: rgb(0, 0, 0); fill-opacity: 0; stroke-width: 0;"/></g></g><g class="errorbars"/><g class="lines"><path class="js-line" d="M296.66,507.34L300.11,508.07L300.15,508.1L302.73,509.92L302.77,509.96L304.66,513.12L304.67,513.17L305.04,516.62L305.03,516.67L303.85,520.15L303.82,520.2L301.02,522.96L300.97,522.99L297.74,524.11L297.69,524.12L293.73,523.65L293.68,523.63L290.95,521.95L290.91,521.91L288.78,518.73L288.76,518.68L288.28,514.93L288.29,514.87L289.49,511.34L289.52,511.3L291.71,508.95L291.75,508.92L295.13,507.48L295.19,507.47L296.66,507.34" style="vector-effect: none; fill: none; stroke: rgb(0, 0, 0); stroke-opacity: 1; stroke-width: 3px; opacity: 1;"/></g><g class="points"/><g class="text"/></g><g class="trace scatter trace6e7cfb" style="stroke-miterlimit: 2;"><g class="fills"><g><path class="js-fill" d="M540.02,286.71L540.02,286.71L540.02,540.74L543.47,541.48L543.52,541.5L546.55,543.84L546.58,543.88L548.22,547.23L548.23,547.28L548.31,550.65L548.3,550.7L546.92,554L546.89,554.04L544.02,556.58L543.97,556.6L540.37,557.58L540.32,557.58L536.56,556.83L536.51,556.81L533.94,554.98L533.9,554.94L532.04,551.83L532.02,551.78L531.64,548.33L531.65,548.28L532.83,544.79L532.85,544.75L535.42,542.11L535.46,542.08L539.18,540.78L539.23,540.78L540.02,540.74" style="fill: rgb(0, 0, 0); fill-opacity: 0; stroke-width: 0;"/></g></g><g class="errorbars"/><g class="lines"><path class="js-line" d="M540.02,540.74L543.47,541.48L543.52,541.5L546.55,543.84L546.58,543.88L548.22,547.23L548.23,547.28L548.31,550.65L548.3,550.7L546.92,554L546.89,554.04L544.02,556.58L543.97,556.6L540.37,557.58L540.32,557.58L536.56,556.83L536.51,556.81L533.94,554.98L533.9,554.94L532.04,551.83L532.02,551.78L531.64,548.33L531.65,548.28L532.83,544.79L532.85,544.75L535.42,542.11L535.46,542.08L539.18,540.78L539.23,540.78L540.02,540.74" style="vector-effect: none; fill: none; stroke: rgb(0, 0, 0); stroke-opacity: 1; stroke-width: 3px; opacity: 1;"/></g><g class="points"/><g class="text"/></g><g class="trace scatter tracec09cfc" style="stroke-miterlimit: 2;"><g class="fills"><g><path class="js-fill" d="M683.18,286.71L683.18,286.71L683.18,457.23L687.1,458.2L687.15,458.23L689.71,460.33L689.74,460.37L691.38,463.73L691.39,463.78L691.39,467.51L691.38,467.56L689.72,470.96L689.69,471L686.89,473.22L686.84,473.24L683.52,474.07L683.47,474.07L679.71,473.33L679.66,473.31L676.67,471L676.64,470.96L674.99,467.61L674.98,467.56L674.89,464.19L674.9,464.14L676.27,460.84L676.3,460.8L678.84,458.44L678.89,458.41L682.33,457.28L682.39,457.27L683.18,457.23" style="fill: rgb(0, 0, 0); fill-opacity: 0; stroke-width: 0;"/></g></g><g class="errorbars"/><g class="lines"><path class="js-line" d="M683.18,457.23L687.1,458.2L687.15,458.23L689.71,460.33L689.74,460.37L691.38,463.73L691.39,463.78L691.39,467.51L691.38,467.56L689.72,470.96L689.69,471L686.89,473.22L686.84,473.24L683.52,474.07L683.47,474.07L679.71,473.33L679.66,473.31L676.67,471L676.64,470.96L674.99,467.61L674.98,467.56L674.89,464.19L674.9,464.14L676.27,460.84L676.3,460.8L678.84,458.44L678.89,458.41L682.33,457.28L682.39,457.27L683.18,457.23" style="vector-effect: none; fill: none; stroke: rgb(0, 0, 0); stroke-opacity: 1; stroke-width: 3px; opacity: 1;"/></g><g class="points"/><g class="text"/></g><g class="trace scatter tracea8d07b" style="stroke-miterlimit: 2;"><g class="fills"><g><path class="js-fill" d="M468.45,286.71L468.45,286.71L468.45,349.87L471.89,350.6L471.94,350.63L474.66,352.61L474.7,352.65L476.57,356.05L476.58,356.1L476.74,359.78L476.73,359.83L475.37,363.08L475.34,363.12L472.81,365.49L472.76,365.52L469.27,366.67L469.21,366.67L466.02,366.35L465.97,366.34L462.74,364.48L462.7,364.44L460.7,361.6L460.68,361.55L460.03,357.93L460.04,357.88L460.99,354.38L461.01,354.33L463.49,351.48L463.54,351.45L466.92,350.01L466.97,350L468.45,349.87" style="fill: rgb(0, 0, 0); fill-opacity: 0; stroke-width: 0;"/></g></g><g class="errorbars"/><g class="lines"><path class="js-line" d="M468.45,349.87L471.89,350.6L471.94,350.63L474.66,352.61L474.7,352.65L476.57,356.05L476.58,356.1L476.74,359.78L476.73,359.83L475.37,363.08L475.34,363.12L472.81,365.49L472.76,365.52L469.27,366.67L469.21,366.67L466.02,366.35L465.97,366.34L462.74,364.48L462.7,364.44L460.7,361.6L460.68,361.55L460.03,357.93L460.04,357.88L460.99,354.38L461.01,354.33L463.49,351.48L463.54,351.45L466.92,350.01L466.97,350L468.45,349.87" style="vector-effect: none; fill: none; stroke: rgb(0, 0, 0); stroke-opacity: 1; stroke-width: 3px; opacity: 1;"/></g><g class="points"/><g class="text"/></g><g class="trace scatter trace719bef" style="stroke-miterlimit: 2;"><g class="fills"><g><path class="js-fill" d="M611.6,286.71L611.6,286.71L611.6,135.14L615.09,135.89L615.14,135.92L617.67,137.72L617.71,137.76L619.47,140.56L619.49,140.61L620.02,143.89L620.01,143.94L619.26,147.06L619.24,147.11L616.95,150.06L616.91,150.09L613.88,151.66L613.83,151.68L610.15,151.85L610.1,151.84L606.8,150.47L606.76,150.44L604.39,147.9L604.36,147.86L603.22,144.36L603.21,144.31L603.71,140.61L603.73,140.56L605.91,137.35L605.95,137.31L609.35,135.44L609.4,135.43L611.6,135.14" style="fill: rgb(0, 0, 0); fill-opacity: 0; stroke-width: 0;"/></g></g><g class="errorbars"/><g class="lines"><path class="js-line" d="M611.6,135.14L615.09,135.89L615.14,135.92L617.67,137.72L617.71,137.76L619.47,140.56L619.49,140.61L620.02,143.89L620.01,143.94L619.26,147.06L619.24,147.11L616.95,150.06L616.91,150.09L613.88,151.66L613.83,151.68L610.15,151.85L610.1,151.84L606.8,150.47L606.76,150.44L604.39,147.9L604.36,147.86L603.22,144.36L603.21,144.31L603.71,140.61L603.73,140.56L605.91,137.35L605.95,137.31L609.35,135.44L609.4,135.43L611.6,135.14" style="vector-effect: none; fill: none; stroke: rgb(0, 0, 0); stroke-opacity: 1; stroke-width: 3px; opacity: 1;"/></g><g class="points"/><g class="text"/></g><g class="trace scatter trace1fdd35" style="stroke-miterlimit: 2; opacity: 1;"><g class="fills"/><g class="errorbars"/><g class="lines"><path class="js-line" d="M128.87,314.36L243.19917730020492,263.5479740592536" style="vector-effect: none; fill: none; stroke: rgb(204, 204, 204); stroke-opacity: 1; stroke-width: 7px; opacity: 1;"/></g><g class="points"><path class="point" transform="translate(128.87,314.36)" d="M0,0Z" style="opacity: 1; stroke-width: 0px; fill: rgb(204, 204, 204); fill-opacity: 1;"/><path class="point" transform="translate(263.76,254.41)" d="M0,0L-24.86473511457816,2.597103710263344L-18.58945400875838,16.71622564026512Z" style="opacity: 1; stroke-width: 0px; fill: rgb(204, 204, 204); fill-opacity: 1;"/></g><g class="text"/></g><g class="trace scatter tracee05c1f" style="stroke-miterlimit: 2; opacity: 1;"><g class="fills"/><g class="errorbars"/><g class="lines"><path class="js-line" d="M124.1,307.73L286.3863898042319,130.68614593614612" style="vector-effect: none; fill: none; stroke: rgb(204, 204, 204); stroke-opacity: 1; stroke-width: 7px; opacity: 1;"/></g><g class="points"><path class="point" transform="translate(124.1,307.73)" d="M0,0Z" style="opacity: 1; stroke-width: 0px; fill: rgb(204, 204, 204); fill-opacity: 1;"/><path class="point" transform="translate(301.59,114.1)" d="M0,0L-21.761337288107303,12.306266673253536L-10.371849625087254,22.74697200408391Z" style="opacity: 1; stroke-width: 0px; fill: rgb(204, 204, 204); fill-opacity: 1;"/></g><g class="text"/></g><g class="trace scatter tracee3d37e" style="stroke-miterlimit: 2; opacity: 1;"><g class="fills"/><g class="errorbars"/><g class="lines"><path class="js-line" d="M124.46,336.94L275.09288162615763,493.36296893120544" style="vector-effect: none; fill: none; stroke: rgb(204, 204, 204); stroke-opacity: 1; stroke-width: 7px; opacity: 1;"/></g><g class="points"><path class="point" transform="translate(124.46,336.94)" d="M0,0Z" style="opacity: 1; stroke-width: 0px; fill: rgb(204, 204, 204); fill-opacity: 1;"/><path class="point" transform="translate(290.7,509.57)" d="M0,0L-10.92765608067035,-22.48524699847854L-22.057156057806328,-11.767831858145218Z" style="opacity: 1; stroke-width: 0px; fill: rgb(204, 204, 204); fill-opacity: 1;"/></g><g class="text"/></g><g class="trace scatter trace89019e" style="stroke-miterlimit: 2; opacity: 1;"><g class="fills"/><g class="errorbars"/><g class="lines"><path class="js-line" d="M289.2,260.52L441.1573496094264,343.4058270596871" style="vector-effect: none; fill: none; stroke: rgb(204, 204, 204); stroke-opacity: 1; stroke-width: 7px; opacity: 1;"/></g><g class="points"><path class="point" transform="translate(289.2,260.52)" d="M0,0Z" style="opacity: 1; stroke-width: 0px; fill: rgb(204, 204, 204); fill-opacity: 1;"/><path class="point" transform="translate(460.91,354.18)" d="M0,0L-17.17416672389522,-18.167223159851652L-24.57261859232701,-4.602870356204368Z" style="opacity: 1; stroke-width: 0px; fill: rgb(204, 204, 204); fill-opacity: 1;"/></g><g class="text"/></g><g class="trace scatter trace0f5668" style="stroke-miterlimit: 2; opacity: 1;"><g class="fills"/><g class="errorbars"/><g class="lines"><path class="js-line" d="M276.47,231.48L299.85383873432187,137.92842880838916" style="vector-effect: none; fill: none; stroke: rgb(204, 204, 204); stroke-opacity: 1; stroke-width: 7px; opacity: 1;"/></g><g class="points"><path class="point" transform="translate(276.47,231.48)" d="M0,0Z" style="opacity: 1; stroke-width: 0px; fill: rgb(204, 204, 204); fill-opacity: 1;"/><path class="point" transform="translate(305.31,116.1)" d="M0,0L-13.261390153370739,21.19281791551283L1.7281358221446368,24.940199409391663Z" style="opacity: 1; stroke-width: 0px; fill: rgb(204, 204, 204); fill-opacity: 1;"/></g><g class="text"/></g><g class="trace scatter traceb24432" style="stroke-miterlimit: 2; opacity: 1;"><g class="fills"/><g class="errorbars"/><g class="lines"><path class="js-line" d="M273.5,270.88L293.73160119080234,484.8099467303046" style="vector-effect: none; fill: none; stroke: rgb(204, 204, 204); stroke-opacity: 1; stroke-width: 7px; opacity: 1;"/></g><g class="points"><path class="point" transform="translate(273.5,270.88)" d="M0,0Z" style="opacity: 1; stroke-width: 0px; fill: rgb(204, 204, 204); fill-opacity: 1;"/><path class="point" transform="translate(295.85,507.21)" d="M0,0L5.45226945288476,-24.398212184771648L-9.92993065921613,-22.94333186577659Z" style="opacity: 1; stroke-width: 0px; fill: rgb(204, 204, 204); fill-opacity: 1;"/></g><g class="text"/></g><g class="trace scatter trace585948" style="stroke-miterlimit: 2; opacity: 1;"><g class="fills"/><g class="errorbars"/><g class="lines"><path class="js-line" d="M294.77,495.81L274.53830997016877,281.8700616711268" style="vector-effect: none; fill: none; stroke: rgb(204, 204, 204); stroke-opacity: 1; stroke-width: 7px; opacity: 1;"/></g><g class="points"><path class="point" transform="translate(294.77,495.81)" d="M0,0Z" style="opacity: 1; stroke-width: 0px; fill: rgb(204, 204, 204); fill-opacity: 1;"/><path class="point" transform="translate(272.42,259.47)" d="M0,0L-5.45125066690823,24.398439830582046L9.930888681234872,22.942917207733654Z" style="opacity: 1; stroke-width: 0px; fill: rgb(204, 204, 204); fill-opacity: 1;"/></g><g class="text"/></g><g class="trace scatter trace31fcc1" style="stroke-miterlimit: 2; opacity: 1;"><g class="fills"/><g class="errorbars"/><g class="lines"><path class="js-line" d="M318.24,124.63L451.63308093408216,332.13340282978993" style="vector-effect: none; fill: none; stroke: rgb(204, 204, 204); stroke-opacity: 1; stroke-width: 7px; opacity: 1;"/></g><g class="points"><path class="point" transform="translate(318.24,124.63)" d="M0,0Z" style="opacity: 1; stroke-width: 0px; fill: rgb(204, 204, 204); fill-opacity: 1;"/><path class="point" transform="translate(463.8,351.06)" d="M0,0L-6.358922133443931,-24.177760634533477L-19.355807206299424,-15.822538588752662Z" style="opacity: 1; stroke-width: 0px; fill: rgb(204, 204, 204); fill-opacity: 1;"/></g><g class="text"/></g><g class="trace scatter trace2002d4" style="stroke-miterlimit: 2; opacity: 1;"><g class="fills"/><g class="errorbars"/><g class="lines"><path class="js-line" d="M327.3,110.11L580.7240782177538,139.92135401742007" style="vector-effect: none; fill: none; stroke: rgb(204, 204, 204); stroke-opacity: 1; stroke-width: 7px; opacity: 1;"/></g><g class="points"><path class="point" transform="translate(327.3,110.11)" d="M0,0Z" style="opacity: 1; stroke-width: 0px; fill: rgb(204, 204, 204); fill-opacity: 1;"/><path class="point" transform="translate(603.07,142.55)" d="M0,0L-22.711085703548466,-10.450195508509704L-24.51612509835166,4.894855479171119Z" style="opacity: 1; stroke-width: 0px; fill: rgb(204, 204, 204); fill-opacity: 1;"/></g><g class="text"/></g><g class="trace scatter trace26f839" style="stroke-miterlimit: 2; opacity: 1;"><g class="fills"/><g class="errorbars"/><g class="lines"><path class="js-line" d="M316.52,518.48L509.2289921976031,544.9304295802384" style="vector-effect: none; fill: none; stroke: rgb(204, 204, 204); stroke-opacity: 1; stroke-width: 7px; opacity: 1;"/></g><g class="points"><path class="point" transform="translate(316.52,518.48)" d="M0,0Z" style="opacity: 1; stroke-width: 0px; fill: rgb(204, 204, 204); fill-opacity: 1;"/><path class="point" transform="translate(531.52,547.99)" d="M0,0L-22.50500594002606,-10.886905328852265L-24.606094659393918,4.420419167109167Z" style="opacity: 1; stroke-width: 0px; fill: rgb(204, 204, 204); fill-opacity: 1;"/></g><g class="text"/></g><g class="trace scatter trace5045d3" style="stroke-miterlimit: 2; opacity: 1;"><g class="fills"/><g class="errorbars"/><g class="lines"><path class="js-line" d="M520.17,546.44L327.4610078023969,519.9895704197615" style="vector-effect: none; fill: none; stroke: rgb(204, 204, 204); stroke-opacity: 1; stroke-width: 7px; opacity: 1;"/></g><g class="points"><path class="point" transform="translate(520.17,546.44)" d="M0,0Z" style="opacity: 1; stroke-width: 0px; fill: rgb(204, 204, 204); fill-opacity: 1;"/><path class="point" transform="translate(305.17,516.93)" d="M0,0L22.50493801452772,10.88704574079971L24.606122238583364,-4.420265645851294Z" style="opacity: 1; stroke-width: 0px; fill: rgb(204, 204, 204); fill-opacity: 1;"/></g><g class="text"/></g><g class="trace scatter trace34fab7" style="stroke-miterlimit: 2; opacity: 1;"><g class="fills"/><g class="errorbars"/><g class="lines"><path class="js-line" d="M311.44,502.22L445.5343973713687,379.2942028875288" style="vector-effect: none; fill: none; stroke: rgb(204, 204, 204); stroke-opacity: 1; stroke-width: 7px; opacity: 1;"/></g><g class="points"><path class="point" transform="translate(311.44,502.22)" d="M0,0Z" style="opacity: 1; stroke-width: 0px; fill: rgb(204, 204, 204); fill-opacity: 1;"/><path class="point" transform="translate(462.12,364.09)" d="M0,0L-22.7470789911735,10.37161498366157L-12.306491146396784,21.76121034463978Z" style="opacity: 1; stroke-width: 0px; fill: rgb(204, 204, 204); fill-opacity: 1;"/></g><g class="text"/></g><g class="trace scatter traceecf5ca" style="stroke-miterlimit: 2; opacity: 1;"><g class="fills"/><g class="errorbars"/><g class="lines"><path class="js-line" d="M557.34,539.06L656.3250937805058,481.31730215877946" style="vector-effect: none; fill: none; stroke: rgb(204, 204, 204); stroke-opacity: 1; stroke-width: 7px; opacity: 1;"/></g><g class="points"><path class="point" transform="translate(557.34,539.06)" d="M0,0Z" style="opacity: 1; stroke-width: 0px; fill: rgb(204, 204, 204); fill-opacity: 1;"/><path class="point" transform="translate(675.76,469.98)" d="M0,0L-24.429904095596505,5.308463608235172L-16.643970963035777,18.65417461539432Z" style="opacity: 1; stroke-width: 0px; fill: rgb(204, 204, 204); fill-opacity: 1;"/></g><g class="text"/></g><g class="trace scatter trace14c77b" style="stroke-miterlimit: 2; opacity: 1;"><g class="fills"/><g class="errorbars"/><g class="lines"><path class="js-line" d="M694.02,448.8L773.73328883167,324.7967308150783" style="vector-effect: none; fill: none; stroke: rgb(204, 204, 204); stroke-opacity: 1; stroke-width: 7px; opacity: 1;"/></g><g class="points"><path class="point" transform="translate(694.02,448.8)" d="M0,0Z" style="opacity: 1; stroke-width: 0px; fill: rgb(204, 204, 204); fill-opacity: 1;"/><path class="point" transform="translate(785.9,305.87)" d="M0,0L-19.355068384572768,15.823442350781693L-6.3577931961190055,24.178057524858833Z" style="opacity: 1; stroke-width: 0px; fill: rgb(204, 204, 204); fill-opacity: 1;"/></g><g class="text"/></g><g class="trace scatter trace790682" style="stroke-miterlimit: 2; opacity: 1;"><g class="fills"/><g class="errorbars"/><g class="lines"><path class="js-line" d="M665.25,456.69L496.2546117974981,372.19230589874905" style="vector-effect: none; fill: none; stroke: rgb(204, 204, 204); stroke-opacity: 1; stroke-width: 7px; opacity: 1;"/></g><g class="points"><path class="point" transform="translate(665.25,456.69)" d="M0,0Z" style="opacity: 1; stroke-width: 0px; fill: rgb(204, 204, 204); fill-opacity: 1;"/><path class="point" transform="translate(476.13,362.13)" d="M0,0L17.8109857578175,17.543340227414564L24.721106826268073,3.723825624843628Z" style="opacity: 1; stroke-width: 0px; fill: rgb(204, 204, 204); fill-opacity: 1;"/></g><g class="text"/></g><g class="trace scatter trace55d165" style="stroke-miterlimit: 2; opacity: 1;"><g class="fills"/><g class="errorbars"/><g class="lines"><path class="js-line" d="M486.37,367.25L655.3751753922764,451.74811973295436" style="vector-effect: none; fill: none; stroke: rgb(204, 204, 204); stroke-opacity: 1; stroke-width: 7px; opacity: 1;"/></g><g class="points"><path class="point" transform="translate(486.37,367.25)" d="M0,0Z" style="opacity: 1; stroke-width: 0px; fill: rgb(204, 204, 204); fill-opacity: 1;"/><path class="point" transform="translate(675.5,461.81)" d="M0,0L-17.81172460341496,-17.54259007820972L-24.721263638273008,-3.7227844588426873Z" style="opacity: 1; stroke-width: 0px; fill: rgb(204, 204, 204); fill-opacity: 1;"/></g><g class="text"/></g><g class="trace scatter trace1e12c0" style="stroke-miterlimit: 2; opacity: 1;"><g class="fills"/><g class="errorbars"/><g class="lines"><path class="js-line" d="M475.48,377.05L529.109300415632,520.0527518152568" style="vector-effect: none; fill: none; stroke: rgb(204, 204, 204); stroke-opacity: 1; stroke-width: 7px; opacity: 1;"/></g><g class="points"><path class="point" transform="translate(475.48,377.05)" d="M0,0Z" style="opacity: 1; stroke-width: 0px; fill: rgb(204, 204, 204); fill-opacity: 1;"/><path class="point" transform="translate(537.01,541.12)" d="M0,0L-1.1159118095208846,-24.975082398930574L-15.58277672700681,-19.54934959215408Z" style="opacity: 1; stroke-width: 0px; fill: rgb(204, 204, 204); fill-opacity: 1;"/></g><g class="text"/></g><g class="trace scatter trace0e8621" style="stroke-miterlimit: 2; opacity: 1;"><g class="fills"/><g class="errorbars"/><g class="lines"><path class="js-line" d="M479.56,341.61L594.3587929992428,169.42082989090628" style="vector-effect: none; fill: none; stroke: rgb(204, 204, 204); stroke-opacity: 1; stroke-width: 7px; opacity: 1;"/></g><g class="points"><path class="point" transform="translate(479.56,341.61)" d="M0,0Z" style="opacity: 1; stroke-width: 0px; fill: rgb(204, 204, 204); fill-opacity: 1;"/><path class="point" transform="translate(606.84,150.7)" d="M0,0L-19.616909455606795,15.497640575601325L-6.7611285510326,24.06838467193866Z" style="opacity: 1; stroke-width: 0px; fill: rgb(204, 204, 204); fill-opacity: 1;"/></g><g class="text"/></g><g class="trace scatter trace1e9141" style="stroke-miterlimit: 2; opacity: 1;"><g class="fills"/><g class="errorbars"/><g class="lines"><path class="js-line" d="M600.48,160.23L485.6905281140165,332.41871751200676" style="vector-effect: none; fill: none; stroke: rgb(204, 204, 204); stroke-opacity: 1; stroke-width: 7px; opacity: 1;"/></g><g class="points"><path class="point" transform="translate(600.48,160.23)" d="M0,0Z" style="opacity: 1; stroke-width: 0px; fill: rgb(204, 204, 204); fill-opacity: 1;"/><path class="point" transform="translate(473.21,351.14)" d="M0,0L19.616909455606795,-15.497640575601325L6.7611285510326,-24.06838467193866Z" style="opacity: 1; stroke-width: 0px; fill: rgb(204, 204, 204); fill-opacity: 1;"/></g><g class="text"/></g><g class="trace scatter trace27605f" style="stroke-miterlimit: 2; opacity: 1;"><g class="fills"/><g class="errorbars"/><g class="lines"><path class="js-line" d="M626.75,156.68L767.0477089302551,278.283239895429" style="vector-effect: none; fill: none; stroke: rgb(204, 204, 204); stroke-opacity: 1; stroke-width: 7px; opacity: 1;"/></g><g class="points"><path class="point" transform="translate(626.75,156.68)" d="M0,0Z" style="opacity: 1; stroke-width: 0px; fill: rgb(204, 204, 204); fill-opacity: 1;"/><path class="point" transform="translate(784.05,293.02)" d="M0,0L-12.907546269674011,-21.410166960960964L-23.027004676619644,-9.73432358322533Z" style="opacity: 1; stroke-width: 0px; fill: rgb(204, 204, 204); fill-opacity: 1;"/></g><g class="text"/></g><g class="trace scatter tracec591c6" style="stroke-miterlimit: 2; opacity: 1;"><g class="fills"/><g class="errorbars"/><g class="lines"><path class="js-line" d="M615.95,163.12L676.4388275125691,435.3058438553186" style="vector-effect: none; fill: none; stroke: rgb(204, 204, 204); stroke-opacity: 1; stroke-width: 7px; opacity: 1;"/></g><g class="points"><path class="point" transform="translate(615.95,163.12)" d="M0,0Z" style="opacity: 1; stroke-width: 0px; fill: rgb(204, 204, 204); fill-opacity: 1;"/><path class="point" transform="translate(681.32,457.27)" d="M0,0L2.3837208369255745,-24.88609802623961L-12.699210740010004,-21.534392180435802Z" style="opacity: 1; stroke-width: 0px; fill: rgb(204, 204, 204); fill-opacity: 1;"/></g><g class="text"/></g></g></g><g class="overplot"/><path class="xlines-above crisp" d="M3,797.5H924M3,151.5H924" style="fill: none; stroke-width: 1px; stroke: rgb(0, 0, 0); stroke-opacity: 1;"/><path class="ylines-above crisp" d="M3.5,152V797M923.5,152V797" style="fill: none; stroke-width: 1px; stroke: rgb(0, 0, 0); stroke-opacity: 1;"/><g class="overlines-above"/><g class="xaxislayer-above"><g class="xtick"><text text-anchor="middle" x="0" y="799.2" transform="translate(114.56,0)" style="font-family: 'Open Sans', verdana, arial, sans-serif; font-size: 1px; fill: rgb(42, 63, 95); fill-opacity: 1; white-space: pre; opacity: 1;">0</text></g><g class="xtick"><text text-anchor="middle" x="0" y="799.2" style="font-family: 'Open Sans', verdana, arial, sans-serif; font-size: 1px; fill: rgb(42, 63, 95); fill-opacity: 1; white-space: pre; opacity: 1;" transform="translate(257.72,0)">2</text></g><g class="xtick"><text text-anchor="middle" x="0" y="799.2" style="font-family: 'Open Sans', verdana, arial, sans-serif; font-size: 1px; fill: rgb(42, 63, 95); fill-opacity: 1; white-space: pre; opacity: 1;" transform="translate(400.87,0)">4</text></g><g class="xtick"><text text-anchor="middle" x="0" y="799.2" style="font-family: 'Open Sans', verdana, arial, sans-serif; font-size: 1px; fill: rgb(42, 63, 95); fill-opacity: 1; white-space: pre; opacity: 1;" transform="translate(544.02,0)">6</text></g><g class="xtick"><text text-anchor="middle" x="0" y="799.2" style="font-family: 'Open Sans', verdana, arial, sans-serif; font-size: 1px; fill: rgb(42, 63, 95); fill-opacity: 1; white-space: pre; opacity: 1;" transform="translate(687.18,0)">8</text></g><g class="xtick"><text text-anchor="middle" x="0" y="799.2" style="font-family: 'Open Sans', verdana, arial, sans-serif; font-size: 1px; fill: rgb(42, 63, 95); fill-opacity: 1; white-space: pre; opacity: 1;" transform="translate(830.33,0)">10</text></g></g><g class="yaxislayer-above"><g class="ytick"><text text-anchor="end" x="2.8" y="0.35" transform="translate(0,725.02)" style="font-family: 'Open Sans', verdana, arial, sans-serif; font-size: 1px; fill: rgb(42, 63, 95); fill-opacity: 1; white-space: pre; opacity: 1;">4</text></g><g class="ytick"><text text-anchor="end" x="2.8" y="0.35" style="font-family: 'Open Sans', verdana, arial, sans-serif; font-size: 1px; fill: rgb(42, 63, 95); fill-opacity: 1; white-space: pre; opacity: 1;" transform="translate(0,581.87)">2</text></g><g class="ytick"><text text-anchor="end" x="2.8" y="0.35" style="font-family: 'Open Sans', verdana, arial, sans-serif; font-size: 1px; fill: rgb(42, 63, 95); fill-opacity: 1; white-space: pre; opacity: 1;" transform="translate(0,438.71)">0</text></g><g class="ytick"><text text-anchor="end" x="2.8" y="0.35" style="font-family: 'Open Sans', verdana, arial, sans-serif; font-size: 1px; fill: rgb(42, 63, 95); fill-opacity: 1; white-space: pre; opacity: 1;" transform="translate(0,295.56)">2</text></g><g class="ytick"><text text-anchor="end" x="2.8" y="0.35" style="font-family: 'Open Sans', verdana, arial, sans-serif; font-size: 1px; fill: rgb(42, 63, 95); fill-opacity: 1; white-space: pre; opacity: 1;" transform="translate(0,152.4)">4</text></g></g><g class="overaxes-above"/></g></g><g class="polarlayer"/><g class="smithlayer"/><g class="ternarylayer"/><g class="geolayer"/><g class="funnelarealayer"/><g class="pielayer"/><g class="iciclelayer"/><g class="treemaplayer"/><g class="sunburstlayer"/><g class="glimages"/><defs id="topdefs-07d74a"><g class="clips"/></defs><g class="layer-above"><g class="imagelayer"/><g class="shapelayer"/></g><g class="infolayer"><g class="cbc67f2a colorbar" transform="translate(4,72.984375)"><rect class="cbbg" x="9" y="-32" height="79.015625" width="919" style="fill: rgb(0, 0, 0); fill-opacity: 0; stroke: rgb(68, 68, 68); stroke-opacity: 1; stroke-width: 0;"/><g class="cbfills" transform="translate(213,0)"><rect class="cbfill" style="" y="-22" x="0" height="30" width="2" fill="#440154"/><rect class="cbfill" style="" y="-22" x="0" height="30" width="56" fill="#461062"/><rect class="cbfill" style="" y="-22" x="56" height="30" width="57" fill="#472c7a"/><rect class="cbfill" style="" y="-22" x="113" height="30" width="56" fill="#3f4587"/><rect class="cbfill" style="" y="-22" x="169" height="30" width="57" fill="#365c8c"/><rect class="cbfill" style="" y="-22" x="226" height="30" width="56" fill="#2d728e"/><rect class="cbfill" style="" y="-22" x="282" height="30" width="57" fill="#25868d"/><rect class="cbfill" style="" y="-22" x="339" height="30" width="56" fill="#209b8a"/><rect class="cbfill" style="" y="-22" x="395" height="30" width="57" fill="#2dae7f"/><rect class="cbfill" style="" y="-22" x="452" height="30" width="56" fill="#4ac06d"/><rect class="cbfill" style="" y="-22" x="508" height="30" width="57" fill="#77d052"/><rect class="cbfill" style="" y="-22" x="565" height="30" width="56" fill="#acdc31"/><rect class="cbfill" style="" y="-22" x="621" height="30" width="56" fill="#e2e427"/><rect class="cbfill" style="" y="-22" x="677" height="30" width="29" fill="#fde725"/></g><g class="cblines" transform="translate(213,0)"><path class="cbline" d="M0.25,-22v30" style="fill: none; stroke: rgb(0, 0, 0); stroke-opacity: 1; stroke-width: 0.5px;"/><path class="cbline" d="M56.25,-22v30" style="fill: none; stroke: rgb(0, 0, 0); stroke-opacity: 1; stroke-width: 0.5px;"/><path class="cbline" d="M113.25,-22v30" style="fill: none; stroke: rgb(0, 0, 0); stroke-opacity: 1; stroke-width: 0.5px;"/><path class="cbline" d="M169.25,-22v30" style="fill: none; stroke: rgb(0, 0, 0); stroke-opacity: 1; stroke-width: 0.5px;"/><path class="cbline" d="M226.25,-22v30" style="fill: none; stroke: rgb(0, 0, 0); stroke-opacity: 1; stroke-width: 0.5px;"/><path class="cbline" d="M282.25,-22v30" style="fill: none; stroke: rgb(0, 0, 0); stroke-opacity: 1; stroke-width: 0.5px;"/><path class="cbline" d="M339.25,-22v30" style="fill: none; stroke: rgb(0, 0, 0); stroke-opacity: 1; stroke-width: 0.5px;"/><path class="cbline" d="M395.25,-22v30" style="fill: none; stroke: rgb(0, 0, 0); stroke-opacity: 1; stroke-width: 0.5px;"/><path class="cbline" d="M452.25,-22v30" style="fill: none; stroke: rgb(0, 0, 0); stroke-opacity: 1; stroke-width: 0.5px;"/><path class="cbline" d="M508.25,-22v30" style="fill: none; stroke: rgb(0, 0, 0); stroke-opacity: 1; stroke-width: 0.5px;"/><path class="cbline" d="M565.25,-22v30" style="fill: none; stroke: rgb(0, 0, 0); stroke-opacity: 1; stroke-width: 0.5px;"/><path class="cbline" d="M621.25,-22v30" style="fill: none; stroke: rgb(0, 0, 0); stroke-opacity: 1; stroke-width: 0.5px;"/><path class="cbline" d="M677.25,-22v30" style="fill: none; stroke: rgb(0, 0, 0); stroke-opacity: 1; stroke-width: 0.5px;"/></g><g class="cbaxis crisp" transform="translate(-4,0)"><g class="xcbc67f2atick"><text text-anchor="middle" x="0" y="37.3" transform="translate(216.565,0)" style="font-family: 'Open Sans', verdana, arial, sans-serif; font-size: 24px; fill: rgb(42, 63, 95); fill-opacity: 1; white-space: pre; opacity: 1;">0</text></g><g class="xcbc67f2atick"><text text-anchor="middle" x="0" y="37.3" style="font-family: 'Open Sans', verdana, arial, sans-serif; font-size: 24px; fill: rgb(42, 63, 95); fill-opacity: 1; white-space: pre; opacity: 1;" transform="translate(357.695,0)">5</text></g><g class="xcbc67f2atick"><text text-anchor="middle" x="0" y="37.3" style="font-family: 'Open Sans', verdana, arial, sans-serif; font-size: 24px; fill: rgb(42, 63, 95); fill-opacity: 1; white-space: pre; opacity: 1;" transform="translate(498.815,0)">10</text></g><g class="xcbc67f2atick"><text text-anchor="middle" x="0" y="37.3" style="font-family: 'Open Sans', verdana, arial, sans-serif; font-size: 24px; fill: rgb(42, 63, 95); fill-opacity: 1; white-space: pre; opacity: 1;" transform="translate(639.9449999999999,0)">15</text></g><g class="xcbc67f2atick"><text text-anchor="middle" x="0" y="37.3" style="font-family: 'Open Sans', verdana, arial, sans-serif; font-size: 24px; fill: rgb(42, 63, 95); fill-opacity: 1; white-space: pre; opacity: 1;" transform="translate(781.065,0)">20</text></g><g class="xcbc67f2atick"><text text-anchor="middle" x="0" y="37.3" style="font-family: 'Open Sans', verdana, arial, sans-serif; font-size: 24px; fill: rgb(42, 63, 95); fill-opacity: 1; white-space: pre; opacity: 0;" transform="translate(922.1949999999999,0)">25</text></g></g><g class="cbtitleunshift" transform="translate(-4,-152)"><g class="cbtitle" transform=""><text class="xcbc67f2atitle" x="23.19000000000001" y="157.49999999999997" text-anchor="middle" style="font-family: 'Open Sans', verdana, arial, sans-serif; font-size: 33px; fill: rgb(42, 63, 95); opacity: 1; white-space: pre;" transform="translate(65.8125,0)">Cost-to-go</text></g></g><rect class="cboutline" x="206.25" y="-22" height="30" width="711.75" style="stroke: rgb(68, 68, 68); stroke-opacity: 1; fill: none; stroke-width: 0;"/></g><g class="g-gtitle"/><g class="g-xtitle"/><g class="g-ytitle"/></g></svg>