<svg class="main-svg" xmlns="http://www.w3.org/2000/svg" xmlns:xlink="http://www.w3.org/1999/xlink" width="925" height="800" style="" viewBox="0 0 925 800"><rect x="0" y="0" width="925" height="800" style="fill: rgb(255, 255, 255); fill-opacity: 1;"/><defs id="defs-25b4c7"><g class="clips"><clipPath id="clip25b4c7xyplot" class="plotclip"><rect width="919" height="795"/></clipPath><clipPath class="axesclip" id="clip25b4c7x"><rect x="4" y="0" width="919" height="800"/></clipPath><clipPath class="axesclip" id="clip25b4c7y"><rect x="0" y="2" width="925" height="795"/></clipPath><clipPath class="axesclip" id="clip25b4c7xy"><rect x="4" y="2" width="919" height="795"/></clipPath></g><g class="gradients"/><g class="patterns"/></defs><g class="bglayer"/><g class="layer-below"><g class="imagelayer"/><g class="shapelayer"/></g><g class="cartesianlayer"><g class="subplot xy"><g class="layer-subplot"><g class="shapelayer"/><g class="imagelayer"/></g><g class="minor-gridlayer"><g class="x"/><g class="y"/></g><g class="gridlayer"><g class="x"><path class="xgrid crisp" transform="translate(65.27000000000001,0)" d="M0,2v795" style="stroke: rgb(211, 211, 211); stroke-opacity: 1; stroke-width: 1px;"/><path class="xgrid crisp" transform="translate(228.64,0)" d="M0,2v795" style="stroke: rgb(211, 211, 211); stroke-opacity: 1; stroke-width: 1px;"/><path class="xgrid crisp" transform="translate(392.02,0)" d="M0,2v795" style="stroke: rgb(211, 211, 211); stroke-opacity: 1; stroke-width: 1px;"/><path class="xgrid crisp" transform="translate(555.4,0)" d="M0,2v795" style="stroke: rgb(211, 211, 211); stroke-opacity: 1; stroke-width: 1px;"/><path class="xgrid crisp" transform="translate(718.78,0)" d="M0,2v795" style="stroke: rgb(211, 211, 211); stroke-opacity: 1; stroke-width: 1px;"/><path class="xgrid crisp" transform="translate(882.16,0)" d="M0,2v795" style="stroke: rgb(211, 211, 211); stroke-opacity: 1; stroke-width: 1px;"/></g><g class="y"><path class="ygrid crisp" transform="translate(0,685.41)" d="M4,0h919" style="stroke: rgb(211, 211, 211); stroke-opacity: 1; stroke-width: 1px;"/><path class="ygrid crisp" transform="translate(0,522.03)" d="M4,0h919" style="stroke: rgb(211, 211, 211); stroke-opacity: 1; stroke-width: 1px;"/><path class="ygrid crisp" transform="translate(0,358.66)" d="M4,0h919" style="stroke: rgb(211, 211, 211); stroke-opacity: 1; stroke-width: 1px;"/><path class="ygrid crisp" transform="translate(0,195.28)" d="M4,0h919" style="stroke: rgb(211, 211, 211); stroke-opacity: 1; stroke-width: 1px;"/><path class="ygrid crisp" transform="translate(0,31.9)" d="M4,0h919" style="stroke: rgb(211, 211, 211); stroke-opacity: 1; stroke-width: 1px;"/></g></g><g class="zerolinelayer"/><g class="layer-between"><g class="shapelayer"/><g class="imagelayer"/></g><path class="xlines-below"/><path class="ylines-below"/><g class="overlines-below"/><g class="xaxislayer-below"/><g class="yaxislayer-below"/><g class="overaxes-below"/><g class="plot" transform="translate(4,2)" clip-path="url(#clip25b4c7xyplot)"><g class="scatterlayer mlayer"><g class="trace scatter trace9d144b" style="stroke-miterlimit: 2;"><g class="fills"><g><path class="js-fill" d="M20.42,356.66L20.42,356.66L20.42,683.41L20.42,111.59L102.11,111.59L102.11,683.41L20.42,683.41" style="fill: rgb(233, 255, 255); fill-opacity: 1; stroke-width: 0;"/></g></g><g class="errorbars"/><g class="lines"><path class="js-line" d="M20.42,683.41L20.42,111.59L102.11,111.59L102.11,683.41L20.42,683.41" style="vector-effect: none; fill: none; stroke: rgb(0, 0, 0); stroke-opacity: 1; stroke-width: 3px; opacity: 1;"/></g><g class="points"/><g class="text"/></g><g class="trace scatter traceab48b3" style="stroke-miterlimit: 2; opacity: 1;"><g class="fills"/><g class="errorbars"/><g class="lines"/><g class="points"/><g class="text"><g class="textpoint" transform="translate(0,10)"><text x="61.27" y="397.5" text-anchor="middle" style="font-family: 'Open Sans', verdana, arial, sans-serif; font-size: 40px; fill: rgb(42, 63, 95); fill-opacity: 1; white-space: pre;"><tspan style="font-style:italic">s</tspan></text></g></g></g><g class="trace scatter traceb3a1f8" style="stroke-miterlimit: 2;"><g class="fills"><g><path class="js-fill" d="M837.31,356.66L837.31,356.66L837.31,360.66L841.02,361.4L841.08,361.43L844.24,363.61L844.28,363.65L846.45,367.31L846.47,367.37L846.91,370.83L846.9,370.89L845.95,374.49L845.92,374.54L843.6,377.53L843.56,377.57L840.26,379.42L840.2,379.44L836.14,379.81L836.08,379.8L832.65,378.68L832.6,378.65L829.73,376.18L829.69,376.13L828.05,372.85L828.04,372.79L827.76,369.2L827.77,369.14L828.91,365.6L828.94,365.54L831.61,362.53L831.66,362.5L834.74,361.01L834.8,360.99L837.31,360.66" style="fill: rgb(233, 255, 255); fill-opacity: 1; stroke-width: 0;"/></g></g><g class="errorbars"/><g class="lines"><path class="js-line" d="M837.31,360.66L841.02,361.4L841.08,361.43L844.24,363.61L844.28,363.65L846.45,367.31L846.47,367.37L846.91,370.83L846.9,370.89L845.95,374.49L845.92,374.54L843.6,377.53L843.56,377.57L840.26,379.42L840.2,379.44L836.14,379.81L836.08,379.8L832.65,378.68L832.6,378.65L829.73,376.18L829.69,376.13L828.05,372.85L828.04,372.79L827.76,369.2L827.77,369.14L828.91,365.6L828.94,365.54L831.61,362.53L831.66,362.5L834.74,361.01L834.8,360.99L837.31,360.66" style="vector-effect: none; fill: none; stroke: rgb(0, 0, 0); stroke-opacity: 1; stroke-width: 3px; opacity: 1;"/></g><g class="points"/><g class="text"/></g><g class="trace scatter tracefdb27e" style="stroke-miterlimit: 2; opacity: 1;"><g class="fills"/><g class="errorbars"/><g class="lines"/><g class="points"/><g class="text"><g class="textpoint" transform="translate(0,10)"><text x="837.31" y="341.68" text-anchor="middle" style="font-family: 'Open Sans', verdana, arial, sans-serif; font-size: 40px; fill: rgb(42, 63, 95); fill-opacity: 1; white-space: pre;"><tspan style="font-style:italic">t</tspan></text></g></g></g><g class="trace scatter trace4275ff" style="stroke-miterlimit: 2;"><g class="fills"><g><path class="js-fill" d="M142.96,356.66L142.96,356.66L142.96,356.66L306.33,356.66L306.33,274.97L224.64,274.97L142.96,356.66" style="fill: rgb(233, 255, 255); fill-opacity: 1; stroke-width: 0;"/></g></g><g class="errorbars"/><g class="lines"><path class="js-line" d="M142.96,356.66L306.33,356.66L306.33,274.97L224.64,274.97L142.96,356.66" style="vector-effect: none; fill: none; stroke: rgb(0, 0, 0); stroke-opacity: 1; stroke-width: 3px; opacity: 1;"/></g><g class="points"/><g class="text"/></g><g class="trace scatter tracef5c24b" style="stroke-miterlimit: 2;"><g class="fills"><g><path class="js-fill" d="M224.64,356.66L224.64,356.66L224.64,193.28L388.02,193.28L306.33,111.59L224.64,111.59L224.64,193.28" style="fill: rgb(233, 255, 255); fill-opacity: 1; stroke-width: 0;"/></g></g><g class="errorbars"/><g class="lines"><path class="js-line" d="M224.64,193.28L388.02,193.28L306.33,111.59L224.64,111.59L224.64,193.28" style="vector-effect: none; fill: none; stroke: rgb(0, 0, 0); stroke-opacity: 1; stroke-width: 3px; opacity: 1;"/></g><g class="points"/><g class="text"/></g><g class="trace scatter trace00b463" style="stroke-miterlimit: 2;"><g class="fills"><g><path class="js-fill" d="M224.64,356.66L224.64,356.66L224.64,683.41L388.02,683.41L388.02,601.72L224.64,520.03L142.96,601.72L224.64,683.41" style="fill: rgb(233, 255, 255); fill-opacity: 1; stroke-width: 0;"/></g></g><g class="errorbars"/><g class="lines"><path class="js-line" d="M224.64,683.41L388.02,683.41L388.02,601.72L224.64,520.03L142.96,601.72L224.64,683.41" style="vector-effect: none; fill: none; stroke: rgb(0, 0, 0); stroke-opacity: 1; stroke-width: 3px; opacity: 1;"/></g><g class="points"/><g class="text"/></g><g class="trace scatter trace6f478e" style="stroke-miterlimit: 2;"><g class="fills"><g><path class="js-fill" d="M469.71,356.66L469.71,356.66L469.71,683.41L633.09,683.41L551.4,601.72L469.71,683.41" style="fill: rgb(233, 255, 255); fill-opacity: 1; stroke-width: 0;"/></g></g><g class="errorbars"/><g class="lines"><path class="js-line" d="M469.71,683.41L633.09,683.41L551.4,601.72L469.71,683.41" style="vector-effect: none; fill: none; stroke: rgb(0, 0, 0); stroke-opacity: 1; stroke-width: 3px; opacity: 1;"/></g><g class="points"/><g class="text"/></g><g class="trace scatter trace60a56e" style="stroke-miterlimit: 2;"><g class="fills"><g><path class="js-fill" d="M714.78,356.66L714.78,356.66L714.78,683.41L796.47,601.72L714.78,438.34L633.09,520.03L714.78,683.41" style="fill: rgb(233, 255, 255); fill-opacity: 1; stroke-width: 0;"/></g></g><g class="errorbars"/><g class="lines"><path class="js-line" d="M714.78,683.41L796.47,601.72L714.78,438.34L633.09,520.03L714.78,683.41" style="vector-effect: none; fill: none; stroke: rgb(0, 0, 0); stroke-opacity: 1; stroke-width: 3px; opacity: 1;"/></g><g class="points"/><g class="text"/></g><g class="trace scatter traceec8451" style="stroke-miterlimit: 2;"><g class="fills"><g><path class="js-fill" d="M469.71,356.66L469.71,356.66L469.71,365.28L479.79,365.98L480.24,366.04L490.56,368.32L491,368.45L500.02,371.86L500.43,372.05L510.05,377.43L510.43,377.68L518.41,383.88L518.75,384.19L525.16,390.77L525.46,391.12L531.19,398.87L531.44,399.26L536.05,407.73L536.24,408.14L539.9,418.05L540.03,418.49L542.27,429.75L542.32,430.2L542.74,440.76L542.72,441.22L541.54,451.71L541.46,452.16L538.72,462.36L538.56,462.79L534.95,471.24L534.74,471.65L529.53,480.3L529.26,480.68L523.17,488.15L522.86,488.48L515.43,495.34L515.07,495.62L507.14,501.1L506.74,501.33L496.85,506.18L496.42,506.35L486.78,509.39L486.34,509.49L476.82,511.06L476.37,511.11L465.81,511.3L465.35,511.28L454.88,509.89L454.43,509.79L445.59,507.31L445.15,507.16L435.09,502.68L434.68,502.46L425.8,496.74L425.44,496.47L417.84,489.81L417.52,489.48L410.7,481.42L410.43,481.05L405.32,472.87L405.1,472.46L400.86,462.79L400.71,462.36L398.05,452.61L397.96,452.16L396.69,440.76L396.67,440.3L397.15,429.75L397.21,429.29L399.4,418.49L399.52,418.05L403.18,408.14L403.37,407.73L407.98,399.26L408.23,398.87L414.26,390.77L414.56,390.42L421.35,383.57L421.7,383.27L430.53,376.68L430.91,376.43L440.67,371.3L441.09,371.12L450.63,367.81L451.08,367.7L460.54,365.86L461,365.8L469.71,365.28" style="fill: rgb(233, 255, 255); fill-opacity: 1; stroke-width: 0;"/></g></g><g class="errorbars"/><g class="lines"><path class="js-line" d="M469.71,365.28L479.79,365.98L480.24,366.04L490.56,368.32L491,368.45L500.02,371.86L500.43,372.05L510.05,377.43L510.43,377.68L518.41,383.88L518.75,384.19L525.16,390.77L525.46,391.12L531.19,398.87L531.44,399.26L536.05,407.73L536.24,408.14L539.9,418.05L540.03,418.49L542.27,429.75L542.32,430.2L542.74,440.76L542.72,441.22L541.54,451.71L541.46,452.16L538.72,462.36L538.56,462.79L534.95,471.24L534.74,471.65L529.53,480.3L529.26,480.68L523.17,488.15L522.86,488.48L515.43,495.34L515.07,495.62L507.14,501.1L506.74,501.33L496.85,506.18L496.42,506.35L486.78,509.39L486.34,509.49L476.82,511.06L476.37,511.11L465.81,511.3L465.35,511.28L454.88,509.89L454.43,509.79L445.59,507.31L445.15,507.16L435.09,502.68L434.68,502.46L425.8,496.74L425.44,496.47L417.84,489.81L417.52,489.48L410.7,481.42L410.43,481.05L405.32,472.87L405.1,472.46L400.86,462.79L400.71,462.36L398.05,452.61L397.96,452.16L396.69,440.76L396.67,440.3L397.15,429.75L397.21,429.29L399.4,418.49L399.52,418.05L403.18,408.14L403.37,407.73L407.98,399.26L408.23,398.87L414.26,390.77L414.56,390.42L421.35,383.57L421.7,383.27L430.53,376.68L430.91,376.43L440.67,371.3L441.09,371.12L450.63,367.81L451.08,367.7L460.54,365.86L461,365.8L469.71,365.28" style="vector-effect: none; fill: none; stroke: rgb(0, 0, 0); stroke-opacity: 1; stroke-width: 3px; opacity: 1;"/></g><g class="points"/><g class="text"/></g><g class="trace scatter trace47889f" style="stroke-miterlimit: 2;"><g class="fills"><g><path class="js-fill" d="M633.09,356.66L633.09,356.66L633.09,111.59L654.6,112.3L655.62,112.37L676.74,114.56L677.73,114.7L698.04,118.32L698.98,118.53L718.09,123.52L718.97,123.78L738.11,130.7L738.89,131.03L754.36,138.54L755.05,138.92L767.73,147L768.3,147.43L776.83,154.45L777.32,154.9L785.07,163.3L785.44,163.78L790.6,171.58L790.87,172.07L794.49,180.61L794.65,181.12L796.22,188.78L796.27,189.3L796.3,197L796.25,197.51L794.57,205.69L794.41,206.2L791.26,213.74L791,214.23L785.99,222.06L785.62,222.54L778.97,230.05L778.51,230.51L769.73,238.06L769.16,238.49L758.74,245.49L758.08,245.88L745.39,252.61L744.64,252.96L729.62,259.18L728.79,259.49L711.42,264.97L710.51,265.21L690.89,269.68L689.93,269.86L670.27,272.82L669.26,272.94L646.94,274.67L645.92,274.71L624.36,274.85L623.33,274.82L601.94,273.47L600.93,273.37L580.12,270.55L579.15,270.39L556.57,265.45L555.66,265.21L538.23,259.79L537.39,259.49L520.04,252.25L519.3,251.9L505.49,244.3L504.85,243.89L494.24,236.33L493.7,235.89L484.96,227.74L484.53,227.28L477.8,218.67L477.49,218.18L473.27,210.24L473.06,209.73L470.56,201.61L470.46,201.1L469.71,192.89L469.72,192.38L470.73,184.18L470.85,183.67L473.38,176.07L473.6,175.57L477.33,168.62L477.64,168.13L483.48,160.45L483.9,159.98L491.34,152.66L491.86,152.21L502.04,144.5L502.66,144.09L514.61,137.03L515.32,136.66L528.86,130.37L529.65,130.04L547.21,123.78L548.09,123.52L565.33,118.95L566.26,118.74L586.48,114.98L587.46,114.84L609.54,112.44L610.55,112.37L632.06,111.59L633.09,111.59" style="fill: rgb(233, 255, 255); fill-opacity: 1; stroke-width: 0;"/></g></g><g class="errorbars"/><g class="lines"><path class="js-line" d="M633.09,111.59L654.6,112.3L655.62,112.37L676.74,114.56L677.73,114.7L698.04,118.32L698.98,118.53L718.09,123.52L718.97,123.78L738.11,130.7L738.89,131.03L754.36,138.54L755.05,138.92L767.73,147L768.3,147.43L776.83,154.45L777.32,154.9L785.07,163.3L785.44,163.78L790.6,171.58L790.87,172.07L794.49,180.61L794.65,181.12L796.22,188.78L796.27,189.3L796.3,197L796.25,197.51L794.57,205.69L794.41,206.2L791.26,213.74L791,214.23L785.99,222.06L785.62,222.54L778.97,230.05L778.51,230.51L769.73,238.06L769.16,238.49L758.74,245.49L758.08,245.88L745.39,252.61L744.64,252.96L729.62,259.18L728.79,259.49L711.42,264.97L710.51,265.21L690.89,269.68L689.93,269.86L670.27,272.82L669.26,272.94L646.94,274.67L645.92,274.71L624.36,274.85L623.33,274.82L601.94,273.47L600.93,273.37L580.12,270.55L579.15,270.39L556.57,265.45L555.66,265.21L538.23,259.79L537.39,259.49L520.04,252.25L519.3,251.9L505.49,244.3L504.85,243.89L494.24,236.33L493.7,235.89L484.96,227.74L484.53,227.28L477.8,218.67L477.49,218.18L473.27,210.24L473.06,209.73L470.56,201.61L470.46,201.1L469.71,192.89L469.72,192.38L470.73,184.18L470.85,183.67L473.38,176.07L473.6,175.57L477.33,168.62L477.64,168.13L483.48,160.45L483.9,159.98L491.34,152.66L491.86,152.21L502.04,144.5L502.66,144.09L514.61,137.03L515.32,136.66L528.86,130.37L529.65,130.04L547.21,123.78L548.09,123.52L565.33,118.95L566.26,118.74L586.48,114.98L587.46,114.84L609.54,112.44L610.55,112.37L632.06,111.59L633.09,111.59" style="vector-effect: none; fill: none; stroke: rgb(0, 0, 0); stroke-opacity: 1; stroke-width: 3px; opacity: 1;"/></g><g class="points"/><g class="text"/></g><g class="trace scatter traced5a3a9" style="stroke-miterlimit: 2; opacity: 1;"><g class="fills"/><g class="errorbars"/><g class="lines"><path class="js-line" d="M82.17,388.21L215.54935031238318,328.9283633339401" style="vector-effect: none; fill: none; stroke: rgb(204, 204, 204); stroke-opacity: 1; stroke-width: 7px; opacity: 1;"/></g><g class="points"><path class="point" transform="translate(82.17,388.21)" d="M0,0Z" style="opacity: 1; stroke-width: 0px; fill: rgb(204, 204, 204); fill-opacity: 1;"/><path class="point" transform="translate(236.11,319.79)" d="M0,0L-24.864690556862183,2.5975302715249597L-18.589167234390143,16.716544545206578Z" style="opacity: 1; stroke-width: 0px; fill: rgb(204, 204, 204); fill-opacity: 1;"/></g><g class="text"/></g><g class="trace scatter trace4f1a2e" style="stroke-miterlimit: 2; opacity: 1;"><g class="fills"/><g class="errorbars"/><g class="lines"><path class="js-line" d="M76.72,380.64L264.08599193492455,176.2457812223941" style="vector-effect: none; fill: none; stroke: rgb(204, 204, 204); stroke-opacity: 1; stroke-width: 7px; opacity: 1;"/></g><g class="points"><path class="point" transform="translate(76.72,380.64)" d="M0,0Z" style="opacity: 1; stroke-width: 0px; fill: rgb(204, 204, 204); fill-opacity: 1;"/><path class="point" transform="translate(279.29,159.66)" d="M0,0L-21.76070982972687,12.30737615035911L-10.370689866313809,22.747500779134747Z" style="opacity: 1; stroke-width: 0px; fill: rgb(204, 204, 204); fill-opacity: 1;"/></g><g class="text"/></g><g class="trace scatter trace8c9fe3" style="stroke-miterlimit: 2; opacity: 1;"><g class="fills"/><g class="errorbars"/><g class="lines"><path class="js-line" d="M77.13,413.98L251.25276169130532,594.7930844274547" style="vector-effect: none; fill: none; stroke: rgb(204, 204, 204); stroke-opacity: 1; stroke-width: 7px; opacity: 1;"/></g><g class="points"><path class="point" transform="translate(77.13,413.98)" d="M0,0Z" style="opacity: 1; stroke-width: 0px; fill: rgb(204, 204, 204); fill-opacity: 1;"/><path class="point" transform="translate(266.86,611)" d="M0,0L-10.927465967500185,-22.485339391014875L-22.05705655999109,-11.768018350994952Z" style="opacity: 1; stroke-width: 0px; fill: rgb(204, 204, 204); fill-opacity: 1;"/></g><g class="text"/></g><g class="trace scatter trace809726" style="stroke-miterlimit: 2; opacity: 1;"><g class="fills"/><g class="errorbars"/><g class="lines"><path class="js-line" d="M265.15,326.76L441.35746517607737,422.8756151901965" style="vector-effect: none; fill: none; stroke: rgb(204, 204, 204); stroke-opacity: 1; stroke-width: 7px; opacity: 1;"/></g><g class="points"><path class="point" transform="translate(265.15,326.76)" d="M0,0Z" style="opacity: 1; stroke-width: 0px; fill: rgb(204, 204, 204); fill-opacity: 1;"/><path class="point" transform="translate(461.11,433.65)" d="M0,0L-17.17393615255883,-18.167441124930964L-24.57256017285659,-4.6031822200888435Z" style="opacity: 1; stroke-width: 0px; fill: rgb(204, 204, 204); fill-opacity: 1;"/></g><g class="text"/></g><g class="trace scatter trace976aaf" style="stroke-miterlimit: 2; opacity: 1;"><g class="fills"/><g class="errorbars"/><g class="lines"><path class="js-line" d="M250.61,293.62L278.0729484366825,183.76820625326997" style="vector-effect: none; fill: none; stroke: rgb(204, 204, 204); stroke-opacity: 1; stroke-width: 7px; opacity: 1;"/></g><g class="points"><path class="point" transform="translate(250.61,293.62)" d="M0,0Z" style="opacity: 1; stroke-width: 0px; fill: rgb(204, 204, 204); fill-opacity: 1;"/><path class="point" transform="translate(283.53,161.94)" d="M0,0L-13.262521282801835,21.19211007009987L1.7268046581174028,24.940291611621223Z" style="opacity: 1; stroke-width: 0px; fill: rgb(204, 204, 204); fill-opacity: 1;"/></g><g class="text"/></g><g class="trace scatter tracea1cce6" style="stroke-miterlimit: 2; opacity: 1;"><g class="fills"/><g class="errorbars"/><g class="lines"><path class="js-line" d="M247.22,338.58L270.61141439917986,585.899964396189" style="vector-effect: none; fill: none; stroke: rgb(204, 204, 204); stroke-opacity: 1; stroke-width: 7px; opacity: 1;"/></g><g class="points"><path class="point" transform="translate(247.22,338.58)" d="M0,0Z" style="opacity: 1; stroke-width: 0px; fill: rgb(204, 204, 204); fill-opacity: 1;"/><path class="point" transform="translate(272.73,608.3)" d="M0,0L5.452388785651577,-24.398185517167065L-9.929818442155103,-22.943380433271734Z" style="opacity: 1; stroke-width: 0px; fill: rgb(204, 204, 204); fill-opacity: 1;"/></g><g class="text"/></g><g class="trace scatter trace331e8b" style="stroke-miterlimit: 2; opacity: 1;"><g class="fills"/><g class="errorbars"/><g class="lines"><path class="js-line" d="M271.5,595.29L248.1085856008202,347.9700356038109" style="vector-effect: none; fill: none; stroke: rgb(204, 204, 204); stroke-opacity: 1; stroke-width: 7px; opacity: 1;"/></g><g class="points"><path class="point" transform="translate(271.5,595.29)" d="M0,0Z" style="opacity: 1; stroke-width: 0px; fill: rgb(204, 204, 204); fill-opacity: 1;"/><path class="point" transform="translate(245.99,325.57)" d="M0,0L-5.451496102357666,24.398384992576435L9.930657886814293,22.943017106192745Z" style="opacity: 1; stroke-width: 0px; fill: rgb(204, 204, 204); fill-opacity: 1;"/></g><g class="text"/></g><g class="trace scatter trace654b45" style="stroke-miterlimit: 2; opacity: 1;"><g class="fills"/><g class="errorbars"/><g class="lines"><path class="js-line" d="M298.28,171.67L452.2431392714476,411.173365327877" style="vector-effect: none; fill: none; stroke: rgb(204, 204, 204); stroke-opacity: 1; stroke-width: 7px; opacity: 1;"/></g><g class="points"><path class="point" transform="translate(298.28,171.67)" d="M0,0Z" style="opacity: 1; stroke-width: 0px; fill: rgb(204, 204, 204); fill-opacity: 1;"/><path class="point" transform="translate(464.41,430.1)" d="M0,0L-6.358579263260788,-24.177850809218544L-19.355582821844408,-15.822813075642447Z" style="opacity: 1; stroke-width: 0px; fill: rgb(204, 204, 204); fill-opacity: 1;"/></g><g class="text"/></g><g class="trace scatter trace1b6df1" style="stroke-miterlimit: 2; opacity: 1;"><g class="fills"/><g class="errorbars"/><g class="lines"><path class="js-line" d="M308.63,155.11L601.0040629405968,189.50148389063577" style="vector-effect: none; fill: none; stroke: rgb(204, 204, 204); stroke-opacity: 1; stroke-width: 7px; opacity: 1;"/></g><g class="points"><path class="point" transform="translate(308.63,155.11)" d="M0,0Z" style="opacity: 1; stroke-width: 0px; fill: rgb(204, 204, 204); fill-opacity: 1;"/><path class="point" transform="translate(623.35,192.13)" d="M0,0L-22.710853022311532,-10.450701172599047L-24.516234077171042,4.8943096217298425Z" style="opacity: 1; stroke-width: 0px; fill: rgb(204, 204, 204); fill-opacity: 1;"/></g><g class="text"/></g><g class="trace scatter trace3f2bc5" style="stroke-miterlimit: 2; opacity: 1;"><g class="fills"/><g class="errorbars"/><g class="lines"><path class="js-line" d="M296.32,621.17L519.3990110569098,651.7902921807748" style="vector-effect: none; fill: none; stroke: rgb(204, 204, 204); stroke-opacity: 1; stroke-width: 7px; opacity: 1;"/></g><g class="points"><path class="point" transform="translate(296.32,621.17)" d="M0,0Z" style="opacity: 1; stroke-width: 0px; fill: rgb(204, 204, 204); fill-opacity: 1;"/><path class="point" transform="translate(541.69,654.85)" d="M0,0L-22.504851606638745,-10.887224355324431L-24.60615732011621,4.42007035438253Z" style="opacity: 1; stroke-width: 0px; fill: rgb(204, 204, 204); fill-opacity: 1;"/></g><g class="text"/></g><g class="trace scatter trace64a469" style="stroke-miterlimit: 2; opacity: 1;"><g class="fills"/><g class="errorbars"/><g class="lines"><path class="js-line" d="M528.74,653.07L305.6609889430903,622.4497078192252" style="vector-effect: none; fill: none; stroke: rgb(204, 204, 204); stroke-opacity: 1; stroke-width: 7px; opacity: 1;"/></g><g class="points"><path class="point" transform="translate(528.74,653.07)" d="M0,0Z" style="opacity: 1; stroke-width: 0px; fill: rgb(204, 204, 204); fill-opacity: 1;"/><path class="point" transform="translate(283.37,619.39)" d="M0,0L22.505285199995594,10.886328034138012L24.60598126013586,-4.42105035323541Z" style="opacity: 1; stroke-width: 0px; fill: rgb(204, 204, 204); fill-opacity: 1;"/></g><g class="text"/></g><g class="trace scatter tracef7f0ca" style="stroke-miterlimit: 2; opacity: 1;"><g class="fills"/><g class="errorbars"/><g class="lines"><path class="js-line" d="M290.52,602.6L445.90359146070267,460.1733237079109" style="vector-effect: none; fill: none; stroke: rgb(204, 204, 204); stroke-opacity: 1; stroke-width: 7px; opacity: 1;"/></g><g class="points"><path class="point" transform="translate(290.52,602.6)" d="M0,0Z" style="opacity: 1; stroke-width: 0px; fill: rgb(204, 204, 204); fill-opacity: 1;"/><path class="point" transform="translate(462.49,444.97)" d="M0,0L-22.747032290764402,10.371717406626617L-12.306393162263825,21.761265756747378Z" style="opacity: 1; stroke-width: 0px; fill: rgb(204, 204, 204); fill-opacity: 1;"/></g><g class="text"/></g><g class="trace scatter trace41b401" style="stroke-miterlimit: 2; opacity: 1;"><g class="fills"/><g class="errorbars"/><g class="lines"><path class="js-line" d="M571.16,644.66L686.8751312003631,577.1573663053155" style="vector-effect: none; fill: none; stroke: rgb(204, 204, 204); stroke-opacity: 1; stroke-width: 7px; opacity: 1;"/></g><g class="points"><path class="point" transform="translate(571.16,644.66)" d="M0,0Z" style="opacity: 1; stroke-width: 0px; fill: rgb(204, 204, 204); fill-opacity: 1;"/><path class="point" transform="translate(706.31,565.82)" d="M0,0L-24.43023017367441,5.306962752958442L-16.645116946339783,18.65315206185464Z" style="opacity: 1; stroke-width: 0px; fill: rgb(204, 204, 204); fill-opacity: 1;"/></g><g class="text"/></g><g class="trace scatter tracea113f0" style="stroke-miterlimit: 2; opacity: 1;"><g class="fills"/><g class="errorbars"/><g class="lines"><path class="js-line" d="M727.15,541.64L819.8431887678427,397.44666649045865" style="vector-effect: none; fill: none; stroke: rgb(204, 204, 204); stroke-opacity: 1; stroke-width: 7px; opacity: 1;"/></g><g class="points"><path class="point" transform="translate(727.15,541.64)" d="M0,0Z" style="opacity: 1; stroke-width: 0px; fill: rgb(204, 204, 204); fill-opacity: 1;"/><path class="point" transform="translate(832.01,378.52)" d="M0,0L-19.355785691284062,15.822564908164642L-6.358889257268656,24.177769281176317Z" style="opacity: 1; stroke-width: 0px; fill: rgb(204, 204, 204); fill-opacity: 1;"/></g><g class="text"/></g><g class="trace scatter trace0bcacf" style="stroke-miterlimit: 2; opacity: 1;"><g class="fills"/><g class="errorbars"/><g class="lines"><path class="js-line" d="M694.32,550.65L498.60461179749814,452.7923058987491" style="vector-effect: none; fill: none; stroke: rgb(204, 204, 204); stroke-opacity: 1; stroke-width: 7px; opacity: 1;"/></g><g class="points"><path class="point" transform="translate(694.32,550.65)" d="M0,0Z" style="opacity: 1; stroke-width: 0px; fill: rgb(204, 204, 204); fill-opacity: 1;"/><path class="point" transform="translate(478.48,442.73)" d="M0,0L17.811355180675736,17.542965160651022L24.721185236926264,3.7233050481499674Z" style="opacity: 1; stroke-width: 0px; fill: rgb(204, 204, 204); fill-opacity: 1;"/></g><g class="text"/></g><g class="trace scatter trace1a0d43" style="stroke-miterlimit: 2; opacity: 1;"><g class="fills"/><g class="errorbars"/><g class="lines"><path class="js-line" d="M490.17,448.57L685.8853882025019,546.427694101251" style="vector-effect: none; fill: none; stroke: rgb(204, 204, 204); stroke-opacity: 1; stroke-width: 7px; opacity: 1;"/></g><g class="points"><path class="point" transform="translate(490.17,448.57)" d="M0,0Z" style="opacity: 1; stroke-width: 0px; fill: rgb(204, 204, 204); fill-opacity: 1;"/><path class="point" transform="translate(706.01,556.49)" d="M0,0L-17.811355180675726,-17.542965160651033L-24.72118523692626,-3.7233050481499816Z" style="opacity: 1; stroke-width: 0px; fill: rgb(204, 204, 204); fill-opacity: 1;"/></g><g class="text"/></g><g class="trace scatter trace722104" style="stroke-miterlimit: 2; opacity: 1;"><g class="fills"/><g class="errorbars"/><g class="lines"><path class="js-line" d="M477.74,459.76L540.0592293520263,625.9327784658699" style="vector-effect: none; fill: none; stroke: rgb(204, 204, 204); stroke-opacity: 1; stroke-width: 7px; opacity: 1;"/></g><g class="points"><path class="point" transform="translate(477.74,459.76)" d="M0,0Z" style="opacity: 1; stroke-width: 0px; fill: rgb(204, 204, 204); fill-opacity: 1;"/><path class="point" transform="translate(547.96,647)" d="M0,0L-1.1146241450308647,-24.97513989981466L-15.581768782722987,-19.55015298154363Z" style="opacity: 1; stroke-width: 0px; fill: rgb(204, 204, 204); fill-opacity: 1;"/></g><g class="text"/></g><g class="trace scatter tracedd85fb" style="stroke-miterlimit: 2; opacity: 1;"><g class="fills"/><g class="errorbars"/><g class="lines"><path class="js-line" d="M482.4,419.31L615.1694438732976,220.1512638133282" style="vector-effect: none; fill: none; stroke: rgb(204, 204, 204); stroke-opacity: 1; stroke-width: 7px; opacity: 1;"/></g><g class="points"><path class="point" transform="translate(482.4,419.31)" d="M0,0Z" style="opacity: 1; stroke-width: 0px; fill: rgb(204, 204, 204); fill-opacity: 1;"/><path class="point" transform="translate(627.65,201.43)" d="M0,0L-19.61639605579597,15.498290414821637L-6.760331235950673,24.068608634074167Z" style="opacity: 1; stroke-width: 0px; fill: rgb(204, 204, 204); fill-opacity: 1;"/></g><g class="text"/></g><g class="trace scatter tracefa3644" style="stroke-miterlimit: 2; opacity: 1;"><g class="fills"/><g class="errorbars"/><g class="lines"><path class="js-line" d="M620.4,212.31L487.6305561267024,411.46873618667183" style="vector-effect: none; fill: none; stroke: rgb(204, 204, 204); stroke-opacity: 1; stroke-width: 7px; opacity: 1;"/></g><g class="points"><path class="point" transform="translate(620.4,212.31)" d="M0,0Z" style="opacity: 1; stroke-width: 0px; fill: rgb(204, 204, 204); fill-opacity: 1;"/><path class="point" transform="translate(475.15,430.19)" d="M0,0L19.616396055795974,-15.498290414821632L6.760331235950679,-24.068608634074167Z" style="opacity: 1; stroke-width: 0px; fill: rgb(204, 204, 204); fill-opacity: 1;"/></g><g class="text"/></g><g class="trace scatter trace6d80c9" style="stroke-miterlimit: 2; opacity: 1;"><g class="fills"/><g class="errorbars"/><g class="lines"><path class="js-line" d="M650.37,208.26L812.896870641025,349.11420711322387" style="vector-effect: none; fill: none; stroke: rgb(204, 204, 204); stroke-opacity: 1; stroke-width: 7px; opacity: 1;"/></g><g class="points"><path class="point" transform="translate(650.37,208.26)" d="M0,0Z" style="opacity: 1; stroke-width: 0px; fill: rgb(204, 204, 204); fill-opacity: 1;"/><path class="point" transform="translate(829.9,363.85)" d="M0,0L-12.908456237605014,-21.409618342274015L-23.027418386166843,-9.733344875654256Z" style="opacity: 1; stroke-width: 0px; fill: rgb(204, 204, 204); fill-opacity: 1;"/></g><g class="text"/></g><g class="trace scatter trace6b7982" style="stroke-miterlimit: 2; opacity: 1;"><g class="fills"/><g class="errorbars"/><g class="lines"><path class="js-line" d="M638.05,215.61L707.7690646990802,529.345791145861" style="vector-effect: none; fill: none; stroke: rgb(204, 204, 204); stroke-opacity: 1; stroke-width: 7px; opacity: 1;"/></g><g class="points"><path class="point" transform="translate(638.05,215.61)" d="M0,0Z" style="opacity: 1; stroke-width: 0px; fill: rgb(204, 204, 204); fill-opacity: 1;"/><path class="point" transform="translate(712.65,551.31)" d="M0,0L2.384100549242807,-24.886061652481295L-12.698882166333686,-21.534585942747363Z" style="opacity: 1; stroke-width: 0px; fill: rgb(204, 204, 204); fill-opacity: 1;"/></g><g class="text"/></g></g></g><g class="overplot"/><path class="xlines-above crisp" d="M3,797.5H924M3,1.5H924" style="fill: none; stroke-width: 1px; stroke: rgb(0, 0, 0); stroke-opacity: 1;"/><path class="ylines-above crisp" d="M3.5,2V797M923.5,2V797" style="fill: none; stroke-width: 1px; stroke: rgb(0, 0, 0); stroke-opacity: 1;"/><g class="overlines-above"/><g class="xaxislayer-above"><g class="xtick"><text text-anchor="middle" x="0" y="799.2" transform="translate(65.27000000000001,0)" style="font-family: 'Open Sans', verdana, arial, sans-serif; font-size: 1px; fill: rgb(42, 63, 95); fill-opacity: 1; white-space: pre; opacity: 1;">0</text></g><g class="xtick"><text text-anchor="middle" x="0" y="799.2" style="font-family: 'Open Sans', verdana, arial, sans-serif; font-size: 1px; fill: rgb(42, 63, 95); fill-opacity: 1; white-space: pre; opacity: 1;" transform="translate(228.64,0)">2</text></g><g class="xtick"><text text-anchor="middle" x="0" y="799.2" style="font-family: 'Open Sans', verdana, arial, sans-serif; font-size: 1px; fill: rgb(42, 63, 95); fill-opacity: 1; white-space: pre; opacity: 1;" transform="translate(392.02,0)">4</text></g><g class="xtick"><text text-anchor="middle" x="0" y="799.2" style="font-family: 'Open Sans', verdana, arial, sans-serif; font-size: 1px; fill: rgb(42, 63, 95); fill-opacity: 1; white-space: pre; opacity: 1;" transform="translate(555.4,0)">6</text></g><g class="xtick"><text text-anchor="middle" x="0" y="799.2" style="font-family: 'Open Sans', verdana, arial, sans-serif; font-size: 1px; fill: rgb(42, 63, 95); fill-opacity: 1; white-space: pre; opacity: 1;" transform="translate(718.78,0)">8</text></g><g class="xtick"><text text-anchor="middle" x="0" y="799.2" style="font-family: 'Open Sans', verdana, arial, sans-serif; font-size: 1px; fill: rgb(42, 63, 95); fill-opacity: 1; white-space: pre; opacity: 1;" transform="translate(882.16,0)">10</text></g></g><g class="yaxislayer-above"><g class="ytick"><text text-anchor="end" x="2.8" y="0.35" transform="translate(0,685.41)" style="font-family: 'Open Sans', verdana, arial, sans-serif; font-size: 1px; fill: rgb(42, 63, 95); fill-opacity: 1; white-space: pre; opacity: 1;">−4</text></g><g class="ytick"><text text-anchor="end" x="2.8" y="0.35" style="font-family: 'Open Sans', verdana, arial, sans-serif; font-size: 1px; fill: rgb(42, 63, 95); fill-opacity: 1; white-space: pre; opacity: 1;" transform="translate(0,522.03)">−2</text></g><g class="ytick"><text text-anchor="end" x="2.8" y="0.35" style="font-family: 'Open Sans', verdana, arial, sans-serif; font-size: 1px; fill: rgb(42, 63, 95); fill-opacity: 1; white-space: pre; opacity: 1;" transform="translate(0,358.66)">0</text></g><g class="ytick"><text text-anchor="end" x="2.8" y="0.35" style="font-family: 'Open Sans', verdana, arial, sans-serif; font-size: 1px; fill: rgb(42, 63, 95); fill-opacity: 1; white-space: pre; opacity: 1;" transform="translate(0,195.28)">2</text></g><g class="ytick"><text text-anchor="end" x="2.8" y="0.35" style="font-family: 'Open Sans', verdana, arial, sans-serif; font-size: 1px; fill: rgb(42, 63, 95); fill-opacity: 1; white-space: pre; opacity: 1;" transform="translate(0,31.9)">4</text></g></g><g class="overaxes-above"/></g></g><g class="polarlayer"/><g class="smithlayer"/><g class="ternarylayer"/><g class="geolayer"/><g class="funnelarealayer"/><g class="pielayer"/><g class="iciclelayer"/><g class="treemaplayer"/><g class="sunburstlayer"/><g class="glimages"/><defs id="topdefs-25b4c7"><g class="clips"/></defs><g class="layer-above"><g class="imagelayer"/><g class="shapelayer"/></g><g class="infolayer"><g class="g-gtitle"/><g class="g-xtitle"/><g class="g-ytitle"/></g></svg>