<svg class="main-svg" xmlns="http://www.w3.org/2000/svg" xmlns:xlink="http://www.w3.org/1999/xlink" width="925" height="800" style="" viewBox="0 0 925 800"><rect x="0" y="0" width="925" height="800" style="fill: rgb(255, 255, 255); fill-opacity: 1;"/><defs id="defs-0eaf5e"><g class="clips"><clipPath id="clip0eaf5exyplot" class="plotclip"><rect width="919" height="795"/></clipPath><clipPath class="axesclip" id="clip0eaf5ex"><rect x="4" y="0" width="919" height="800"/></clipPath><clipPath class="axesclip" id="clip0eaf5ey"><rect x="0" y="2" width="925" height="795"/></clipPath><clipPath class="axesclip" id="clip0eaf5exy"><rect x="4" y="2" width="919" height="795"/></clipPath></g><g class="gradients"/><g class="patterns"/></defs><g class="bglayer"/><g class="layer-below"><g class="imagelayer"/><g class="shapelayer"/></g><g class="cartesianlayer"><g class="subplot xy"><g class="layer-subplot"><g class="shapelayer"/><g class="imagelayer"/></g><g class="minor-gridlayer"><g class="x"/><g class="y"/></g><g class="gridlayer"><g class="x"><path class="xgrid crisp" transform="translate(65.27000000000001,0)" d="M0,2v795" style="stroke: rgb(211, 211, 211); stroke-opacity: 1; stroke-width: 1px;"/><path class="xgrid crisp" transform="translate(228.64,0)" d="M0,2v795" style="stroke: rgb(211, 211, 211); stroke-opacity: 1; stroke-width: 1px;"/><path class="xgrid crisp" transform="translate(392.02,0)" d="M0,2v795" style="stroke: rgb(211, 211, 211); stroke-opacity: 1; stroke-width: 1px;"/><path class="xgrid crisp" transform="translate(555.4,0)" d="M0,2v795" style="stroke: rgb(211, 211, 211); stroke-opacity: 1; stroke-width: 1px;"/><path class="xgrid crisp" transform="translate(718.78,0)" d="M0,2v795" style="stroke: rgb(211, 211, 211); stroke-opacity: 1; stroke-width: 1px;"/><path class="xgrid crisp" transform="translate(882.16,0)" d="M0,2v795" style="stroke: rgb(211, 211, 211); stroke-opacity: 1; stroke-width: 1px;"/></g><g class="y"><path class="ygrid crisp" transform="translate(0,685.41)" d="M4,0h919" style="stroke: rgb(211, 211, 211); stroke-opacity: 1; stroke-width: 1px;"/><path class="ygrid crisp" transform="translate(0,522.03)" d="M4,0h919" style="stroke: rgb(211, 211, 211); stroke-opacity: 1; stroke-width: 1px;"/><path class="ygrid crisp" transform="translate(0,358.66)" d="M4,0h919" style="stroke: rgb(211, 211, 211); stroke-opacity: 1; stroke-width: 1px;"/><path class="ygrid crisp" transform="translate(0,195.28)" d="M4,0h919" style="stroke: rgb(211, 211, 211); stroke-opacity: 1; stroke-width: 1px;"/><path class="ygrid crisp" transform="translate(0,31.9)" d="M4,0h919" style="stroke: rgb(211, 211, 211); stroke-opacity: 1; stroke-width: 1px;"/></g></g><g class="zerolinelayer"/><g class="layer-between"><g class="shapelayer"/><g class="imagelayer"/></g><path class="xlines-below"/><path class="ylines-below"/><g class="overlines-below"/><g class="xaxislayer-below"/><g class="yaxislayer-below"/><g class="overaxes-below"/><g class="plot" transform="translate(4,2)" clip-path="url(#clip0eaf5exyplot)"><g class="scatterlayer mlayer"><g class="trace scatter tracedbc6a7" style="stroke-miterlimit: 2;"><g class="fills"><g><path class="js-fill" d="M837.31,356.66L837.31,356.66L837.31,362.1L840.7,362.84L840.75,362.86L843.34,364.76L843.37,364.8L844.98,367.46L845,367.51L845.43,371.15L845.43,371.21L844.23,374.62L844.2,374.66L841.5,377.29L841.45,377.31L838.31,378.38L838.26,378.38L834.91,378.08L834.86,378.06L831.73,376.24L831.7,376.2L829.76,373.39L829.74,373.34L829.14,370.08L829.15,370.03L829.89,366.85L829.92,366.8L831.83,364.22L831.87,364.18L834.98,362.44L835.03,362.43L837.31,362.1" style="fill: rgb(0, 0, 0); fill-opacity: 1; stroke-width: 0;"/></g></g><g class="errorbars"/><g class="lines"><path class="js-line" d="M837.31,362.1L840.7,362.84L840.75,362.86L843.34,364.76L843.37,364.8L844.98,367.46L845,367.51L845.43,371.15L845.43,371.21L844.23,374.62L844.2,374.66L841.5,377.29L841.45,377.31L838.31,378.38L838.26,378.38L834.91,378.08L834.86,378.06L831.73,376.24L831.7,376.2L829.76,373.39L829.74,373.34L829.14,370.08L829.15,370.03L829.89,366.85L829.92,366.8L831.83,364.22L831.87,364.18L834.98,362.44L835.03,362.43L837.31,362.1" style="vector-effect: none; fill: none; stroke: rgb(0, 0, 0); stroke-opacity: 1; stroke-width: 3px; opacity: 1;"/></g><g class="points"/><g class="text"/></g><g class="trace scatter traced5b7f0" style="stroke-miterlimit: 2; opacity: 1;"><g class="fills"/><g class="errorbars"/><g class="lines"/><g class="points"/><g class="text"><g class="textpoint" transform="translate(0,10)"><text x="837.31" y="341.68" text-anchor="middle" style="font-family: 'Open Sans', verdana, arial, sans-serif; font-size: 40px; fill: rgb(42, 63, 95); fill-opacity: 1; white-space: pre;"><tspan style="font-style:italic">t</tspan></text></g></g></g><g class="trace scatter trace62d8ee" style="stroke-miterlimit: 2;"><g class="fills"><g><path class="js-fill" d="M61.27,356.66L61.27,356.66L61.27,389.33L64.65,390.07L64.7,390.09L67.33,392.03L67.36,392.06L69.04,394.99L69.05,395.03L69.39,398.38L69.38,398.44L68.18,401.85L68.15,401.89L65.8,404.3L65.76,404.33L62.27,405.61L62.22,405.61L58.81,405.29L58.76,405.28L55.5,403.29L55.47,403.25L53.6,400.33L53.59,400.28L53.1,397.26L53.1,397.2L54.08,393.62L54.1,393.57L56.71,390.72L56.76,390.69L60.24,389.4L60.29,389.39L61.27,389.33" style="fill: rgb(0, 0, 0); fill-opacity: 1; stroke-width: 0;"/></g></g><g class="errorbars"/><g class="lines"><path class="js-line" d="M61.27,389.33L64.65,390.07L64.7,390.09L67.33,392.03L67.36,392.06L69.04,394.99L69.05,395.03L69.39,398.38L69.38,398.44L68.18,401.85L68.15,401.89L65.8,404.3L65.76,404.33L62.27,405.61L62.22,405.61L58.81,405.29L58.76,405.28L55.5,403.29L55.47,403.25L53.6,400.33L53.59,400.28L53.1,397.26L53.1,397.2L54.08,393.62L54.1,393.57L56.71,390.72L56.76,390.69L60.24,389.4L60.29,389.39L61.27,389.33" style="vector-effect: none; fill: none; stroke: rgb(0, 0, 0); stroke-opacity: 1; stroke-width: 3px; opacity: 1;"/></g><g class="points"/><g class="text"/></g><g class="trace scatter trace671429" style="stroke-miterlimit: 2; opacity: 1;"><g class="fills"/><g class="errorbars"/><g class="lines"/><g class="points"/><g class="text"><g class="textpoint" transform="translate(0,10)"><text x="61.27" y="368.91" text-anchor="middle" style="font-family: 'Open Sans', verdana, arial, sans-serif; font-size: 40px; fill: rgb(42, 63, 95); fill-opacity: 1; white-space: pre;"><tspan style="font-style:italic">s</tspan></text></g></g></g><g class="trace scatter trace1e9891" style="stroke-miterlimit: 2;"><g class="fills"><g><path class="js-fill" d="M245.07,356.66L245.07,356.66L245.07,307.64L248.45,308.38L248.5,308.4L251.43,310.69L251.46,310.73L252.96,313.69L252.97,313.74L253.12,317.2L253.11,317.25L251.75,320.5L251.72,320.54L249.21,322.85L249.16,322.88L246.07,323.92L246.02,323.92L242.61,323.6L242.56,323.59L239.3,321.6L239.27,321.56L237.4,318.64L237.39,318.59L236.9,315.57L236.9,315.52L237.86,311.97L237.88,311.93L239.97,309.42L240.02,309.39L243.33,307.83L243.38,307.82L245.07,307.64" style="fill: rgb(0, 0, 0); fill-opacity: 1; stroke-width: 0;"/></g></g><g class="errorbars"/><g class="lines"><path class="js-line" d="M245.07,307.64L248.45,308.38L248.5,308.4L251.43,310.69L251.46,310.73L252.96,313.69L252.97,313.74L253.12,317.2L253.11,317.25L251.75,320.5L251.72,320.54L249.21,322.85L249.16,322.88L246.07,323.92L246.02,323.92L242.61,323.6L242.56,323.59L239.3,321.6L239.27,321.56L237.4,318.64L237.39,318.59L236.9,315.57L236.9,315.52L237.86,311.97L237.88,311.93L239.97,309.42L240.02,309.39L243.33,307.83L243.38,307.82L245.07,307.64" style="vector-effect: none; fill: none; stroke: rgb(0, 0, 0); stroke-opacity: 1; stroke-width: 3px; opacity: 1;"/></g><g class="points"/><g class="text"/></g><g class="trace scatter trace60ac10" style="stroke-miterlimit: 2;"><g class="fills"><g><path class="js-fill" d="M285.91,356.66L285.91,356.66L285.91,144.26L289.76,145.23L289.81,145.25L292.7,147.89L292.73,147.93L294.02,151.42L294.02,151.47L293.71,154.87L293.69,154.92L291.89,158L291.85,158.04L289.04,159.98L288.99,160L285.73,160.6L285.68,160.6L282.04,159.63L281.99,159.6L279.22,157.12L279.19,157.08L277.8,153.42L277.8,153.37L278.09,150.07L278.11,150.02L279.61,147.23L279.65,147.19L282.52,145L282.57,144.98L285.91,144.26" style="fill: rgb(0, 0, 0); fill-opacity: 1; stroke-width: 0;"/></g></g><g class="errorbars"/><g class="lines"><path class="js-line" d="M285.91,144.26L289.76,145.23L289.81,145.25L292.7,147.89L292.73,147.93L294.02,151.42L294.02,151.47L293.71,154.87L293.69,154.92L291.89,158L291.85,158.04L289.04,159.98L288.99,160L285.73,160.6L285.68,160.6L282.04,159.63L281.99,159.6L279.22,157.12L279.19,157.08L277.8,153.42L277.8,153.37L278.09,150.07L278.11,150.02L279.61,147.23L279.65,147.19L282.52,145L282.57,144.98L285.91,144.26" style="vector-effect: none; fill: none; stroke: rgb(0, 0, 0); stroke-opacity: 1; stroke-width: 3px; opacity: 1;"/></g><g class="points"/><g class="text"/></g><g class="trace scatter trace105875" style="stroke-miterlimit: 2;"><g class="fills"><g><path class="js-fill" d="M273.66,356.66L273.66,356.66L273.66,609.89L277.05,610.63L277.09,610.65L279.72,612.59L279.76,612.62L281.53,615.89L281.55,615.94L281.71,619.45L281.7,619.5L280.35,622.75L280.32,622.79L277.84,625.08L277.8,625.1L274.4,626.19L274.35,626.2L270.77,625.7L270.72,625.68L267.9,623.85L267.86,623.81L265.99,620.89L265.98,620.84L265.51,617.46L265.52,617.41L266.47,614.18L266.5,614.13L268.81,611.48L268.85,611.45L272.23,610.02L272.28,610.01L273.66,609.89" style="fill: rgb(0, 0, 0); fill-opacity: 1; stroke-width: 0;"/></g></g><g class="errorbars"/><g class="lines"><path class="js-line" d="M273.66,609.89L277.05,610.63L277.09,610.65L279.72,612.59L279.76,612.62L281.53,615.89L281.55,615.94L281.71,619.45L281.7,619.5L280.35,622.75L280.32,622.79L277.84,625.08L277.8,625.1L274.4,626.19L274.35,626.2L270.77,625.7L270.72,625.68L267.9,623.85L267.86,623.81L265.99,620.89L265.98,620.84L265.51,617.46L265.52,617.41L266.47,614.18L266.5,614.13L268.81,611.48L268.85,611.45L272.23,610.02L272.28,610.01L273.66,609.89" style="vector-effect: none; fill: none; stroke: rgb(0, 0, 0); stroke-opacity: 1; stroke-width: 3px; opacity: 1;"/></g><g class="points"/><g class="text"/></g><g class="trace scatter trace033e17" style="stroke-miterlimit: 2;"><g class="fills"><g><path class="js-fill" d="M551.4,356.66L551.4,356.66L551.4,648.01L555.16,648.93L555.2,648.95L558.04,651.43L558.07,651.47L559.44,654.71L559.44,654.76L559.32,658.18L559.31,658.23L557.72,661.36L557.68,661.4L554.95,663.54L554.9,663.56L551.68,664.35L551.63,664.35L547.99,663.6L547.94,663.58L545.35,661.67L545.32,661.64L543.52,658.33L543.5,658.28L543.45,654.31L543.46,654.26L545.1,650.98L545.13,650.94L547.87,648.81L547.92,648.79L551.4,648.01" style="fill: rgb(0, 0, 0); fill-opacity: 1; stroke-width: 0;"/></g></g><g class="errorbars"/><g class="lines"><path class="js-line" d="M551.4,648.01L555.16,648.93L555.2,648.95L558.04,651.43L558.07,651.47L559.44,654.71L559.44,654.76L559.32,658.18L559.31,658.23L557.72,661.36L557.68,661.4L554.95,663.54L554.9,663.56L551.68,664.35L551.63,664.35L547.99,663.6L547.94,663.58L545.35,661.67L545.32,661.64L543.52,658.33L543.5,658.28L543.45,654.31L543.46,654.26L545.1,650.98L545.13,650.94L547.87,648.81L547.92,648.79L551.4,648.01" style="vector-effect: none; fill: none; stroke: rgb(0, 0, 0); stroke-opacity: 1; stroke-width: 3px; opacity: 1;"/></g><g class="points"/><g class="text"/></g><g class="trace scatter trace4f055c" style="stroke-miterlimit: 2;"><g class="fills"><g><path class="js-fill" d="M714.78,356.66L714.78,356.66L714.78,552.71L718.17,553.44L718.21,553.47L720.84,555.4L720.88,555.44L722.65,558.71L722.67,558.76L722.83,562.27L722.82,562.32L721.41,565.65L721.38,565.69L718.6,568.1L718.56,568.12L715.06,569.04L715.01,569.04L711.84,568.5L711.79,568.48L708.73,566.37L708.7,566.33L707.11,563.71L707.1,563.66L706.65,560.02L706.66,559.97L707.82,556.59L707.85,556.55L710.22,554.1L710.27,554.07L713.35,552.84L713.4,552.83L714.78,552.71" style="fill: rgb(0, 0, 0); fill-opacity: 1; stroke-width: 0;"/></g></g><g class="errorbars"/><g class="lines"><path class="js-line" d="M714.78,552.71L718.17,553.44L718.21,553.47L720.84,555.4L720.88,555.44L722.65,558.71L722.67,558.76L722.83,562.27L722.82,562.32L721.41,565.65L721.38,565.69L718.6,568.1L718.56,568.12L715.06,569.04L715.01,569.04L711.84,568.5L711.79,568.48L708.73,566.37L708.7,566.33L707.11,563.71L707.1,563.66L706.65,560.02L706.66,559.97L707.82,556.59L707.85,556.55L710.22,554.1L710.27,554.07L713.35,552.84L713.4,552.83L714.78,552.71" style="vector-effect: none; fill: none; stroke: rgb(0, 0, 0); stroke-opacity: 1; stroke-width: 3px; opacity: 1;"/></g><g class="points"/><g class="text"/></g><g class="trace scatter traceb6822c" style="stroke-miterlimit: 2;"><g class="fills"><g><path class="js-fill" d="M469.71,356.66L469.71,356.66L469.71,430.18L473.15,430.93L473.19,430.95L476.07,433.22L476.11,433.26L477.74,436.82L477.75,436.88L477.52,440.74L477.51,440.79L475.51,444.1L475.47,444.13L472.55,446L472.51,446.02L468.86,446.47L468.81,446.46L465.79,445.51L465.75,445.49L462.94,442.91L462.91,442.87L461.67,439.79L461.66,439.74L461.89,435.98L461.91,435.93L463.41,433.14L463.45,433.1L466.32,430.91L466.37,430.89L469.71,430.18" style="fill: rgb(0, 0, 0); fill-opacity: 1; stroke-width: 0;"/></g></g><g class="errorbars"/><g class="lines"><path class="js-line" d="M469.71,430.18L473.15,430.93L473.19,430.95L476.07,433.22L476.11,433.26L477.74,436.82L477.75,436.88L477.52,440.74L477.51,440.79L475.51,444.1L475.47,444.13L472.55,446L472.51,446.02L468.86,446.47L468.81,446.46L465.79,445.51L465.75,445.49L462.94,442.91L462.91,442.87L461.67,439.79L461.66,439.74L461.89,435.98L461.91,435.93L463.41,433.14L463.45,433.1L466.32,430.91L466.37,430.89L469.71,430.18" style="vector-effect: none; fill: none; stroke: rgb(0, 0, 0); stroke-opacity: 1; stroke-width: 3px; opacity: 1;"/></g><g class="points"/><g class="text"/></g><g class="trace scatter tracef62d55" style="stroke-miterlimit: 2;"><g class="fills"><g><path class="js-fill" d="M633.09,356.66L633.09,356.66L633.09,185.11L636.48,185.84L636.52,185.87L639.15,187.8L639.19,187.84L640.96,191.11L640.98,191.16L641.14,194.67L641.13,194.72L639.72,198.05L639.69,198.09L637.27,200.29L637.23,200.32L634.09,201.39L634.04,201.39L630.64,201.07L630.59,201.05L627.86,199.55L627.82,199.52L625.73,196.82L625.7,196.77L624.92,193.09L624.92,193.03L625.9,189.4L625.93,189.35L628.24,186.7L628.28,186.67L631.61,185.24L631.66,185.24L633.09,185.11" style="fill: rgb(0, 0, 0); fill-opacity: 1; stroke-width: 0;"/></g></g><g class="errorbars"/><g class="lines"><path class="js-line" d="M633.09,185.11L636.48,185.84L636.52,185.87L639.15,187.8L639.19,187.84L640.96,191.11L640.98,191.16L641.14,194.67L641.13,194.72L639.72,198.05L639.69,198.09L637.27,200.29L637.23,200.32L634.09,201.39L634.04,201.39L630.64,201.07L630.59,201.05L627.86,199.55L627.82,199.52L625.73,196.82L625.7,196.77L624.92,193.09L624.92,193.03L625.9,189.4L625.93,189.35L628.24,186.7L628.28,186.67L631.61,185.24L631.66,185.24L633.09,185.11" style="vector-effect: none; fill: none; stroke: rgb(0, 0, 0); stroke-opacity: 1; stroke-width: 3px; opacity: 1;"/></g><g class="points"/><g class="text"/></g><g class="trace scatter tracec4ff54" style="stroke-miterlimit: 2; opacity: 1;"><g class="fills"/><g class="errorbars"/><g class="lines"><path class="js-line" d="M82.17,388.21L215.54935031238318,328.9283633339401" style="vector-effect: none; fill: none; stroke: rgb(204, 204, 204); stroke-opacity: 1; stroke-width: 7px; opacity: 1;"/></g><g class="points"><path class="point" transform="translate(82.17,388.21)" d="M0,0Z" style="opacity: 1; stroke-width: 0px; fill: rgb(204, 204, 204); fill-opacity: 1;"/><path class="point" transform="translate(236.11,319.79)" d="M0,0L-24.864690556862183,2.5975302715249597L-18.589167234390143,16.716544545206578Z" style="opacity: 1; stroke-width: 0px; fill: rgb(204, 204, 204); fill-opacity: 1;"/></g><g class="text"/></g><g class="trace scatter trace65c688" style="stroke-miterlimit: 2; opacity: 1;"><g class="fills"/><g class="errorbars"/><g class="lines"><path class="js-line" d="M76.72,380.64L264.08599193492455,176.2457812223941" style="vector-effect: none; fill: none; stroke: rgb(204, 204, 204); stroke-opacity: 1; stroke-width: 7px; opacity: 1;"/></g><g class="points"><path class="point" transform="translate(76.72,380.64)" d="M0,0Z" style="opacity: 1; stroke-width: 0px; fill: rgb(204, 204, 204); fill-opacity: 1;"/><path class="point" transform="translate(279.29,159.66)" d="M0,0L-21.76070982972687,12.30737615035911L-10.370689866313809,22.747500779134747Z" style="opacity: 1; stroke-width: 0px; fill: rgb(204, 204, 204); fill-opacity: 1;"/></g><g class="text"/></g><g class="trace scatter trace8955c5" style="stroke-miterlimit: 2; opacity: 1;"><g class="fills"/><g class="errorbars"/><g class="lines"><path class="js-line" d="M77.13,413.98L251.25276169130532,594.7930844274547" style="vector-effect: none; fill: none; stroke: rgb(204, 204, 204); stroke-opacity: 1; stroke-width: 7px; opacity: 1;"/></g><g class="points"><path class="point" transform="translate(77.13,413.98)" d="M0,0Z" style="opacity: 1; stroke-width: 0px; fill: rgb(204, 204, 204); fill-opacity: 1;"/><path class="point" transform="translate(266.86,611)" d="M0,0L-10.927465967500185,-22.485339391014875L-22.05705655999109,-11.768018350994952Z" style="opacity: 1; stroke-width: 0px; fill: rgb(204, 204, 204); fill-opacity: 1;"/></g><g class="text"/></g><g class="trace scatter trace9e219b" style="stroke-miterlimit: 2; opacity: 1;"><g class="fills"/><g class="errorbars"/><g class="lines"><path class="js-line" d="M265.15,326.76L441.35746517607737,422.8756151901965" style="vector-effect: none; fill: none; stroke: rgb(204, 204, 204); stroke-opacity: 1; stroke-width: 7px; opacity: 1;"/></g><g class="points"><path class="point" transform="translate(265.15,326.76)" d="M0,0Z" style="opacity: 1; stroke-width: 0px; fill: rgb(204, 204, 204); fill-opacity: 1;"/><path class="point" transform="translate(461.11,433.65)" d="M0,0L-17.17393615255883,-18.167441124930964L-24.57256017285659,-4.6031822200888435Z" style="opacity: 1; stroke-width: 0px; fill: rgb(204, 204, 204); fill-opacity: 1;"/></g><g class="text"/></g><g class="trace scatter trace04b115" style="stroke-miterlimit: 2; opacity: 1;"><g class="fills"/><g class="errorbars"/><g class="lines"><path class="js-line" d="M250.61,293.62L278.0729484366825,183.76820625326997" style="vector-effect: none; fill: none; stroke: rgb(204, 204, 204); stroke-opacity: 1; stroke-width: 7px; opacity: 1;"/></g><g class="points"><path class="point" transform="translate(250.61,293.62)" d="M0,0Z" style="opacity: 1; stroke-width: 0px; fill: rgb(204, 204, 204); fill-opacity: 1;"/><path class="point" transform="translate(283.53,161.94)" d="M0,0L-13.262521282801835,21.19211007009987L1.7268046581174028,24.940291611621223Z" style="opacity: 1; stroke-width: 0px; fill: rgb(204, 204, 204); fill-opacity: 1;"/></g><g class="text"/></g><g class="trace scatter trace96ae92" style="stroke-miterlimit: 2; opacity: 1;"><g class="fills"/><g class="errorbars"/><g class="lines"><path class="js-line" d="M247.22,338.58L270.61141439917986,585.899964396189" style="vector-effect: none; fill: none; stroke: rgb(204, 204, 204); stroke-opacity: 1; stroke-width: 7px; opacity: 1;"/></g><g class="points"><path class="point" transform="translate(247.22,338.58)" d="M0,0Z" style="opacity: 1; stroke-width: 0px; fill: rgb(204, 204, 204); fill-opacity: 1;"/><path class="point" transform="translate(272.73,608.3)" d="M0,0L5.452388785651577,-24.398185517167065L-9.929818442155103,-22.943380433271734Z" style="opacity: 1; stroke-width: 0px; fill: rgb(204, 204, 204); fill-opacity: 1;"/></g><g class="text"/></g><g class="trace scatter traceca5f9d" style="stroke-miterlimit: 2; opacity: 1;"><g class="fills"/><g class="errorbars"/><g class="lines"><path class="js-line" d="M298.28,171.67L452.2431392714476,411.173365327877" style="vector-effect: none; fill: none; stroke: rgb(204, 204, 204); stroke-opacity: 1; stroke-width: 7px; opacity: 1;"/></g><g class="points"><path class="point" transform="translate(298.28,171.67)" d="M0,0Z" style="opacity: 1; stroke-width: 0px; fill: rgb(204, 204, 204); fill-opacity: 1;"/><path class="point" transform="translate(464.41,430.1)" d="M0,0L-6.358579263260788,-24.177850809218544L-19.355582821844408,-15.822813075642447Z" style="opacity: 1; stroke-width: 0px; fill: rgb(204, 204, 204); fill-opacity: 1;"/></g><g class="text"/></g><g class="trace scatter traced0abdb" style="stroke-miterlimit: 2; opacity: 1;"><g class="fills"/><g class="errorbars"/><g class="lines"><path class="js-line" d="M308.63,155.11L601.0040629405968,189.50148389063577" style="vector-effect: none; fill: none; stroke: rgb(204, 204, 204); stroke-opacity: 1; stroke-width: 7px; opacity: 1;"/></g><g class="points"><path class="point" transform="translate(308.63,155.11)" d="M0,0Z" style="opacity: 1; stroke-width: 0px; fill: rgb(204, 204, 204); fill-opacity: 1;"/><path class="point" transform="translate(623.35,192.13)" d="M0,0L-22.710853022311532,-10.450701172599047L-24.516234077171042,4.8943096217298425Z" style="opacity: 1; stroke-width: 0px; fill: rgb(204, 204, 204); fill-opacity: 1;"/></g><g class="text"/></g><g class="trace scatter trace1cc3dc" style="stroke-miterlimit: 2; opacity: 1;"><g class="fills"/><g class="errorbars"/><g class="lines"><path class="js-line" d="M296.32,621.17L519.3990110569098,651.7902921807748" style="vector-effect: none; fill: none; stroke: rgb(204, 204, 204); stroke-opacity: 1; stroke-width: 7px; opacity: 1;"/></g><g class="points"><path class="point" transform="translate(296.32,621.17)" d="M0,0Z" style="opacity: 1; stroke-width: 0px; fill: rgb(204, 204, 204); fill-opacity: 1;"/><path class="point" transform="translate(541.69,654.85)" d="M0,0L-22.504851606638745,-10.887224355324431L-24.60615732011621,4.42007035438253Z" style="opacity: 1; stroke-width: 0px; fill: rgb(204, 204, 204); fill-opacity: 1;"/></g><g class="text"/></g><g class="trace scatter traceacf500" style="stroke-miterlimit: 2; opacity: 1;"><g class="fills"/><g class="errorbars"/><g class="lines"><path class="js-line" d="M290.52,602.6L445.90359146070267,460.1733237079109" style="vector-effect: none; fill: none; stroke: rgb(204, 204, 204); stroke-opacity: 1; stroke-width: 7px; opacity: 1;"/></g><g class="points"><path class="point" transform="translate(290.52,602.6)" d="M0,0Z" style="opacity: 1; stroke-width: 0px; fill: rgb(204, 204, 204); fill-opacity: 1;"/><path class="point" transform="translate(462.49,444.97)" d="M0,0L-22.747032290764402,10.371717406626617L-12.306393162263825,21.761265756747378Z" style="opacity: 1; stroke-width: 0px; fill: rgb(204, 204, 204); fill-opacity: 1;"/></g><g class="text"/></g><g class="trace scatter trace3263bc" style="stroke-miterlimit: 2; opacity: 1;"><g class="fills"/><g class="errorbars"/><g class="lines"><path class="js-line" d="M271.5,595.29L248.1085856008202,347.9700356038109" style="vector-effect: none; fill: none; stroke: rgb(204, 204, 204); stroke-opacity: 1; stroke-width: 7px; opacity: 1;"/></g><g class="points"><path class="point" transform="translate(271.5,595.29)" d="M0,0Z" style="opacity: 1; stroke-width: 0px; fill: rgb(204, 204, 204); fill-opacity: 1;"/><path class="point" transform="translate(245.99,325.57)" d="M0,0L-5.451496102357666,24.398384992576435L9.930657886814293,22.943017106192745Z" style="opacity: 1; stroke-width: 0px; fill: rgb(204, 204, 204); fill-opacity: 1;"/></g><g class="text"/></g><g class="trace scatter trace3c26bd" style="stroke-miterlimit: 2; opacity: 1;"><g class="fills"/><g class="errorbars"/><g class="lines"><path class="js-line" d="M528.74,653.07L305.6609889430903,622.4497078192252" style="vector-effect: none; fill: none; stroke: rgb(204, 204, 204); stroke-opacity: 1; stroke-width: 7px; opacity: 1;"/></g><g class="points"><path class="point" transform="translate(528.74,653.07)" d="M0,0Z" style="opacity: 1; stroke-width: 0px; fill: rgb(204, 204, 204); fill-opacity: 1;"/><path class="point" transform="translate(283.37,619.39)" d="M0,0L22.505285199995594,10.886328034138012L24.60598126013586,-4.42105035323541Z" style="opacity: 1; stroke-width: 0px; fill: rgb(204, 204, 204); fill-opacity: 1;"/></g><g class="text"/></g><g class="trace scatter tracee346d6" style="stroke-miterlimit: 2; opacity: 1;"><g class="fills"/><g class="errorbars"/><g class="lines"><path class="js-line" d="M571.16,644.66L686.8751312003631,577.1573663053155" style="vector-effect: none; fill: none; stroke: rgb(204, 204, 204); stroke-opacity: 1; stroke-width: 7px; opacity: 1;"/></g><g class="points"><path class="point" transform="translate(571.16,644.66)" d="M0,0Z" style="opacity: 1; stroke-width: 0px; fill: rgb(204, 204, 204); fill-opacity: 1;"/><path class="point" transform="translate(706.31,565.82)" d="M0,0L-24.43023017367441,5.306962752958442L-16.645116946339783,18.65315206185464Z" style="opacity: 1; stroke-width: 0px; fill: rgb(204, 204, 204); fill-opacity: 1;"/></g><g class="text"/></g><g class="trace scatter trace09b067" style="stroke-miterlimit: 2; opacity: 1;"><g class="fills"/><g class="errorbars"/><g class="lines"><path class="js-line" d="M727.15,541.64L819.8431887678427,397.44666649045865" style="vector-effect: none; fill: none; stroke: rgb(204, 204, 204); stroke-opacity: 1; stroke-width: 7px; opacity: 1;"/></g><g class="points"><path class="point" transform="translate(727.15,541.64)" d="M0,0Z" style="opacity: 1; stroke-width: 0px; fill: rgb(204, 204, 204); fill-opacity: 1;"/><path class="point" transform="translate(832.01,378.52)" d="M0,0L-19.355785691284062,15.822564908164642L-6.358889257268656,24.177769281176317Z" style="opacity: 1; stroke-width: 0px; fill: rgb(204, 204, 204); fill-opacity: 1;"/></g><g class="text"/></g><g class="trace scatter trace5926d5" style="stroke-miterlimit: 2; opacity: 1;"><g class="fills"/><g class="errorbars"/><g class="lines"><path class="js-line" d="M694.32,550.65L498.60461179749814,452.7923058987491" style="vector-effect: none; fill: none; stroke: rgb(204, 204, 204); stroke-opacity: 1; stroke-width: 7px; opacity: 1;"/></g><g class="points"><path class="point" transform="translate(694.32,550.65)" d="M0,0Z" style="opacity: 1; stroke-width: 0px; fill: rgb(204, 204, 204); fill-opacity: 1;"/><path class="point" transform="translate(478.48,442.73)" d="M0,0L17.811355180675736,17.542965160651022L24.721185236926264,3.7233050481499674Z" style="opacity: 1; stroke-width: 0px; fill: rgb(204, 204, 204); fill-opacity: 1;"/></g><g class="text"/></g><g class="trace scatter trace6c0cff" style="stroke-miterlimit: 2; opacity: 1;"><g class="fills"/><g class="errorbars"/><g class="lines"><path class="js-line" d="M477.74,459.76L540.0592293520263,625.9327784658699" style="vector-effect: none; fill: none; stroke: rgb(204, 204, 204); stroke-opacity: 1; stroke-width: 7px; opacity: 1;"/></g><g class="points"><path class="point" transform="translate(477.74,459.76)" d="M0,0Z" style="opacity: 1; stroke-width: 0px; fill: rgb(204, 204, 204); fill-opacity: 1;"/><path class="point" transform="translate(547.96,647)" d="M0,0L-1.1146241450308647,-24.97513989981466L-15.581768782722987,-19.55015298154363Z" style="opacity: 1; stroke-width: 0px; fill: rgb(204, 204, 204); fill-opacity: 1;"/></g><g class="text"/></g><g class="trace scatter traceb34e8d" style="stroke-miterlimit: 2; opacity: 1;"><g class="fills"/><g class="errorbars"/><g class="lines"><path class="js-line" d="M490.17,448.57L685.8853882025019,546.427694101251" style="vector-effect: none; fill: none; stroke: rgb(204, 204, 204); stroke-opacity: 1; stroke-width: 7px; opacity: 1;"/></g><g class="points"><path class="point" transform="translate(490.17,448.57)" d="M0,0Z" style="opacity: 1; stroke-width: 0px; fill: rgb(204, 204, 204); fill-opacity: 1;"/><path class="point" transform="translate(706.01,556.49)" d="M0,0L-17.811355180675726,-17.542965160651033L-24.72118523692626,-3.7233050481499816Z" style="opacity: 1; stroke-width: 0px; fill: rgb(204, 204, 204); fill-opacity: 1;"/></g><g class="text"/></g><g class="trace scatter tracefb48b3" style="stroke-miterlimit: 2; opacity: 1;"><g class="fills"/><g class="errorbars"/><g class="lines"><path class="js-line" d="M482.4,419.31L615.1694438732976,220.1512638133282" style="vector-effect: none; fill: none; stroke: rgb(204, 204, 204); stroke-opacity: 1; stroke-width: 7px; opacity: 1;"/></g><g class="points"><path class="point" transform="translate(482.4,419.31)" d="M0,0Z" style="opacity: 1; stroke-width: 0px; fill: rgb(204, 204, 204); fill-opacity: 1;"/><path class="point" transform="translate(627.65,201.43)" d="M0,0L-19.61639605579597,15.498290414821637L-6.760331235950673,24.068608634074167Z" style="opacity: 1; stroke-width: 0px; fill: rgb(204, 204, 204); fill-opacity: 1;"/></g><g class="text"/></g><g class="trace scatter trace96aa6c" style="stroke-miterlimit: 2; opacity: 1;"><g class="fills"/><g class="errorbars"/><g class="lines"><path class="js-line" d="M650.37,208.26L812.896870641025,349.11420711322387" style="vector-effect: none; fill: none; stroke: rgb(204, 204, 204); stroke-opacity: 1; stroke-width: 7px; opacity: 1;"/></g><g class="points"><path class="point" transform="translate(650.37,208.26)" d="M0,0Z" style="opacity: 1; stroke-width: 0px; fill: rgb(204, 204, 204); fill-opacity: 1;"/><path class="point" transform="translate(829.9,363.85)" d="M0,0L-12.908456237605014,-21.409618342274015L-23.027418386166843,-9.733344875654256Z" style="opacity: 1; stroke-width: 0px; fill: rgb(204, 204, 204); fill-opacity: 1;"/></g><g class="text"/></g><g class="trace scatter tracede7901" style="stroke-miterlimit: 2; opacity: 1;"><g class="fills"/><g class="errorbars"/><g class="lines"><path class="js-line" d="M638.05,215.61L707.7690646990802,529.345791145861" style="vector-effect: none; fill: none; stroke: rgb(204, 204, 204); stroke-opacity: 1; stroke-width: 7px; opacity: 1;"/></g><g class="points"><path class="point" transform="translate(638.05,215.61)" d="M0,0Z" style="opacity: 1; stroke-width: 0px; fill: rgb(204, 204, 204); fill-opacity: 1;"/><path class="point" transform="translate(712.65,551.31)" d="M0,0L2.384100549242807,-24.886061652481295L-12.698882166333686,-21.534585942747363Z" style="opacity: 1; stroke-width: 0px; fill: rgb(204, 204, 204); fill-opacity: 1;"/></g><g class="text"/></g><g class="trace scatter trace04d0d7" style="stroke-miterlimit: 2; opacity: 1;"><g class="fills"/><g class="errorbars"/><g class="lines"><path class="js-line" d="M620.4,212.31L487.6305561267024,411.46873618667183" style="vector-effect: none; fill: none; stroke: rgb(204, 204, 204); stroke-opacity: 1; stroke-width: 7px; opacity: 1;"/></g><g class="points"><path class="point" transform="translate(620.4,212.31)" d="M0,0Z" style="opacity: 1; stroke-width: 0px; fill: rgb(204, 204, 204); fill-opacity: 1;"/><path class="point" transform="translate(475.15,430.19)" d="M0,0L19.616396055795974,-15.498290414821632L6.760331235950679,-24.068608634074167Z" style="opacity: 1; stroke-width: 0px; fill: rgb(204, 204, 204); fill-opacity: 1;"/></g><g class="text"/></g></g></g><g class="overplot"/><path class="xlines-above crisp" d="M3,797.5H924M3,1.5H924" style="fill: none; stroke-width: 1px; stroke: rgb(0, 0, 0); stroke-opacity: 1;"/><path class="ylines-above crisp" d="M3.5,2V797M923.5,2V797" style="fill: none; stroke-width: 1px; stroke: rgb(0, 0, 0); stroke-opacity: 1;"/><g class="overlines-above"/><g class="xaxislayer-above"><g class="xtick"><text text-anchor="middle" x="0" y="799.2" transform="translate(65.27000000000001,0)" style="font-family: 'Open Sans', verdana, arial, sans-serif; font-size: 1px; fill: rgb(42, 63, 95); fill-opacity: 1; white-space: pre; opacity: 1;">0</text></g><g class="xtick"><text text-anchor="middle" x="0" y="799.2" style="font-family: 'Open Sans', verdana, arial, sans-serif; font-size: 1px; fill: rgb(42, 63, 95); fill-opacity: 1; white-space: pre; opacity: 1;" transform="translate(228.64,0)">2</text></g><g class="xtick"><text text-anchor="middle" x="0" y="799.2" style="font-family: 'Open Sans', verdana, arial, sans-serif; font-size: 1px; fill: rgb(42, 63, 95); fill-opacity: 1; white-space: pre; opacity: 1;" transform="translate(392.02,0)">4</text></g><g class="xtick"><text text-anchor="middle" x="0" y="799.2" style="font-family: 'Open Sans', verdana, arial, sans-serif; font-size: 1px; fill: rgb(42, 63, 95); fill-opacity: 1; white-space: pre; opacity: 1;" transform="translate(555.4,0)">6</text></g><g class="xtick"><text text-anchor="middle" x="0" y="799.2" style="font-family: 'Open Sans', verdana, arial, sans-serif; font-size: 1px; fill: rgb(42, 63, 95); fill-opacity: 1; white-space: pre; opacity: 1;" transform="translate(718.78,0)">8</text></g><g class="xtick"><text text-anchor="middle" x="0" y="799.2" style="font-family: 'Open Sans', verdana, arial, sans-serif; font-size: 1px; fill: rgb(42, 63, 95); fill-opacity: 1; white-space: pre; opacity: 1;" transform="translate(882.16,0)">10</text></g></g><g class="yaxislayer-above"><g class="ytick"><text text-anchor="end" x="2.8" y="0.35" transform="translate(0,685.41)" style="font-family: 'Open Sans', verdana, arial, sans-serif; font-size: 1px; fill: rgb(42, 63, 95); fill-opacity: 1; white-space: pre; opacity: 1;">−4</text></g><g class="ytick"><text text-anchor="end" x="2.8" y="0.35" style="font-family: 'Open Sans', verdana, arial, sans-serif; font-size: 1px; fill: rgb(42, 63, 95); fill-opacity: 1; white-space: pre; opacity: 1;" transform="translate(0,522.03)">−2</text></g><g class="ytick"><text text-anchor="end" x="2.8" y="0.35" style="font-family: 'Open Sans', verdana, arial, sans-serif; font-size: 1px; fill: rgb(42, 63, 95); fill-opacity: 1; white-space: pre; opacity: 1;" transform="translate(0,358.66)">0</text></g><g class="ytick"><text text-anchor="end" x="2.8" y="0.35" style="font-family: 'Open Sans', verdana, arial, sans-serif; font-size: 1px; fill: rgb(42, 63, 95); fill-opacity: 1; white-space: pre; opacity: 1;" transform="translate(0,195.28)">2</text></g><g class="ytick"><text text-anchor="end" x="2.8" y="0.35" style="font-family: 'Open Sans', verdana, arial, sans-serif; font-size: 1px; fill: rgb(42, 63, 95); fill-opacity: 1; white-space: pre; opacity: 1;" transform="translate(0,31.9)">4</text></g></g><g class="overaxes-above"/></g></g><g class="polarlayer"/><g class="smithlayer"/><g class="ternarylayer"/><g class="geolayer"/><g class="funnelarealayer"/><g class="pielayer"/><g class="iciclelayer"/><g class="treemaplayer"/><g class="sunburstlayer"/><g class="glimages"/><defs id="topdefs-0eaf5e"><g class="clips"/></defs><g class="layer-above"><g class="imagelayer"/><g class="shapelayer"/></g><g class="infolayer"><g class="g-gtitle"/><g class="g-xtitle"/><g class="g-ytitle"/></g></svg>