<svg class="main-svg" xmlns="http://www.w3.org/2000/svg" xmlns:xlink="http://www.w3.org/1999/xlink" width="1200" height="550" style="" viewBox="0 0 1200 550"><rect x="0" y="0" width="1200" height="550" style="fill: rgb(255, 255, 255); fill-opacity: 1;"/><defs id="defs-e0fcd0"><g class="clips"><clipPath id="clipe0fcd0xyplot" class="plotclip"><rect width="1115" height="481"/></clipPath><clipPath class="axesclip" id="clipe0fcd0x"><rect x="65" y="0" width="1115" height="550"/></clipPath><clipPath class="axesclip" id="clipe0fcd0y"><rect x="0" y="5" width="1200" height="481"/></clipPath><clipPath class="axesclip" id="clipe0fcd0xy"><rect x="65" y="5" width="1115" height="481"/></clipPath></g><g class="gradients"/><g class="patterns"/></defs><g class="bglayer"/><g class="layer-below"><g class="imagelayer"/><g class="shapelayer"/></g><g class="cartesianlayer"><g class="subplot xy"><g class="layer-subplot"><g class="shapelayer"/><g class="imagelayer"/></g><g class="minor-gridlayer"><g class="x"/><g class="y"/></g><g class="gridlayer"><g class="x"><path class="xgrid crisp" transform="translate(224.29,0)" d="M0,5v481" style="stroke: rgb(211, 211, 211); stroke-opacity: 1; stroke-width: 1px;"/><path class="xgrid crisp" transform="translate(383.57,0)" d="M0,5v481" style="stroke: rgb(211, 211, 211); stroke-opacity: 1; stroke-width: 1px;"/><path class="xgrid crisp" transform="translate(542.86,0)" d="M0,5v481" style="stroke: rgb(211, 211, 211); stroke-opacity: 1; stroke-width: 1px;"/><path class="xgrid crisp" transform="translate(702.14,0)" d="M0,5v481" style="stroke: rgb(211, 211, 211); stroke-opacity: 1; stroke-width: 1px;"/><path class="xgrid crisp" transform="translate(861.43,0)" d="M0,5v481" style="stroke: rgb(211, 211, 211); stroke-opacity: 1; stroke-width: 1px;"/><path class="xgrid crisp" transform="translate(1020.71,0)" d="M0,5v481" style="stroke: rgb(211, 211, 211); stroke-opacity: 1; stroke-width: 1px;"/></g><g class="y"><path class="ygrid crisp" transform="translate(0,434.83)" d="M65,0h1115" style="stroke: rgb(211, 211, 211); stroke-opacity: 1; stroke-width: 1px;"/><path class="ygrid crisp" transform="translate(0,332.49)" d="M65,0h1115" style="stroke: rgb(211, 211, 211); stroke-opacity: 1; stroke-width: 1px;"/><path class="ygrid crisp" transform="translate(0,230.15)" d="M65,0h1115" style="stroke: rgb(211, 211, 211); stroke-opacity: 1; stroke-width: 1px;"/><path class="ygrid crisp" transform="translate(0,127.81)" d="M65,0h1115" style="stroke: rgb(211, 211, 211); stroke-opacity: 1; stroke-width: 1px;"/><path class="ygrid crisp" transform="translate(0,25.47)" d="M65,0h1115" style="stroke: rgb(211, 211, 211); stroke-opacity: 1; stroke-width: 1px;"/></g></g><g class="zerolinelayer"/><g class="layer-between"><g class="shapelayer"/><g class="imagelayer"/></g><path class="xlines-below"/><path class="ylines-below"/><g class="overlines-below"/><g class="xaxislayer-below"/><g class="yaxislayer-below"/><g class="overaxes-below"/><g class="plot" transform="translate(65,5)" clip-path="url(#clipe0fcd0xyplot)"><g class="scatterlayer mlayer"><g class="trace scatter tracee6c9f4" style="stroke-miterlimit: 2; opacity: 1;"><g class="fills"/><g class="errorbars"/><g class="lines"><path class="js-line" d="M0,79.46L67.24,148.78L72.84,154.24L140.08,215.96L145.68,220.79L212.91,274.94L218.52,279.14L280.15,322.09L285.75,325.71L347.39,362.25L352.99,365.28L414.62,395.4L420.23,397.85L481.86,421.56L487.46,423.42L543.49,439.39L549.1,440.72L605.13,451.34L610.73,452.13L666.76,457.41L672.36,457.67L728.39,457.6L733.99,457.32L790.03,451.91L795.63,451.1L851.66,440.34L857.26,438.99L913.29,422.89L918.89,421.01L974.92,399.56L980.53,397.14L1042.16,367.4L1047.76,364.4L1109.4,328.24L1115,324.66" style="vector-effect: none; fill: none; stroke: rgb(148, 103, 189); stroke-opacity: 1; stroke-width: 10px; opacity: 1;"/></g><g class="points"/><g class="text"/></g><g class="trace scatter trace3f1ce8" style="stroke-miterlimit: 2; opacity: 1;"><g class="fills"/><g class="errorbars"/><g class="lines"><path class="js-line" d="M0,19.77L50.43,85.3L56.03,91.97L106.46,146.34L112.06,151.75L156.88,190.69L162.49,195L207.31,225.05L212.91,228.25L252.14,246.96L257.74,248.9L285.75,255.18L291.36,255.77L319.37,255.32L324.97,254.56L352.99,247.39L358.59,245.28L386.61,231.37L392.21,227.92L425.83,202.49L431.43,197.46L465.05,162.27L470.65,155.53L481.86,144.16L487.46,151.05L521.08,187.08L526.68,192.21L560.3,217.6L565.9,220.95L593.92,235.75L599.52,243.49L644.35,299L649.95,305.13L689.17,343L694.77,347.69L728.39,370.7L733.99,373.65L762.01,384.59L767.61,386.02L795.63,389.37L801.23,389.27L829.25,385.02L834.85,383.39L862.86,371.57L868.47,368.44L896.48,348.99L902.09,344.34L935.7,311.13L941.31,304.71L974.92,260.86L980.53,252.66L1019.75,188.21L1025.35,177.98L1064.57,99.33L1070.18,87.1L1115,-20.01" style="vector-effect: none; fill: none; stroke: rgb(44, 160, 44); stroke-opacity: 1; stroke-width: 12px; opacity: 1;"/></g><g class="points"/><g class="text"/></g><g class="trace scatter trace52bc73" style="stroke-miterlimit: 2; opacity: 1;"><g class="fills"/><g class="errorbars"/><g class="lines"><path class="js-line" d="M0,69.53L78.44,148.95L84.05,154.36L156.88,221.59L162.49,226.52L207.31,263.03L212.91,266.78L240.93,282.37L246.53,284.85L274.55,294.06L280.15,295.27L308.17,298.1L313.77,298.03L341.78,294.49L347.39,293.15L375.4,283.2L381.01,280.5L409.02,263.23L414.62,259.01L425.83,249.82L431.43,248.38L465.05,299.61L470.65,307.27L504.27,347.86L509.87,353.74L537.89,379.34L543.49,383.7L571.51,401.7L577.11,404.53L605.13,415.11L610.73,416.79L661.16,429.5L666.76,430.64L717.19,438.54L722.79,439.15L773.22,442.22L778.82,442.3L818.04,440.21L823.64,439.1L846.06,432.16L851.66,429.79L874.07,417.77L879.67,414.14L907.69,392.16L913.29,387L941.31,357.43L946.91,350.75L974.92,313.58L980.53,305.38L1014.15,250.89L1019.75,240.93L1053.37,175.8L1058.97,164.06L1098.19,74.79L1103.79,61.02L1109.4,47L1115,41.58" style="vector-effect: none; fill: none; stroke: rgb(31, 119, 180); stroke-opacity: 1; stroke-width: 9px; opacity: 1;"/></g><g class="points"/><g class="text"/></g><g class="trace scatter trace62ebf1" style="stroke-miterlimit: 2; opacity: 1;"><g class="fills"/><g class="errorbars"/><g class="lines"><path class="js-line" d="M0,41.64L50.43,105.98L56.03,112.72L106.46,169.81L112.06,175.76L162.49,225.75L168.09,230.91L201.71,258.97L207.31,262.93L235.33,279.56L240.93,282.25L268.94,292.5L274.55,293.91L302.56,297.79L308.17,297.92L336.18,295.42L341.78,294.28L369.8,285.39L375.4,282.95L397.81,270.65L403.42,266.94L431.43,244.6L437.04,239.37L442.64,233.89L448.24,232.17L481.86,278.84L487.46,285.73L515.48,316.4L521.08,321.77L549.1,344.83L554.7,348.69L582.71,364.15L588.32,366.49L610.73,373.29L616.33,374.36L638.74,376.09L644.35,375.89L666.76,374.27L672.36,380L700.38,404.88L705.98,409.09L733.99,426.37L739.6,429.06L762.01,437.31L767.61,438.74L790.03,441.92L795.63,442.09L818.04,440.21L823.64,439.1L846.06,432.16L851.66,429.79L874.07,417.77L879.67,414.14L907.69,392.16L913.29,387L941.31,357.43L946.91,350.75L974.92,313.58L980.53,305.38L1014.15,250.89L1019.75,240.93L1053.37,175.8L1058.97,164.06L1098.19,74.79L1103.79,61.02L1115,32.73" style="vector-effect: none; fill: none; stroke: rgb(255, 127, 14); stroke-opacity: 1; stroke-width: 9px; opacity: 1;"/></g><g class="points"/><g class="text"/></g><g class="trace scatter trace2fa405" style="stroke-miterlimit: 2; opacity: 1;"><g class="fills"/><g class="errorbars"/><g class="lines"><path class="js-line" d="M0,-10.4L16.81,11.82L22.41,46.05L56.03,87.87L61.63,65.5L100.85,105.85L106.46,111.11L145.68,144.41L151.28,148.66L196.11,179.52L201.71,182.91L229.72,196.55L235.33,198.62L263.34,205.69L268.94,206.45L296.96,206.94L302.56,206.38L330.58,200.3L336.18,198.43L364.2,185.78L369.8,182.59L397.81,163.36L403.42,158.86L425.83,138.66L431.43,15.37L465.05,66.6L470.65,74.25L498.67,108.72L504.27,114.85L532.29,141.71L537.89,146.33L565.9,165.59L571.51,168.68L593.92,178.53L599.52,180.35L621.93,185.13L627.54,185.69L649.95,185.4L655.55,184.69L683.57,178.26L689.17,176.58L694.77,174.77L700.38,348.06L728.39,366.6L733.99,369.55L756.41,378.82L762.01,380.5L784.42,384.69L790.03,385.11L812.44,384.24L818.04,383.39L840.45,377.46L846.06,375.34L868.47,364.34L874.07,360.96L902.09,340.25L907.69,335.35L935.7,307.03L941.31,300.61L969.32,264.7L974.92,256.76L1008.54,203.79L1014.15,194.08L1047.76,130.47L1053.37,118.99L1086.98,44.75L1092.59,31.49L1109.4,-9.81L1115,-45.25" style="vector-effect: none; fill: none; stroke: rgb(31, 119, 180); stroke-opacity: 1; stroke-dasharray: 15px, 7px; stroke-width: 9px; opacity: 1;"/></g><g class="points"/><g class="text"/></g><g class="trace scatter trace308794" style="stroke-miterlimit: 2; opacity: 1;"><g class="fills"/><g class="errorbars"/><g class="lines"><path class="js-line" d="M0,15.68L44.82,74.43L50.43,81.21L95.25,131.03L100.85,136.7L140.08,172.92L145.68,177.6L184.9,206.92L190.5,210.61L229.72,233.04L235.33,235.76L263.34,246.51L268.94,247.99L296.96,252.03L302.56,252.17L330.58,249.48L336.18,248.27L364.2,238.86L369.8,236.3L397.81,220.15L403.42,216.25L431.43,193.37L437.04,188.12L442.64,182.64L448.24,93.39L481.86,140.07L487.46,146.94L515.48,177.62L521.08,182.99L549.1,206.06L554.7,209.91L582.71,225.35L588.32,227.71L610.73,234.51L616.33,235.58L638.74,237.32L644.35,237.12L661.16,235.07L666.76,318.35L700.38,348.06L705.98,352.28L733.99,369.55L739.6,372.25L762.01,380.5L767.61,381.93L790.03,385.11L795.63,385.27L818.04,383.39L823.64,382.29L846.06,375.34L851.66,372.97L874.07,360.96L879.67,357.32L907.69,335.35L913.29,330.19L941.31,300.61L946.91,293.94L974.92,256.76L980.53,248.57L1014.15,194.08L1019.75,184.11L1053.37,118.99L1058.97,107.25L1098.19,17.97L1103.79,4.21L1115,-24.09" style="vector-effect: none; fill: none; stroke: rgb(255, 127, 14); stroke-opacity: 1; stroke-dasharray: 15px, 7px; stroke-width: 9px; opacity: 1;"/></g><g class="points"/><g class="text"/></g></g></g><g class="overplot"/><path class="xlines-above crisp" d="M64,486.5H1181M64,4.5H1181" style="fill: none; stroke-width: 1px; stroke: rgb(0, 0, 0); stroke-opacity: 1;"/><path class="ylines-above crisp" d="M64.5,5V486M1180.5,5V486" style="fill: none; stroke-width: 1px; stroke: rgb(0, 0, 0); stroke-opacity: 1;"/><g class="overlines-above"/><g class="xaxislayer-above"><g class="xtick"><text text-anchor="middle" x="0" y="512.2" transform="translate(65,0)" style="font-family: 'Open Sans', verdana, arial, sans-serif; font-size: 21px; fill: rgb(42, 63, 95); fill-opacity: 1; white-space: pre; opacity: 1;">−4</text></g><g class="xtick"><text text-anchor="middle" x="0" y="512.2" style="font-family: 'Open Sans', verdana, arial, sans-serif; font-size: 21px; fill: rgb(42, 63, 95); fill-opacity: 1; white-space: pre; opacity: 1;" transform="translate(224.29,0)">−3</text></g><g class="xtick"><text text-anchor="middle" x="0" y="512.2" style="font-family: 'Open Sans', verdana, arial, sans-serif; font-size: 21px; fill: rgb(42, 63, 95); fill-opacity: 1; white-space: pre; opacity: 1;" transform="translate(383.57,0)">−2</text></g><g class="xtick"><text text-anchor="middle" x="0" y="512.2" style="font-family: 'Open Sans', verdana, arial, sans-serif; font-size: 21px; fill: rgb(42, 63, 95); fill-opacity: 1; white-space: pre; opacity: 1;" transform="translate(542.86,0)">−1</text></g><g class="xtick"><text text-anchor="middle" x="0" y="512.2" style="font-family: 'Open Sans', verdana, arial, sans-serif; font-size: 21px; fill: rgb(42, 63, 95); fill-opacity: 1; white-space: pre; opacity: 1;" transform="translate(702.14,0)">0</text></g><g class="xtick"><text text-anchor="middle" x="0" y="512.2" style="font-family: 'Open Sans', verdana, arial, sans-serif; font-size: 21px; fill: rgb(42, 63, 95); fill-opacity: 1; white-space: pre; opacity: 1;" transform="translate(861.43,0)">1</text></g><g class="xtick"><text text-anchor="middle" x="0" y="512.2" style="font-family: 'Open Sans', verdana, arial, sans-serif; font-size: 21px; fill: rgb(42, 63, 95); fill-opacity: 1; white-space: pre; opacity: 1;" transform="translate(1020.71,0)">2</text></g><g class="xtick"><text text-anchor="middle" x="0" y="512.2" style="font-family: 'Open Sans', verdana, arial, sans-serif; font-size: 21px; fill: rgb(42, 63, 95); fill-opacity: 1; white-space: pre; opacity: 1;" transform="translate(1180,0)">3</text></g></g><g class="yaxislayer-above"><g class="ytick"><text text-anchor="end" x="59.8" y="7.35" transform="translate(0,434.83)" style="font-family: 'Open Sans', verdana, arial, sans-serif; font-size: 21px; fill: rgb(42, 63, 95); fill-opacity: 1; white-space: pre; opacity: 1;">23</text></g><g class="ytick"><text text-anchor="end" x="59.8" y="7.35" style="font-family: 'Open Sans', verdana, arial, sans-serif; font-size: 21px; fill: rgb(42, 63, 95); fill-opacity: 1; white-space: pre; opacity: 1;" transform="translate(0,332.49)">24</text></g><g class="ytick"><text text-anchor="end" x="59.8" y="7.35" style="font-family: 'Open Sans', verdana, arial, sans-serif; font-size: 21px; fill: rgb(42, 63, 95); fill-opacity: 1; white-space: pre; opacity: 1;" transform="translate(0,230.15)">25</text></g><g class="ytick"><text text-anchor="end" x="59.8" y="7.35" style="font-family: 'Open Sans', verdana, arial, sans-serif; font-size: 21px; fill: rgb(42, 63, 95); fill-opacity: 1; white-space: pre; opacity: 1;" transform="translate(0,127.81)">26</text></g><g class="ytick"><text text-anchor="end" x="59.8" y="7.35" style="font-family: 'Open Sans', verdana, arial, sans-serif; font-size: 21px; fill: rgb(42, 63, 95); fill-opacity: 1; white-space: pre; opacity: 1;" transform="translate(0,25.47)">27</text></g></g><g class="overaxes-above"/></g></g><g class="polarlayer"/><g class="smithlayer"/><g class="ternarylayer"/><g class="geolayer"/><g class="funnelarealayer"/><g class="pielayer"/><g class="iciclelayer"/><g class="treemaplayer"/><g class="sunburstlayer"/><g class="glimages"/><defs id="topdefs-e0fcd0"><g class="clips"/></defs><g class="layer-above"><g class="imagelayer"/><g class="shapelayer"/></g><g class="infolayer"><g class="g-gtitle"/><g class="g-xtitle" transform="translate(0,-3.734375)"><text class="xtitle" x="622.5" y="548.703125" text-anchor="middle" style="font-family: 'Open Sans', verdana, arial, sans-serif; font-size: 25px; fill: rgb(42, 63, 95); opacity: 1; white-space: pre;">Vertical position in the source set</text></g><g class="g-ytitle" transform="translate(15.15625,0)"><text class="ytitle" transform="rotate(-90,9.84375,245.5)" x="9.84375" y="245.5" text-anchor="middle" style="font-family: 'Open Sans', verdana, arial, sans-serif; font-size: 25px; fill: rgb(42, 63, 95); opacity: 1; white-space: pre;">Cost-to-go value</text></g></g></svg>