<svg class="main-svg" xmlns="http://www.w3.org/2000/svg" xmlns:xlink="http://www.w3.org/1999/xlink" width="1200" height="550" style="" viewBox="0 0 1200 550"><rect x="0" y="0" width="1200" height="550" style="fill: rgb(255, 255, 255); fill-opacity: 1;"/><defs id="defs-24df6c"><g class="clips"><clipPath id="clip24df6cxyplot" class="plotclip"><rect width="1115" height="481"/></clipPath><clipPath class="axesclip" id="clip24df6cx"><rect x="65" y="0" width="1115" height="550"/></clipPath><clipPath class="axesclip" id="clip24df6cy"><rect x="0" y="5" width="1200" height="481"/></clipPath><clipPath class="axesclip" id="clip24df6cxy"><rect x="65" y="5" width="1115" height="481"/></clipPath></g><g class="gradients"/><g class="patterns"/></defs><g class="bglayer"/><g class="layer-below"><g class="imagelayer"/><g class="shapelayer"/></g><g class="cartesianlayer"><g class="subplot xy"><g class="layer-subplot"><g class="shapelayer"/><g class="imagelayer"/></g><g class="minor-gridlayer"><g class="x"/><g class="y"/></g><g class="gridlayer"><g class="x"><path class="xgrid crisp" transform="translate(224.29,0)" d="M0,5v481" style="stroke: rgb(211, 211, 211); stroke-opacity: 1; stroke-width: 1px;"/><path class="xgrid crisp" transform="translate(383.57,0)" d="M0,5v481" style="stroke: rgb(211, 211, 211); stroke-opacity: 1; stroke-width: 1px;"/><path class="xgrid crisp" transform="translate(542.86,0)" d="M0,5v481" style="stroke: rgb(211, 211, 211); stroke-opacity: 1; stroke-width: 1px;"/><path class="xgrid crisp" transform="translate(702.14,0)" d="M0,5v481" style="stroke: rgb(211, 211, 211); stroke-opacity: 1; stroke-width: 1px;"/><path class="xgrid crisp" transform="translate(861.43,0)" d="M0,5v481" style="stroke: rgb(211, 211, 211); stroke-opacity: 1; stroke-width: 1px;"/><path class="xgrid crisp" transform="translate(1020.71,0)" d="M0,5v481" style="stroke: rgb(211, 211, 211); stroke-opacity: 1; stroke-width: 1px;"/></g><g class="y"><path class="ygrid crisp" transform="translate(0,434.83)" d="M65,0h1115" style="stroke: rgb(211, 211, 211); stroke-opacity: 1; stroke-width: 1px;"/><path class="ygrid crisp" transform="translate(0,332.49)" d="M65,0h1115" style="stroke: rgb(211, 211, 211); stroke-opacity: 1; stroke-width: 1px;"/><path class="ygrid crisp" transform="translate(0,230.15)" d="M65,0h1115" style="stroke: rgb(211, 211, 211); stroke-opacity: 1; stroke-width: 1px;"/><path class="ygrid crisp" transform="translate(0,127.81)" d="M65,0h1115" style="stroke: rgb(211, 211, 211); stroke-opacity: 1; stroke-width: 1px;"/><path class="ygrid crisp" transform="translate(0,25.47)" d="M65,0h1115" style="stroke: rgb(211, 211, 211); stroke-opacity: 1; stroke-width: 1px;"/></g></g><g class="zerolinelayer"/><g class="layer-between"><g class="shapelayer"/><g class="imagelayer"/></g><path class="xlines-below"/><path class="ylines-below"/><g class="overlines-below"/><g class="xaxislayer-below"/><g class="yaxislayer-below"/><g class="overaxes-below"/><g class="plot" transform="translate(65,5)" clip-path="url(#clip24df6cxyplot)"><g class="scatterlayer mlayer"><g class="trace scatter traceb4e0c7" style="stroke-miterlimit: 2; opacity: 1;"><g class="fills"/><g class="errorbars"/><g class="lines"><path class="js-line" d="M0,19.77L50.43,85.3L56.03,91.97L106.46,146.34L112.06,151.75L156.88,190.69L162.49,195L207.31,225.05L212.91,228.25L252.14,246.96L257.74,248.9L285.75,255.18L291.36,255.77L319.37,255.32L324.97,254.56L352.99,247.39L358.59,245.28L386.61,231.37L392.21,227.92L425.83,202.49L431.43,197.46L465.05,162.27L470.65,155.53L481.86,144.16L487.46,151.05L521.08,187.08L526.68,192.21L560.3,217.6L565.9,220.95L593.92,235.75L599.52,243.49L644.35,299L649.95,305.13L689.17,343L694.77,347.69L728.39,370.7L733.99,373.65L762.01,384.59L767.61,386.02L795.63,389.37L801.23,389.27L829.25,385.02L834.85,383.39L862.86,371.57L868.47,368.44L896.48,348.99L902.09,344.34L935.7,311.13L941.31,304.71L974.92,260.86L980.53,252.66L1019.75,188.21L1025.35,177.98L1064.57,99.33L1070.18,87.1L1115,-20.01" style="vector-effect: none; fill: none; stroke: rgb(44, 160, 44); stroke-opacity: 1; stroke-width: 12px; opacity: 1;"/></g><g class="points"/><g class="text"/></g></g></g><g class="overplot"/><path class="xlines-above crisp" d="M64,486.5H1181M64,4.5H1181" style="fill: none; stroke-width: 1px; stroke: rgb(0, 0, 0); stroke-opacity: 1;"/><path class="ylines-above crisp" d="M64.5,5V486M1180.5,5V486" style="fill: none; stroke-width: 1px; stroke: rgb(0, 0, 0); stroke-opacity: 1;"/><g class="overlines-above"/><g class="xaxislayer-above"><g class="xtick"><text text-anchor="middle" x="0" y="512.2" transform="translate(65,0)" style="font-family: 'Open Sans', verdana, arial, sans-serif; font-size: 21px; fill: rgb(42, 63, 95); fill-opacity: 1; white-space: pre; opacity: 1;">−4</text></g><g class="xtick"><text text-anchor="middle" x="0" y="512.2" style="font-family: 'Open Sans', verdana, arial, sans-serif; font-size: 21px; fill: rgb(42, 63, 95); fill-opacity: 1; white-space: pre; opacity: 1;" transform="translate(224.29,0)">−3</text></g><g class="xtick"><text text-anchor="middle" x="0" y="512.2" style="font-family: 'Open Sans', verdana, arial, sans-serif; font-size: 21px; fill: rgb(42, 63, 95); fill-opacity: 1; white-space: pre; opacity: 1;" transform="translate(383.57,0)">−2</text></g><g class="xtick"><text text-anchor="middle" x="0" y="512.2" style="font-family: 'Open Sans', verdana, arial, sans-serif; font-size: 21px; fill: rgb(42, 63, 95); fill-opacity: 1; white-space: pre; opacity: 1;" transform="translate(542.86,0)">−1</text></g><g class="xtick"><text text-anchor="middle" x="0" y="512.2" style="font-family: 'Open Sans', verdana, arial, sans-serif; font-size: 21px; fill: rgb(42, 63, 95); fill-opacity: 1; white-space: pre; opacity: 1;" transform="translate(702.14,0)">0</text></g><g class="xtick"><text text-anchor="middle" x="0" y="512.2" style="font-family: 'Open Sans', verdana, arial, sans-serif; font-size: 21px; fill: rgb(42, 63, 95); fill-opacity: 1; white-space: pre; opacity: 1;" transform="translate(861.43,0)">1</text></g><g class="xtick"><text text-anchor="middle" x="0" y="512.2" style="font-family: 'Open Sans', verdana, arial, sans-serif; font-size: 21px; fill: rgb(42, 63, 95); fill-opacity: 1; white-space: pre; opacity: 1;" transform="translate(1020.71,0)">2</text></g><g class="xtick"><text text-anchor="middle" x="0" y="512.2" style="font-family: 'Open Sans', verdana, arial, sans-serif; font-size: 21px; fill: rgb(42, 63, 95); fill-opacity: 1; white-space: pre; opacity: 1;" transform="translate(1180,0)">3</text></g></g><g class="yaxislayer-above"><g class="ytick"><text text-anchor="end" x="59.8" y="7.35" transform="translate(0,434.83)" style="font-family: 'Open Sans', verdana, arial, sans-serif; font-size: 21px; fill: rgb(42, 63, 95); fill-opacity: 1; white-space: pre; opacity: 1;">23</text></g><g class="ytick"><text text-anchor="end" x="59.8" y="7.35" style="font-family: 'Open Sans', verdana, arial, sans-serif; font-size: 21px; fill: rgb(42, 63, 95); fill-opacity: 1; white-space: pre; opacity: 1;" transform="translate(0,332.49)">24</text></g><g class="ytick"><text text-anchor="end" x="59.8" y="7.35" style="font-family: 'Open Sans', verdana, arial, sans-serif; font-size: 21px; fill: rgb(42, 63, 95); fill-opacity: 1; white-space: pre; opacity: 1;" transform="translate(0,230.15)">25</text></g><g class="ytick"><text text-anchor="end" x="59.8" y="7.35" style="font-family: 'Open Sans', verdana, arial, sans-serif; font-size: 21px; fill: rgb(42, 63, 95); fill-opacity: 1; white-space: pre; opacity: 1;" transform="translate(0,127.81)">26</text></g><g class="ytick"><text text-anchor="end" x="59.8" y="7.35" style="font-family: 'Open Sans', verdana, arial, sans-serif; font-size: 21px; fill: rgb(42, 63, 95); fill-opacity: 1; white-space: pre; opacity: 1;" transform="translate(0,25.47)">27</text></g></g><g class="overaxes-above"/></g></g><g class="polarlayer"/><g class="smithlayer"/><g class="ternarylayer"/><g class="geolayer"/><g class="funnelarealayer"/><g class="pielayer"/><g class="iciclelayer"/><g class="treemaplayer"/><g class="sunburstlayer"/><g class="glimages"/><defs id="topdefs-24df6c"><g class="clips"/></defs><g class="layer-above"><g class="imagelayer"/><g class="shapelayer"/></g><g class="infolayer"><g class="g-gtitle"/><g class="g-xtitle" transform="translate(0,-3.734375)"><text class="xtitle" x="622.5" y="548.703125" text-anchor="middle" style="font-family: 'Open Sans', verdana, arial, sans-serif; font-size: 25px; fill: rgb(42, 63, 95); opacity: 1; white-space: pre;">Vertical position in the source set</text></g><g class="g-ytitle" transform="translate(15.15625,0)"><text class="ytitle" transform="rotate(-90,9.84375,245.5)" x="9.84375" y="245.5" text-anchor="middle" style="font-family: 'Open Sans', verdana, arial, sans-serif; font-size: 25px; fill: rgb(42, 63, 95); opacity: 1; white-space: pre;">Cost-to-go value</text></g></g></svg>