<svg class="main-svg" xmlns="http://www.w3.org/2000/svg" xmlns:xlink="http://www.w3.org/1999/xlink" width="925" height="800" style="" viewBox="0 0 925 800"><rect x="0" y="0" width="925" height="800" style="fill: rgb(255, 255, 255); fill-opacity: 1;"/><defs id="defs-b27928"><g class="clips"><clipPath id="clipb27928xyplot" class="plotclip"><rect width="919" height="795"/></clipPath><clipPath class="axesclip" id="clipb27928x"><rect x="4" y="0" width="919" height="800"/></clipPath><clipPath class="axesclip" id="clipb27928y"><rect x="0" y="2" width="925" height="795"/></clipPath><clipPath class="axesclip" id="clipb27928xy"><rect x="4" y="2" width="919" height="795"/></clipPath><clipPath class="contourclip" id="clip854cb9"><path d="M837.22,379.88Q836.44,379.09 836.44,379.09C836.44,379.09 835.56,379.09 835.56,379.09C835.56,379.09 834.69,379.09 834.69,379.09C834.69,379.09 833.82,379.09 833.82,379.09C833.82,379.09 833.73,379.01 833.73,379.01C833.73,379.01 832.94,378.22 832.94,378.22C832.94,378.22 832.07,378.22 832.07,378.22C832.07,378.22 831.98,378.13 831.98,378.13C831.98,378.13 831.2,377.35 831.2,377.35C831.2,377.35 831.11,377.26 831.11,377.26C831.11,377.26 830.32,376.47 830.32,376.47C830.32,376.47 830.23,376.39 830.23,376.39C830.23,376.39 829.45,375.6 829.45,375.6C829.45,375.6 829.36,375.51 829.36,375.51C829.36,375.51 829.36,374.64 829.36,374.64C829.36,374.64 828.57,373.85 828.57,373.85C828.57,373.85 828.49,373.77 828.49,373.77C828.49,373.77 828.49,372.89 828.49,372.89C828.49,372.89 828.49,372.02 828.49,372.02C828.49,372.02 828.49,371.14 828.49,371.14Q828.49,371.14 827.7,370.36L827.7,370.18Q828.49,369.4 828.49,369.4C828.49,369.4 828.49,368.52 828.49,368.52C828.49,368.52 828.49,367.65 828.49,367.65C828.49,367.65 828.49,366.78 828.49,366.78C828.49,366.78 828.57,366.69 828.57,366.69C828.57,366.69 829.36,365.9 829.36,365.9C829.36,365.9 829.36,365.03 829.36,365.03C829.36,365.03 829.45,364.94 829.45,364.94C829.45,364.94 830.23,364.15 830.23,364.15C830.23,364.15 830.32,364.07 830.32,364.07C830.32,364.07 831.11,363.28 831.11,363.28C831.11,363.28 831.2,363.19 831.2,363.19C831.2,363.19 831.98,362.41 831.98,362.41C831.98,362.41 832.07,362.32 832.07,362.32C832.07,362.32 832.94,362.32 832.94,362.32C832.94,362.32 833.73,361.53 833.73,361.53C833.73,361.53 833.82,361.45 833.82,361.45C833.82,361.45 834.69,361.45 834.69,361.45C834.69,361.45 835.56,361.45 835.56,361.45C835.56,361.45 836.44,361.45 836.44,361.45Q836.44,361.45 837.22,360.66L837.4,360.66Q838.18,361.45 838.18,361.45C838.18,361.45 839.06,361.45 839.06,361.45C839.06,361.45 839.93,361.45 839.93,361.45C839.93,361.45 840.81,361.45 840.81,361.45C840.81,361.45 840.89,361.53 840.89,361.53C840.89,361.53 841.68,362.32 841.68,362.32C841.68,362.32 842.55,362.32 842.55,362.32C842.55,362.32 842.64,362.41 842.64,362.41C842.64,362.41 843.43,363.19 843.43,363.19C843.43,363.19 843.51,363.28 843.51,363.28C843.51,363.28 844.3,364.07 844.3,364.07C844.3,364.07 844.39,364.15 844.39,364.15C844.39,364.15 845.17,364.94 845.17,364.94C845.17,364.94 845.26,365.03 845.26,365.03C845.26,365.03 845.26,365.9 845.26,365.9C845.26,365.9 846.05,366.69 846.05,366.69C846.05,366.69 846.14,366.78 846.14,366.78C846.14,366.78 846.14,367.65 846.14,367.65C846.14,367.65 846.14,368.52 846.14,368.52C846.14,368.52 846.14,369.4 846.14,369.4Q846.14,369.4 846.92,370.18L846.92,370.36Q846.14,371.14 846.14,371.14C846.14,371.14 846.14,372.02 846.14,372.02C846.14,372.02 846.14,372.89 846.14,372.89C846.14,372.89 846.14,373.77 846.14,373.77C846.14,373.77 846.05,373.85 846.05,373.85C846.05,373.85 845.26,374.64 845.26,374.64C845.26,374.64 845.26,375.51 845.26,375.51C845.26,375.51 845.17,375.6 845.17,375.6C845.17,375.6 844.39,376.39 844.39,376.39C844.39,376.39 844.3,376.47 844.3,376.47C844.3,376.47 843.51,377.26 843.51,377.26C843.51,377.26 843.43,377.35 843.43,377.35C843.43,377.35 842.64,378.13 842.64,378.13C842.64,378.13 842.55,378.22 842.55,378.22C842.55,378.22 841.68,378.22 841.68,378.22C841.68,378.22 840.89,379.01 840.89,379.01C840.89,379.01 840.81,379.09 840.81,379.09C840.81,379.09 839.93,379.09 839.93,379.09C839.93,379.09 839.06,379.09 839.06,379.09C839.06,379.09 838.18,379.09 838.18,379.09Q838.18,379.09 837.4,379.88Z"/></clipPath><clipPath class="contourclip" id="clip84a93e"><path d="M61.18,407.11Q60.39,406.32 60.39,406.32C60.39,406.32 59.52,406.32 59.52,406.32C59.52,406.32 58.65,406.32 58.65,406.32C58.65,406.32 57.77,406.32 57.77,406.32C57.77,406.32 57.68,406.24 57.68,406.24C57.68,406.24 56.9,405.45 56.9,405.45C56.9,405.45 56.02,405.45 56.02,405.45C56.02,405.45 55.94,405.36 55.94,405.36C55.94,405.36 55.15,404.58 55.15,404.58C55.15,404.58 55.06,404.49 55.06,404.49C55.06,404.49 54.28,403.7 54.28,403.7C54.28,403.7 54.19,403.62 54.19,403.62C54.19,403.62 53.4,402.83 53.4,402.83C53.4,402.83 53.32,402.74 53.32,402.74C53.32,402.74 53.32,401.87 53.32,401.87C53.32,401.87 52.53,401.08 52.53,401.08C52.53,401.08 52.44,400.99 52.44,400.99C52.44,400.99 52.44,400.12 52.44,400.12C52.44,400.12 52.44,399.25 52.44,399.25C52.44,399.25 52.44,398.37 52.44,398.37Q52.44,398.37 51.66,397.59L51.66,397.41Q52.44,396.63 52.44,396.63C52.44,396.63 52.44,395.75 52.44,395.75C52.44,395.75 52.44,394.88 52.44,394.88C52.44,394.88 52.44,394.01 52.44,394.01C52.44,394.01 52.53,393.92 52.53,393.92C52.53,393.92 53.32,393.13 53.32,393.13C53.32,393.13 53.32,392.26 53.32,392.26C53.32,392.26 53.4,392.17 53.4,392.17C53.4,392.17 54.19,391.38 54.19,391.38C54.19,391.38 54.28,391.3 54.28,391.3C54.28,391.3 55.06,390.51 55.06,390.51C55.06,390.51 55.15,390.42 55.15,390.42C55.15,390.42 55.94,389.64 55.94,389.64C55.94,389.64 56.02,389.55 56.02,389.55C56.02,389.55 56.9,389.55 56.9,389.55C56.9,389.55 57.68,388.76 57.68,388.76C57.68,388.76 57.77,388.68 57.77,388.68C57.77,388.68 58.65,388.68 58.65,388.68C58.65,388.68 59.52,388.68 59.52,388.68C59.52,388.68 60.39,388.68 60.39,388.68Q60.39,388.68 61.18,387.89L61.35,387.89Q62.14,388.68 62.14,388.68C62.14,388.68 63.01,388.68 63.01,388.68C63.01,388.68 63.89,388.68 63.89,388.68C63.89,388.68 64.76,388.68 64.76,388.68C64.76,388.68 64.85,388.76 64.85,388.76C64.85,388.76 65.64,389.55 65.64,389.55C65.64,389.55 66.51,389.55 66.51,389.55C66.51,389.55 66.6,389.64 66.6,389.64C66.6,389.64 67.38,390.42 67.38,390.42C67.38,390.42 67.47,390.51 67.47,390.51C67.47,390.51 68.26,391.3 68.26,391.3C68.26,391.3 68.34,391.38 68.34,391.38C68.34,391.38 69.13,392.17 69.13,392.17C69.13,392.17 69.22,392.26 69.22,392.26C69.22,392.26 69.22,393.13 69.22,393.13C69.22,393.13 70,393.92 70,393.92C70,393.92 70.09,394.01 70.09,394.01C70.09,394.01 70.09,394.88 70.09,394.88C70.09,394.88 70.09,395.75 70.09,395.75C70.09,395.75 70.09,396.63 70.09,396.63Q70.09,396.63 70.88,397.41L70.88,397.59Q70.09,398.37 70.09,398.37C70.09,398.37 70.09,399.25 70.09,399.25C70.09,399.25 70.09,400.12 70.09,400.12C70.09,400.12 70.09,400.99 70.09,400.99C70.09,400.99 70,401.08 70,401.08C70,401.08 69.22,401.87 69.22,401.87C69.22,401.87 69.22,402.74 69.22,402.74C69.22,402.74 69.13,402.83 69.13,402.83C69.13,402.83 68.34,403.62 68.34,403.62C68.34,403.62 68.26,403.7 68.26,403.7C68.26,403.7 67.47,404.49 67.47,404.49C67.47,404.49 67.38,404.58 67.38,404.58C67.38,404.58 66.6,405.36 66.6,405.36C66.6,405.36 66.51,405.45 66.51,405.45C66.51,405.45 65.64,405.45 65.64,405.45C65.64,405.45 64.85,406.24 64.85,406.24C64.85,406.24 64.76,406.32 64.76,406.32C64.76,406.32 63.89,406.32 63.89,406.32C63.89,406.32 63.01,406.32 63.01,406.32C63.01,406.32 62.14,406.32 62.14,406.32Q62.14,406.32 61.35,407.11Z"/></clipPath><clipPath class="contourclip" id="clip55c491"><path d="M244.98,325.42Q244.19,324.64 244.19,324.64C244.19,324.64 243.32,324.64 243.32,324.64C243.32,324.64 242.45,324.64 242.45,324.64C242.45,324.64 241.57,324.64 241.57,324.64C241.57,324.64 241.48,324.55 241.48,324.55C241.48,324.55 240.7,323.76 240.7,323.76C240.7,323.76 239.82,323.76 239.82,323.76C239.82,323.76 239.74,323.67 239.74,323.67C239.74,323.67 238.95,322.89 238.95,322.89C238.95,322.89 238.86,322.8 238.86,322.8C238.86,322.8 238.08,322.01 238.08,322.01C238.08,322.01 237.99,321.93 237.99,321.93C237.99,321.93 237.2,321.14 237.2,321.14C237.2,321.14 237.12,321.05 237.12,321.05C237.12,321.05 237.12,320.18 237.12,320.18C237.12,320.18 236.33,319.39 236.33,319.39C236.33,319.39 236.24,319.31 236.24,319.31C236.24,319.31 236.24,318.43 236.24,318.43C236.24,318.43 236.24,317.56 236.24,317.56C236.24,317.56 236.24,316.68 236.24,316.68Q236.24,316.68 235.46,315.9L235.46,315.72Q236.24,314.94 236.24,314.94C236.24,314.94 236.24,314.06 236.24,314.06C236.24,314.06 236.24,313.19 236.24,313.19C236.24,313.19 236.24,312.32 236.24,312.32C236.24,312.32 236.33,312.23 236.33,312.23C236.33,312.23 237.12,311.44 237.12,311.44C237.12,311.44 237.12,310.57 237.12,310.57C237.12,310.57 237.2,310.48 237.2,310.48C237.2,310.48 237.99,309.7 237.99,309.7C237.99,309.7 238.08,309.61 238.08,309.61C238.08,309.61 238.86,308.82 238.86,308.82C238.86,308.82 238.95,308.73 238.95,308.73C238.95,308.73 239.74,307.95 239.74,307.95C239.74,307.95 239.82,307.86 239.82,307.86C239.82,307.86 240.7,307.86 240.7,307.86C240.7,307.86 241.48,307.07 241.48,307.07C241.48,307.07 241.57,306.99 241.57,306.99C241.57,306.99 242.45,306.99 242.45,306.99C242.45,306.99 243.32,306.99 243.32,306.99C243.32,306.99 244.19,306.99 244.19,306.99Q244.19,306.99 244.98,306.2L245.15,306.2Q245.94,306.99 245.94,306.99C245.94,306.99 246.81,306.99 246.81,306.99C246.81,306.99 247.69,306.99 247.69,306.99C247.69,306.99 248.56,306.99 248.56,306.99C248.56,306.99 248.65,307.07 248.65,307.07C248.65,307.07 249.44,307.86 249.44,307.86C249.44,307.86 250.31,307.86 250.31,307.86C250.31,307.86 250.4,307.95 250.4,307.95C250.4,307.95 251.18,308.73 251.18,308.73C251.18,308.73 251.27,308.82 251.27,308.82C251.27,308.82 252.06,309.61 252.06,309.61C252.06,309.61 252.14,309.7 252.14,309.7C252.14,309.7 252.93,310.48 252.93,310.48C252.93,310.48 253.02,310.57 253.02,310.57C253.02,310.57 253.02,311.44 253.02,311.44C253.02,311.44 253.8,312.23 253.8,312.23C253.8,312.23 253.89,312.32 253.89,312.32C253.89,312.32 253.89,313.19 253.89,313.19C253.89,313.19 253.89,314.06 253.89,314.06C253.89,314.06 253.89,314.94 253.89,314.94Q253.89,314.94 254.68,315.72L254.68,315.9Q253.89,316.68 253.89,316.68C253.89,316.68 253.89,317.56 253.89,317.56C253.89,317.56 253.89,318.43 253.89,318.43C253.89,318.43 253.89,319.31 253.89,319.31C253.89,319.31 253.8,319.39 253.8,319.39C253.8,319.39 253.02,320.18 253.02,320.18C253.02,320.18 253.02,321.05 253.02,321.05C253.02,321.05 252.93,321.14 252.93,321.14C252.93,321.14 252.14,321.93 252.14,321.93C252.14,321.93 252.06,322.01 252.06,322.01C252.06,322.01 251.27,322.8 251.27,322.8C251.27,322.8 251.18,322.89 251.18,322.89C251.18,322.89 250.4,323.67 250.4,323.67C250.4,323.67 250.31,323.76 250.31,323.76C250.31,323.76 249.44,323.76 249.44,323.76C249.44,323.76 248.65,324.55 248.65,324.55C248.65,324.55 248.56,324.64 248.56,324.64C248.56,324.64 247.69,324.64 247.69,324.64C247.69,324.64 246.81,324.64 246.81,324.64C246.81,324.64 245.94,324.64 245.94,324.64Q245.94,324.64 245.15,325.42Z"/></clipPath><clipPath class="contourclip" id="clipf71720"><path d="M285.82,162.04Q285.04,161.26 285.04,161.26C285.04,161.26 284.16,161.26 284.16,161.26C284.16,161.26 283.29,161.26 283.29,161.26C283.29,161.26 282.42,161.26 282.42,161.26C282.42,161.26 282.33,161.17 282.33,161.17C282.33,161.17 281.54,160.38 281.54,160.38C281.54,160.38 280.67,160.38 280.67,160.38C280.67,160.38 280.58,160.3 280.58,160.3C280.58,160.3 279.8,159.51 279.8,159.51C279.8,159.51 279.71,159.42 279.71,159.42C279.71,159.42 278.92,158.64 278.92,158.64C278.92,158.64 278.83,158.55 278.83,158.55C278.83,158.55 278.05,157.76 278.05,157.76C278.05,157.76 277.96,157.68 277.96,157.68C277.96,157.68 277.96,156.8 277.96,156.8C277.96,156.8 277.17,156.02 277.17,156.02C277.17,156.02 277.09,155.93 277.09,155.93C277.09,155.93 277.09,155.05 277.09,155.05C277.09,155.05 277.09,154.18 277.09,154.18C277.09,154.18 277.09,153.31 277.09,153.31Q277.09,153.31 276.3,152.52L276.3,152.35Q277.09,151.56 277.09,151.56C277.09,151.56 277.09,150.69 277.09,150.69C277.09,150.69 277.09,149.81 277.09,149.81C277.09,149.81 277.09,148.94 277.09,148.94C277.09,148.94 277.17,148.85 277.17,148.85C277.17,148.85 277.96,148.06 277.96,148.06C277.96,148.06 277.96,147.19 277.96,147.19C277.96,147.19 278.05,147.1 278.05,147.1C278.05,147.1 278.83,146.32 278.83,146.32C278.83,146.32 278.92,146.23 278.92,146.23C278.92,146.23 279.71,145.44 279.71,145.44C279.71,145.44 279.8,145.36 279.8,145.36C279.8,145.36 280.58,144.57 280.58,144.57C280.58,144.57 280.67,144.48 280.67,144.48C280.67,144.48 281.54,144.48 281.54,144.48C281.54,144.48 282.33,143.7 282.33,143.7C282.33,143.7 282.42,143.61 282.42,143.61C282.42,143.61 283.29,143.61 283.29,143.61C283.29,143.61 284.16,143.61 284.16,143.61C284.16,143.61 285.04,143.61 285.04,143.61Q285.04,143.61 285.82,142.82L286,142.82Q286.78,143.61 286.78,143.61C286.78,143.61 287.66,143.61 287.66,143.61C287.66,143.61 288.53,143.61 288.53,143.61C288.53,143.61 289.41,143.61 289.41,143.61C289.41,143.61 289.49,143.7 289.49,143.7C289.49,143.7 290.28,144.48 290.28,144.48C290.28,144.48 291.15,144.48 291.15,144.48C291.15,144.48 291.24,144.57 291.24,144.57C291.24,144.57 292.03,145.36 292.03,145.36C292.03,145.36 292.11,145.44 292.11,145.44C292.11,145.44 292.9,146.23 292.9,146.23C292.9,146.23 292.99,146.32 292.99,146.32C292.99,146.32 293.77,147.1 293.77,147.1C293.77,147.1 293.86,147.19 293.86,147.19C293.86,147.19 293.86,148.06 293.86,148.06C293.86,148.06 294.65,148.85 294.65,148.85C294.65,148.85 294.74,148.94 294.74,148.94C294.74,148.94 294.74,149.81 294.74,149.81C294.74,149.81 294.74,150.69 294.74,150.69C294.74,150.69 294.74,151.56 294.74,151.56Q294.74,151.56 295.52,152.35L295.52,152.52Q294.74,153.31 294.74,153.31C294.74,153.31 294.74,154.18 294.74,154.18C294.74,154.18 294.74,155.05 294.74,155.05C294.74,155.05 294.74,155.93 294.74,155.93C294.74,155.93 294.65,156.02 294.65,156.02C294.65,156.02 293.86,156.8 293.86,156.8C293.86,156.8 293.86,157.68 293.86,157.68C293.86,157.68 293.77,157.76 293.77,157.76C293.77,157.76 292.99,158.55 292.99,158.55C292.99,158.55 292.9,158.64 292.9,158.64C292.9,158.64 292.11,159.42 292.11,159.42C292.11,159.42 292.03,159.51 292.03,159.51C292.03,159.51 291.24,160.3 291.24,160.3C291.24,160.3 291.15,160.38 291.15,160.38C291.15,160.38 290.28,160.38 290.28,160.38C290.28,160.38 289.49,161.17 289.49,161.17C289.49,161.17 289.41,161.26 289.41,161.26C289.41,161.26 288.53,161.26 288.53,161.26C288.53,161.26 287.66,161.26 287.66,161.26C287.66,161.26 286.78,161.26 286.78,161.26Q286.78,161.26 286,162.04Z"/></clipPath><clipPath class="contourclip" id="clip6beb77"><path d="M273.57,627.67Q272.78,626.88 272.78,626.88C272.78,626.88 271.91,626.88 271.91,626.88C271.91,626.88 271.04,626.88 271.04,626.88C271.04,626.88 270.16,626.88 270.16,626.88C270.16,626.88 270.08,626.8 270.08,626.8C270.08,626.8 269.29,626.01 269.29,626.01C269.29,626.01 268.42,626.01 268.42,626.01C268.42,626.01 268.33,625.92 268.33,625.92C268.33,625.92 267.54,625.14 267.54,625.14C267.54,625.14 267.45,625.05 267.45,625.05C267.45,625.05 266.67,624.26 266.67,624.26C266.67,624.26 266.58,624.18 266.58,624.18C266.58,624.18 265.79,623.39 265.79,623.39C265.79,623.39 265.71,623.3 265.71,623.3C265.71,623.3 265.71,622.43 265.71,622.43C265.71,622.43 264.92,621.64 264.92,621.64C264.92,621.64 264.83,621.55 264.83,621.55C264.83,621.55 264.83,620.68 264.83,620.68C264.83,620.68 264.83,619.81 264.83,619.81C264.83,619.81 264.83,618.93 264.83,618.93Q264.83,618.93 264.05,618.15L264.05,617.97Q264.83,617.19 264.83,617.19C264.83,617.19 264.83,616.31 264.83,616.31C264.83,616.31 264.83,615.44 264.83,615.44C264.83,615.44 264.83,614.57 264.83,614.57C264.83,614.57 264.92,614.48 264.92,614.48C264.92,614.48 265.71,613.69 265.71,613.69C265.71,613.69 265.71,612.82 265.71,612.82C265.71,612.82 265.79,612.73 265.79,612.73C265.79,612.73 266.58,611.94 266.58,611.94C266.58,611.94 266.67,611.86 266.67,611.86C266.67,611.86 267.45,611.07 267.45,611.07C267.45,611.07 267.54,610.98 267.54,610.98C267.54,610.98 268.33,610.2 268.33,610.2C268.33,610.2 268.42,610.11 268.42,610.11C268.42,610.11 269.29,610.11 269.29,610.11C269.29,610.11 270.08,609.32 270.08,609.32C270.08,609.32 270.16,609.24 270.16,609.24C270.16,609.24 271.04,609.24 271.04,609.24C271.04,609.24 271.91,609.24 271.91,609.24C271.91,609.24 272.78,609.24 272.78,609.24Q272.78,609.24 273.57,608.45L273.75,608.45Q274.53,609.24 274.53,609.24C274.53,609.24 275.41,609.24 275.41,609.24C275.41,609.24 276.28,609.24 276.28,609.24C276.28,609.24 277.15,609.24 277.15,609.24C277.15,609.24 277.24,609.32 277.24,609.32C277.24,609.32 278.03,610.11 278.03,610.11C278.03,610.11 278.9,610.11 278.9,610.11C278.9,610.11 278.99,610.2 278.99,610.2C278.99,610.2 279.77,610.98 279.77,610.98C279.77,610.98 279.86,611.07 279.86,611.07C279.86,611.07 280.65,611.86 280.65,611.86C280.65,611.86 280.73,611.94 280.73,611.94C280.73,611.94 281.52,612.73 281.52,612.73C281.52,612.73 281.61,612.82 281.61,612.82C281.61,612.82 281.61,613.69 281.61,613.69C281.61,613.69 282.39,614.48 282.39,614.48C282.39,614.48 282.48,614.57 282.48,614.57C282.48,614.57 282.48,615.44 282.48,615.44C282.48,615.44 282.48,616.31 282.48,616.31C282.48,616.31 282.48,617.19 282.48,617.19Q282.48,617.19 283.27,617.97L283.27,618.15Q282.48,618.93 282.48,618.93C282.48,618.93 282.48,619.81 282.48,619.81C282.48,619.81 282.48,620.68 282.48,620.68C282.48,620.68 282.48,621.55 282.48,621.55C282.48,621.55 282.39,621.64 282.39,621.64C282.39,621.64 281.61,622.43 281.61,622.43C281.61,622.43 281.61,623.3 281.61,623.3C281.61,623.3 281.52,623.39 281.52,623.39C281.52,623.39 280.73,624.18 280.73,624.18C280.73,624.18 280.65,624.26 280.65,624.26C280.65,624.26 279.86,625.05 279.86,625.05C279.86,625.05 279.77,625.14 279.77,625.14C279.77,625.14 278.99,625.92 278.99,625.92C278.99,625.92 278.9,626.01 278.9,626.01C278.9,626.01 278.03,626.01 278.03,626.01C278.03,626.01 277.24,626.8 277.24,626.8C277.24,626.8 277.15,626.88 277.15,626.88C277.15,626.88 276.28,626.88 276.28,626.88C276.28,626.88 275.41,626.88 275.41,626.88C275.41,626.88 274.53,626.88 274.53,626.88Q274.53,626.88 273.75,627.67Z"/></clipPath><clipPath class="contourclip" id="clip204478"><path d="M551.31,665.79Q550.53,665.01 550.53,665.01C550.53,665.01 549.65,665.01 549.65,665.01C549.65,665.01 548.78,665.01 548.78,665.01C548.78,665.01 547.91,665.01 547.91,665.01C547.91,665.01 547.82,664.92 547.82,664.92C547.82,664.92 547.03,664.13 547.03,664.13C547.03,664.13 546.16,664.13 546.16,664.13C546.16,664.13 546.07,664.04 546.07,664.04C546.07,664.04 545.28,663.26 545.28,663.26C545.28,663.26 545.2,663.17 545.2,663.17C545.2,663.17 544.41,662.38 544.41,662.38C544.41,662.38 544.32,662.3 544.32,662.3C544.32,662.3 543.54,661.51 543.54,661.51C543.54,661.51 543.45,661.42 543.45,661.42C543.45,661.42 543.45,660.55 543.45,660.55C543.45,660.55 542.66,659.76 542.66,659.76C542.66,659.76 542.58,659.68 542.58,659.68C542.58,659.68 542.58,658.8 542.58,658.8C542.58,658.8 542.58,657.93 542.58,657.93C542.58,657.93 542.58,657.06 542.58,657.06Q542.58,657.06 541.79,656.27L541.79,656.09Q542.58,655.31 542.58,655.31C542.58,655.31 542.58,654.43 542.58,654.43C542.58,654.43 542.58,653.56 542.58,653.56C542.58,653.56 542.58,652.69 542.58,652.69C542.58,652.69 542.66,652.6 542.66,652.6C542.66,652.6 543.45,651.81 543.45,651.81C543.45,651.81 543.45,650.94 543.45,650.94C543.45,650.94 543.54,650.85 543.54,650.85C543.54,650.85 544.32,650.07 544.32,650.07C544.32,650.07 544.41,649.98 544.41,649.98C544.41,649.98 545.2,649.19 545.2,649.19C545.2,649.19 545.28,649.1 545.28,649.1C545.28,649.1 546.07,648.32 546.07,648.32C546.07,648.32 546.16,648.23 546.16,648.23C546.16,648.23 547.03,648.23 547.03,648.23C547.03,648.23 547.82,647.44 547.82,647.44C547.82,647.44 547.91,647.36 547.91,647.36C547.91,647.36 548.78,647.36 548.78,647.36C548.78,647.36 549.65,647.36 549.65,647.36C549.65,647.36 550.53,647.36 550.53,647.36Q550.53,647.36 551.31,646.57L551.49,646.57Q552.27,647.36 552.27,647.36C552.27,647.36 553.15,647.36 553.15,647.36C553.15,647.36 554.02,647.36 554.02,647.36C554.02,647.36 554.89,647.36 554.89,647.36C554.89,647.36 554.98,647.44 554.98,647.44C554.98,647.44 555.77,648.23 555.77,648.23C555.77,648.23 556.64,648.23 556.64,648.23C556.64,648.23 556.73,648.32 556.73,648.32C556.73,648.32 557.52,649.1 557.52,649.1C557.52,649.1 557.6,649.19 557.6,649.19C557.6,649.19 558.39,649.98 558.39,649.98C558.39,649.98 558.48,650.07 558.48,650.07C558.48,650.07 559.26,650.85 559.26,650.85C559.26,650.85 559.35,650.94 559.35,650.94C559.35,650.94 559.35,651.81 559.35,651.81C559.35,651.81 560.14,652.6 560.14,652.6C560.14,652.6 560.22,652.69 560.22,652.69C560.22,652.69 560.22,653.56 560.22,653.56C560.22,653.56 560.22,654.43 560.22,654.43C560.22,654.43 560.22,655.31 560.22,655.31Q560.22,655.31 561.01,656.09L561.01,656.27Q560.22,657.06 560.22,657.06C560.22,657.06 560.22,657.93 560.22,657.93C560.22,657.93 560.22,658.8 560.22,658.8C560.22,658.8 560.22,659.68 560.22,659.68C560.22,659.68 560.14,659.76 560.14,659.76C560.14,659.76 559.35,660.55 559.35,660.55C559.35,660.55 559.35,661.42 559.35,661.42C559.35,661.42 559.26,661.51 559.26,661.51C559.26,661.51 558.48,662.3 558.48,662.3C558.48,662.3 558.39,662.38 558.39,662.38C558.39,662.38 557.6,663.17 557.6,663.17C557.6,663.17 557.52,663.26 557.52,663.26C557.52,663.26 556.73,664.04 556.73,664.04C556.73,664.04 556.64,664.13 556.64,664.13C556.64,664.13 555.77,664.13 555.77,664.13C555.77,664.13 554.98,664.92 554.98,664.92C554.98,664.92 554.89,665.01 554.89,665.01C554.89,665.01 554.02,665.01 554.02,665.01C554.02,665.01 553.15,665.01 553.15,665.01C553.15,665.01 552.27,665.01 552.27,665.01Q552.27,665.01 551.49,665.79Z"/></clipPath><clipPath class="contourclip" id="clip7daedf"><path d="M714.69,570.49Q713.9,569.7 713.9,569.7C713.9,569.7 713.03,569.7 713.03,569.7C713.03,569.7 712.16,569.7 712.16,569.7C712.16,569.7 711.28,569.7 711.28,569.7C711.28,569.7 711.2,569.61 711.2,569.61C711.2,569.61 710.41,568.83 710.41,568.83C710.41,568.83 709.54,568.83 709.54,568.83C709.54,568.83 709.45,568.74 709.45,568.74C709.45,568.74 708.66,567.95 708.66,567.95C708.66,567.95 708.57,567.87 708.57,567.87C708.57,567.87 707.79,567.08 707.79,567.08C707.79,567.08 707.7,566.99 707.7,566.99C707.7,566.99 706.91,566.21 706.91,566.21C706.91,566.21 706.83,566.12 706.83,566.12C706.83,566.12 706.83,565.25 706.83,565.25C706.83,565.25 706.04,564.46 706.04,564.46C706.04,564.46 705.95,564.37 705.95,564.37C705.95,564.37 705.95,563.5 705.95,563.5C705.95,563.5 705.95,562.63 705.95,562.63C705.95,562.63 705.95,561.75 705.95,561.75Q705.95,561.75 705.17,560.97L705.17,560.79Q705.95,560 705.95,560C705.95,560 705.95,559.13 705.95,559.13C705.95,559.13 705.95,558.26 705.95,558.26C705.95,558.26 705.95,557.38 705.95,557.38C705.95,557.38 706.04,557.3 706.04,557.3C706.04,557.3 706.83,556.51 706.83,556.51C706.83,556.51 706.83,555.64 706.83,555.64C706.83,555.64 706.91,555.55 706.91,555.55C706.91,555.55 707.7,554.76 707.7,554.76C707.7,554.76 707.79,554.67 707.79,554.67C707.79,554.67 708.57,553.89 708.57,553.89C708.57,553.89 708.66,553.8 708.66,553.8C708.66,553.8 709.45,553.01 709.45,553.01C709.45,553.01 709.54,552.93 709.54,552.93C709.54,552.93 710.41,552.93 710.41,552.93C710.41,552.93 711.2,552.14 711.2,552.14C711.2,552.14 711.28,552.05 711.28,552.05C711.28,552.05 712.16,552.05 712.16,552.05C712.16,552.05 713.03,552.05 713.03,552.05C713.03,552.05 713.9,552.05 713.9,552.05Q713.9,552.05 714.69,551.27L714.87,551.27Q715.65,552.05 715.65,552.05C715.65,552.05 716.53,552.05 716.53,552.05C716.53,552.05 717.4,552.05 717.4,552.05C717.4,552.05 718.27,552.05 718.27,552.05C718.27,552.05 718.36,552.14 718.36,552.14C718.36,552.14 719.15,552.93 719.15,552.93C719.15,552.93 720.02,552.93 720.02,552.93C720.02,552.93 720.11,553.01 720.11,553.01C720.11,553.01 720.89,553.8 720.89,553.8C720.89,553.8 720.98,553.89 720.98,553.89C720.98,553.89 721.77,554.67 721.77,554.67C721.77,554.67 721.85,554.76 721.85,554.76C721.85,554.76 722.64,555.55 722.64,555.55C722.64,555.55 722.73,555.64 722.73,555.64C722.73,555.64 722.73,556.51 722.73,556.51C722.73,556.51 723.51,557.3 723.51,557.3C723.51,557.3 723.6,557.38 723.6,557.38C723.6,557.38 723.6,558.26 723.6,558.26C723.6,558.26 723.6,559.13 723.6,559.13C723.6,559.13 723.6,560 723.6,560Q723.6,560 724.39,560.79L724.39,560.97Q723.6,561.75 723.6,561.75C723.6,561.75 723.6,562.63 723.6,562.63C723.6,562.63 723.6,563.5 723.6,563.5C723.6,563.5 723.6,564.37 723.6,564.37C723.6,564.37 723.51,564.46 723.51,564.46C723.51,564.46 722.73,565.25 722.73,565.25C722.73,565.25 722.73,566.12 722.73,566.12C722.73,566.12 722.64,566.21 722.64,566.21C722.64,566.21 721.85,566.99 721.85,566.99C721.85,566.99 721.77,567.08 721.77,567.08C721.77,567.08 720.98,567.87 720.98,567.87C720.98,567.87 720.89,567.95 720.89,567.95C720.89,567.95 720.11,568.74 720.11,568.74C720.11,568.74 720.02,568.83 720.02,568.83C720.02,568.83 719.15,568.83 719.15,568.83C719.15,568.83 718.36,569.61 718.36,569.61C718.36,569.61 718.27,569.7 718.27,569.7C718.27,569.7 717.4,569.7 717.4,569.7C717.4,569.7 716.53,569.7 716.53,569.7C716.53,569.7 715.65,569.7 715.65,569.7Q715.65,569.7 714.87,570.49Z"/></clipPath><clipPath class="contourclip" id="clip394ed9"><path d="M469.62,447.95Q468.84,447.17 468.84,447.17C468.84,447.17 467.96,447.17 467.96,447.17C467.96,447.17 467.09,447.17 467.09,447.17C467.09,447.17 466.22,447.17 466.22,447.17C466.22,447.17 466.13,447.08 466.13,447.08C466.13,447.08 465.34,446.29 465.34,446.29C465.34,446.29 464.47,446.29 464.47,446.29C464.47,446.29 464.38,446.21 464.38,446.21C464.38,446.21 463.6,445.42 463.6,445.42C463.6,445.42 463.51,445.33 463.51,445.33C463.51,445.33 462.72,444.55 462.72,444.55C462.72,444.55 462.63,444.46 462.63,444.46C462.63,444.46 461.85,443.67 461.85,443.67C461.85,443.67 461.76,443.59 461.76,443.59C461.76,443.59 461.76,442.71 461.76,442.71C461.76,442.71 460.97,441.93 460.97,441.93C460.97,441.93 460.89,441.84 460.89,441.84C460.89,441.84 460.89,440.97 460.89,440.97C460.89,440.97 460.89,440.09 460.89,440.09C460.89,440.09 460.89,439.22 460.89,439.22Q460.89,439.22 460.1,438.43L460.1,438.26Q460.89,437.47 460.89,437.47C460.89,437.47 460.89,436.6 460.89,436.6C460.89,436.6 460.89,435.72 460.89,435.72C460.89,435.72 460.89,434.85 460.89,434.85C460.89,434.85 460.97,434.76 460.97,434.76C460.97,434.76 461.76,433.98 461.76,433.98C461.76,433.98 461.76,433.1 461.76,433.1C461.76,433.1 461.85,433.01 461.85,433.01C461.85,433.01 462.63,432.23 462.63,432.23C462.63,432.23 462.72,432.14 462.72,432.14C462.72,432.14 463.51,431.36 463.51,431.36C463.51,431.36 463.6,431.27 463.6,431.27C463.6,431.27 464.38,430.48 464.38,430.48C464.38,430.48 464.47,430.39 464.47,430.39C464.47,430.39 465.34,430.39 465.34,430.39C465.34,430.39 466.13,429.61 466.13,429.61C466.13,429.61 466.22,429.52 466.22,429.52C466.22,429.52 467.09,429.52 467.09,429.52C467.09,429.52 467.96,429.52 467.96,429.52C467.96,429.52 468.84,429.52 468.84,429.52Q468.84,429.52 469.62,428.73L469.8,428.73Q470.58,429.52 470.58,429.52C470.58,429.52 471.46,429.52 471.46,429.52C471.46,429.52 472.33,429.52 472.33,429.52C472.33,429.52 473.21,429.52 473.21,429.52C473.21,429.52 473.29,429.61 473.29,429.61C473.29,429.61 474.08,430.39 474.08,430.39C474.08,430.39 474.95,430.39 474.95,430.39C474.95,430.39 475.04,430.48 475.04,430.48C475.04,430.48 475.83,431.27 475.83,431.27C475.83,431.27 475.91,431.36 475.91,431.36C475.91,431.36 476.7,432.14 476.7,432.14C476.7,432.14 476.79,432.23 476.79,432.23C476.79,432.23 477.57,433.01 477.57,433.01C477.57,433.01 477.66,433.1 477.66,433.1C477.66,433.1 477.66,433.98 477.66,433.98C477.66,433.98 478.45,434.76 478.45,434.76C478.45,434.76 478.54,434.85 478.54,434.85C478.54,434.85 478.54,435.72 478.54,435.72C478.54,435.72 478.54,436.6 478.54,436.6C478.54,436.6 478.54,437.47 478.54,437.47Q478.54,437.47 479.32,438.26L479.32,438.43Q478.54,439.22 478.54,439.22C478.54,439.22 478.54,440.09 478.54,440.09C478.54,440.09 478.54,440.97 478.54,440.97C478.54,440.97 478.54,441.84 478.54,441.84C478.54,441.84 478.45,441.93 478.45,441.93C478.45,441.93 477.66,442.71 477.66,442.71C477.66,442.71 477.66,443.59 477.66,443.59C477.66,443.59 477.57,443.67 477.57,443.67C477.57,443.67 476.79,444.46 476.79,444.46C476.79,444.46 476.7,444.55 476.7,444.55C476.7,444.55 475.91,445.33 475.91,445.33C475.91,445.33 475.83,445.42 475.83,445.42C475.83,445.42 475.04,446.21 475.04,446.21C475.04,446.21 474.95,446.29 474.95,446.29C474.95,446.29 474.08,446.29 474.08,446.29C474.08,446.29 473.29,447.08 473.29,447.08C473.29,447.08 473.21,447.17 473.21,447.17C473.21,447.17 472.33,447.17 472.33,447.17C472.33,447.17 471.46,447.17 471.46,447.17C471.46,447.17 470.58,447.17 470.58,447.17Q470.58,447.17 469.8,447.95Z"/></clipPath><clipPath class="contourclip" id="clipb9dbd7"><path d="M633,202.89Q632.22,202.1 632.22,202.1C632.22,202.1 631.34,202.1 631.34,202.1C631.34,202.1 630.47,202.1 630.47,202.1C630.47,202.1 629.59,202.1 629.59,202.1C629.59,202.1 629.51,202.01 629.51,202.01C629.51,202.01 628.72,201.23 628.72,201.23C628.72,201.23 627.85,201.23 627.85,201.23C627.85,201.23 627.76,201.14 627.76,201.14C627.76,201.14 626.97,200.35 626.97,200.35C626.97,200.35 626.89,200.27 626.89,200.27C626.89,200.27 626.1,199.48 626.1,199.48C626.1,199.48 626.01,199.39 626.01,199.39C626.01,199.39 625.23,198.61 625.23,198.61C625.23,198.61 625.14,198.52 625.14,198.52C625.14,198.52 625.14,197.65 625.14,197.65C625.14,197.65 624.35,196.86 624.35,196.86C624.35,196.86 624.26,196.77 624.26,196.77C624.26,196.77 624.26,195.9 624.26,195.9C624.26,195.9 624.26,195.03 624.26,195.03C624.26,195.03 624.26,194.15 624.26,194.15Q624.26,194.15 623.48,193.37L623.48,193.19Q624.26,192.4 624.26,192.4C624.26,192.4 624.26,191.53 624.26,191.53C624.26,191.53 624.26,190.66 624.26,190.66C624.26,190.66 624.26,189.78 624.26,189.78C624.26,189.78 624.35,189.7 624.35,189.7C624.35,189.7 625.14,188.91 625.14,188.91C625.14,188.91 625.14,188.04 625.14,188.04C625.14,188.04 625.23,187.95 625.23,187.95C625.23,187.95 626.01,187.16 626.01,187.16C626.01,187.16 626.1,187.07 626.1,187.07C626.1,187.07 626.89,186.29 626.89,186.29C626.89,186.29 626.97,186.2 626.97,186.2C626.97,186.2 627.76,185.41 627.76,185.41C627.76,185.41 627.85,185.33 627.85,185.33C627.85,185.33 628.72,185.33 628.72,185.33C628.72,185.33 629.51,184.54 629.51,184.54C629.51,184.54 629.59,184.45 629.59,184.45C629.59,184.45 630.47,184.45 630.47,184.45C630.47,184.45 631.34,184.45 631.34,184.45C631.34,184.45 632.22,184.45 632.22,184.45Q632.22,184.45 633,183.67L633.18,183.67Q633.96,184.45 633.96,184.45C633.96,184.45 634.84,184.45 634.84,184.45C634.84,184.45 635.71,184.45 635.71,184.45C635.71,184.45 636.58,184.45 636.58,184.45C636.58,184.45 636.67,184.54 636.67,184.54C636.67,184.54 637.46,185.33 637.46,185.33C637.46,185.33 638.33,185.33 638.33,185.33C638.33,185.33 638.42,185.41 638.42,185.41C638.42,185.41 639.2,186.2 639.2,186.2C639.2,186.2 639.29,186.29 639.29,186.29C639.29,186.29 640.08,187.07 640.08,187.07C640.08,187.07 640.17,187.16 640.17,187.16C640.17,187.16 640.95,187.95 640.95,187.95C640.95,187.95 641.04,188.04 641.04,188.04C641.04,188.04 641.04,188.91 641.04,188.91C641.04,188.91 641.83,189.7 641.83,189.7C641.83,189.7 641.91,189.78 641.91,189.78C641.91,189.78 641.91,190.66 641.91,190.66C641.91,190.66 641.91,191.53 641.91,191.53C641.91,191.53 641.91,192.4 641.91,192.4Q641.91,192.4 642.7,193.19L642.7,193.37Q641.91,194.15 641.91,194.15C641.91,194.15 641.91,195.03 641.91,195.03C641.91,195.03 641.91,195.9 641.91,195.9C641.91,195.9 641.91,196.77 641.91,196.77C641.91,196.77 641.83,196.86 641.83,196.86C641.83,196.86 641.04,197.65 641.04,197.65C641.04,197.65 641.04,198.52 641.04,198.52C641.04,198.52 640.95,198.61 640.95,198.61C640.95,198.61 640.17,199.39 640.17,199.39C640.17,199.39 640.08,199.48 640.08,199.48C640.08,199.48 639.29,200.27 639.29,200.27C639.29,200.27 639.2,200.35 639.2,200.35C639.2,200.35 638.42,201.14 638.42,201.14C638.42,201.14 638.33,201.23 638.33,201.23C638.33,201.23 637.46,201.23 637.46,201.23C637.46,201.23 636.67,202.01 636.67,202.01C636.67,202.01 636.58,202.1 636.58,202.1C636.58,202.1 635.71,202.1 635.71,202.1C635.71,202.1 634.84,202.1 634.84,202.1C634.84,202.1 633.96,202.1 633.96,202.1Q633.96,202.1 633.18,202.89Z"/></clipPath></g><g class="gradients"/><g class="patterns"/></defs><g class="bglayer"/><g class="layer-below"><g class="imagelayer"/><g class="shapelayer"/></g><g class="cartesianlayer"><g class="subplot xy"><g class="layer-subplot"><g class="shapelayer"/><g class="imagelayer"/></g><g class="minor-gridlayer"><g class="x"/><g class="y"/></g><g class="gridlayer"><g class="x"><path class="xgrid crisp" transform="translate(65.27000000000001,0)" d="M0,2v795" style="stroke: rgb(211, 211, 211); stroke-opacity: 1; stroke-width: 1px;"/><path class="xgrid crisp" transform="translate(228.64,0)" d="M0,2v795" style="stroke: rgb(211, 211, 211); stroke-opacity: 1; stroke-width: 1px;"/><path class="xgrid crisp" transform="translate(392.02,0)" d="M0,2v795" style="stroke: rgb(211, 211, 211); stroke-opacity: 1; stroke-width: 1px;"/><path class="xgrid crisp" transform="translate(555.4,0)" d="M0,2v795" style="stroke: rgb(211, 211, 211); stroke-opacity: 1; stroke-width: 1px;"/><path class="xgrid crisp" transform="translate(718.78,0)" d="M0,2v795" style="stroke: rgb(211, 211, 211); stroke-opacity: 1; stroke-width: 1px;"/><path class="xgrid crisp" transform="translate(882.16,0)" d="M0,2v795" style="stroke: rgb(211, 211, 211); stroke-opacity: 1; stroke-width: 1px;"/></g><g class="y"><path class="ygrid crisp" transform="translate(0,685.41)" d="M4,0h919" style="stroke: rgb(211, 211, 211); stroke-opacity: 1; stroke-width: 1px;"/><path class="ygrid crisp" transform="translate(0,522.03)" d="M4,0h919" style="stroke: rgb(211, 211, 211); stroke-opacity: 1; stroke-width: 1px;"/><path class="ygrid crisp" transform="translate(0,358.66)" d="M4,0h919" style="stroke: rgb(211, 211, 211); stroke-opacity: 1; stroke-width: 1px;"/><path class="ygrid crisp" transform="translate(0,195.28)" d="M4,0h919" style="stroke: rgb(211, 211, 211); stroke-opacity: 1; stroke-width: 1px;"/><path class="ygrid crisp" transform="translate(0,31.9)" d="M4,0h919" style="stroke: rgb(211, 211, 211); stroke-opacity: 1; stroke-width: 1px;"/></g></g><g class="zerolinelayer"/><g class="layer-between"><g class="shapelayer"/><g class="imagelayer"/></g><path class="xlines-below"/><path class="ylines-below"/><g class="overlines-below"/><g class="xaxislayer-below"/><g class="yaxislayer-below"/><g class="overaxes-below"/><g class="plot" transform="translate(4,2)" clip-path="url(#clipb27928xyplot)"><g class="contourlayer mlayer"><g class="contour" clip-path="url(#clip854cb9)" style="opacity: 1;"><g class="heatmapcoloring"/><g class="contourbg"><path d="M827.7,360.66L846.92,360.66L846.92,379.88L827.7,379.88Z" style="stroke: none; fill: rgb(68, 1, 84);"/></g><g class="contourfill"/><g class="contourlines"><g class="contourlevel"/><g class="contourlevel"/><g class="contourlevel"/><g class="contourlevel"/><g class="contourlevel"/><g class="contourlevel"/><g class="contourlevel"/><g class="contourlevel"/><g class="contourlevel"/><g class="contourlevel"/><g class="contourlevel"/><g class="contourlevel"/><g class="contourlevel"/><g class="contourlevel"/><g class="contourlevel"/><g class="contourlevel"/></g></g><g class="contour" clip-path="url(#clip84a93e)" style="opacity: 1;"><g class="heatmapcoloring"/><g class="contourbg"><path d="M51.66,387.89L70.88,387.89L70.88,407.11L51.66,407.11Z" style="stroke: none; fill: rgb(68, 1, 84);"/></g><g class="contourfill"><path d="M51.66,387.89L70.88,387.89L70.88,407.11L51.66,407.11Z" style="stroke: none; fill: rgb(69, 13, 95);"/><path d="M51.66,387.89L70.88,387.89L70.88,407.11L51.66,407.11Z" style="stroke: none; fill: rgb(72, 36, 116);"/><path d="M51.66,387.89L70.88,387.89L70.88,407.11L51.66,407.11Z" style="stroke: none; fill: rgb(67, 57, 129);"/><path d="M51.66,387.89L70.88,387.89L70.88,407.11L51.66,407.11Z" style="stroke: none; fill: rgb(61, 76, 138);"/><path d="M51.66,387.89L70.88,387.89L70.88,407.11L51.66,407.11Z" style="stroke: none; fill: rgb(53, 95, 141);"/><path d="M51.66,387.89L70.88,387.89L70.88,407.11L51.66,407.11Z" style="stroke: none; fill: rgb(46, 112, 142);"/><path d="M51.66,387.89L70.88,387.89L70.88,407.11L51.66,407.11Z" style="stroke: none; fill: rgb(39, 127, 142);"/><path d="M51.66,387.89L70.88,387.89L70.88,407.11L51.66,407.11Z" style="stroke: none; fill: rgb(35, 144, 140);"/><path d="M51.66,387.89L70.88,387.89L70.88,407.11L51.66,407.11Z" style="stroke: none; fill: rgb(33, 161, 135);"/><path d="M51.66,387.89L70.88,387.89L70.88,407.11L51.66,407.11Z" style="stroke: none; fill: rgb(46, 176, 126);"/><path d="M51.66,387.89L70.88,387.89L70.88,407.11L51.66,407.11Z" style="stroke: none; fill: rgb(70, 190, 111);"/><path d="M51.66,387.89L70.88,387.89L70.88,407.11L51.66,407.11Z" style="stroke: none; fill: rgb(104, 204, 91);"/><path d="M51.66,387.89L70.88,387.89L70.88,407.11L51.66,407.11Z" style="stroke: none; fill: rgb(146, 214, 65);"/><path d="M51.66,387.89L70.88,387.89L70.88,407.11L51.66,407.11Z" style="stroke: none; fill: rgb(188, 223, 42);"/><path d="M51.66,387.89L70.88,387.89L70.88,407.11L51.66,407.11Z" style="stroke: none; fill: rgb(231, 228, 39);"/><path d="M51.66,387.89L70.88,387.89L70.88,407.11L51.66,407.11Z" style="stroke: none; fill: rgb(253, 231, 37);"/></g><g class="contourlines"><g class="contourlevel"/><g class="contourlevel"/><g class="contourlevel"/><g class="contourlevel"/><g class="contourlevel"/><g class="contourlevel"/><g class="contourlevel"/><g class="contourlevel"/><g class="contourlevel"/><g class="contourlevel"/><g class="contourlevel"/><g class="contourlevel"/><g class="contourlevel"/><g class="contourlevel"/><g class="contourlevel"/><g class="contourlevel"/></g></g><g class="contour" clip-path="url(#clip55c491)" style="opacity: 1;"><g class="heatmapcoloring"/><g class="contourbg"><path d="M235.46,306.2L254.68,306.2L254.68,325.42L235.46,325.42Z" style="stroke: none; fill: rgb(68, 1, 84);"/></g><g class="contourfill"><path d="M235.46,306.2L254.68,306.2L254.68,325.42L235.46,325.42Z" style="stroke: none; fill: rgb(69, 13, 95);"/><path d="M235.46,306.2L254.68,306.2L254.68,325.42L235.46,325.42Z" style="stroke: none; fill: rgb(72, 36, 116);"/><path d="M235.46,306.2L254.68,306.2L254.68,325.42L235.46,325.42Z" style="stroke: none; fill: rgb(67, 57, 129);"/><path d="M235.46,306.2L254.68,306.2L254.68,325.42L235.46,325.42Z" style="stroke: none; fill: rgb(61, 76, 138);"/><path d="M235.46,306.2L254.68,306.2L254.68,325.42L235.46,325.42Z" style="stroke: none; fill: rgb(53, 95, 141);"/><path d="M235.46,306.2L254.68,306.2L254.68,325.42L235.46,325.42Z" style="stroke: none; fill: rgb(46, 112, 142);"/><path d="M235.46,306.2L254.68,306.2L254.68,325.42L235.46,325.42Z" style="stroke: none; fill: rgb(39, 127, 142);"/><path d="M235.46,306.2L254.68,306.2L254.68,325.42L235.46,325.42Z" style="stroke: none; fill: rgb(35, 144, 140);"/><path d="M235.46,306.2L254.68,306.2L254.68,325.42L235.46,325.42Z" style="stroke: none; fill: rgb(33, 161, 135);"/><path d="M235.46,306.2L254.68,306.2L254.68,325.42L235.46,325.42Z" style="stroke: none; fill: rgb(46, 176, 126);"/><path d="M235.46,306.2L254.68,306.2L254.68,325.42L235.46,325.42Z" style="stroke: none; fill: rgb(70, 190, 111);"/><path d="M235.46,306.2L254.68,306.2L254.68,325.42L235.46,325.42Z" style="stroke: none; fill: rgb(104, 204, 91);"/><path d="M235.46,306.2L254.68,306.2L254.68,325.42L235.46,325.42Z" style="stroke: none; fill: rgb(146, 214, 65);"/><path d="M235.46,306.2L254.68,306.2L254.68,325.42L235.46,325.42Z" style="stroke: none; fill: rgb(188, 223, 42);"/></g><g class="contourlines"><g class="contourlevel"/><g class="contourlevel"/><g class="contourlevel"/><g class="contourlevel"/><g class="contourlevel"/><g class="contourlevel"/><g class="contourlevel"/><g class="contourlevel"/><g class="contourlevel"/><g class="contourlevel"/><g class="contourlevel"/><g class="contourlevel"/><g class="contourlevel"/><g class="contourlevel"/><g class="contourlevel"/><g class="contourlevel"/></g></g><g class="contour" clip-path="url(#clipf71720)" style="opacity: 1;"><g class="heatmapcoloring"/><g class="contourbg"><path d="M276.3,142.82L295.52,142.82L295.52,162.04L276.3,162.04Z" style="stroke: none; fill: rgb(68, 1, 84);"/></g><g class="contourfill"><path d="M276.3,142.82L295.52,142.82L295.52,162.04L276.3,162.04Z" style="stroke: none; fill: rgb(69, 13, 95);"/><path d="M276.3,142.82L295.52,142.82L295.52,162.04L276.3,162.04Z" style="stroke: none; fill: rgb(72, 36, 116);"/><path d="M276.3,142.82L295.52,142.82L295.52,162.04L276.3,162.04Z" style="stroke: none; fill: rgb(67, 57, 129);"/><path d="M276.3,142.82L295.52,142.82L295.52,162.04L276.3,162.04Z" style="stroke: none; fill: rgb(61, 76, 138);"/><path d="M276.3,142.82L295.52,142.82L295.52,162.04L276.3,162.04Z" style="stroke: none; fill: rgb(53, 95, 141);"/><path d="M276.3,142.82L295.52,142.82L295.52,162.04L276.3,162.04Z" style="stroke: none; fill: rgb(46, 112, 142);"/><path d="M276.3,142.82L295.52,142.82L295.52,162.04L276.3,162.04Z" style="stroke: none; fill: rgb(39, 127, 142);"/><path d="M276.3,142.82L295.52,142.82L295.52,162.04L276.3,162.04Z" style="stroke: none; fill: rgb(35, 144, 140);"/><path d="M276.3,142.82L295.52,142.82L295.52,162.04L276.3,162.04Z" style="stroke: none; fill: rgb(33, 161, 135);"/><path d="M276.3,142.82L295.52,142.82L295.52,162.04L276.3,162.04Z" style="stroke: none; fill: rgb(46, 176, 126);"/><path d="M276.3,142.82L295.52,142.82L295.52,162.04L276.3,162.04Z" style="stroke: none; fill: rgb(70, 190, 111);"/><path d="M276.3,142.82L295.52,142.82L295.52,162.04L276.3,162.04Z" style="stroke: none; fill: rgb(104, 204, 91);"/><path d="M276.3,142.82L295.52,142.82L295.52,162.04L276.3,162.04Z" style="stroke: none; fill: rgb(146, 214, 65);"/><path d="M276.3,142.82L295.52,142.82L295.52,162.04L276.3,162.04Z" style="stroke: none; fill: rgb(188, 223, 42);"/><path d="M276.3,142.82L295.52,142.82L295.52,162.04L276.3,162.04Z" style="stroke: none; fill: rgb(231, 228, 39);"/></g><g class="contourlines"><g class="contourlevel"/><g class="contourlevel"/><g class="contourlevel"/><g class="contourlevel"/><g class="contourlevel"/><g class="contourlevel"/><g class="contourlevel"/><g class="contourlevel"/><g class="contourlevel"/><g class="contourlevel"/><g class="contourlevel"/><g class="contourlevel"/><g class="contourlevel"/><g class="contourlevel"/><g class="contourlevel"/><g class="contourlevel"/></g></g><g class="contour" clip-path="url(#clip6beb77)" style="opacity: 1;"><g class="heatmapcoloring"/><g class="contourbg"><path d="M264.05,608.45L283.27,608.45L283.27,627.67L264.05,627.67Z" style="stroke: none; fill: rgb(68, 1, 84);"/></g><g class="contourfill"><path d="M264.05,608.45L283.27,608.45L283.27,627.67L264.05,627.67Z" style="stroke: none; fill: rgb(69, 13, 95);"/><path d="M264.05,608.45L283.27,608.45L283.27,627.67L264.05,627.67Z" style="stroke: none; fill: rgb(72, 36, 116);"/><path d="M264.05,608.45L283.27,608.45L283.27,627.67L264.05,627.67Z" style="stroke: none; fill: rgb(67, 57, 129);"/><path d="M264.05,608.45L283.27,608.45L283.27,627.67L264.05,627.67Z" style="stroke: none; fill: rgb(61, 76, 138);"/><path d="M264.05,608.45L283.27,608.45L283.27,627.67L264.05,627.67Z" style="stroke: none; fill: rgb(53, 95, 141);"/><path d="M264.05,608.45L283.27,608.45L283.27,627.67L264.05,627.67Z" style="stroke: none; fill: rgb(46, 112, 142);"/><path d="M264.05,608.45L283.27,608.45L283.27,627.67L264.05,627.67Z" style="stroke: none; fill: rgb(39, 127, 142);"/><path d="M264.05,608.45L283.27,608.45L283.27,627.67L264.05,627.67Z" style="stroke: none; fill: rgb(35, 144, 140);"/><path d="M264.05,608.45L283.27,608.45L283.27,627.67L264.05,627.67Z" style="stroke: none; fill: rgb(33, 161, 135);"/><path d="M264.05,608.45L283.27,608.45L283.27,627.67L264.05,627.67Z" style="stroke: none; fill: rgb(46, 176, 126);"/><path d="M264.05,608.45L283.27,608.45L283.27,627.67L264.05,627.67Z" style="stroke: none; fill: rgb(70, 190, 111);"/><path d="M264.05,608.45L283.27,608.45L283.27,627.67L264.05,627.67Z" style="stroke: none; fill: rgb(104, 204, 91);"/></g><g class="contourlines"><g class="contourlevel"/><g class="contourlevel"/><g class="contourlevel"/><g class="contourlevel"/><g class="contourlevel"/><g class="contourlevel"/><g class="contourlevel"/><g class="contourlevel"/><g class="contourlevel"/><g class="contourlevel"/><g class="contourlevel"/><g class="contourlevel"/><g class="contourlevel"/><g class="contourlevel"/><g class="contourlevel"/><g class="contourlevel"/></g></g><g class="contour" clip-path="url(#clip204478)" style="opacity: 1;"><g class="heatmapcoloring"/><g class="contourbg"><path d="M541.79,646.57L561.01,646.57L561.01,665.79L541.79,665.79Z" style="stroke: none; fill: rgb(68, 1, 84);"/></g><g class="contourfill"><path d="M541.79,646.57L561.01,646.57L561.01,665.79L541.79,665.79Z" style="stroke: none; fill: rgb(69, 13, 95);"/><path d="M541.79,646.57L561.01,646.57L561.01,665.79L541.79,665.79Z" style="stroke: none; fill: rgb(72, 36, 116);"/><path d="M541.79,646.57L561.01,646.57L561.01,665.79L541.79,665.79Z" style="stroke: none; fill: rgb(67, 57, 129);"/><path d="M541.79,646.57L561.01,646.57L561.01,665.79L541.79,665.79Z" style="stroke: none; fill: rgb(61, 76, 138);"/><path d="M541.79,646.57L561.01,646.57L561.01,665.79L541.79,665.79Z" style="stroke: none; fill: rgb(53, 95, 141);"/><path d="M541.79,646.57L561.01,646.57L561.01,665.79L541.79,665.79Z" style="stroke: none; fill: rgb(46, 112, 142);"/><path d="M541.79,646.57L561.01,646.57L561.01,665.79L541.79,665.79Z" style="stroke: none; fill: rgb(39, 127, 142);"/></g><g class="contourlines"><g class="contourlevel"/><g class="contourlevel"/><g class="contourlevel"/><g class="contourlevel"/><g class="contourlevel"/><g class="contourlevel"/><g class="contourlevel"/><g class="contourlevel"/><g class="contourlevel"/><g class="contourlevel"/><g class="contourlevel"/><g class="contourlevel"/><g class="contourlevel"/><g class="contourlevel"/><g class="contourlevel"/><g class="contourlevel"/></g></g><g class="contour" clip-path="url(#clip7daedf)" style="opacity: 1;"><g class="heatmapcoloring"/><g class="contourbg"><path d="M705.17,551.27L724.39,551.27L724.39,570.49L705.17,570.49Z" style="stroke: none; fill: rgb(68, 1, 84);"/></g><g class="contourfill"><path d="M705.17,551.27L724.39,551.27L724.39,570.49L705.17,570.49Z" style="stroke: none; fill: rgb(69, 13, 95);"/><path d="M705.17,551.27L724.39,551.27L724.39,570.49L705.17,570.49Z" style="stroke: none; fill: rgb(72, 36, 116);"/><path d="M705.17,551.27L724.39,551.27L724.39,570.49L705.17,570.49Z" style="stroke: none; fill: rgb(67, 57, 129);"/><path d="M705.17,551.27L724.39,551.27L724.39,570.49L705.17,570.49Z" style="stroke: none; fill: rgb(61, 76, 138);"/></g><g class="contourlines"><g class="contourlevel"/><g class="contourlevel"/><g class="contourlevel"/><g class="contourlevel"/><g class="contourlevel"/><g class="contourlevel"/><g class="contourlevel"/><g class="contourlevel"/><g class="contourlevel"/><g class="contourlevel"/><g class="contourlevel"/><g class="contourlevel"/><g class="contourlevel"/><g class="contourlevel"/><g class="contourlevel"/><g class="contourlevel"/></g></g><g class="contour" clip-path="url(#clip394ed9)" style="opacity: 1;"><g class="heatmapcoloring"/><g class="contourbg"><path d="M460.1,428.73L479.32,428.73L479.32,447.95L460.1,447.95Z" style="stroke: none; fill: rgb(68, 1, 84);"/></g><g class="contourfill"><path d="M460.1,428.73L479.32,428.73L479.32,447.95L460.1,447.95Z" style="stroke: none; fill: rgb(69, 13, 95);"/><path d="M460.1,428.73L479.32,428.73L479.32,447.95L460.1,447.95Z" style="stroke: none; fill: rgb(72, 36, 116);"/><path d="M460.1,428.73L479.32,428.73L479.32,447.95L460.1,447.95Z" style="stroke: none; fill: rgb(67, 57, 129);"/><path d="M460.1,428.73L479.32,428.73L479.32,447.95L460.1,447.95Z" style="stroke: none; fill: rgb(61, 76, 138);"/><path d="M460.1,428.73L479.32,428.73L479.32,447.95L460.1,447.95Z" style="stroke: none; fill: rgb(53, 95, 141);"/><path d="M460.1,428.73L479.32,428.73L479.32,447.95L460.1,447.95Z" style="stroke: none; fill: rgb(46, 112, 142);"/><path d="M460.1,428.73L479.32,428.73L479.32,447.95L460.1,447.95Z" style="stroke: none; fill: rgb(39, 127, 142);"/><path d="M460.1,428.73L479.32,428.73L479.32,447.95L460.1,447.95Z" style="stroke: none; fill: rgb(35, 144, 140);"/><path d="M460.1,428.73L479.32,428.73L479.32,447.95L460.1,447.95Z" style="stroke: none; fill: rgb(33, 161, 135);"/><path d="M460.1,428.73L479.32,428.73L479.32,447.95L460.1,447.95Z" style="stroke: none; fill: rgb(46, 176, 126);"/></g><g class="contourlines"><g class="contourlevel"/><g class="contourlevel"/><g class="contourlevel"/><g class="contourlevel"/><g class="contourlevel"/><g class="contourlevel"/><g class="contourlevel"/><g class="contourlevel"/><g class="contourlevel"/><g class="contourlevel"/><g class="contourlevel"/><g class="contourlevel"/><g class="contourlevel"/><g class="contourlevel"/><g class="contourlevel"/><g class="contourlevel"/></g></g><g class="contour" clip-path="url(#clipb9dbd7)" style="opacity: 1;"><g class="heatmapcoloring"/><g class="contourbg"><path d="M623.48,183.67L642.7,183.67L642.7,202.89L623.48,202.89Z" style="stroke: none; fill: rgb(68, 1, 84);"/></g><g class="contourfill"><path d="M623.48,183.67L642.7,183.67L642.7,202.89L623.48,202.89Z" style="stroke: none; fill: rgb(69, 13, 95);"/><path d="M623.48,183.67L642.7,183.67L642.7,202.89L623.48,202.89Z" style="stroke: none; fill: rgb(72, 36, 116);"/><path d="M623.48,183.67L642.7,183.67L642.7,202.89L623.48,202.89Z" style="stroke: none; fill: rgb(67, 57, 129);"/><path d="M623.48,183.67L642.7,183.67L642.7,202.89L623.48,202.89Z" style="stroke: none; fill: rgb(61, 76, 138);"/><path d="M623.48,183.67L642.7,183.67L642.7,202.89L623.48,202.89Z" style="stroke: none; fill: rgb(53, 95, 141);"/><path d="M623.48,183.67L642.7,183.67L642.7,202.89L623.48,202.89Z" style="stroke: none; fill: rgb(46, 112, 142);"/></g><g class="contourlines"><g class="contourlevel"/><g class="contourlevel"/><g class="contourlevel"/><g class="contourlevel"/><g class="contourlevel"/><g class="contourlevel"/><g class="contourlevel"/><g class="contourlevel"/><g class="contourlevel"/><g class="contourlevel"/><g class="contourlevel"/><g class="contourlevel"/><g class="contourlevel"/><g class="contourlevel"/><g class="contourlevel"/><g class="contourlevel"/></g></g></g><g class="scatterlayer mlayer"><g class="trace scatter traceb089e6" style="stroke-miterlimit: 2;"><g class="fills"><g><path class="js-fill" d="M837.31,356.66L837.31,356.66L837.31,360.66L841.02,361.4L841.08,361.43L844.24,363.61L844.28,363.65L846.45,367.31L846.47,367.37L846.91,370.83L846.9,370.89L845.95,374.49L845.92,374.54L843.6,377.53L843.56,377.57L840.26,379.42L840.2,379.44L836.14,379.81L836.08,379.8L832.65,378.68L832.6,378.65L829.73,376.18L829.69,376.13L828.05,372.85L828.04,372.79L827.76,369.2L827.77,369.14L828.91,365.6L828.94,365.54L831.61,362.53L831.66,362.5L834.74,361.01L834.8,360.99L837.31,360.66" style="fill: rgb(0, 0, 0); fill-opacity: 0; stroke-width: 0;"/></g></g><g class="errorbars"/><g class="lines"><path class="js-line" d="M837.31,360.66L841.02,361.4L841.08,361.43L844.24,363.61L844.28,363.65L846.45,367.31L846.47,367.37L846.91,370.83L846.9,370.89L845.95,374.49L845.92,374.54L843.6,377.53L843.56,377.57L840.26,379.42L840.2,379.44L836.14,379.81L836.08,379.8L832.65,378.68L832.6,378.65L829.73,376.18L829.69,376.13L828.05,372.85L828.04,372.79L827.76,369.2L827.77,369.14L828.91,365.6L828.94,365.54L831.61,362.53L831.66,362.5L834.74,361.01L834.8,360.99L837.31,360.66" style="vector-effect: none; fill: none; stroke: rgb(0, 0, 0); stroke-opacity: 1; stroke-width: 3px; opacity: 1;"/></g><g class="points"/><g class="text"/></g><g class="trace scatter trace414271" style="stroke-miterlimit: 2;"><g class="fills"><g><path class="js-fill" d="M61.27,356.66L61.27,356.66L61.27,387.89L64.98,388.63L65.03,388.66L68.07,390.71L68.11,390.75L70.16,393.86L70.18,393.92L70.88,397.58L70.88,397.64L69.93,401.66L69.9,401.72L67.56,404.76L67.51,404.8L64.21,406.65L64.15,406.67L60.21,407.05L60.15,407.05L56.19,405.66L56.14,405.63L53.26,402.82L53.23,402.77L51.83,399.32L51.82,399.26L51.91,395.3L51.93,395.24L53.42,391.96L53.45,391.91L56.27,389.29L56.32,389.26L59.88,387.99L59.94,387.98L61.27,387.89" style="fill: rgb(0, 0, 0); fill-opacity: 0; stroke-width: 0;"/></g></g><g class="errorbars"/><g class="lines"><path class="js-line" d="M61.27,387.89L64.98,388.63L65.03,388.66L68.07,390.71L68.11,390.75L70.16,393.86L70.18,393.92L70.88,397.58L70.88,397.64L69.93,401.66L69.9,401.72L67.56,404.76L67.51,404.8L64.21,406.65L64.15,406.67L60.21,407.05L60.15,407.05L56.19,405.66L56.14,405.63L53.26,402.82L53.23,402.77L51.83,399.32L51.82,399.26L51.91,395.3L51.93,395.24L53.42,391.96L53.45,391.91L56.27,389.29L56.32,389.26L59.88,387.99L59.94,387.98L61.27,387.89" style="vector-effect: none; fill: none; stroke: rgb(0, 0, 0); stroke-opacity: 1; stroke-width: 3px; opacity: 1;"/></g><g class="points"/><g class="text"/></g><g class="trace scatter trace20165f" style="stroke-miterlimit: 2;"><g class="fills"><g><path class="js-fill" d="M245.07,356.66L245.07,356.66L245.07,306.2L248.78,306.95L248.83,306.97L251.87,309.02L251.91,309.06L253.96,312.17L253.98,312.23L254.68,315.89L254.68,315.95L253.73,319.98L253.7,320.03L251.36,323.08L251.31,323.11L248.01,324.96L247.95,324.98L244.01,325.36L243.95,325.36L239.99,323.97L239.94,323.94L237.06,321.13L237.03,321.08L235.63,317.63L235.62,317.57L235.71,313.61L235.73,313.55L237.22,310.27L237.25,310.22L240.07,307.6L240.12,307.57L243.68,306.3L243.74,306.29L245.07,306.2" style="fill: rgb(0, 0, 0); fill-opacity: 0; stroke-width: 0;"/></g></g><g class="errorbars"/><g class="lines"><path class="js-line" d="M245.07,306.2L248.78,306.95L248.83,306.97L251.87,309.02L251.91,309.06L253.96,312.17L253.98,312.23L254.68,315.89L254.68,315.95L253.73,319.98L253.7,320.03L251.36,323.08L251.31,323.11L248.01,324.96L247.95,324.98L244.01,325.36L243.95,325.36L239.99,323.97L239.94,323.94L237.06,321.13L237.03,321.08L235.63,317.63L235.62,317.57L235.71,313.61L235.73,313.55L237.22,310.27L237.25,310.22L240.07,307.6L240.12,307.57L243.68,306.3L243.74,306.29L245.07,306.2" style="vector-effect: none; fill: none; stroke: rgb(0, 0, 0); stroke-opacity: 1; stroke-width: 3px; opacity: 1;"/></g><g class="points"/><g class="text"/></g><g class="trace scatter traceecd8e7" style="stroke-miterlimit: 2;"><g class="fills"><g><path class="js-fill" d="M285.91,356.66L285.91,356.66L285.91,142.82L289.62,143.57L289.68,143.59L292.84,145.77L292.88,145.82L294.94,149.13L294.96,149.19L295.51,152.99L295.5,153.05L294.55,156.65L294.52,156.71L292.2,159.7L292.16,159.74L288.51,161.69L288.45,161.7L284.74,161.97L284.68,161.96L281.25,160.84L281.2,160.81L278.33,158.34L278.29,158.29L276.65,155.02L276.64,154.96L276.37,151.24L276.38,151.18L277.76,147.34L277.79,147.29L280.6,144.42L280.66,144.39L284.11,142.99L284.17,142.98L285.91,142.82" style="fill: rgb(0, 0, 0); fill-opacity: 0; stroke-width: 0;"/></g></g><g class="errorbars"/><g class="lines"><path class="js-line" d="M285.91,142.82L289.62,143.57L289.68,143.59L292.84,145.77L292.88,145.82L294.94,149.13L294.96,149.19L295.51,152.99L295.5,153.05L294.55,156.65L294.52,156.71L292.2,159.7L292.16,159.74L288.51,161.69L288.45,161.7L284.74,161.97L284.68,161.96L281.25,160.84L281.2,160.81L278.33,158.34L278.29,158.29L276.65,155.02L276.64,154.96L276.37,151.24L276.38,151.18L277.76,147.34L277.79,147.29L280.6,144.42L280.66,144.39L284.11,142.99L284.17,142.98L285.91,142.82" style="vector-effect: none; fill: none; stroke: rgb(0, 0, 0); stroke-opacity: 1; stroke-width: 3px; opacity: 1;"/></g><g class="points"/><g class="text"/></g><g class="trace scatter trace46fed1" style="stroke-miterlimit: 2;"><g class="fills"><g><path class="js-fill" d="M273.66,356.66L273.66,356.66L273.66,608.45L277.37,609.19L277.42,609.22L280.46,611.27L280.5,611.31L282.55,614.42L282.58,614.48L283.25,618.62L283.25,618.68L282.07,622.71L282.04,622.76L279.58,625.63L279.53,625.67L275.96,627.39L275.9,627.4L272.54,627.61L272.48,627.6L268.58,626.22L268.53,626.19L265.65,623.38L265.62,623.33L264.22,619.88L264.21,619.82L264.3,615.86L264.32,615.8L265.81,612.52L265.84,612.47L268.71,609.82L268.76,609.79L272.51,608.52L272.57,608.51L273.66,608.45" style="fill: rgb(0, 0, 0); fill-opacity: 0; stroke-width: 0;"/></g></g><g class="errorbars"/><g class="lines"><path class="js-line" d="M273.66,608.45L277.37,609.19L277.42,609.22L280.46,611.27L280.5,611.31L282.55,614.42L282.58,614.48L283.25,618.62L283.25,618.68L282.07,622.71L282.04,622.76L279.58,625.63L279.53,625.67L275.96,627.39L275.9,627.4L272.54,627.61L272.48,627.6L268.58,626.22L268.53,626.19L265.65,623.38L265.62,623.33L264.22,619.88L264.21,619.82L264.3,615.86L264.32,615.8L265.81,612.52L265.84,612.47L268.71,609.82L268.76,609.79L272.51,608.52L272.57,608.51L273.66,608.45" style="vector-effect: none; fill: none; stroke: rgb(0, 0, 0); stroke-opacity: 1; stroke-width: 3px; opacity: 1;"/></g><g class="points"/><g class="text"/></g><g class="trace scatter trace726704" style="stroke-miterlimit: 2;"><g class="fills"><g><path class="js-fill" d="M551.4,356.66L551.4,356.66L551.4,646.57L555.11,647.32L555.16,647.34L558.2,649.39L558.24,649.43L560.29,652.54L560.32,652.6L561,656.68L560.99,656.74L560.04,660.4L560.01,660.45L557.83,663.33L557.78,663.37L554.29,665.35L554.23,665.37L550.22,665.72L550.16,665.71L546.74,664.59L546.69,664.56L543.82,662.09L543.78,662.04L542.14,658.76L542.13,658.71L541.86,654.99L541.87,654.93L543.25,651.09L543.28,651.04L546.09,648.17L546.14,648.14L549.84,646.7L549.9,646.69L551.4,646.57" style="fill: rgb(0, 0, 0); fill-opacity: 0; stroke-width: 0;"/></g></g><g class="errorbars"/><g class="lines"><path class="js-line" d="M551.4,646.57L555.11,647.32L555.16,647.34L558.2,649.39L558.24,649.43L560.29,652.54L560.32,652.6L561,656.68L560.99,656.74L560.04,660.4L560.01,660.45L557.83,663.33L557.78,663.37L554.29,665.35L554.23,665.37L550.22,665.72L550.16,665.71L546.74,664.59L546.69,664.56L543.82,662.09L543.78,662.04L542.14,658.76L542.13,658.71L541.86,654.99L541.87,654.93L543.25,651.09L543.28,651.04L546.09,648.17L546.14,648.14L549.84,646.7L549.9,646.69L551.4,646.57" style="vector-effect: none; fill: none; stroke: rgb(0, 0, 0); stroke-opacity: 1; stroke-width: 3px; opacity: 1;"/></g><g class="points"/><g class="text"/></g><g class="trace scatter traced09157" style="stroke-miterlimit: 2;"><g class="fills"><g><path class="js-fill" d="M714.78,356.66L714.78,356.66L714.78,551.27L718.49,552.01L718.54,552.04L721.58,554.09L721.62,554.13L723.67,557.24L723.7,557.29L724.37,561.44L724.37,561.5L723.19,565.53L723.16,565.58L720.7,568.45L720.65,568.49L717.08,570.21L717.02,570.22L713.18,570.36L713.12,570.34L709.6,568.97L709.55,568.94L706.77,566.2L706.74,566.15L705.3,562.46L705.29,562.4L705.42,558.68L705.44,558.62L706.93,555.33L706.96,555.29L709.83,552.64L709.88,552.61L713.63,551.34L713.69,551.33L714.78,551.27" style="fill: rgb(0, 0, 0); fill-opacity: 0; stroke-width: 0;"/></g></g><g class="errorbars"/><g class="lines"><path class="js-line" d="M714.78,551.27L718.49,552.01L718.54,552.04L721.58,554.09L721.62,554.13L723.67,557.24L723.7,557.29L724.37,561.44L724.37,561.5L723.19,565.53L723.16,565.58L720.7,568.45L720.65,568.49L717.08,570.21L717.02,570.22L713.18,570.36L713.12,570.34L709.6,568.97L709.55,568.94L706.77,566.2L706.74,566.15L705.3,562.46L705.29,562.4L705.42,558.68L705.44,558.62L706.93,555.33L706.96,555.29L709.83,552.64L709.88,552.61L713.63,551.34L713.69,551.33L714.78,551.27" style="vector-effect: none; fill: none; stroke: rgb(0, 0, 0); stroke-opacity: 1; stroke-width: 3px; opacity: 1;"/></g><g class="points"/><g class="text"/></g><g class="trace scatter traced9ef06" style="stroke-miterlimit: 2;"><g class="fills"><g><path class="js-fill" d="M469.71,356.66L469.71,356.66L469.71,428.73L473.92,429.7L473.97,429.73L476.97,432.04L477,432.09L478.85,435.39L478.87,435.44L479.3,439.02L479.29,439.08L478.35,442.56L478.32,442.62L476,445.61L475.96,445.65L472.31,447.6L472.25,447.61L468.48,447.88L468.42,447.87L464.58,446.47L464.53,446.44L461.74,443.71L461.71,443.66L460.27,440.16L460.26,440.1L460.36,436.14L460.37,436.08L461.93,432.7L461.97,432.65L465.02,429.95L465.08,429.93L468.57,428.8L468.63,428.8L469.71,428.73" style="fill: rgb(0, 0, 0); fill-opacity: 0; stroke-width: 0;"/></g></g><g class="errorbars"/><g class="lines"><path class="js-line" d="M469.71,428.73L473.92,429.7L473.97,429.73L476.97,432.04L477,432.09L478.85,435.39L478.87,435.44L479.3,439.02L479.29,439.08L478.35,442.56L478.32,442.62L476,445.61L475.96,445.65L472.31,447.6L472.25,447.61L468.48,447.88L468.42,447.87L464.58,446.47L464.53,446.44L461.74,443.71L461.71,443.66L460.27,440.16L460.26,440.1L460.36,436.14L460.37,436.08L461.93,432.7L461.97,432.65L465.02,429.95L465.08,429.93L468.57,428.8L468.63,428.8L469.71,428.73" style="vector-effect: none; fill: none; stroke: rgb(0, 0, 0); stroke-opacity: 1; stroke-width: 3px; opacity: 1;"/></g><g class="points"/><g class="text"/></g><g class="trace scatter trace8c1ecf" style="stroke-miterlimit: 2;"><g class="fills"><g><path class="js-fill" d="M633.09,356.66L633.09,356.66L633.09,183.67L636.8,184.41L636.85,184.44L639.89,186.49L639.93,186.53L641.98,189.64L642.01,189.69L642.69,193.78L642.68,193.84L641.75,197.44L641.72,197.5L639.38,200.54L639.34,200.58L636.03,202.43L635.98,202.44L632.39,202.86L632.33,202.86L628.43,201.68L628.38,201.65L625.51,199.19L625.47,199.14L623.76,195.57L623.74,195.51L623.62,191.61L623.64,191.55L624.94,188.19L624.97,188.14L627.53,185.44L627.58,185.4L631.23,183.85L631.29,183.84L633.09,183.67" style="fill: rgb(0, 0, 0); fill-opacity: 0; stroke-width: 0;"/></g></g><g class="errorbars"/><g class="lines"><path class="js-line" d="M633.09,183.67L636.8,184.41L636.85,184.44L639.89,186.49L639.93,186.53L641.98,189.64L642.01,189.69L642.69,193.78L642.68,193.84L641.75,197.44L641.72,197.5L639.38,200.54L639.34,200.58L636.03,202.43L635.98,202.44L632.39,202.86L632.33,202.86L628.43,201.68L628.38,201.65L625.51,199.19L625.47,199.14L623.76,195.57L623.74,195.51L623.62,191.61L623.64,191.55L624.94,188.19L624.97,188.14L627.53,185.44L627.58,185.4L631.23,183.85L631.29,183.84L633.09,183.67" style="vector-effect: none; fill: none; stroke: rgb(0, 0, 0); stroke-opacity: 1; stroke-width: 3px; opacity: 1;"/></g><g class="points"/><g class="text"/></g><g class="trace scatter tracefb716f" style="stroke-miterlimit: 2; opacity: 1;"><g class="fills"/><g class="errorbars"/><g class="lines"><path class="js-line" d="M82.17,388.21L215.54935031238318,328.9283633339401" style="vector-effect: none; fill: none; stroke: rgb(204, 204, 204); stroke-opacity: 1; stroke-width: 7px; opacity: 1;"/></g><g class="points"><path class="point" transform="translate(82.17,388.21)" d="M0,0Z" style="opacity: 1; stroke-width: 0px; fill: rgb(204, 204, 204); fill-opacity: 1;"/><path class="point" transform="translate(236.11,319.79)" d="M0,0L-24.864690556862183,2.5975302715249597L-18.589167234390143,16.716544545206578Z" style="opacity: 1; stroke-width: 0px; fill: rgb(204, 204, 204); fill-opacity: 1;"/></g><g class="text"/></g><g class="trace scatter trace8a20e5" style="stroke-miterlimit: 2; opacity: 1;"><g class="fills"/><g class="errorbars"/><g class="lines"><path class="js-line" d="M76.72,380.64L264.08599193492455,176.2457812223941" style="vector-effect: none; fill: none; stroke: rgb(204, 204, 204); stroke-opacity: 1; stroke-width: 7px; opacity: 1;"/></g><g class="points"><path class="point" transform="translate(76.72,380.64)" d="M0,0Z" style="opacity: 1; stroke-width: 0px; fill: rgb(204, 204, 204); fill-opacity: 1;"/><path class="point" transform="translate(279.29,159.66)" d="M0,0L-21.76070982972687,12.30737615035911L-10.370689866313809,22.747500779134747Z" style="opacity: 1; stroke-width: 0px; fill: rgb(204, 204, 204); fill-opacity: 1;"/></g><g class="text"/></g><g class="trace scatter trace53e594" style="stroke-miterlimit: 2; opacity: 1;"><g class="fills"/><g class="errorbars"/><g class="lines"><path class="js-line" d="M77.13,413.98L251.25276169130532,594.7930844274547" style="vector-effect: none; fill: none; stroke: rgb(204, 204, 204); stroke-opacity: 1; stroke-width: 7px; opacity: 1;"/></g><g class="points"><path class="point" transform="translate(77.13,413.98)" d="M0,0Z" style="opacity: 1; stroke-width: 0px; fill: rgb(204, 204, 204); fill-opacity: 1;"/><path class="point" transform="translate(266.86,611)" d="M0,0L-10.927465967500185,-22.485339391014875L-22.05705655999109,-11.768018350994952Z" style="opacity: 1; stroke-width: 0px; fill: rgb(204, 204, 204); fill-opacity: 1;"/></g><g class="text"/></g><g class="trace scatter traceeb582b" style="stroke-miterlimit: 2; opacity: 1;"><g class="fills"/><g class="errorbars"/><g class="lines"><path class="js-line" d="M265.15,326.76L441.35746517607737,422.8756151901965" style="vector-effect: none; fill: none; stroke: rgb(204, 204, 204); stroke-opacity: 1; stroke-width: 7px; opacity: 1;"/></g><g class="points"><path class="point" transform="translate(265.15,326.76)" d="M0,0Z" style="opacity: 1; stroke-width: 0px; fill: rgb(204, 204, 204); fill-opacity: 1;"/><path class="point" transform="translate(461.11,433.65)" d="M0,0L-17.17393615255883,-18.167441124930964L-24.57256017285659,-4.6031822200888435Z" style="opacity: 1; stroke-width: 0px; fill: rgb(204, 204, 204); fill-opacity: 1;"/></g><g class="text"/></g><g class="trace scatter trace35cf40" style="stroke-miterlimit: 2; opacity: 1;"><g class="fills"/><g class="errorbars"/><g class="lines"><path class="js-line" d="M250.61,293.62L278.0729484366825,183.76820625326997" style="vector-effect: none; fill: none; stroke: rgb(204, 204, 204); stroke-opacity: 1; stroke-width: 7px; opacity: 1;"/></g><g class="points"><path class="point" transform="translate(250.61,293.62)" d="M0,0Z" style="opacity: 1; stroke-width: 0px; fill: rgb(204, 204, 204); fill-opacity: 1;"/><path class="point" transform="translate(283.53,161.94)" d="M0,0L-13.262521282801835,21.19211007009987L1.7268046581174028,24.940291611621223Z" style="opacity: 1; stroke-width: 0px; fill: rgb(204, 204, 204); fill-opacity: 1;"/></g><g class="text"/></g><g class="trace scatter tracee38ef5" style="stroke-miterlimit: 2; opacity: 1;"><g class="fills"/><g class="errorbars"/><g class="lines"><path class="js-line" d="M247.22,338.58L270.61141439917986,585.899964396189" style="vector-effect: none; fill: none; stroke: rgb(204, 204, 204); stroke-opacity: 1; stroke-width: 7px; opacity: 1;"/></g><g class="points"><path class="point" transform="translate(247.22,338.58)" d="M0,0Z" style="opacity: 1; stroke-width: 0px; fill: rgb(204, 204, 204); fill-opacity: 1;"/><path class="point" transform="translate(272.73,608.3)" d="M0,0L5.452388785651577,-24.398185517167065L-9.929818442155103,-22.943380433271734Z" style="opacity: 1; stroke-width: 0px; fill: rgb(204, 204, 204); fill-opacity: 1;"/></g><g class="text"/></g><g class="trace scatter tracebdbb65" style="stroke-miterlimit: 2; opacity: 1;"><g class="fills"/><g class="errorbars"/><g class="lines"><path class="js-line" d="M271.5,595.29L248.1085856008202,347.9700356038109" style="vector-effect: none; fill: none; stroke: rgb(204, 204, 204); stroke-opacity: 1; stroke-width: 7px; opacity: 1;"/></g><g class="points"><path class="point" transform="translate(271.5,595.29)" d="M0,0Z" style="opacity: 1; stroke-width: 0px; fill: rgb(204, 204, 204); fill-opacity: 1;"/><path class="point" transform="translate(245.99,325.57)" d="M0,0L-5.451496102357666,24.398384992576435L9.930657886814293,22.943017106192745Z" style="opacity: 1; stroke-width: 0px; fill: rgb(204, 204, 204); fill-opacity: 1;"/></g><g class="text"/></g><g class="trace scatter trace3afdd5" style="stroke-miterlimit: 2; opacity: 1;"><g class="fills"/><g class="errorbars"/><g class="lines"><path class="js-line" d="M298.28,171.67L452.2431392714476,411.173365327877" style="vector-effect: none; fill: none; stroke: rgb(204, 204, 204); stroke-opacity: 1; stroke-width: 7px; opacity: 1;"/></g><g class="points"><path class="point" transform="translate(298.28,171.67)" d="M0,0Z" style="opacity: 1; stroke-width: 0px; fill: rgb(204, 204, 204); fill-opacity: 1;"/><path class="point" transform="translate(464.41,430.1)" d="M0,0L-6.358579263260788,-24.177850809218544L-19.355582821844408,-15.822813075642447Z" style="opacity: 1; stroke-width: 0px; fill: rgb(204, 204, 204); fill-opacity: 1;"/></g><g class="text"/></g><g class="trace scatter traced20eca" style="stroke-miterlimit: 2; opacity: 1;"><g class="fills"/><g class="errorbars"/><g class="lines"><path class="js-line" d="M308.63,155.11L601.0040629405968,189.50148389063577" style="vector-effect: none; fill: none; stroke: rgb(204, 204, 204); stroke-opacity: 1; stroke-width: 7px; opacity: 1;"/></g><g class="points"><path class="point" transform="translate(308.63,155.11)" d="M0,0Z" style="opacity: 1; stroke-width: 0px; fill: rgb(204, 204, 204); fill-opacity: 1;"/><path class="point" transform="translate(623.35,192.13)" d="M0,0L-22.710853022311532,-10.450701172599047L-24.516234077171042,4.8943096217298425Z" style="opacity: 1; stroke-width: 0px; fill: rgb(204, 204, 204); fill-opacity: 1;"/></g><g class="text"/></g><g class="trace scatter tracefc7855" style="stroke-miterlimit: 2; opacity: 1;"><g class="fills"/><g class="errorbars"/><g class="lines"><path class="js-line" d="M296.32,621.17L519.3990110569098,651.7902921807748" style="vector-effect: none; fill: none; stroke: rgb(204, 204, 204); stroke-opacity: 1; stroke-width: 7px; opacity: 1;"/></g><g class="points"><path class="point" transform="translate(296.32,621.17)" d="M0,0Z" style="opacity: 1; stroke-width: 0px; fill: rgb(204, 204, 204); fill-opacity: 1;"/><path class="point" transform="translate(541.69,654.85)" d="M0,0L-22.504851606638745,-10.887224355324431L-24.60615732011621,4.42007035438253Z" style="opacity: 1; stroke-width: 0px; fill: rgb(204, 204, 204); fill-opacity: 1;"/></g><g class="text"/></g><g class="trace scatter trace73f75c" style="stroke-miterlimit: 2; opacity: 1;"><g class="fills"/><g class="errorbars"/><g class="lines"><path class="js-line" d="M528.74,653.07L305.6609889430903,622.4497078192252" style="vector-effect: none; fill: none; stroke: rgb(204, 204, 204); stroke-opacity: 1; stroke-width: 7px; opacity: 1;"/></g><g class="points"><path class="point" transform="translate(528.74,653.07)" d="M0,0Z" style="opacity: 1; stroke-width: 0px; fill: rgb(204, 204, 204); fill-opacity: 1;"/><path class="point" transform="translate(283.37,619.39)" d="M0,0L22.505285199995594,10.886328034138012L24.60598126013586,-4.42105035323541Z" style="opacity: 1; stroke-width: 0px; fill: rgb(204, 204, 204); fill-opacity: 1;"/></g><g class="text"/></g><g class="trace scatter trace5f2a6a" style="stroke-miterlimit: 2; opacity: 1;"><g class="fills"/><g class="errorbars"/><g class="lines"><path class="js-line" d="M290.52,602.6L445.90359146070267,460.1733237079109" style="vector-effect: none; fill: none; stroke: rgb(204, 204, 204); stroke-opacity: 1; stroke-width: 7px; opacity: 1;"/></g><g class="points"><path class="point" transform="translate(290.52,602.6)" d="M0,0Z" style="opacity: 1; stroke-width: 0px; fill: rgb(204, 204, 204); fill-opacity: 1;"/><path class="point" transform="translate(462.49,444.97)" d="M0,0L-22.747032290764402,10.371717406626617L-12.306393162263825,21.761265756747378Z" style="opacity: 1; stroke-width: 0px; fill: rgb(204, 204, 204); fill-opacity: 1;"/></g><g class="text"/></g><g class="trace scatter tracecb0a13" style="stroke-miterlimit: 2; opacity: 1;"><g class="fills"/><g class="errorbars"/><g class="lines"><path class="js-line" d="M571.16,644.66L686.8751312003631,577.1573663053155" style="vector-effect: none; fill: none; stroke: rgb(204, 204, 204); stroke-opacity: 1; stroke-width: 7px; opacity: 1;"/></g><g class="points"><path class="point" transform="translate(571.16,644.66)" d="M0,0Z" style="opacity: 1; stroke-width: 0px; fill: rgb(204, 204, 204); fill-opacity: 1;"/><path class="point" transform="translate(706.31,565.82)" d="M0,0L-24.43023017367441,5.306962752958442L-16.645116946339783,18.65315206185464Z" style="opacity: 1; stroke-width: 0px; fill: rgb(204, 204, 204); fill-opacity: 1;"/></g><g class="text"/></g><g class="trace scatter trace0e8872" style="stroke-miterlimit: 2; opacity: 1;"><g class="fills"/><g class="errorbars"/><g class="lines"><path class="js-line" d="M727.15,541.64L819.8431887678427,397.44666649045865" style="vector-effect: none; fill: none; stroke: rgb(204, 204, 204); stroke-opacity: 1; stroke-width: 7px; opacity: 1;"/></g><g class="points"><path class="point" transform="translate(727.15,541.64)" d="M0,0Z" style="opacity: 1; stroke-width: 0px; fill: rgb(204, 204, 204); fill-opacity: 1;"/><path class="point" transform="translate(832.01,378.52)" d="M0,0L-19.355785691284062,15.822564908164642L-6.358889257268656,24.177769281176317Z" style="opacity: 1; stroke-width: 0px; fill: rgb(204, 204, 204); fill-opacity: 1;"/></g><g class="text"/></g><g class="trace scatter trace058f76" style="stroke-miterlimit: 2; opacity: 1;"><g class="fills"/><g class="errorbars"/><g class="lines"><path class="js-line" d="M694.32,550.65L498.60461179749814,452.7923058987491" style="vector-effect: none; fill: none; stroke: rgb(204, 204, 204); stroke-opacity: 1; stroke-width: 7px; opacity: 1;"/></g><g class="points"><path class="point" transform="translate(694.32,550.65)" d="M0,0Z" style="opacity: 1; stroke-width: 0px; fill: rgb(204, 204, 204); fill-opacity: 1;"/><path class="point" transform="translate(478.48,442.73)" d="M0,0L17.811355180675736,17.542965160651022L24.721185236926264,3.7233050481499674Z" style="opacity: 1; stroke-width: 0px; fill: rgb(204, 204, 204); fill-opacity: 1;"/></g><g class="text"/></g><g class="trace scatter traced8808b" style="stroke-miterlimit: 2; opacity: 1;"><g class="fills"/><g class="errorbars"/><g class="lines"><path class="js-line" d="M490.17,448.57L685.8853882025019,546.427694101251" style="vector-effect: none; fill: none; stroke: rgb(204, 204, 204); stroke-opacity: 1; stroke-width: 7px; opacity: 1;"/></g><g class="points"><path class="point" transform="translate(490.17,448.57)" d="M0,0Z" style="opacity: 1; stroke-width: 0px; fill: rgb(204, 204, 204); fill-opacity: 1;"/><path class="point" transform="translate(706.01,556.49)" d="M0,0L-17.811355180675726,-17.542965160651033L-24.72118523692626,-3.7233050481499816Z" style="opacity: 1; stroke-width: 0px; fill: rgb(204, 204, 204); fill-opacity: 1;"/></g><g class="text"/></g><g class="trace scatter trace050ea7" style="stroke-miterlimit: 2; opacity: 1;"><g class="fills"/><g class="errorbars"/><g class="lines"><path class="js-line" d="M477.74,459.76L540.0592293520263,625.9327784658699" style="vector-effect: none; fill: none; stroke: rgb(204, 204, 204); stroke-opacity: 1; stroke-width: 7px; opacity: 1;"/></g><g class="points"><path class="point" transform="translate(477.74,459.76)" d="M0,0Z" style="opacity: 1; stroke-width: 0px; fill: rgb(204, 204, 204); fill-opacity: 1;"/><path class="point" transform="translate(547.96,647)" d="M0,0L-1.1146241450308647,-24.97513989981466L-15.581768782722987,-19.55015298154363Z" style="opacity: 1; stroke-width: 0px; fill: rgb(204, 204, 204); fill-opacity: 1;"/></g><g class="text"/></g><g class="trace scatter traced17f96" style="stroke-miterlimit: 2; opacity: 1;"><g class="fills"/><g class="errorbars"/><g class="lines"><path class="js-line" d="M482.4,419.31L615.1694438732976,220.1512638133282" style="vector-effect: none; fill: none; stroke: rgb(204, 204, 204); stroke-opacity: 1; stroke-width: 7px; opacity: 1;"/></g><g class="points"><path class="point" transform="translate(482.4,419.31)" d="M0,0Z" style="opacity: 1; stroke-width: 0px; fill: rgb(204, 204, 204); fill-opacity: 1;"/><path class="point" transform="translate(627.65,201.43)" d="M0,0L-19.61639605579597,15.498290414821637L-6.760331235950673,24.068608634074167Z" style="opacity: 1; stroke-width: 0px; fill: rgb(204, 204, 204); fill-opacity: 1;"/></g><g class="text"/></g><g class="trace scatter trace4777c2" style="stroke-miterlimit: 2; opacity: 1;"><g class="fills"/><g class="errorbars"/><g class="lines"><path class="js-line" d="M620.4,212.31L487.6305561267024,411.46873618667183" style="vector-effect: none; fill: none; stroke: rgb(204, 204, 204); stroke-opacity: 1; stroke-width: 7px; opacity: 1;"/></g><g class="points"><path class="point" transform="translate(620.4,212.31)" d="M0,0Z" style="opacity: 1; stroke-width: 0px; fill: rgb(204, 204, 204); fill-opacity: 1;"/><path class="point" transform="translate(475.15,430.19)" d="M0,0L19.616396055795974,-15.498290414821632L6.760331235950679,-24.068608634074167Z" style="opacity: 1; stroke-width: 0px; fill: rgb(204, 204, 204); fill-opacity: 1;"/></g><g class="text"/></g><g class="trace scatter trace713398" style="stroke-miterlimit: 2; opacity: 1;"><g class="fills"/><g class="errorbars"/><g class="lines"><path class="js-line" d="M650.37,208.26L812.896870641025,349.11420711322387" style="vector-effect: none; fill: none; stroke: rgb(204, 204, 204); stroke-opacity: 1; stroke-width: 7px; opacity: 1;"/></g><g class="points"><path class="point" transform="translate(650.37,208.26)" d="M0,0Z" style="opacity: 1; stroke-width: 0px; fill: rgb(204, 204, 204); fill-opacity: 1;"/><path class="point" transform="translate(829.9,363.85)" d="M0,0L-12.908456237605014,-21.409618342274015L-23.027418386166843,-9.733344875654256Z" style="opacity: 1; stroke-width: 0px; fill: rgb(204, 204, 204); fill-opacity: 1;"/></g><g class="text"/></g><g class="trace scatter traceb90052" style="stroke-miterlimit: 2; opacity: 1;"><g class="fills"/><g class="errorbars"/><g class="lines"><path class="js-line" d="M638.05,215.61L707.7690646990802,529.345791145861" style="vector-effect: none; fill: none; stroke: rgb(204, 204, 204); stroke-opacity: 1; stroke-width: 7px; opacity: 1;"/></g><g class="points"><path class="point" transform="translate(638.05,215.61)" d="M0,0Z" style="opacity: 1; stroke-width: 0px; fill: rgb(204, 204, 204); fill-opacity: 1;"/><path class="point" transform="translate(712.65,551.31)" d="M0,0L2.384100549242807,-24.886061652481295L-12.698882166333686,-21.534585942747363Z" style="opacity: 1; stroke-width: 0px; fill: rgb(204, 204, 204); fill-opacity: 1;"/></g><g class="text"/></g><g class="trace scatter trace855af4" style="stroke-miterlimit: 2; opacity: 1;"><g class="fills"/><g class="errorbars"/><g class="lines"/><g class="points"/><g class="text"><g class="textpoint" transform="translate(0,10)"><text x="837.31" y="341.68" text-anchor="middle" style="font-family: 'Open Sans', verdana, arial, sans-serif; font-size: 40px; fill: rgb(42, 63, 95); fill-opacity: 1; white-space: pre;"><tspan style="font-style:italic">t</tspan></text></g></g></g><g class="trace scatter trace5fccf5" style="stroke-miterlimit: 2; opacity: 1;"><g class="fills"/><g class="errorbars"/><g class="lines"/><g class="points"/><g class="text"><g class="textpoint" transform="translate(0,10)"><text x="61.27" y="-40475.54" text-anchor="middle" style="font-family: 'Open Sans', verdana, arial, sans-serif; font-size: 40px; fill: rgb(42, 63, 95); fill-opacity: 1; white-space: pre;"><tspan style="font-style:italic">s</tspan></text></g></g></g></g></g><g class="overplot"/><path class="xlines-above crisp" d="M3,797.5H924M3,1.5H924" style="fill: none; stroke-width: 1px; stroke: rgb(0, 0, 0); stroke-opacity: 1;"/><path class="ylines-above crisp" d="M3.5,2V797M923.5,2V797" style="fill: none; stroke-width: 1px; stroke: rgb(0, 0, 0); stroke-opacity: 1;"/><g class="overlines-above"/><g class="xaxislayer-above"><g class="xtick"><text text-anchor="middle" x="0" y="799.2" transform="translate(65.27000000000001,0)" style="font-family: 'Open Sans', verdana, arial, sans-serif; font-size: 1px; fill: rgb(42, 63, 95); fill-opacity: 1; white-space: pre; opacity: 1;">0</text></g><g class="xtick"><text text-anchor="middle" x="0" y="799.2" style="font-family: 'Open Sans', verdana, arial, sans-serif; font-size: 1px; fill: rgb(42, 63, 95); fill-opacity: 1; white-space: pre; opacity: 1;" transform="translate(228.64,0)">2</text></g><g class="xtick"><text text-anchor="middle" x="0" y="799.2" style="font-family: 'Open Sans', verdana, arial, sans-serif; font-size: 1px; fill: rgb(42, 63, 95); fill-opacity: 1; white-space: pre; opacity: 1;" transform="translate(392.02,0)">4</text></g><g class="xtick"><text text-anchor="middle" x="0" y="799.2" style="font-family: 'Open Sans', verdana, arial, sans-serif; font-size: 1px; fill: rgb(42, 63, 95); fill-opacity: 1; white-space: pre; opacity: 1;" transform="translate(555.4,0)">6</text></g><g class="xtick"><text text-anchor="middle" x="0" y="799.2" style="font-family: 'Open Sans', verdana, arial, sans-serif; font-size: 1px; fill: rgb(42, 63, 95); fill-opacity: 1; white-space: pre; opacity: 1;" transform="translate(718.78,0)">8</text></g><g class="xtick"><text text-anchor="middle" x="0" y="799.2" style="font-family: 'Open Sans', verdana, arial, sans-serif; font-size: 1px; fill: rgb(42, 63, 95); fill-opacity: 1; white-space: pre; opacity: 1;" transform="translate(882.16,0)">10</text></g></g><g class="yaxislayer-above"><g class="ytick"><text text-anchor="end" x="2.8" y="0.35" transform="translate(0,685.41)" style="font-family: 'Open Sans', verdana, arial, sans-serif; font-size: 1px; fill: rgb(42, 63, 95); fill-opacity: 1; white-space: pre; opacity: 1;">4</text></g><g class="ytick"><text text-anchor="end" x="2.8" y="0.35" style="font-family: 'Open Sans', verdana, arial, sans-serif; font-size: 1px; fill: rgb(42, 63, 95); fill-opacity: 1; white-space: pre; opacity: 1;" transform="translate(0,522.03)">2</text></g><g class="ytick"><text text-anchor="end" x="2.8" y="0.35" style="font-family: 'Open Sans', verdana, arial, sans-serif; font-size: 1px; fill: rgb(42, 63, 95); fill-opacity: 1; white-space: pre; opacity: 1;" transform="translate(0,358.66)">0</text></g><g class="ytick"><text text-anchor="end" x="2.8" y="0.35" style="font-family: 'Open Sans', verdana, arial, sans-serif; font-size: 1px; fill: rgb(42, 63, 95); fill-opacity: 1; white-space: pre; opacity: 1;" transform="translate(0,195.28)">2</text></g><g class="ytick"><text text-anchor="end" x="2.8" y="0.35" style="font-family: 'Open Sans', verdana, arial, sans-serif; font-size: 1px; fill: rgb(42, 63, 95); fill-opacity: 1; white-space: pre; opacity: 1;" transform="translate(0,31.9)">4</text></g></g><g class="overaxes-above"/></g></g><g class="polarlayer"/><g class="smithlayer"/><g class="ternarylayer"/><g class="geolayer"/><g class="funnelarealayer"/><g class="pielayer"/><g class="iciclelayer"/><g class="treemaplayer"/><g class="sunburstlayer"/><g class="glimages"/><defs id="topdefs-b27928"><g class="clips"/></defs><g class="layer-above"><g class="imagelayer"/><g class="shapelayer"/></g><g class="infolayer"><g class="g-gtitle"/><g class="g-xtitle"/><g class="g-ytitle"/></g></svg>