<svg class="main-svg" xmlns="http://www.w3.org/2000/svg" xmlns:xlink="http://www.w3.org/1999/xlink" width="925" height="800" style="" viewBox="0 0 925 800"><rect x="0" y="0" width="925" height="800" style="fill: rgb(255, 255, 255); fill-opacity: 1;"/><defs id="defs-57232b"><g class="clips"><clipPath id="clip57232bxyplot" class="plotclip"><rect width="919" height="795"/></clipPath><clipPath class="axesclip" id="clip57232bx"><rect x="4" y="0" width="919" height="800"/></clipPath><clipPath class="axesclip" id="clip57232by"><rect x="0" y="2" width="925" height="795"/></clipPath><clipPath class="axesclip" id="clip57232bxy"><rect x="4" y="2" width="919" height="795"/></clipPath><clipPath class="contourclip" id="clipb1be93"><path d="M837.12,379.88Q835.39,378.15 835.39,378.15C835.39,378.15 833.47,378.15 833.47,378.15C833.47,378.15 831.54,378.15 831.54,378.15C831.54,378.15 831.35,377.96 831.35,377.96C831.35,377.96 829.62,376.23 829.62,376.23C829.62,376.23 829.43,376.04 829.43,376.04C829.43,376.04 829.43,374.11 829.43,374.11C829.43,374.11 829.43,372.19 829.43,372.19Q829.43,372.19 827.7,370.46L827.7,370.08Q829.43,368.35 829.43,368.35C829.43,368.35 829.43,366.43 829.43,366.43C829.43,366.43 829.43,364.5 829.43,364.5C829.43,364.5 829.62,364.31 829.62,364.31C829.62,364.31 831.35,362.58 831.35,362.58C831.35,362.58 831.54,362.39 831.54,362.39C831.54,362.39 833.47,362.39 833.47,362.39C833.47,362.39 835.39,362.39 835.39,362.39Q835.39,362.39 837.12,360.66L837.5,360.66Q839.23,362.39 839.23,362.39C839.23,362.39 841.16,362.39 841.16,362.39C841.16,362.39 843.08,362.39 843.08,362.39C843.08,362.39 843.27,362.58 843.27,362.58C843.27,362.58 845,364.31 845,364.31C845,364.31 845.19,364.5 845.19,364.5C845.19,364.5 845.19,366.43 845.19,366.43C845.19,366.43 845.19,368.35 845.19,368.35Q845.19,368.35 846.92,370.08L846.92,370.46Q845.19,372.19 845.19,372.19C845.19,372.19 845.19,374.11 845.19,374.11C845.19,374.11 845.19,376.04 845.19,376.04C845.19,376.04 845,376.23 845,376.23C845,376.23 843.27,377.96 843.27,377.96C843.27,377.96 843.08,378.15 843.08,378.15C843.08,378.15 841.16,378.15 841.16,378.15C841.16,378.15 839.23,378.15 839.23,378.15Q839.23,378.15 837.5,379.88Z"/></clipPath><clipPath class="contourclip" id="clip7f53a2"><path d="M61.07,407.11Q59.34,405.38 59.34,405.38C59.34,405.38 57.42,405.38 57.42,405.38C57.42,405.38 55.5,405.38 55.5,405.38C55.5,405.38 55.31,405.19 55.31,405.19C55.31,405.19 53.58,403.46 53.58,403.46C53.58,403.46 53.39,403.27 53.39,403.27C53.39,403.27 53.39,401.34 53.39,401.34C53.39,401.34 53.39,399.42 53.39,399.42Q53.39,399.42 51.66,397.69L51.66,397.31Q53.39,395.58 53.39,395.58C53.39,395.58 53.39,393.66 53.39,393.66C53.39,393.66 53.39,391.73 53.39,391.73C53.39,391.73 53.58,391.54 53.58,391.54C53.58,391.54 55.31,389.81 55.31,389.81C55.31,389.81 55.5,389.62 55.5,389.62C55.5,389.62 57.42,389.62 57.42,389.62C57.42,389.62 59.34,389.62 59.34,389.62Q59.34,389.62 61.07,387.89L61.46,387.89Q63.19,389.62 63.19,389.62C63.19,389.62 65.11,389.62 65.11,389.62C65.11,389.62 67.03,389.62 67.03,389.62C67.03,389.62 67.23,389.81 67.23,389.81C67.23,389.81 68.96,391.54 68.96,391.54C68.96,391.54 69.15,391.73 69.15,391.73C69.15,391.73 69.15,393.66 69.15,393.66C69.15,393.66 69.15,395.58 69.15,395.58Q69.15,395.58 70.88,397.31L70.88,397.69Q69.15,399.42 69.15,399.42C69.15,399.42 69.15,401.34 69.15,401.34C69.15,401.34 69.15,403.27 69.15,403.27C69.15,403.27 68.96,403.46 68.96,403.46C68.96,403.46 67.23,405.19 67.23,405.19C67.23,405.19 67.03,405.38 67.03,405.38C67.03,405.38 65.11,405.38 65.11,405.38C65.11,405.38 63.19,405.38 63.19,405.38Q63.19,405.38 61.46,407.11Z"/></clipPath><clipPath class="contourclip" id="clip6b4ec8"><path d="M244.87,325.42Q243.14,323.69 243.14,323.69C243.14,323.69 241.22,323.69 241.22,323.69C241.22,323.69 239.3,323.69 239.3,323.69C239.3,323.69 239.11,323.5 239.11,323.5C239.11,323.5 237.38,321.77 237.38,321.77C237.38,321.77 237.19,321.58 237.19,321.58C237.19,321.58 237.19,319.66 237.19,319.66C237.19,319.66 237.19,317.73 237.19,317.73Q237.19,317.73 235.46,316L235.46,315.62Q237.19,313.89 237.19,313.89C237.19,313.89 237.19,311.97 237.19,311.97C237.19,311.97 237.19,310.04 237.19,310.04C237.19,310.04 237.38,309.85 237.38,309.85C237.38,309.85 239.11,308.12 239.11,308.12C239.11,308.12 239.3,307.93 239.3,307.93C239.3,307.93 241.22,307.93 241.22,307.93C241.22,307.93 243.14,307.93 243.14,307.93Q243.14,307.93 244.87,306.2L245.26,306.2Q246.99,307.93 246.99,307.93C246.99,307.93 248.91,307.93 248.91,307.93C248.91,307.93 250.83,307.93 250.83,307.93C250.83,307.93 251.03,308.12 251.03,308.12C251.03,308.12 252.76,309.85 252.76,309.85C252.76,309.85 252.95,310.04 252.95,310.04C252.95,310.04 252.95,311.97 252.95,311.97C252.95,311.97 252.95,313.89 252.95,313.89Q252.95,313.89 254.68,315.62L254.68,316Q252.95,317.73 252.95,317.73C252.95,317.73 252.95,319.66 252.95,319.66C252.95,319.66 252.95,321.58 252.95,321.58C252.95,321.58 252.76,321.77 252.76,321.77C252.76,321.77 251.03,323.5 251.03,323.5C251.03,323.5 250.83,323.69 250.83,323.69C250.83,323.69 248.91,323.69 248.91,323.69C248.91,323.69 246.99,323.69 246.99,323.69Q246.99,323.69 245.26,325.42Z"/></clipPath><clipPath class="contourclip" id="clipd53c91"><path d="M285.72,162.04Q283.99,160.31 283.99,160.31C283.99,160.31 282.07,160.31 282.07,160.31C282.07,160.31 280.14,160.31 280.14,160.31C280.14,160.31 279.95,160.12 279.95,160.12C279.95,160.12 278.22,158.39 278.22,158.39C278.22,158.39 278.03,158.2 278.03,158.2C278.03,158.2 278.03,156.28 278.03,156.28C278.03,156.28 278.03,154.36 278.03,154.36Q278.03,154.36 276.3,152.63L276.3,152.24Q278.03,150.51 278.03,150.51C278.03,150.51 278.03,148.59 278.03,148.59C278.03,148.59 278.03,146.67 278.03,146.67C278.03,146.67 278.22,146.47 278.22,146.47C278.22,146.47 279.95,144.74 279.95,144.74C279.95,144.74 280.14,144.55 280.14,144.55C280.14,144.55 282.07,144.55 282.07,144.55C282.07,144.55 283.99,144.55 283.99,144.55Q283.99,144.55 285.72,142.82L286.1,142.82Q287.83,144.55 287.83,144.55C287.83,144.55 289.76,144.55 289.76,144.55C289.76,144.55 291.68,144.55 291.68,144.55C291.68,144.55 291.87,144.74 291.87,144.74C291.87,144.74 293.6,146.47 293.6,146.47C293.6,146.47 293.79,146.67 293.79,146.67C293.79,146.67 293.79,148.59 293.79,148.59C293.79,148.59 293.79,150.51 293.79,150.51Q293.79,150.51 295.52,152.24L295.52,152.63Q293.79,154.36 293.79,154.36C293.79,154.36 293.79,156.28 293.79,156.28C293.79,156.28 293.79,158.2 293.79,158.2C293.79,158.2 293.6,158.39 293.6,158.39C293.6,158.39 291.87,160.12 291.87,160.12C291.87,160.12 291.68,160.31 291.68,160.31C291.68,160.31 289.76,160.31 289.76,160.31C289.76,160.31 287.83,160.31 287.83,160.31Q287.83,160.31 286.1,162.04Z"/></clipPath><clipPath class="contourclip" id="clipd9b9bc"><path d="M273.47,627.67Q271.74,625.94 271.74,625.94C271.74,625.94 269.81,625.94 269.81,625.94C269.81,625.94 267.89,625.94 267.89,625.94C267.89,625.94 267.7,625.75 267.7,625.75C267.7,625.75 265.97,624.02 265.97,624.02C265.97,624.02 265.78,623.83 265.78,623.83C265.78,623.83 265.78,621.9 265.78,621.9C265.78,621.9 265.78,619.98 265.78,619.98Q265.78,619.98 264.05,618.25L264.05,617.87Q265.78,616.14 265.78,616.14C265.78,616.14 265.78,614.22 265.78,614.22C265.78,614.22 265.78,612.29 265.78,612.29C265.78,612.29 265.97,612.1 265.97,612.1C265.97,612.1 267.7,610.37 267.7,610.37C267.7,610.37 267.89,610.18 267.89,610.18C267.89,610.18 269.81,610.18 269.81,610.18C269.81,610.18 271.74,610.18 271.74,610.18Q271.74,610.18 273.47,608.45L273.85,608.45Q275.58,610.18 275.58,610.18C275.58,610.18 277.5,610.18 277.5,610.18C277.5,610.18 279.42,610.18 279.42,610.18C279.42,610.18 279.62,610.37 279.62,610.37C279.62,610.37 281.35,612.1 281.35,612.1C281.35,612.1 281.54,612.29 281.54,612.29C281.54,612.29 281.54,614.22 281.54,614.22C281.54,614.22 281.54,616.14 281.54,616.14Q281.54,616.14 283.27,617.87L283.27,618.25Q281.54,619.98 281.54,619.98C281.54,619.98 281.54,621.9 281.54,621.9C281.54,621.9 281.54,623.83 281.54,623.83C281.54,623.83 281.35,624.02 281.35,624.02C281.35,624.02 279.62,625.75 279.62,625.75C279.62,625.75 279.42,625.94 279.42,625.94C279.42,625.94 277.5,625.94 277.5,625.94C277.5,625.94 275.58,625.94 275.58,625.94Q275.58,625.94 273.85,627.67Z"/></clipPath><clipPath class="contourclip" id="clip72ee07"><path d="M551.21,665.79Q549.48,664.06 549.48,664.06C549.48,664.06 547.56,664.06 547.56,664.06C547.56,664.06 545.63,664.06 545.63,664.06C545.63,664.06 545.44,663.87 545.44,663.87C545.44,663.87 543.71,662.14 543.71,662.14C543.71,662.14 543.52,661.95 543.52,661.95C543.52,661.95 543.52,660.03 543.52,660.03C543.52,660.03 543.52,658.1 543.52,658.1Q543.52,658.1 541.79,656.37L541.79,655.99Q543.52,654.26 543.52,654.26C543.52,654.26 543.52,652.34 543.52,652.34C543.52,652.34 543.52,650.42 543.52,650.42C543.52,650.42 543.71,650.22 543.71,650.22C543.71,650.22 545.44,648.49 545.44,648.49C545.44,648.49 545.63,648.3 545.63,648.3C545.63,648.3 547.56,648.3 547.56,648.3C547.56,648.3 549.48,648.3 549.48,648.3Q549.48,648.3 551.21,646.57L551.59,646.57Q553.32,648.3 553.32,648.3C553.32,648.3 555.24,648.3 555.24,648.3C555.24,648.3 557.17,648.3 557.17,648.3C557.17,648.3 557.36,648.49 557.36,648.49C557.36,648.49 559.09,650.22 559.09,650.22C559.09,650.22 559.28,650.42 559.28,650.42C559.28,650.42 559.28,652.34 559.28,652.34C559.28,652.34 559.28,654.26 559.28,654.26Q559.28,654.26 561.01,655.99L561.01,656.37Q559.28,658.1 559.28,658.1C559.28,658.1 559.28,660.03 559.28,660.03C559.28,660.03 559.28,661.95 559.28,661.95C559.28,661.95 559.09,662.14 559.09,662.14C559.09,662.14 557.36,663.87 557.36,663.87C557.36,663.87 557.17,664.06 557.17,664.06C557.17,664.06 555.24,664.06 555.24,664.06C555.24,664.06 553.32,664.06 553.32,664.06Q553.32,664.06 551.59,665.79Z"/></clipPath><clipPath class="contourclip" id="clip4b9c34"><path d="M714.59,570.49Q712.86,568.76 712.86,568.76C712.86,568.76 710.93,568.76 710.93,568.76C710.93,568.76 709.01,568.76 709.01,568.76C709.01,568.76 708.82,568.57 708.82,568.57C708.82,568.57 707.09,566.84 707.09,566.84C707.09,566.84 706.9,566.64 706.9,566.64C706.9,566.64 706.9,564.72 706.9,564.72C706.9,564.72 706.9,562.8 706.9,562.8Q706.9,562.8 705.17,561.07L705.17,560.69Q706.9,558.96 706.9,558.96C706.9,558.96 706.9,557.03 706.9,557.03C706.9,557.03 706.9,555.11 706.9,555.11C706.9,555.11 707.09,554.92 707.09,554.92C707.09,554.92 708.82,553.19 708.82,553.19C708.82,553.19 709.01,553 709.01,553C709.01,553 710.93,553 710.93,553C710.93,553 712.86,553 712.86,553Q712.86,553 714.59,551.27L714.97,551.27Q716.7,553 716.7,553C716.7,553 718.62,553 718.62,553C718.62,553 720.54,553 720.54,553C720.54,553 720.74,553.19 720.74,553.19C720.74,553.19 722.47,554.92 722.47,554.92C722.47,554.92 722.66,555.11 722.66,555.11C722.66,555.11 722.66,557.03 722.66,557.03C722.66,557.03 722.66,558.96 722.66,558.96Q722.66,558.96 724.39,560.69L724.39,561.07Q722.66,562.8 722.66,562.8C722.66,562.8 722.66,564.72 722.66,564.72C722.66,564.72 722.66,566.64 722.66,566.64C722.66,566.64 722.47,566.84 722.47,566.84C722.47,566.84 720.74,568.57 720.74,568.57C720.74,568.57 720.54,568.76 720.54,568.76C720.54,568.76 718.62,568.76 718.62,568.76C718.62,568.76 716.7,568.76 716.7,568.76Q716.7,568.76 714.97,570.49Z"/></clipPath><clipPath class="contourclip" id="clip73e9cb"><path d="M469.52,447.95Q467.79,446.22 467.79,446.22C467.79,446.22 465.87,446.22 465.87,446.22C465.87,446.22 463.94,446.22 463.94,446.22C463.94,446.22 463.75,446.03 463.75,446.03C463.75,446.03 462.02,444.3 462.02,444.3C462.02,444.3 461.83,444.11 461.83,444.11C461.83,444.11 461.83,442.19 461.83,442.19C461.83,442.19 461.83,440.27 461.83,440.27Q461.83,440.27 460.1,438.54L460.1,438.15Q461.83,436.42 461.83,436.42C461.83,436.42 461.83,434.5 461.83,434.5C461.83,434.5 461.83,432.58 461.83,432.58C461.83,432.58 462.02,432.39 462.02,432.39C462.02,432.39 463.75,430.66 463.75,430.66C463.75,430.66 463.94,430.46 463.94,430.46C463.94,430.46 465.87,430.46 465.87,430.46C465.87,430.46 467.79,430.46 467.79,430.46Q467.79,430.46 469.52,428.73L469.9,428.73Q471.63,430.46 471.63,430.46C471.63,430.46 473.56,430.46 473.56,430.46C473.56,430.46 475.48,430.46 475.48,430.46C475.48,430.46 475.67,430.66 475.67,430.66C475.67,430.66 477.4,432.39 477.4,432.39C477.4,432.39 477.59,432.58 477.59,432.58C477.59,432.58 477.59,434.5 477.59,434.5C477.59,434.5 477.59,436.42 477.59,436.42Q477.59,436.42 479.32,438.15L479.32,438.54Q477.59,440.27 477.59,440.27C477.59,440.27 477.59,442.19 477.59,442.19C477.59,442.19 477.59,444.11 477.59,444.11C477.59,444.11 477.4,444.3 477.4,444.3C477.4,444.3 475.67,446.03 475.67,446.03C475.67,446.03 475.48,446.22 475.48,446.22C475.48,446.22 473.56,446.22 473.56,446.22C473.56,446.22 471.63,446.22 471.63,446.22Q471.63,446.22 469.9,447.95Z"/></clipPath><clipPath class="contourclip" id="clip9e82a7"><path d="M632.9,202.89Q631.17,201.16 631.17,201.16C631.17,201.16 629.24,201.16 629.24,201.16C629.24,201.16 627.32,201.16 627.32,201.16C627.32,201.16 627.13,200.97 627.13,200.97C627.13,200.97 625.4,199.24 625.4,199.24C625.4,199.24 625.21,199.04 625.21,199.04C625.21,199.04 625.21,197.12 625.21,197.12C625.21,197.12 625.21,195.2 625.21,195.2Q625.21,195.2 623.48,193.47L623.48,193.09Q625.21,191.36 625.21,191.36C625.21,191.36 625.21,189.43 625.21,189.43C625.21,189.43 625.21,187.51 625.21,187.51C625.21,187.51 625.4,187.32 625.4,187.32C625.4,187.32 627.13,185.59 627.13,185.59C627.13,185.59 627.32,185.4 627.32,185.4C627.32,185.4 629.24,185.4 629.24,185.4C629.24,185.4 631.17,185.4 631.17,185.4Q631.17,185.4 632.9,183.67L633.28,183.67Q635.01,185.4 635.01,185.4C635.01,185.4 636.93,185.4 636.93,185.4C636.93,185.4 638.86,185.4 638.86,185.4C638.86,185.4 639.05,185.59 639.05,185.59C639.05,185.59 640.78,187.32 640.78,187.32C640.78,187.32 640.97,187.51 640.97,187.51C640.97,187.51 640.97,189.43 640.97,189.43C640.97,189.43 640.97,191.36 640.97,191.36Q640.97,191.36 642.7,193.09L642.7,193.47Q640.97,195.2 640.97,195.2C640.97,195.2 640.97,197.12 640.97,197.12C640.97,197.12 640.97,199.04 640.97,199.04C640.97,199.04 640.78,199.24 640.78,199.24C640.78,199.24 639.05,200.97 639.05,200.97C639.05,200.97 638.86,201.16 638.86,201.16C638.86,201.16 636.93,201.16 636.93,201.16C636.93,201.16 635.01,201.16 635.01,201.16Q635.01,201.16 633.28,202.89Z"/></clipPath></g><g class="gradients"/><g class="patterns"/></defs><g class="bglayer"/><g class="layer-below"><g class="imagelayer"/><g class="shapelayer"/></g><g class="cartesianlayer"><g class="subplot xy"><g class="layer-subplot"><g class="shapelayer"/><g class="imagelayer"/></g><g class="minor-gridlayer"><g class="x"/><g class="y"/></g><g class="gridlayer"><g class="x"><path class="xgrid crisp" transform="translate(65.27000000000001,0)" d="M0,2v795" style="stroke: rgb(211, 211, 211); stroke-opacity: 1; stroke-width: 1px;"/><path class="xgrid crisp" transform="translate(228.64,0)" d="M0,2v795" style="stroke: rgb(211, 211, 211); stroke-opacity: 1; stroke-width: 1px;"/><path class="xgrid crisp" transform="translate(392.02,0)" d="M0,2v795" style="stroke: rgb(211, 211, 211); stroke-opacity: 1; stroke-width: 1px;"/><path class="xgrid crisp" transform="translate(555.4,0)" d="M0,2v795" style="stroke: rgb(211, 211, 211); stroke-opacity: 1; stroke-width: 1px;"/><path class="xgrid crisp" transform="translate(718.78,0)" d="M0,2v795" style="stroke: rgb(211, 211, 211); stroke-opacity: 1; stroke-width: 1px;"/><path class="xgrid crisp" transform="translate(882.16,0)" d="M0,2v795" style="stroke: rgb(211, 211, 211); stroke-opacity: 1; stroke-width: 1px;"/></g><g class="y"><path class="ygrid crisp" transform="translate(0,685.41)" d="M4,0h919" style="stroke: rgb(211, 211, 211); stroke-opacity: 1; stroke-width: 1px;"/><path class="ygrid crisp" transform="translate(0,522.03)" d="M4,0h919" style="stroke: rgb(211, 211, 211); stroke-opacity: 1; stroke-width: 1px;"/><path class="ygrid crisp" transform="translate(0,358.66)" d="M4,0h919" style="stroke: rgb(211, 211, 211); stroke-opacity: 1; stroke-width: 1px;"/><path class="ygrid crisp" transform="translate(0,195.28)" d="M4,0h919" style="stroke: rgb(211, 211, 211); stroke-opacity: 1; stroke-width: 1px;"/><path class="ygrid crisp" transform="translate(0,31.9)" d="M4,0h919" style="stroke: rgb(211, 211, 211); stroke-opacity: 1; stroke-width: 1px;"/></g></g><g class="zerolinelayer"/><g class="layer-between"><g class="shapelayer"/><g class="imagelayer"/></g><path class="xlines-below"/><path class="ylines-below"/><g class="overlines-below"/><g class="xaxislayer-below"/><g class="yaxislayer-below"/><g class="overaxes-below"/><g class="plot" transform="translate(4,2)" clip-path="url(#clip57232bxyplot)"><g class="contourlayer mlayer"><g class="contour" clip-path="url(#clipb1be93)" style="opacity: 1;"><g class="heatmapcoloring"/><g class="contourbg"><path d="M827.7,360.66L846.92,360.66L846.92,379.88L827.7,379.88Z" style="stroke: none; fill: rgb(68, 1, 84);"/></g><g class="contourfill"/><g class="contourlines"><g class="contourlevel"/><g class="contourlevel"/><g class="contourlevel"/><g class="contourlevel"/><g class="contourlevel"/><g class="contourlevel"/><g class="contourlevel"/><g class="contourlevel"/><g class="contourlevel"/><g class="contourlevel"/><g class="contourlevel"/><g class="contourlevel"/><g class="contourlevel"/><g class="contourlevel"/><g class="contourlevel"/><g class="contourlevel"/></g></g><g class="contour" clip-path="url(#clip7f53a2)" style="opacity: 1;"><g class="heatmapcoloring"/><g class="contourbg"><path d="M51.66,387.89L70.88,387.89L70.88,407.11L51.66,407.11Z" style="stroke: none; fill: rgb(68, 1, 84);"/></g><g class="contourfill"><path d="M51.66,387.89L70.88,387.89L70.88,407.11L51.66,407.11Z" style="stroke: none; fill: rgb(69, 13, 95);"/><path d="M51.66,387.89L70.88,387.89L70.88,407.11L51.66,407.11Z" style="stroke: none; fill: rgb(72, 36, 116);"/><path d="M51.66,387.89L70.88,387.89L70.88,407.11L51.66,407.11Z" style="stroke: none; fill: rgb(67, 57, 129);"/><path d="M51.66,387.89L70.88,387.89L70.88,407.11L51.66,407.11Z" style="stroke: none; fill: rgb(61, 76, 138);"/><path d="M51.66,387.89L70.88,387.89L70.88,407.11L51.66,407.11Z" style="stroke: none; fill: rgb(53, 95, 141);"/><path d="M51.66,387.89L70.88,387.89L70.88,407.11L51.66,407.11Z" style="stroke: none; fill: rgb(46, 112, 142);"/><path d="M51.66,387.89L70.88,387.89L70.88,407.11L51.66,407.11Z" style="stroke: none; fill: rgb(39, 127, 142);"/><path d="M51.66,387.89L70.88,387.89L70.88,407.11L51.66,407.11Z" style="stroke: none; fill: rgb(35, 144, 140);"/><path d="M51.66,387.89L70.88,387.89L70.88,407.11L51.66,407.11Z" style="stroke: none; fill: rgb(33, 161, 135);"/><path d="M51.66,387.89L70.88,387.89L70.88,407.11L51.66,407.11Z" style="stroke: none; fill: rgb(46, 176, 126);"/><path d="M51.66,387.89L70.88,387.89L70.88,407.11L51.66,407.11Z" style="stroke: none; fill: rgb(70, 190, 111);"/><path d="M51.66,387.89L70.88,387.89L70.88,407.11L51.66,407.11Z" style="stroke: none; fill: rgb(104, 204, 91);"/><path d="M51.66,387.89L70.88,387.89L70.88,407.11L51.66,407.11Z" style="stroke: none; fill: rgb(146, 214, 65);"/><path d="M51.66,387.89L70.88,387.89L70.88,407.11L51.66,407.11Z" style="stroke: none; fill: rgb(188, 223, 42);"/><path d="M51.66,387.89L70.88,387.89L70.88,407.11L51.66,407.11Z" style="stroke: none; fill: rgb(231, 228, 39);"/><path d="M51.66,387.89L70.88,387.89L70.88,407.11L51.66,407.11Z" style="stroke: none; fill: rgb(253, 231, 37);"/></g><g class="contourlines"><g class="contourlevel"/><g class="contourlevel"/><g class="contourlevel"/><g class="contourlevel"/><g class="contourlevel"/><g class="contourlevel"/><g class="contourlevel"/><g class="contourlevel"/><g class="contourlevel"/><g class="contourlevel"/><g class="contourlevel"/><g class="contourlevel"/><g class="contourlevel"/><g class="contourlevel"/><g class="contourlevel"/><g class="contourlevel"/></g></g><g class="contour" clip-path="url(#clip6b4ec8)" style="opacity: 1;"><g class="heatmapcoloring"/><g class="contourbg"><path d="M235.46,306.2L254.68,306.2L254.68,325.42L235.46,325.42Z" style="stroke: none; fill: rgb(68, 1, 84);"/></g><g class="contourfill"><path d="M235.46,306.2L254.68,306.2L254.68,325.42L235.46,325.42Z" style="stroke: none; fill: rgb(69, 13, 95);"/><path d="M235.46,306.2L254.68,306.2L254.68,325.42L235.46,325.42Z" style="stroke: none; fill: rgb(72, 36, 116);"/><path d="M235.46,306.2L254.68,306.2L254.68,325.42L235.46,325.42Z" style="stroke: none; fill: rgb(67, 57, 129);"/><path d="M235.46,306.2L254.68,306.2L254.68,325.42L235.46,325.42Z" style="stroke: none; fill: rgb(61, 76, 138);"/><path d="M235.46,306.2L254.68,306.2L254.68,325.42L235.46,325.42Z" style="stroke: none; fill: rgb(53, 95, 141);"/><path d="M235.46,306.2L254.68,306.2L254.68,325.42L235.46,325.42Z" style="stroke: none; fill: rgb(46, 112, 142);"/><path d="M235.46,306.2L254.68,306.2L254.68,325.42L235.46,325.42Z" style="stroke: none; fill: rgb(39, 127, 142);"/><path d="M235.46,306.2L254.68,306.2L254.68,325.42L235.46,325.42Z" style="stroke: none; fill: rgb(35, 144, 140);"/><path d="M235.46,306.2L254.68,306.2L254.68,325.42L235.46,325.42Z" style="stroke: none; fill: rgb(33, 161, 135);"/><path d="M235.46,306.2L254.68,306.2L254.68,325.42L235.46,325.42Z" style="stroke: none; fill: rgb(46, 176, 126);"/><path d="M235.46,306.2L254.68,306.2L254.68,325.42L235.46,325.42Z" style="stroke: none; fill: rgb(70, 190, 111);"/><path d="M235.46,306.2L254.68,306.2L254.68,325.42L235.46,325.42Z" style="stroke: none; fill: rgb(104, 204, 91);"/><path d="M235.46,306.2L254.68,306.2L254.68,325.42L235.46,325.42Z" style="stroke: none; fill: rgb(146, 214, 65);"/><path d="M235.46,306.2L254.68,306.2L254.68,325.42L235.46,325.42Z" style="stroke: none; fill: rgb(188, 223, 42);"/></g><g class="contourlines"><g class="contourlevel"/><g class="contourlevel"/><g class="contourlevel"/><g class="contourlevel"/><g class="contourlevel"/><g class="contourlevel"/><g class="contourlevel"/><g class="contourlevel"/><g class="contourlevel"/><g class="contourlevel"/><g class="contourlevel"/><g class="contourlevel"/><g class="contourlevel"/><g class="contourlevel"/><g class="contourlevel"/><g class="contourlevel"/></g></g><g class="contour" clip-path="url(#clipd53c91)" style="opacity: 1;"><g class="heatmapcoloring"/><g class="contourbg"><path d="M276.3,142.82L295.52,142.82L295.52,162.04L276.3,162.04Z" style="stroke: none; fill: rgb(68, 1, 84);"/></g><g class="contourfill"><path d="M276.3,142.82L295.52,142.82L295.52,162.04L276.3,162.04Z" style="stroke: none; fill: rgb(69, 13, 95);"/><path d="M276.3,142.82L295.52,142.82L295.52,162.04L276.3,162.04Z" style="stroke: none; fill: rgb(72, 36, 116);"/><path d="M276.3,142.82L295.52,142.82L295.52,162.04L276.3,162.04Z" style="stroke: none; fill: rgb(67, 57, 129);"/><path d="M276.3,142.82L295.52,142.82L295.52,162.04L276.3,162.04Z" style="stroke: none; fill: rgb(61, 76, 138);"/><path d="M276.3,142.82L295.52,142.82L295.52,162.04L276.3,162.04Z" style="stroke: none; fill: rgb(53, 95, 141);"/><path d="M276.3,142.82L295.52,142.82L295.52,162.04L276.3,162.04Z" style="stroke: none; fill: rgb(46, 112, 142);"/><path d="M276.3,142.82L295.52,142.82L295.52,162.04L276.3,162.04Z" style="stroke: none; fill: rgb(39, 127, 142);"/><path d="M276.3,142.82L295.52,142.82L295.52,162.04L276.3,162.04Z" style="stroke: none; fill: rgb(35, 144, 140);"/><path d="M276.3,142.82L295.52,142.82L295.52,162.04L276.3,162.04Z" style="stroke: none; fill: rgb(33, 161, 135);"/><path d="M276.3,142.82L295.52,142.82L295.52,162.04L276.3,162.04Z" style="stroke: none; fill: rgb(46, 176, 126);"/><path d="M276.3,142.82L295.52,142.82L295.52,162.04L276.3,162.04Z" style="stroke: none; fill: rgb(70, 190, 111);"/><path d="M276.3,142.82L295.52,142.82L295.52,162.04L276.3,162.04Z" style="stroke: none; fill: rgb(104, 204, 91);"/><path d="M276.3,142.82L295.52,142.82L295.52,162.04L276.3,162.04Z" style="stroke: none; fill: rgb(146, 214, 65);"/><path d="M276.3,142.82L295.52,142.82L295.52,162.04L276.3,162.04Z" style="stroke: none; fill: rgb(188, 223, 42);"/><path d="M276.3,142.82L295.52,142.82L295.52,162.04L276.3,162.04Z" style="stroke: none; fill: rgb(231, 228, 39);"/></g><g class="contourlines"><g class="contourlevel"/><g class="contourlevel"/><g class="contourlevel"/><g class="contourlevel"/><g class="contourlevel"/><g class="contourlevel"/><g class="contourlevel"/><g class="contourlevel"/><g class="contourlevel"/><g class="contourlevel"/><g class="contourlevel"/><g class="contourlevel"/><g class="contourlevel"/><g class="contourlevel"/><g class="contourlevel"/><g class="contourlevel"/></g></g><g class="contour" clip-path="url(#clipd9b9bc)" style="opacity: 1;"><g class="heatmapcoloring"/><g class="contourbg"><path d="M264.05,608.45L283.27,608.45L283.27,627.67L264.05,627.67Z" style="stroke: none; fill: rgb(68, 1, 84);"/></g><g class="contourfill"><path d="M264.05,608.45L283.27,608.45L283.27,627.67L264.05,627.67Z" style="stroke: none; fill: rgb(69, 13, 95);"/><path d="M264.05,608.45L283.27,608.45L283.27,627.67L264.05,627.67Z" style="stroke: none; fill: rgb(72, 36, 116);"/><path d="M264.05,608.45L283.27,608.45L283.27,627.67L264.05,627.67Z" style="stroke: none; fill: rgb(67, 57, 129);"/><path d="M264.05,608.45L283.27,608.45L283.27,627.67L264.05,627.67Z" style="stroke: none; fill: rgb(61, 76, 138);"/><path d="M264.05,608.45L283.27,608.45L283.27,627.67L264.05,627.67Z" style="stroke: none; fill: rgb(53, 95, 141);"/><path d="M264.05,608.45L283.27,608.45L283.27,627.67L264.05,627.67Z" style="stroke: none; fill: rgb(46, 112, 142);"/><path d="M264.05,608.45L283.27,608.45L283.27,627.67L264.05,627.67Z" style="stroke: none; fill: rgb(39, 127, 142);"/><path d="M264.05,608.45L283.27,608.45L283.27,627.67L264.05,627.67Z" style="stroke: none; fill: rgb(35, 144, 140);"/><path d="M264.05,608.45L283.27,608.45L283.27,627.67L264.05,627.67Z" style="stroke: none; fill: rgb(33, 161, 135);"/><path d="M264.05,608.45L283.27,608.45L283.27,627.67L264.05,627.67Z" style="stroke: none; fill: rgb(46, 176, 126);"/><path d="M264.05,608.45L283.27,608.45L283.27,627.67L264.05,627.67Z" style="stroke: none; fill: rgb(70, 190, 111);"/><path d="M264.05,608.45L283.27,608.45L283.27,627.67L264.05,627.67Z" style="stroke: none; fill: rgb(104, 204, 91);"/></g><g class="contourlines"><g class="contourlevel"/><g class="contourlevel"/><g class="contourlevel"/><g class="contourlevel"/><g class="contourlevel"/><g class="contourlevel"/><g class="contourlevel"/><g class="contourlevel"/><g class="contourlevel"/><g class="contourlevel"/><g class="contourlevel"/><g class="contourlevel"/><g class="contourlevel"/><g class="contourlevel"/><g class="contourlevel"/><g class="contourlevel"/></g></g><g class="contour" clip-path="url(#clip72ee07)" style="opacity: 0.15;"><g class="heatmapcoloring"/><g class="contourbg"><path d="M541.79,646.57L561.01,646.57L561.01,665.79L541.79,665.79Z" style="stroke: none; fill: rgb(68, 1, 84);"/></g><g class="contourfill"><path d="M541.79,646.57L561.01,646.57L561.01,665.79L541.79,665.79Z" style="stroke: none; fill: rgb(69, 13, 95);"/><path d="M541.79,646.57L561.01,646.57L561.01,665.79L541.79,665.79Z" style="stroke: none; fill: rgb(72, 36, 116);"/><path d="M541.79,646.57L561.01,646.57L561.01,665.79L541.79,665.79Z" style="stroke: none; fill: rgb(67, 57, 129);"/><path d="M541.79,646.57L561.01,646.57L561.01,665.79L541.79,665.79Z" style="stroke: none; fill: rgb(61, 76, 138);"/><path d="M541.79,646.57L561.01,646.57L561.01,665.79L541.79,665.79Z" style="stroke: none; fill: rgb(53, 95, 141);"/><path d="M541.79,646.57L561.01,646.57L561.01,665.79L541.79,665.79Z" style="stroke: none; fill: rgb(46, 112, 142);"/><path d="M541.79,646.57L561.01,646.57L561.01,665.79L541.79,665.79Z" style="stroke: none; fill: rgb(39, 127, 142);"/></g><g class="contourlines"><g class="contourlevel"/><g class="contourlevel"/><g class="contourlevel"/><g class="contourlevel"/><g class="contourlevel"/><g class="contourlevel"/><g class="contourlevel"/><g class="contourlevel"/><g class="contourlevel"/><g class="contourlevel"/><g class="contourlevel"/><g class="contourlevel"/><g class="contourlevel"/><g class="contourlevel"/><g class="contourlevel"/><g class="contourlevel"/></g></g><g class="contour" clip-path="url(#clip4b9c34)" style="opacity: 0.15;"><g class="heatmapcoloring"/><g class="contourbg"><path d="M705.17,551.27L724.39,551.27L724.39,570.49L705.17,570.49Z" style="stroke: none; fill: rgb(68, 1, 84);"/></g><g class="contourfill"><path d="M705.17,551.27L724.39,551.27L724.39,570.49L705.17,570.49Z" style="stroke: none; fill: rgb(69, 13, 95);"/><path d="M705.17,551.27L724.39,551.27L724.39,570.49L705.17,570.49Z" style="stroke: none; fill: rgb(72, 36, 116);"/><path d="M705.17,551.27L724.39,551.27L724.39,570.49L705.17,570.49Z" style="stroke: none; fill: rgb(67, 57, 129);"/><path d="M705.17,551.27L724.39,551.27L724.39,570.49L705.17,570.49Z" style="stroke: none; fill: rgb(61, 76, 138);"/></g><g class="contourlines"><g class="contourlevel"/><g class="contourlevel"/><g class="contourlevel"/><g class="contourlevel"/><g class="contourlevel"/><g class="contourlevel"/><g class="contourlevel"/><g class="contourlevel"/><g class="contourlevel"/><g class="contourlevel"/><g class="contourlevel"/><g class="contourlevel"/><g class="contourlevel"/><g class="contourlevel"/><g class="contourlevel"/><g class="contourlevel"/></g></g><g class="contour" clip-path="url(#clip73e9cb)" style="opacity: 0.15;"><g class="heatmapcoloring"/><g class="contourbg"><path d="M460.1,428.73L479.32,428.73L479.32,447.95L460.1,447.95Z" style="stroke: none; fill: rgb(68, 1, 84);"/></g><g class="contourfill"><path d="M460.1,428.73L479.32,428.73L479.32,447.95L460.1,447.95Z" style="stroke: none; fill: rgb(69, 13, 95);"/><path d="M460.1,428.73L479.32,428.73L479.32,447.95L460.1,447.95Z" style="stroke: none; fill: rgb(72, 36, 116);"/><path d="M460.1,428.73L479.32,428.73L479.32,447.95L460.1,447.95Z" style="stroke: none; fill: rgb(67, 57, 129);"/><path d="M460.1,428.73L479.32,428.73L479.32,447.95L460.1,447.95Z" style="stroke: none; fill: rgb(61, 76, 138);"/><path d="M460.1,428.73L479.32,428.73L479.32,447.95L460.1,447.95Z" style="stroke: none; fill: rgb(53, 95, 141);"/><path d="M460.1,428.73L479.32,428.73L479.32,447.95L460.1,447.95Z" style="stroke: none; fill: rgb(46, 112, 142);"/><path d="M460.1,428.73L479.32,428.73L479.32,447.95L460.1,447.95Z" style="stroke: none; fill: rgb(39, 127, 142);"/><path d="M460.1,428.73L479.32,428.73L479.32,447.95L460.1,447.95Z" style="stroke: none; fill: rgb(35, 144, 140);"/><path d="M460.1,428.73L479.32,428.73L479.32,447.95L460.1,447.95Z" style="stroke: none; fill: rgb(33, 161, 135);"/><path d="M460.1,428.73L479.32,428.73L479.32,447.95L460.1,447.95Z" style="stroke: none; fill: rgb(46, 176, 126);"/></g><g class="contourlines"><g class="contourlevel"/><g class="contourlevel"/><g class="contourlevel"/><g class="contourlevel"/><g class="contourlevel"/><g class="contourlevel"/><g class="contourlevel"/><g class="contourlevel"/><g class="contourlevel"/><g class="contourlevel"/><g class="contourlevel"/><g class="contourlevel"/><g class="contourlevel"/><g class="contourlevel"/><g class="contourlevel"/><g class="contourlevel"/></g></g><g class="contour" clip-path="url(#clip9e82a7)" style="opacity: 0.15;"><g class="heatmapcoloring"/><g class="contourbg"><path d="M623.48,183.67L642.7,183.67L642.7,202.89L623.48,202.89Z" style="stroke: none; fill: rgb(68, 1, 84);"/></g><g class="contourfill"><path d="M623.48,183.67L642.7,183.67L642.7,202.89L623.48,202.89Z" style="stroke: none; fill: rgb(69, 13, 95);"/><path d="M623.48,183.67L642.7,183.67L642.7,202.89L623.48,202.89Z" style="stroke: none; fill: rgb(72, 36, 116);"/><path d="M623.48,183.67L642.7,183.67L642.7,202.89L623.48,202.89Z" style="stroke: none; fill: rgb(67, 57, 129);"/><path d="M623.48,183.67L642.7,183.67L642.7,202.89L623.48,202.89Z" style="stroke: none; fill: rgb(61, 76, 138);"/><path d="M623.48,183.67L642.7,183.67L642.7,202.89L623.48,202.89Z" style="stroke: none; fill: rgb(53, 95, 141);"/><path d="M623.48,183.67L642.7,183.67L642.7,202.89L623.48,202.89Z" style="stroke: none; fill: rgb(46, 112, 142);"/></g><g class="contourlines"><g class="contourlevel"/><g class="contourlevel"/><g class="contourlevel"/><g class="contourlevel"/><g class="contourlevel"/><g class="contourlevel"/><g class="contourlevel"/><g class="contourlevel"/><g class="contourlevel"/><g class="contourlevel"/><g class="contourlevel"/><g class="contourlevel"/><g class="contourlevel"/><g class="contourlevel"/><g class="contourlevel"/><g class="contourlevel"/></g></g></g><g class="scatterlayer mlayer"><g class="trace scatter trace84a54d" style="stroke-miterlimit: 2;"><g class="fills"><g><path class="js-fill" d="M837.31,356.66L837.31,356.66L837.31,360.66L841.02,361.4L841.08,361.43L844.24,363.61L844.28,363.65L846.45,367.31L846.47,367.37L846.91,370.83L846.9,370.89L845.95,374.49L845.92,374.54L843.6,377.53L843.56,377.57L840.26,379.42L840.2,379.44L836.14,379.81L836.08,379.8L832.65,378.68L832.6,378.65L829.73,376.18L829.69,376.13L828.05,372.85L828.04,372.79L827.76,369.2L827.77,369.14L828.91,365.6L828.94,365.54L831.61,362.53L831.66,362.5L834.74,361.01L834.8,360.99L837.31,360.66" style="fill: rgb(0, 0, 0); fill-opacity: 0; stroke-width: 0;"/></g></g><g class="errorbars"/><g class="lines"><path class="js-line" d="M837.31,360.66L841.02,361.4L841.08,361.43L844.24,363.61L844.28,363.65L846.45,367.31L846.47,367.37L846.91,370.83L846.9,370.89L845.95,374.49L845.92,374.54L843.6,377.53L843.56,377.57L840.26,379.42L840.2,379.44L836.14,379.81L836.08,379.8L832.65,378.68L832.6,378.65L829.73,376.18L829.69,376.13L828.05,372.85L828.04,372.79L827.76,369.2L827.77,369.14L828.91,365.6L828.94,365.54L831.61,362.53L831.66,362.5L834.74,361.01L834.8,360.99L837.31,360.66" style="vector-effect: none; fill: none; stroke: rgb(0, 0, 0); stroke-opacity: 1; stroke-width: 3px; opacity: 1;"/></g><g class="points"/><g class="text"/></g><g class="trace scatter trace610618" style="stroke-miterlimit: 2;"><g class="fills"><g><path class="js-fill" d="M61.27,356.66L61.27,356.66L61.27,387.89L64.98,388.63L65.03,388.66L68.07,390.71L68.11,390.75L70.16,393.86L70.18,393.92L70.88,397.58L70.88,397.64L69.93,401.66L69.9,401.72L67.56,404.76L67.51,404.8L64.21,406.65L64.15,406.67L60.21,407.05L60.15,407.05L56.19,405.66L56.14,405.63L53.26,402.82L53.23,402.77L51.83,399.32L51.82,399.26L51.91,395.3L51.93,395.24L53.42,391.96L53.45,391.91L56.27,389.29L56.32,389.26L59.88,387.99L59.94,387.98L61.27,387.89" style="fill: rgb(0, 0, 0); fill-opacity: 0; stroke-width: 0;"/></g></g><g class="errorbars"/><g class="lines"><path class="js-line" d="M61.27,387.89L64.98,388.63L65.03,388.66L68.07,390.71L68.11,390.75L70.16,393.86L70.18,393.92L70.88,397.58L70.88,397.64L69.93,401.66L69.9,401.72L67.56,404.76L67.51,404.8L64.21,406.65L64.15,406.67L60.21,407.05L60.15,407.05L56.19,405.66L56.14,405.63L53.26,402.82L53.23,402.77L51.83,399.32L51.82,399.26L51.91,395.3L51.93,395.24L53.42,391.96L53.45,391.91L56.27,389.29L56.32,389.26L59.88,387.99L59.94,387.98L61.27,387.89" style="vector-effect: none; fill: none; stroke: rgb(0, 0, 0); stroke-opacity: 1; stroke-width: 3px; opacity: 1;"/></g><g class="points"/><g class="text"/></g><g class="trace scatter trace556a67" style="stroke-miterlimit: 2;"><g class="fills"><g><path class="js-fill" d="M245.07,356.66L245.07,356.66L245.07,306.2L248.78,306.95L248.83,306.97L251.87,309.02L251.91,309.06L253.96,312.17L253.98,312.23L254.68,315.89L254.68,315.95L253.73,319.98L253.7,320.03L251.36,323.08L251.31,323.11L248.01,324.96L247.95,324.98L244.01,325.36L243.95,325.36L239.99,323.97L239.94,323.94L237.06,321.13L237.03,321.08L235.63,317.63L235.62,317.57L235.71,313.61L235.73,313.55L237.22,310.27L237.25,310.22L240.07,307.6L240.12,307.57L243.68,306.3L243.74,306.29L245.07,306.2" style="fill: rgb(0, 0, 0); fill-opacity: 0; stroke-width: 0;"/></g></g><g class="errorbars"/><g class="lines"><path class="js-line" d="M245.07,306.2L248.78,306.95L248.83,306.97L251.87,309.02L251.91,309.06L253.96,312.17L253.98,312.23L254.68,315.89L254.68,315.95L253.73,319.98L253.7,320.03L251.36,323.08L251.31,323.11L248.01,324.96L247.95,324.98L244.01,325.36L243.95,325.36L239.99,323.97L239.94,323.94L237.06,321.13L237.03,321.08L235.63,317.63L235.62,317.57L235.71,313.61L235.73,313.55L237.22,310.27L237.25,310.22L240.07,307.6L240.12,307.57L243.68,306.3L243.74,306.29L245.07,306.2" style="vector-effect: none; fill: none; stroke: rgb(0, 0, 0); stroke-opacity: 1; stroke-width: 3px; opacity: 1;"/></g><g class="points"/><g class="text"/></g><g class="trace scatter trace713caf" style="stroke-miterlimit: 2;"><g class="fills"><g><path class="js-fill" d="M285.91,356.66L285.91,356.66L285.91,142.82L289.62,143.57L289.68,143.59L292.84,145.77L292.88,145.82L294.94,149.13L294.96,149.19L295.51,152.99L295.5,153.05L294.55,156.65L294.52,156.71L292.2,159.7L292.16,159.74L288.51,161.69L288.45,161.7L284.74,161.97L284.68,161.96L281.25,160.84L281.2,160.81L278.33,158.34L278.29,158.29L276.65,155.02L276.64,154.96L276.37,151.24L276.38,151.18L277.76,147.34L277.79,147.29L280.6,144.42L280.66,144.39L284.11,142.99L284.17,142.98L285.91,142.82" style="fill: rgb(0, 0, 0); fill-opacity: 0; stroke-width: 0;"/></g></g><g class="errorbars"/><g class="lines"><path class="js-line" d="M285.91,142.82L289.62,143.57L289.68,143.59L292.84,145.77L292.88,145.82L294.94,149.13L294.96,149.19L295.51,152.99L295.5,153.05L294.55,156.65L294.52,156.71L292.2,159.7L292.16,159.74L288.51,161.69L288.45,161.7L284.74,161.97L284.68,161.96L281.25,160.84L281.2,160.81L278.33,158.34L278.29,158.29L276.65,155.02L276.64,154.96L276.37,151.24L276.38,151.18L277.76,147.34L277.79,147.29L280.6,144.42L280.66,144.39L284.11,142.99L284.17,142.98L285.91,142.82" style="vector-effect: none; fill: none; stroke: rgb(0, 0, 0); stroke-opacity: 1; stroke-width: 3px; opacity: 1;"/></g><g class="points"/><g class="text"/></g><g class="trace scatter trace40d898" style="stroke-miterlimit: 2;"><g class="fills"><g><path class="js-fill" d="M273.66,356.66L273.66,356.66L273.66,608.45L277.37,609.19L277.42,609.22L280.46,611.27L280.5,611.31L282.55,614.42L282.58,614.48L283.25,618.62L283.25,618.68L282.07,622.71L282.04,622.76L279.58,625.63L279.53,625.67L275.96,627.39L275.9,627.4L272.54,627.61L272.48,627.6L268.58,626.22L268.53,626.19L265.65,623.38L265.62,623.33L264.22,619.88L264.21,619.82L264.3,615.86L264.32,615.8L265.81,612.52L265.84,612.47L268.71,609.82L268.76,609.79L272.51,608.52L272.57,608.51L273.66,608.45" style="fill: rgb(0, 0, 0); fill-opacity: 0; stroke-width: 0;"/></g></g><g class="errorbars"/><g class="lines"><path class="js-line" d="M273.66,608.45L277.37,609.19L277.42,609.22L280.46,611.27L280.5,611.31L282.55,614.42L282.58,614.48L283.25,618.62L283.25,618.68L282.07,622.71L282.04,622.76L279.58,625.63L279.53,625.67L275.96,627.39L275.9,627.4L272.54,627.61L272.48,627.6L268.58,626.22L268.53,626.19L265.65,623.38L265.62,623.33L264.22,619.88L264.21,619.82L264.3,615.86L264.32,615.8L265.81,612.52L265.84,612.47L268.71,609.82L268.76,609.79L272.51,608.52L272.57,608.51L273.66,608.45" style="vector-effect: none; fill: none; stroke: rgb(0, 0, 0); stroke-opacity: 1; stroke-width: 3px; opacity: 1;"/></g><g class="points"/><g class="text"/></g><g class="trace scatter trace6f15ec" style="stroke-miterlimit: 2;"><g class="fills"><g><path class="js-fill" d="M551.4,356.66L551.4,356.66L551.4,646.57L555.11,647.32L555.16,647.34L558.2,649.39L558.24,649.43L560.29,652.54L560.32,652.6L561,656.68L560.99,656.74L560.04,660.4L560.01,660.45L557.83,663.33L557.78,663.37L554.29,665.35L554.23,665.37L550.22,665.72L550.16,665.71L546.74,664.59L546.69,664.56L543.82,662.09L543.78,662.04L542.14,658.76L542.13,658.71L541.86,654.99L541.87,654.93L543.25,651.09L543.28,651.04L546.09,648.17L546.14,648.14L549.84,646.7L549.9,646.69L551.4,646.57" style="fill: rgb(0, 0, 0); fill-opacity: 0; stroke-width: 0;"/></g></g><g class="errorbars"/><g class="lines"><path class="js-line" d="M551.4,646.57L555.11,647.32L555.16,647.34L558.2,649.39L558.24,649.43L560.29,652.54L560.32,652.6L561,656.68L560.99,656.74L560.04,660.4L560.01,660.45L557.83,663.33L557.78,663.37L554.29,665.35L554.23,665.37L550.22,665.72L550.16,665.71L546.74,664.59L546.69,664.56L543.82,662.09L543.78,662.04L542.14,658.76L542.13,658.71L541.86,654.99L541.87,654.93L543.25,651.09L543.28,651.04L546.09,648.17L546.14,648.14L549.84,646.7L549.9,646.69L551.4,646.57" style="vector-effect: none; fill: none; stroke: rgb(0, 0, 0); stroke-opacity: 0.15; stroke-width: 3px; opacity: 1;"/></g><g class="points"/><g class="text"/></g><g class="trace scatter tracee5f968" style="stroke-miterlimit: 2;"><g class="fills"><g><path class="js-fill" d="M714.78,356.66L714.78,356.66L714.78,551.27L718.49,552.01L718.54,552.04L721.58,554.09L721.62,554.13L723.67,557.24L723.7,557.29L724.37,561.44L724.37,561.5L723.19,565.53L723.16,565.58L720.7,568.45L720.65,568.49L717.08,570.21L717.02,570.22L713.18,570.36L713.12,570.34L709.6,568.97L709.55,568.94L706.77,566.2L706.74,566.15L705.3,562.46L705.29,562.4L705.42,558.68L705.44,558.62L706.93,555.33L706.96,555.29L709.83,552.64L709.88,552.61L713.63,551.34L713.69,551.33L714.78,551.27" style="fill: rgb(0, 0, 0); fill-opacity: 0; stroke-width: 0;"/></g></g><g class="errorbars"/><g class="lines"><path class="js-line" d="M714.78,551.27L718.49,552.01L718.54,552.04L721.58,554.09L721.62,554.13L723.67,557.24L723.7,557.29L724.37,561.44L724.37,561.5L723.19,565.53L723.16,565.58L720.7,568.45L720.65,568.49L717.08,570.21L717.02,570.22L713.18,570.36L713.12,570.34L709.6,568.97L709.55,568.94L706.77,566.2L706.74,566.15L705.3,562.46L705.29,562.4L705.42,558.68L705.44,558.62L706.93,555.33L706.96,555.29L709.83,552.64L709.88,552.61L713.63,551.34L713.69,551.33L714.78,551.27" style="vector-effect: none; fill: none; stroke: rgb(0, 0, 0); stroke-opacity: 0.15; stroke-width: 3px; opacity: 1;"/></g><g class="points"/><g class="text"/></g><g class="trace scatter trace9561e9" style="stroke-miterlimit: 2;"><g class="fills"><g><path class="js-fill" d="M469.71,356.66L469.71,356.66L469.71,428.73L473.92,429.7L473.97,429.73L476.97,432.04L477,432.09L478.85,435.39L478.87,435.44L479.3,439.02L479.29,439.08L478.35,442.56L478.32,442.62L476,445.61L475.96,445.65L472.31,447.6L472.25,447.61L468.48,447.88L468.42,447.87L464.58,446.47L464.53,446.44L461.74,443.71L461.71,443.66L460.27,440.16L460.26,440.1L460.36,436.14L460.37,436.08L461.93,432.7L461.97,432.65L465.02,429.95L465.08,429.93L468.57,428.8L468.63,428.8L469.71,428.73" style="fill: rgb(0, 0, 0); fill-opacity: 0; stroke-width: 0;"/></g></g><g class="errorbars"/><g class="lines"><path class="js-line" d="M469.71,428.73L473.92,429.7L473.97,429.73L476.97,432.04L477,432.09L478.85,435.39L478.87,435.44L479.3,439.02L479.29,439.08L478.35,442.56L478.32,442.62L476,445.61L475.96,445.65L472.31,447.6L472.25,447.61L468.48,447.88L468.42,447.87L464.58,446.47L464.53,446.44L461.74,443.71L461.71,443.66L460.27,440.16L460.26,440.1L460.36,436.14L460.37,436.08L461.93,432.7L461.97,432.65L465.02,429.95L465.08,429.93L468.57,428.8L468.63,428.8L469.71,428.73" style="vector-effect: none; fill: none; stroke: rgb(0, 0, 0); stroke-opacity: 0.15; stroke-width: 3px; opacity: 1;"/></g><g class="points"/><g class="text"/></g><g class="trace scatter trace4a9c74" style="stroke-miterlimit: 2;"><g class="fills"><g><path class="js-fill" d="M633.09,356.66L633.09,356.66L633.09,183.67L636.8,184.41L636.85,184.44L639.89,186.49L639.93,186.53L641.98,189.64L642.01,189.69L642.69,193.78L642.68,193.84L641.75,197.44L641.72,197.5L639.38,200.54L639.34,200.58L636.03,202.43L635.98,202.44L632.39,202.86L632.33,202.86L628.43,201.68L628.38,201.65L625.51,199.19L625.47,199.14L623.76,195.57L623.74,195.51L623.62,191.61L623.64,191.55L624.94,188.19L624.97,188.14L627.53,185.44L627.58,185.4L631.23,183.85L631.29,183.84L633.09,183.67" style="fill: rgb(0, 0, 0); fill-opacity: 0; stroke-width: 0;"/></g></g><g class="errorbars"/><g class="lines"><path class="js-line" d="M633.09,183.67L636.8,184.41L636.85,184.44L639.89,186.49L639.93,186.53L641.98,189.64L642.01,189.69L642.69,193.78L642.68,193.84L641.75,197.44L641.72,197.5L639.38,200.54L639.34,200.58L636.03,202.43L635.98,202.44L632.39,202.86L632.33,202.86L628.43,201.68L628.38,201.65L625.51,199.19L625.47,199.14L623.76,195.57L623.74,195.51L623.62,191.61L623.64,191.55L624.94,188.19L624.97,188.14L627.53,185.44L627.58,185.4L631.23,183.85L631.29,183.84L633.09,183.67" style="vector-effect: none; fill: none; stroke: rgb(0, 0, 0); stroke-opacity: 0.15; stroke-width: 3px; opacity: 1;"/></g><g class="points"/><g class="text"/></g><g class="trace scatter trace4e7aa5" style="stroke-miterlimit: 2; opacity: 1;"><g class="fills"/><g class="errorbars"/><g class="lines"><path class="js-line" d="M82.17,388.21L215.54935031238318,328.9283633339401" style="vector-effect: none; fill: none; stroke: rgb(204, 204, 204); stroke-opacity: 1; stroke-width: 7px; opacity: 1;"/></g><g class="points"><path class="point" transform="translate(82.17,388.21)" d="M0,0Z" style="opacity: 1; stroke-width: 0px; fill: rgb(204, 204, 204); fill-opacity: 1;"/><path class="point" transform="translate(236.11,319.79)" d="M0,0L-24.864690556862183,2.5975302715249597L-18.589167234390143,16.716544545206578Z" style="opacity: 1; stroke-width: 0px; fill: rgb(204, 204, 204); fill-opacity: 1;"/></g><g class="text"/></g><g class="trace scatter trace987b7a" style="stroke-miterlimit: 2; opacity: 1;"><g class="fills"/><g class="errorbars"/><g class="lines"><path class="js-line" d="M76.72,380.64L264.08599193492455,176.2457812223941" style="vector-effect: none; fill: none; stroke: rgb(204, 204, 204); stroke-opacity: 1; stroke-width: 7px; opacity: 1;"/></g><g class="points"><path class="point" transform="translate(76.72,380.64)" d="M0,0Z" style="opacity: 1; stroke-width: 0px; fill: rgb(204, 204, 204); fill-opacity: 1;"/><path class="point" transform="translate(279.29,159.66)" d="M0,0L-21.76070982972687,12.30737615035911L-10.370689866313809,22.747500779134747Z" style="opacity: 1; stroke-width: 0px; fill: rgb(204, 204, 204); fill-opacity: 1;"/></g><g class="text"/></g><g class="trace scatter tracefef006" style="stroke-miterlimit: 2; opacity: 1;"><g class="fills"/><g class="errorbars"/><g class="lines"><path class="js-line" d="M77.13,413.98L251.25276169130532,594.7930844274547" style="vector-effect: none; fill: none; stroke: rgb(204, 204, 204); stroke-opacity: 1; stroke-width: 7px; opacity: 1;"/></g><g class="points"><path class="point" transform="translate(77.13,413.98)" d="M0,0Z" style="opacity: 1; stroke-width: 0px; fill: rgb(204, 204, 204); fill-opacity: 1;"/><path class="point" transform="translate(266.86,611)" d="M0,0L-10.927465967500185,-22.485339391014875L-22.05705655999109,-11.768018350994952Z" style="opacity: 1; stroke-width: 0px; fill: rgb(204, 204, 204); fill-opacity: 1;"/></g><g class="text"/></g><g class="trace scatter tracebacd01" style="stroke-miterlimit: 2; opacity: 1;"><g class="fills"/><g class="errorbars"/><g class="lines"><path class="js-line" d="M265.15,326.76L441.35746517607737,422.8756151901965" style="vector-effect: none; fill: none; stroke: rgb(204, 204, 204); stroke-opacity: 0.15; stroke-width: 7px; opacity: 1;"/></g><g class="points"><path class="point" transform="translate(265.15,326.76)" d="M0,0Z" style="opacity: 1; stroke-width: 0px; fill: rgb(204, 204, 204); fill-opacity: 0.15;"/><path class="point" transform="translate(461.11,433.65)" d="M0,0L-17.17393615255883,-18.167441124930964L-24.57256017285659,-4.6031822200888435Z" style="opacity: 1; stroke-width: 0px; fill: rgb(204, 204, 204); fill-opacity: 0.15;"/></g><g class="text"/></g><g class="trace scatter trace1128bb" style="stroke-miterlimit: 2; opacity: 1;"><g class="fills"/><g class="errorbars"/><g class="lines"><path class="js-line" d="M250.61,293.62L278.0729484366825,183.76820625326997" style="vector-effect: none; fill: none; stroke: rgb(204, 204, 204); stroke-opacity: 0.15; stroke-width: 7px; opacity: 1;"/></g><g class="points"><path class="point" transform="translate(250.61,293.62)" d="M0,0Z" style="opacity: 1; stroke-width: 0px; fill: rgb(204, 204, 204); fill-opacity: 0.15;"/><path class="point" transform="translate(283.53,161.94)" d="M0,0L-13.262521282801835,21.19211007009987L1.7268046581174028,24.940291611621223Z" style="opacity: 1; stroke-width: 0px; fill: rgb(204, 204, 204); fill-opacity: 0.15;"/></g><g class="text"/></g><g class="trace scatter trace71f2b6" style="stroke-miterlimit: 2; opacity: 1;"><g class="fills"/><g class="errorbars"/><g class="lines"><path class="js-line" d="M247.22,338.58L270.61141439917986,585.899964396189" style="vector-effect: none; fill: none; stroke: rgb(204, 204, 204); stroke-opacity: 0.15; stroke-width: 7px; opacity: 1;"/></g><g class="points"><path class="point" transform="translate(247.22,338.58)" d="M0,0Z" style="opacity: 1; stroke-width: 0px; fill: rgb(204, 204, 204); fill-opacity: 0.15;"/><path class="point" transform="translate(272.73,608.3)" d="M0,0L5.452388785651577,-24.398185517167065L-9.929818442155103,-22.943380433271734Z" style="opacity: 1; stroke-width: 0px; fill: rgb(204, 204, 204); fill-opacity: 0.15;"/></g><g class="text"/></g><g class="trace scatter tracecd3b24" style="stroke-miterlimit: 2; opacity: 1;"><g class="fills"/><g class="errorbars"/><g class="lines"><path class="js-line" d="M298.28,171.67L452.2431392714476,411.173365327877" style="vector-effect: none; fill: none; stroke: rgb(204, 204, 204); stroke-opacity: 0.15; stroke-width: 7px; opacity: 1;"/></g><g class="points"><path class="point" transform="translate(298.28,171.67)" d="M0,0Z" style="opacity: 1; stroke-width: 0px; fill: rgb(204, 204, 204); fill-opacity: 0.15;"/><path class="point" transform="translate(464.41,430.1)" d="M0,0L-6.358579263260788,-24.177850809218544L-19.355582821844408,-15.822813075642447Z" style="opacity: 1; stroke-width: 0px; fill: rgb(204, 204, 204); fill-opacity: 0.15;"/></g><g class="text"/></g><g class="trace scatter trace737f6a" style="stroke-miterlimit: 2; opacity: 1;"><g class="fills"/><g class="errorbars"/><g class="lines"><path class="js-line" d="M308.63,155.11L601.0040629405968,189.50148389063577" style="vector-effect: none; fill: none; stroke: rgb(204, 204, 204); stroke-opacity: 0.15; stroke-width: 7px; opacity: 1;"/></g><g class="points"><path class="point" transform="translate(308.63,155.11)" d="M0,0Z" style="opacity: 1; stroke-width: 0px; fill: rgb(204, 204, 204); fill-opacity: 0.15;"/><path class="point" transform="translate(623.35,192.13)" d="M0,0L-22.710853022311532,-10.450701172599047L-24.516234077171042,4.8943096217298425Z" style="opacity: 1; stroke-width: 0px; fill: rgb(204, 204, 204); fill-opacity: 0.15;"/></g><g class="text"/></g><g class="trace scatter traced52fc2" style="stroke-miterlimit: 2; opacity: 1;"><g class="fills"/><g class="errorbars"/><g class="lines"><path class="js-line" d="M296.32,621.17L519.3990110569098,651.7902921807748" style="vector-effect: none; fill: none; stroke: rgb(204, 204, 204); stroke-opacity: 0.15; stroke-width: 7px; opacity: 1;"/></g><g class="points"><path class="point" transform="translate(296.32,621.17)" d="M0,0Z" style="opacity: 1; stroke-width: 0px; fill: rgb(204, 204, 204); fill-opacity: 0.15;"/><path class="point" transform="translate(541.69,654.85)" d="M0,0L-22.504851606638745,-10.887224355324431L-24.60615732011621,4.42007035438253Z" style="opacity: 1; stroke-width: 0px; fill: rgb(204, 204, 204); fill-opacity: 0.15;"/></g><g class="text"/></g><g class="trace scatter trace51bf9b" style="stroke-miterlimit: 2; opacity: 1;"><g class="fills"/><g class="errorbars"/><g class="lines"><path class="js-line" d="M290.52,602.6L445.90359146070267,460.1733237079109" style="vector-effect: none; fill: none; stroke: rgb(204, 204, 204); stroke-opacity: 0.15; stroke-width: 7px; opacity: 1;"/></g><g class="points"><path class="point" transform="translate(290.52,602.6)" d="M0,0Z" style="opacity: 1; stroke-width: 0px; fill: rgb(204, 204, 204); fill-opacity: 0.15;"/><path class="point" transform="translate(462.49,444.97)" d="M0,0L-22.747032290764402,10.371717406626617L-12.306393162263825,21.761265756747378Z" style="opacity: 1; stroke-width: 0px; fill: rgb(204, 204, 204); fill-opacity: 0.15;"/></g><g class="text"/></g><g class="trace scatter tracedc5f6b" style="stroke-miterlimit: 2; opacity: 1;"><g class="fills"/><g class="errorbars"/><g class="lines"><path class="js-line" d="M571.16,644.66L686.8751312003631,577.1573663053155" style="vector-effect: none; fill: none; stroke: rgb(204, 204, 204); stroke-opacity: 0.15; stroke-width: 7px; opacity: 1;"/></g><g class="points"><path class="point" transform="translate(571.16,644.66)" d="M0,0Z" style="opacity: 1; stroke-width: 0px; fill: rgb(204, 204, 204); fill-opacity: 0.15;"/><path class="point" transform="translate(706.31,565.82)" d="M0,0L-24.43023017367441,5.306962752958442L-16.645116946339783,18.65315206185464Z" style="opacity: 1; stroke-width: 0px; fill: rgb(204, 204, 204); fill-opacity: 0.15;"/></g><g class="text"/></g><g class="trace scatter trace3437a1" style="stroke-miterlimit: 2; opacity: 1;"><g class="fills"/><g class="errorbars"/><g class="lines"><path class="js-line" d="M727.15,541.64L819.8431887678427,397.44666649045865" style="vector-effect: none; fill: none; stroke: rgb(204, 204, 204); stroke-opacity: 0.15; stroke-width: 7px; opacity: 1;"/></g><g class="points"><path class="point" transform="translate(727.15,541.64)" d="M0,0Z" style="opacity: 1; stroke-width: 0px; fill: rgb(204, 204, 204); fill-opacity: 0.15;"/><path class="point" transform="translate(832.01,378.52)" d="M0,0L-19.355785691284062,15.822564908164642L-6.358889257268656,24.177769281176317Z" style="opacity: 1; stroke-width: 0px; fill: rgb(204, 204, 204); fill-opacity: 0.15;"/></g><g class="text"/></g><g class="trace scatter trace6bbd18" style="stroke-miterlimit: 2; opacity: 1;"><g class="fills"/><g class="errorbars"/><g class="lines"><path class="js-line" d="M694.32,550.65L498.60461179749814,452.7923058987491" style="vector-effect: none; fill: none; stroke: rgb(204, 204, 204); stroke-opacity: 0.15; stroke-width: 7px; opacity: 1;"/></g><g class="points"><path class="point" transform="translate(694.32,550.65)" d="M0,0Z" style="opacity: 1; stroke-width: 0px; fill: rgb(204, 204, 204); fill-opacity: 0.15;"/><path class="point" transform="translate(478.48,442.73)" d="M0,0L17.811355180675736,17.542965160651022L24.721185236926264,3.7233050481499674Z" style="opacity: 1; stroke-width: 0px; fill: rgb(204, 204, 204); fill-opacity: 0.15;"/></g><g class="text"/></g><g class="trace scatter trace759502" style="stroke-miterlimit: 2; opacity: 1;"><g class="fills"/><g class="errorbars"/><g class="lines"><path class="js-line" d="M477.74,459.76L540.0592293520263,625.9327784658699" style="vector-effect: none; fill: none; stroke: rgb(204, 204, 204); stroke-opacity: 0.15; stroke-width: 7px; opacity: 1;"/></g><g class="points"><path class="point" transform="translate(477.74,459.76)" d="M0,0Z" style="opacity: 1; stroke-width: 0px; fill: rgb(204, 204, 204); fill-opacity: 0.15;"/><path class="point" transform="translate(547.96,647)" d="M0,0L-1.1146241450308647,-24.97513989981466L-15.581768782722987,-19.55015298154363Z" style="opacity: 1; stroke-width: 0px; fill: rgb(204, 204, 204); fill-opacity: 0.15;"/></g><g class="text"/></g><g class="trace scatter trace8c52d5" style="stroke-miterlimit: 2; opacity: 1;"><g class="fills"/><g class="errorbars"/><g class="lines"><path class="js-line" d="M482.4,419.31L615.1694438732976,220.1512638133282" style="vector-effect: none; fill: none; stroke: rgb(204, 204, 204); stroke-opacity: 0.15; stroke-width: 7px; opacity: 1;"/></g><g class="points"><path class="point" transform="translate(482.4,419.31)" d="M0,0Z" style="opacity: 1; stroke-width: 0px; fill: rgb(204, 204, 204); fill-opacity: 0.15;"/><path class="point" transform="translate(627.65,201.43)" d="M0,0L-19.61639605579597,15.498290414821637L-6.760331235950673,24.068608634074167Z" style="opacity: 1; stroke-width: 0px; fill: rgb(204, 204, 204); fill-opacity: 0.15;"/></g><g class="text"/></g><g class="trace scatter trace8eb67f" style="stroke-miterlimit: 2; opacity: 1;"><g class="fills"/><g class="errorbars"/><g class="lines"><path class="js-line" d="M650.37,208.26L812.896870641025,349.11420711322387" style="vector-effect: none; fill: none; stroke: rgb(204, 204, 204); stroke-opacity: 0.15; stroke-width: 7px; opacity: 1;"/></g><g class="points"><path class="point" transform="translate(650.37,208.26)" d="M0,0Z" style="opacity: 1; stroke-width: 0px; fill: rgb(204, 204, 204); fill-opacity: 0.15;"/><path class="point" transform="translate(829.9,363.85)" d="M0,0L-12.908456237605014,-21.409618342274015L-23.027418386166843,-9.733344875654256Z" style="opacity: 1; stroke-width: 0px; fill: rgb(204, 204, 204); fill-opacity: 0.15;"/></g><g class="text"/></g><g class="trace scatter trace0fe715" style="stroke-miterlimit: 2; opacity: 1;"><g class="fills"/><g class="errorbars"/><g class="lines"><path class="js-line" d="M638.05,215.61L707.7690646990802,529.345791145861" style="vector-effect: none; fill: none; stroke: rgb(204, 204, 204); stroke-opacity: 0.15; stroke-width: 7px; opacity: 1;"/></g><g class="points"><path class="point" transform="translate(638.05,215.61)" d="M0,0Z" style="opacity: 1; stroke-width: 0px; fill: rgb(204, 204, 204); fill-opacity: 0.15;"/><path class="point" transform="translate(712.65,551.31)" d="M0,0L2.384100549242807,-24.886061652481295L-12.698882166333686,-21.534585942747363Z" style="opacity: 1; stroke-width: 0px; fill: rgb(204, 204, 204); fill-opacity: 0.15;"/></g><g class="text"/></g><g class="trace scatter trace98fd44" style="stroke-miterlimit: 2; opacity: 1;"><g class="fills"/><g class="errorbars"/><g class="lines"/><g class="points"/><g class="text"><g class="textpoint" transform="translate(0,10)"><text x="61.27" y="368.91" text-anchor="middle" style="font-family: 'Open Sans', verdana, arial, sans-serif; font-size: 40px; fill: rgb(42, 63, 95); fill-opacity: 1; white-space: pre;"><tspan style="font-style:italic">s</tspan></text></g></g></g><g class="trace scatter trace612cde" style="stroke-miterlimit: 2; opacity: 1;"><g class="fills"/><g class="errorbars"/><g class="lines"/><g class="points"/><g class="text"><g class="textpoint" transform="translate(0,10)"><text x="837.31" y="341.68" text-anchor="middle" style="font-family: 'Open Sans', verdana, arial, sans-serif; font-size: 40px; fill: rgb(42, 63, 95); fill-opacity: 1; white-space: pre;"><tspan style="font-style:italic">t</tspan></text></g></g></g><g class="trace scatter trace3f981a" style="stroke-miterlimit: 2; opacity: 1;"><g class="fills"/><g class="errorbars"/><g class="lines"><path class="js-line" d="M61.27,397.5" style="vector-effect: none; fill: none; stroke: rgb(255, 127, 14); stroke-opacity: 1; stroke-dasharray: 14px, 14px; stroke-width: 14px; opacity: 1;"/></g><g class="points"/><g class="text"/></g><g class="trace scatter trace7495ca" style="stroke-miterlimit: 2; opacity: 1;"><g class="fills"/><g class="errorbars"/><g class="lines"/><g class="points"><path class="point" transform="translate(61.27,397.5)" d="M12.5,0A12.5,12.5 0 1,1 0,-12.5A12.5,12.5 0 0,1 12.5,0Z" style="opacity: 1; stroke-width: 3px; fill: rgb(255, 255, 255); fill-opacity: 1; stroke: rgb(255, 127, 14); stroke-opacity: 1;"/></g><g class="text"/></g><g class="trace scatter trace617d16" style="stroke-miterlimit: 2; opacity: 1;"><g class="fills"/><g class="errorbars"/><g class="lines"/><g class="points"><path class="point" transform="translate(61.27,397.5)" d="M12.5,0A12.5,12.5 0 1,1 0,-12.5A12.5,12.5 0 0,1 12.5,0Z" style="opacity: 1; stroke-width: 3px; fill: rgb(255, 255, 255); fill-opacity: 1; stroke: rgb(255, 127, 14); stroke-opacity: 1;"/></g><g class="text"/></g></g></g><g class="overplot"/><path class="xlines-above crisp" d="M3,797.5H924M3,1.5H924" style="fill: none; stroke-width: 1px; stroke: rgb(0, 0, 0); stroke-opacity: 1;"/><path class="ylines-above crisp" d="M3.5,2V797M923.5,2V797" style="fill: none; stroke-width: 1px; stroke: rgb(0, 0, 0); stroke-opacity: 1;"/><g class="overlines-above"/><g class="xaxislayer-above"><g class="xtick"><text text-anchor="middle" x="0" y="799.2" transform="translate(65.27000000000001,0)" style="font-family: 'Open Sans', verdana, arial, sans-serif; font-size: 1px; fill: rgb(42, 63, 95); fill-opacity: 1; white-space: pre; opacity: 1;">0</text></g><g class="xtick"><text text-anchor="middle" x="0" y="799.2" style="font-family: 'Open Sans', verdana, arial, sans-serif; font-size: 1px; fill: rgb(42, 63, 95); fill-opacity: 1; white-space: pre; opacity: 1;" transform="translate(228.64,0)">2</text></g><g class="xtick"><text text-anchor="middle" x="0" y="799.2" style="font-family: 'Open Sans', verdana, arial, sans-serif; font-size: 1px; fill: rgb(42, 63, 95); fill-opacity: 1; white-space: pre; opacity: 1;" transform="translate(392.02,0)">4</text></g><g class="xtick"><text text-anchor="middle" x="0" y="799.2" style="font-family: 'Open Sans', verdana, arial, sans-serif; font-size: 1px; fill: rgb(42, 63, 95); fill-opacity: 1; white-space: pre; opacity: 1;" transform="translate(555.4,0)">6</text></g><g class="xtick"><text text-anchor="middle" x="0" y="799.2" style="font-family: 'Open Sans', verdana, arial, sans-serif; font-size: 1px; fill: rgb(42, 63, 95); fill-opacity: 1; white-space: pre; opacity: 1;" transform="translate(718.78,0)">8</text></g><g class="xtick"><text text-anchor="middle" x="0" y="799.2" style="font-family: 'Open Sans', verdana, arial, sans-serif; font-size: 1px; fill: rgb(42, 63, 95); fill-opacity: 1; white-space: pre; opacity: 1;" transform="translate(882.16,0)">10</text></g></g><g class="yaxislayer-above"><g class="ytick"><text text-anchor="end" x="2.8" y="0.35" transform="translate(0,685.41)" style="font-family: 'Open Sans', verdana, arial, sans-serif; font-size: 1px; fill: rgb(42, 63, 95); fill-opacity: 1; white-space: pre; opacity: 1;">4</text></g><g class="ytick"><text text-anchor="end" x="2.8" y="0.35" style="font-family: 'Open Sans', verdana, arial, sans-serif; font-size: 1px; fill: rgb(42, 63, 95); fill-opacity: 1; white-space: pre; opacity: 1;" transform="translate(0,522.03)">2</text></g><g class="ytick"><text text-anchor="end" x="2.8" y="0.35" style="font-family: 'Open Sans', verdana, arial, sans-serif; font-size: 1px; fill: rgb(42, 63, 95); fill-opacity: 1; white-space: pre; opacity: 1;" transform="translate(0,358.66)">0</text></g><g class="ytick"><text text-anchor="end" x="2.8" y="0.35" style="font-family: 'Open Sans', verdana, arial, sans-serif; font-size: 1px; fill: rgb(42, 63, 95); fill-opacity: 1; white-space: pre; opacity: 1;" transform="translate(0,195.28)">2</text></g><g class="ytick"><text text-anchor="end" x="2.8" y="0.35" style="font-family: 'Open Sans', verdana, arial, sans-serif; font-size: 1px; fill: rgb(42, 63, 95); fill-opacity: 1; white-space: pre; opacity: 1;" transform="translate(0,31.9)">4</text></g></g><g class="overaxes-above"/></g></g><g class="polarlayer"/><g class="smithlayer"/><g class="ternarylayer"/><g class="geolayer"/><g class="funnelarealayer"/><g class="pielayer"/><g class="iciclelayer"/><g class="treemaplayer"/><g class="sunburstlayer"/><g class="glimages"/><defs id="topdefs-57232b"><g class="clips"/></defs><g class="layer-above"><g class="imagelayer"/><g class="shapelayer"/></g><g class="infolayer"><g class="g-gtitle"/><g class="g-xtitle"/><g class="g-ytitle"/></g></svg>