<svg class="main-svg" xmlns="http://www.w3.org/2000/svg" xmlns:xlink="http://www.w3.org/1999/xlink" width="925" height="800" style="" viewBox="0 0 925 800"><rect x="0" y="0" width="925" height="800" style="fill: rgb(255, 255, 255); fill-opacity: 1;"/><defs id="defs-894590"><g class="clips"><clipPath id="clip894590xyplot" class="plotclip"><rect width="919" height="645"/></clipPath><clipPath class="axesclip" id="clip894590x"><rect x="4" y="0" width="919" height="800"/></clipPath><clipPath class="axesclip" id="clip894590y"><rect x="0" y="152" width="925" height="645"/></clipPath><clipPath class="axesclip" id="clip894590xy"><rect x="4" y="152" width="919" height="645"/></clipPath><clipPath class="contourclip" id="clipffc9b4"><path d="M790.47,307.06Q789.78,306.37 789.78,306.37C789.78,306.37 789.01,306.37 789.01,306.37C789.01,306.37 788.25,306.37 788.25,306.37C788.25,306.37 787.48,306.37 787.48,306.37C787.48,306.37 787.41,306.3 787.41,306.3C787.41,306.3 786.72,305.61 786.72,305.61C786.72,305.61 785.95,305.61 785.95,305.61C785.95,305.61 785.88,305.53 785.88,305.53C785.88,305.53 785.19,304.84 785.19,304.84C785.19,304.84 785.11,304.77 785.11,304.77C785.11,304.77 784.42,304.08 784.42,304.08C784.42,304.08 784.34,304 784.34,304C784.34,304 783.66,303.31 783.66,303.31C783.66,303.31 783.58,303.23 783.58,303.23C783.58,303.23 783.58,302.47 783.58,302.47C783.58,302.47 782.89,301.78 782.89,301.78C782.89,301.78 782.81,301.7 782.81,301.7C782.81,301.7 782.81,300.94 782.81,300.94C782.81,300.94 782.81,300.17 782.81,300.17C782.81,300.17 782.81,299.41 782.81,299.41Q782.81,299.41 782.12,298.72L782.12,298.56Q782.81,297.88 782.81,297.88C782.81,297.88 782.81,297.11 782.81,297.11C782.81,297.11 782.81,296.34 782.81,296.34C782.81,296.34 782.81,295.58 782.81,295.58C782.81,295.58 782.89,295.5 782.89,295.5C782.89,295.5 783.58,294.81 783.58,294.81C783.58,294.81 783.58,294.05 783.58,294.05C783.58,294.05 783.66,293.97 783.66,293.97C783.66,293.97 784.34,293.28 784.34,293.28C784.34,293.28 784.42,293.21 784.42,293.21C784.42,293.21 785.11,292.52 785.11,292.52C785.11,292.52 785.19,292.44 785.19,292.44C785.19,292.44 785.88,291.75 785.88,291.75C785.88,291.75 785.95,291.67 785.95,291.67C785.95,291.67 786.72,291.67 786.72,291.67C786.72,291.67 787.41,290.99 787.41,290.99C787.41,290.99 787.48,290.91 787.48,290.91C787.48,290.91 788.25,290.91 788.25,290.91C788.25,290.91 789.01,290.91 789.01,290.91C789.01,290.91 789.78,290.91 789.78,290.91Q789.78,290.91 790.47,290.22L790.62,290.22Q791.31,290.91 791.31,290.91C791.31,290.91 792.08,290.91 792.08,290.91C792.08,290.91 792.84,290.91 792.84,290.91C792.84,290.91 793.61,290.91 793.61,290.91C793.61,290.91 793.68,290.99 793.68,290.99C793.68,290.99 794.37,291.67 794.37,291.67C794.37,291.67 795.14,291.67 795.14,291.67C795.14,291.67 795.21,291.75 795.21,291.75C795.21,291.75 795.9,292.44 795.9,292.44C795.9,292.44 795.98,292.52 795.98,292.52C795.98,292.52 796.67,293.21 796.67,293.21C796.67,293.21 796.75,293.28 796.75,293.28C796.75,293.28 797.44,293.97 797.44,293.97C797.44,293.97 797.51,294.05 797.51,294.05C797.51,294.05 797.51,294.81 797.51,294.81C797.51,294.81 798.2,295.5 798.2,295.5C798.2,295.5 798.28,295.58 798.28,295.58C798.28,295.58 798.28,296.34 798.28,296.34C798.28,296.34 798.28,297.11 798.28,297.11C798.28,297.11 798.28,297.88 798.28,297.88Q798.28,297.88 798.97,298.56L798.97,298.72Q798.28,299.41 798.28,299.41C798.28,299.41 798.28,300.17 798.28,300.17C798.28,300.17 798.28,300.94 798.28,300.94C798.28,300.94 798.28,301.7 798.28,301.7C798.28,301.7 798.2,301.78 798.2,301.78C798.2,301.78 797.51,302.47 797.51,302.47C797.51,302.47 797.51,303.23 797.51,303.23C797.51,303.23 797.44,303.31 797.44,303.31C797.44,303.31 796.75,304 796.75,304C796.75,304 796.67,304.08 796.67,304.08C796.67,304.08 795.98,304.77 795.98,304.77C795.98,304.77 795.9,304.84 795.9,304.84C795.9,304.84 795.21,305.53 795.21,305.53C795.21,305.53 795.14,305.61 795.14,305.61C795.14,305.61 794.37,305.61 794.37,305.61C794.37,305.61 793.68,306.3 793.68,306.3C793.68,306.3 793.61,306.37 793.61,306.37C793.61,306.37 792.84,306.37 792.84,306.37C792.84,306.37 792.08,306.37 792.08,306.37C792.08,306.37 791.31,306.37 791.31,306.37Q791.31,306.37 790.62,307.06Z"/></clipPath><clipPath class="contourclip" id="clip6f688b"><path d="M110.48,330.92Q109.79,330.23 109.79,330.23C109.79,330.23 109.03,330.23 109.03,330.23C109.03,330.23 108.26,330.23 108.26,330.23C108.26,330.23 107.5,330.23 107.5,330.23C107.5,330.23 107.42,330.16 107.42,330.16C107.42,330.16 106.73,329.47 106.73,329.47C106.73,329.47 105.97,329.47 105.97,329.47C105.97,329.47 105.89,329.39 105.89,329.39C105.89,329.39 105.2,328.7 105.2,328.7C105.2,328.7 105.13,328.62 105.13,328.62C105.13,328.62 104.44,327.94 104.44,327.94C104.44,327.94 104.36,327.86 104.36,327.86C104.36,327.86 103.67,327.17 103.67,327.17C103.67,327.17 103.59,327.09 103.59,327.09C103.59,327.09 103.59,326.33 103.59,326.33C103.59,326.33 102.91,325.64 102.91,325.64C102.91,325.64 102.83,325.56 102.83,325.56C102.83,325.56 102.83,324.8 102.83,324.8C102.83,324.8 102.83,324.03 102.83,324.03C102.83,324.03 102.83,323.27 102.83,323.27Q102.83,323.27 102.14,322.58L102.14,322.42Q102.83,321.73 102.83,321.73C102.83,321.73 102.83,320.97 102.83,320.97C102.83,320.97 102.83,320.2 102.83,320.2C102.83,320.2 102.83,319.44 102.83,319.44C102.83,319.44 102.91,319.36 102.91,319.36C102.91,319.36 103.59,318.67 103.59,318.67C103.59,318.67 103.59,317.91 103.59,317.91C103.59,317.91 103.67,317.83 103.67,317.83C103.67,317.83 104.36,317.14 104.36,317.14C104.36,317.14 104.44,317.06 104.44,317.06C104.44,317.06 105.13,316.38 105.13,316.38C105.13,316.38 105.2,316.3 105.2,316.3C105.2,316.3 105.89,315.61 105.89,315.61C105.89,315.61 105.97,315.53 105.97,315.53C105.97,315.53 106.73,315.53 106.73,315.53C106.73,315.53 107.42,314.84 107.42,314.84C107.42,314.84 107.5,314.77 107.5,314.77C107.5,314.77 108.26,314.77 108.26,314.77C108.26,314.77 109.03,314.77 109.03,314.77C109.03,314.77 109.79,314.77 109.79,314.77Q109.79,314.77 110.48,314.08L110.64,314.08Q111.33,314.77 111.33,314.77C111.33,314.77 112.09,314.77 112.09,314.77C112.09,314.77 112.86,314.77 112.86,314.77C112.86,314.77 113.62,314.77 113.62,314.77C113.62,314.77 113.7,314.84 113.7,314.84C113.7,314.84 114.39,315.53 114.39,315.53C114.39,315.53 115.15,315.53 115.15,315.53C115.15,315.53 115.23,315.61 115.23,315.61C115.23,315.61 115.92,316.3 115.92,316.3C115.92,316.3 116,316.38 116,316.38C116,316.38 116.68,317.06 116.68,317.06C116.68,317.06 116.76,317.14 116.76,317.14C116.76,317.14 117.45,317.83 117.45,317.83C117.45,317.83 117.53,317.91 117.53,317.91C117.53,317.91 117.53,318.67 117.53,318.67C117.53,318.67 118.22,319.36 118.22,319.36C118.22,319.36 118.29,319.44 118.29,319.44C118.29,319.44 118.29,320.2 118.29,320.2C118.29,320.2 118.29,320.97 118.29,320.97C118.29,320.97 118.29,321.73 118.29,321.73Q118.29,321.73 118.98,322.42L118.98,322.58Q118.29,323.27 118.29,323.27C118.29,323.27 118.29,324.03 118.29,324.03C118.29,324.03 118.29,324.8 118.29,324.8C118.29,324.8 118.29,325.56 118.29,325.56C118.29,325.56 118.22,325.64 118.22,325.64C118.22,325.64 117.53,326.33 117.53,326.33C117.53,326.33 117.53,327.09 117.53,327.09C117.53,327.09 117.45,327.17 117.45,327.17C117.45,327.17 116.76,327.86 116.76,327.86C116.76,327.86 116.68,327.94 116.68,327.94C116.68,327.94 116,328.62 116,328.62C116,328.62 115.92,328.7 115.92,328.7C115.92,328.7 115.23,329.39 115.23,329.39C115.23,329.39 115.15,329.47 115.15,329.47C115.15,329.47 114.39,329.47 114.39,329.47C114.39,329.47 113.7,330.16 113.7,330.16C113.7,330.16 113.62,330.23 113.62,330.23C113.62,330.23 112.86,330.23 112.86,330.23C112.86,330.23 112.09,330.23 112.09,330.23C112.09,330.23 111.33,330.23 111.33,330.23Q111.33,330.23 110.64,330.92Z"/></clipPath><clipPath class="contourclip" id="clipf6b260"><path d="M271.53,259.34Q270.84,258.65 270.84,258.65C270.84,258.65 270.08,258.65 270.08,258.65C270.08,258.65 269.31,258.65 269.31,258.65C269.31,258.65 268.55,258.65 268.55,258.65C268.55,258.65 268.47,258.58 268.47,258.58C268.47,258.58 267.78,257.89 267.78,257.89C267.78,257.89 267.02,257.89 267.02,257.89C267.02,257.89 266.94,257.81 266.94,257.81C266.94,257.81 266.25,257.12 266.25,257.12C266.25,257.12 266.17,257.05 266.17,257.05C266.17,257.05 265.49,256.36 265.49,256.36C265.49,256.36 265.41,256.28 265.41,256.28C265.41,256.28 264.72,255.59 264.72,255.59C264.72,255.59 264.64,255.52 264.64,255.52C264.64,255.52 264.64,254.75 264.64,254.75C264.64,254.75 263.95,254.06 263.95,254.06C263.95,254.06 263.88,253.98 263.88,253.98C263.88,253.98 263.88,253.22 263.88,253.22C263.88,253.22 263.88,252.45 263.88,252.45C263.88,252.45 263.88,251.69 263.88,251.69Q263.88,251.69 263.19,251L263.19,250.85Q263.88,250.16 263.88,250.16C263.88,250.16 263.88,249.39 263.88,249.39C263.88,249.39 263.88,248.63 263.88,248.63C263.88,248.63 263.88,247.86 263.88,247.86C263.88,247.86 263.95,247.78 263.95,247.78C263.95,247.78 264.64,247.09 264.64,247.09C264.64,247.09 264.64,246.33 264.64,246.33C264.64,246.33 264.72,246.25 264.72,246.25C264.72,246.25 265.41,245.56 265.41,245.56C265.41,245.56 265.49,245.49 265.49,245.49C265.49,245.49 266.17,244.8 266.17,244.8C266.17,244.8 266.25,244.72 266.25,244.72C266.25,244.72 266.94,244.03 266.94,244.03C266.94,244.03 267.02,243.96 267.02,243.96C267.02,243.96 267.78,243.96 267.78,243.96C267.78,243.96 268.47,243.27 268.47,243.27C268.47,243.27 268.55,243.19 268.55,243.19C268.55,243.19 269.31,243.19 269.31,243.19C269.31,243.19 270.08,243.19 270.08,243.19C270.08,243.19 270.84,243.19 270.84,243.19Q270.84,243.19 271.53,242.5L271.69,242.5Q272.38,243.19 272.38,243.19C272.38,243.19 273.14,243.19 273.14,243.19C273.14,243.19 273.91,243.19 273.91,243.19C273.91,243.19 274.67,243.19 274.67,243.19C274.67,243.19 274.75,243.27 274.75,243.27C274.75,243.27 275.44,243.96 275.44,243.96C275.44,243.96 276.2,243.96 276.2,243.96C276.2,243.96 276.28,244.03 276.28,244.03C276.28,244.03 276.97,244.72 276.97,244.72C276.97,244.72 277.04,244.8 277.04,244.8C277.04,244.8 277.73,245.49 277.73,245.49C277.73,245.49 277.81,245.56 277.81,245.56C277.81,245.56 278.5,246.25 278.5,246.25C278.5,246.25 278.58,246.33 278.58,246.33C278.58,246.33 278.58,247.09 278.58,247.09C278.58,247.09 279.26,247.78 279.26,247.78C279.26,247.78 279.34,247.86 279.34,247.86C279.34,247.86 279.34,248.63 279.34,248.63C279.34,248.63 279.34,249.39 279.34,249.39C279.34,249.39 279.34,250.16 279.34,250.16Q279.34,250.16 280.03,250.85L280.03,251Q279.34,251.69 279.34,251.69C279.34,251.69 279.34,252.45 279.34,252.45C279.34,252.45 279.34,253.22 279.34,253.22C279.34,253.22 279.34,253.98 279.34,253.98C279.34,253.98 279.26,254.06 279.26,254.06C279.26,254.06 278.58,254.75 278.58,254.75C278.58,254.75 278.58,255.52 278.58,255.52C278.58,255.52 278.5,255.59 278.5,255.59C278.5,255.59 277.81,256.28 277.81,256.28C277.81,256.28 277.73,256.36 277.73,256.36C277.73,256.36 277.04,257.05 277.04,257.05C277.04,257.05 276.97,257.12 276.97,257.12C276.97,257.12 276.28,257.81 276.28,257.81C276.28,257.81 276.2,257.89 276.2,257.89C276.2,257.89 275.44,257.89 275.44,257.89C275.44,257.89 274.75,258.58 274.75,258.58C274.75,258.58 274.67,258.65 274.67,258.65C274.67,258.65 273.91,258.65 273.91,258.65C273.91,258.65 273.14,258.65 273.14,258.65C273.14,258.65 272.38,258.65 272.38,258.65Q272.38,258.65 271.69,259.34Z"/></clipPath><clipPath class="contourclip" id="clip211bf7"><path d="M307.32,116.19Q306.63,115.5 306.63,115.5C306.63,115.5 305.87,115.5 305.87,115.5C305.87,115.5 305.1,115.5 305.1,115.5C305.1,115.5 304.34,115.5 304.34,115.5C304.34,115.5 304.26,115.42 304.26,115.42C304.26,115.42 303.57,114.73 303.57,114.73C303.57,114.73 302.8,114.73 302.8,114.73C302.8,114.73 302.73,114.66 302.73,114.66C302.73,114.66 302.04,113.97 302.04,113.97C302.04,113.97 301.96,113.89 301.96,113.89C301.96,113.89 301.27,113.2 301.27,113.2C301.27,113.2 301.2,113.13 301.2,113.13C301.2,113.13 300.51,112.44 300.51,112.44C300.51,112.44 300.43,112.36 300.43,112.36C300.43,112.36 300.43,111.6 300.43,111.6C300.43,111.6 299.74,110.91 299.74,110.91C299.74,110.91 299.67,110.83 299.67,110.83C299.67,110.83 299.67,110.06 299.67,110.06C299.67,110.06 299.67,109.3 299.67,109.3C299.67,109.3 299.67,108.53 299.67,108.53Q299.67,108.53 298.98,107.84L298.98,107.69Q299.67,107 299.67,107C299.67,107 299.67,106.24 299.67,106.24C299.67,106.24 299.67,105.47 299.67,105.47C299.67,105.47 299.67,104.71 299.67,104.71C299.67,104.71 299.74,104.63 299.74,104.63C299.74,104.63 300.43,103.94 300.43,103.94C300.43,103.94 300.43,103.17 300.43,103.17C300.43,103.17 300.51,103.1 300.51,103.1C300.51,103.1 301.2,102.41 301.2,102.41C301.2,102.41 301.27,102.33 301.27,102.33C301.27,102.33 301.96,101.64 301.96,101.64C301.96,101.64 302.04,101.57 302.04,101.57C302.04,101.57 302.73,100.88 302.73,100.88C302.73,100.88 302.8,100.8 302.8,100.8C302.8,100.8 303.57,100.8 303.57,100.8C303.57,100.8 304.26,100.11 304.26,100.11C304.26,100.11 304.34,100.04 304.34,100.04C304.34,100.04 305.1,100.04 305.1,100.04C305.1,100.04 305.87,100.04 305.87,100.04C305.87,100.04 306.63,100.04 306.63,100.04Q306.63,100.04 307.32,99.35L307.47,99.35Q308.16,100.04 308.16,100.04C308.16,100.04 308.93,100.04 308.93,100.04C308.93,100.04 309.69,100.04 309.69,100.04C309.69,100.04 310.46,100.04 310.46,100.04C310.46,100.04 310.54,100.11 310.54,100.11C310.54,100.11 311.23,100.8 311.23,100.8C311.23,100.8 311.99,100.8 311.99,100.8C311.99,100.8 312.07,100.88 312.07,100.88C312.07,100.88 312.76,101.57 312.76,101.57C312.76,101.57 312.83,101.64 312.83,101.64C312.83,101.64 313.52,102.33 313.52,102.33C313.52,102.33 313.6,102.41 313.6,102.41C313.6,102.41 314.29,103.1 314.29,103.1C314.29,103.1 314.36,103.17 314.36,103.17C314.36,103.17 314.36,103.94 314.36,103.94C314.36,103.94 315.05,104.63 315.05,104.63C315.05,104.63 315.13,104.71 315.13,104.71C315.13,104.71 315.13,105.47 315.13,105.47C315.13,105.47 315.13,106.24 315.13,106.24C315.13,106.24 315.13,107 315.13,107Q315.13,107 315.82,107.69L315.82,107.84Q315.13,108.53 315.13,108.53C315.13,108.53 315.13,109.3 315.13,109.3C315.13,109.3 315.13,110.06 315.13,110.06C315.13,110.06 315.13,110.83 315.13,110.83C315.13,110.83 315.05,110.91 315.05,110.91C315.05,110.91 314.36,111.6 314.36,111.6C314.36,111.6 314.36,112.36 314.36,112.36C314.36,112.36 314.29,112.44 314.29,112.44C314.29,112.44 313.6,113.13 313.6,113.13C313.6,113.13 313.52,113.2 313.52,113.2C313.52,113.2 312.83,113.89 312.83,113.89C312.83,113.89 312.76,113.97 312.76,113.97C312.76,113.97 312.07,114.66 312.07,114.66C312.07,114.66 311.99,114.73 311.99,114.73C311.99,114.73 311.23,114.73 311.23,114.73C311.23,114.73 310.54,115.42 310.54,115.42C310.54,115.42 310.46,115.5 310.46,115.5C310.46,115.5 309.69,115.5 309.69,115.5C309.69,115.5 308.93,115.5 308.93,115.5C308.93,115.5 308.16,115.5 308.16,115.5Q308.16,115.5 307.47,116.19Z"/></clipPath><clipPath class="contourclip" id="clip569b75"><path d="M296.58,524.18Q295.9,523.49 295.9,523.49C295.9,523.49 295.13,523.49 295.13,523.49C295.13,523.49 294.36,523.49 294.36,523.49C294.36,523.49 293.6,523.49 293.6,523.49C293.6,523.49 293.52,523.41 293.52,523.41C293.52,523.41 292.83,522.73 292.83,522.73C292.83,522.73 292.07,522.73 292.07,522.73C292.07,522.73 291.99,522.65 291.99,522.65C291.99,522.65 291.3,521.96 291.3,521.96C291.3,521.96 291.23,521.88 291.23,521.88C291.23,521.88 290.54,521.19 290.54,521.19C290.54,521.19 290.46,521.12 290.46,521.12C290.46,521.12 289.77,520.43 289.77,520.43C289.77,520.43 289.7,520.35 289.7,520.35C289.7,520.35 289.7,519.59 289.7,519.59C289.7,519.59 289.01,518.9 289.01,518.9C289.01,518.9 288.93,518.82 288.93,518.82C288.93,518.82 288.93,518.06 288.93,518.06C288.93,518.06 288.93,517.29 288.93,517.29C288.93,517.29 288.93,516.52 288.93,516.52Q288.93,516.52 288.24,515.84L288.24,515.68Q288.93,514.99 288.93,514.99C288.93,514.99 288.93,514.23 288.93,514.23C288.93,514.23 288.93,513.46 288.93,513.46C288.93,513.46 288.93,512.7 288.93,512.7C288.93,512.7 289.01,512.62 289.01,512.62C289.01,512.62 289.7,511.93 289.7,511.93C289.7,511.93 289.7,511.17 289.7,511.17C289.7,511.17 289.77,511.09 289.77,511.09C289.77,511.09 290.46,510.4 290.46,510.4C290.46,510.4 290.54,510.32 290.54,510.32C290.54,510.32 291.23,509.63 291.23,509.63C291.23,509.63 291.3,509.56 291.3,509.56C291.3,509.56 291.99,508.87 291.99,508.87C291.99,508.87 292.07,508.79 292.07,508.79C292.07,508.79 292.83,508.79 292.83,508.79C292.83,508.79 293.52,508.1 293.52,508.1C293.52,508.1 293.6,508.03 293.6,508.03C293.6,508.03 294.36,508.03 294.36,508.03C294.36,508.03 295.13,508.03 295.13,508.03C295.13,508.03 295.9,508.03 295.9,508.03Q295.9,508.03 296.58,507.34L296.74,507.34Q297.43,508.03 297.43,508.03C297.43,508.03 298.19,508.03 298.19,508.03C298.19,508.03 298.96,508.03 298.96,508.03C298.96,508.03 299.72,508.03 299.72,508.03C299.72,508.03 299.8,508.1 299.8,508.1C299.8,508.1 300.49,508.79 300.49,508.79C300.49,508.79 301.25,508.79 301.25,508.79C301.25,508.79 301.33,508.87 301.33,508.87C301.33,508.87 302.02,509.56 302.02,509.56C302.02,509.56 302.1,509.63 302.1,509.63C302.1,509.63 302.79,510.32 302.79,510.32C302.79,510.32 302.86,510.4 302.86,510.4C302.86,510.4 303.55,511.09 303.55,511.09C303.55,511.09 303.63,511.17 303.63,511.17C303.63,511.17 303.63,511.93 303.63,511.93C303.63,511.93 304.32,512.62 304.32,512.62C304.32,512.62 304.39,512.7 304.39,512.7C304.39,512.7 304.39,513.46 304.39,513.46C304.39,513.46 304.39,514.23 304.39,514.23C304.39,514.23 304.39,514.99 304.39,514.99Q304.39,514.99 305.08,515.68L305.08,515.84Q304.39,516.52 304.39,516.52C304.39,516.52 304.39,517.29 304.39,517.29C304.39,517.29 304.39,518.06 304.39,518.06C304.39,518.06 304.39,518.82 304.39,518.82C304.39,518.82 304.32,518.9 304.32,518.9C304.32,518.9 303.63,519.59 303.63,519.59C303.63,519.59 303.63,520.35 303.63,520.35C303.63,520.35 303.55,520.43 303.55,520.43C303.55,520.43 302.86,521.12 302.86,521.12C302.86,521.12 302.79,521.19 302.79,521.19C302.79,521.19 302.1,521.88 302.1,521.88C302.1,521.88 302.02,521.96 302.02,521.96C302.02,521.96 301.33,522.65 301.33,522.65C301.33,522.65 301.25,522.73 301.25,522.73C301.25,522.73 300.49,522.73 300.49,522.73C300.49,522.73 299.8,523.41 299.8,523.41C299.8,523.41 299.72,523.49 299.72,523.49C299.72,523.49 298.96,523.49 298.96,523.49C298.96,523.49 298.19,523.49 298.19,523.49C298.19,523.49 297.43,523.49 297.43,523.49Q297.43,523.49 296.74,524.18Z"/></clipPath><clipPath class="contourclip" id="clipca3899"><path d="M539.95,557.58Q539.26,556.89 539.26,556.89C539.26,556.89 538.49,556.89 538.49,556.89C538.49,556.89 537.73,556.89 537.73,556.89C537.73,556.89 536.96,556.89 536.96,556.89C536.96,556.89 536.89,556.82 536.89,556.82C536.89,556.82 536.2,556.13 536.2,556.13C536.2,556.13 535.43,556.13 535.43,556.13C535.43,556.13 535.35,556.05 535.35,556.05C535.35,556.05 534.67,555.36 534.67,555.36C534.67,555.36 534.59,555.29 534.59,555.29C534.59,555.29 533.9,554.6 533.9,554.6C533.9,554.6 533.82,554.52 533.82,554.52C533.82,554.52 533.13,553.83 533.13,553.83C533.13,553.83 533.06,553.75 533.06,553.75C533.06,553.75 533.06,552.99 533.06,552.99C533.06,552.99 532.37,552.3 532.37,552.3C532.37,552.3 532.29,552.22 532.29,552.22C532.29,552.22 532.29,551.46 532.29,551.46C532.29,551.46 532.29,550.69 532.29,550.69C532.29,550.69 532.29,549.93 532.29,549.93Q532.29,549.93 531.6,549.24L531.6,549.09Q532.29,548.4 532.29,548.4C532.29,548.4 532.29,547.63 532.29,547.63C532.29,547.63 532.29,546.86 532.29,546.86C532.29,546.86 532.29,546.1 532.29,546.1C532.29,546.1 532.37,546.02 532.37,546.02C532.37,546.02 533.06,545.33 533.06,545.33C533.06,545.33 533.06,544.57 533.06,544.57C533.06,544.57 533.13,544.49 533.13,544.49C533.13,544.49 533.82,543.8 533.82,543.8C533.82,543.8 533.9,543.73 533.9,543.73C533.9,543.73 534.59,543.04 534.59,543.04C534.59,543.04 534.67,542.96 534.67,542.96C534.67,542.96 535.35,542.27 535.35,542.27C535.35,542.27 535.43,542.2 535.43,542.2C535.43,542.2 536.2,542.2 536.2,542.2C536.2,542.2 536.89,541.51 536.89,541.51C536.89,541.51 536.96,541.43 536.96,541.43C536.96,541.43 537.73,541.43 537.73,541.43C537.73,541.43 538.49,541.43 538.49,541.43C538.49,541.43 539.26,541.43 539.26,541.43Q539.26,541.43 539.95,540.74L540.1,540.74Q540.79,541.43 540.79,541.43C540.79,541.43 541.56,541.43 541.56,541.43C541.56,541.43 542.32,541.43 542.32,541.43C542.32,541.43 543.09,541.43 543.09,541.43C543.09,541.43 543.16,541.51 543.16,541.51C543.16,541.51 543.85,542.2 543.85,542.2C543.85,542.2 544.62,542.2 544.62,542.2C544.62,542.2 544.69,542.27 544.69,542.27C544.69,542.27 545.38,542.96 545.38,542.96C545.38,542.96 545.46,543.04 545.46,543.04C545.46,543.04 546.15,543.73 546.15,543.73C546.15,543.73 546.23,543.8 546.23,543.8C546.23,543.8 546.91,544.49 546.91,544.49C546.91,544.49 546.99,544.57 546.99,544.57C546.99,544.57 546.99,545.33 546.99,545.33C546.99,545.33 547.68,546.02 547.68,546.02C547.68,546.02 547.76,546.1 547.76,546.1C547.76,546.1 547.76,546.86 547.76,546.86C547.76,546.86 547.76,547.63 547.76,547.63C547.76,547.63 547.76,548.4 547.76,548.4Q547.76,548.4 548.45,549.09L548.45,549.24Q547.76,549.93 547.76,549.93C547.76,549.93 547.76,550.69 547.76,550.69C547.76,550.69 547.76,551.46 547.76,551.46C547.76,551.46 547.76,552.22 547.76,552.22C547.76,552.22 547.68,552.3 547.68,552.3C547.68,552.3 546.99,552.99 546.99,552.99C546.99,552.99 546.99,553.75 546.99,553.75C546.99,553.75 546.91,553.83 546.91,553.83C546.91,553.83 546.23,554.52 546.23,554.52C546.23,554.52 546.15,554.6 546.15,554.6C546.15,554.6 545.46,555.29 545.46,555.29C545.46,555.29 545.38,555.36 545.38,555.36C545.38,555.36 544.69,556.05 544.69,556.05C544.69,556.05 544.62,556.13 544.62,556.13C544.62,556.13 543.85,556.13 543.85,556.13C543.85,556.13 543.16,556.82 543.16,556.82C543.16,556.82 543.09,556.89 543.09,556.89C543.09,556.89 542.32,556.89 542.32,556.89C542.32,556.89 541.56,556.89 541.56,556.89C541.56,556.89 540.79,556.89 540.79,556.89Q540.79,556.89 540.1,557.58Z"/></clipPath><clipPath class="contourclip" id="clip9f1dd7"><path d="M683.1,474.08Q682.41,473.39 682.41,473.39C682.41,473.39 681.65,473.39 681.65,473.39C681.65,473.39 680.88,473.39 680.88,473.39C680.88,473.39 680.12,473.39 680.12,473.39C680.12,473.39 680.04,473.31 680.04,473.31C680.04,473.31 679.35,472.62 679.35,472.62C679.35,472.62 678.59,472.62 678.59,472.62C678.59,472.62 678.51,472.54 678.51,472.54C678.51,472.54 677.82,471.86 677.82,471.86C677.82,471.86 677.74,471.78 677.74,471.78C677.74,471.78 677.05,471.09 677.05,471.09C677.05,471.09 676.98,471.01 676.98,471.01C676.98,471.01 676.29,470.32 676.29,470.32C676.29,470.32 676.21,470.25 676.21,470.25C676.21,470.25 676.21,469.48 676.21,469.48C676.21,469.48 675.52,468.79 675.52,468.79C675.52,468.79 675.45,468.72 675.45,468.72C675.45,468.72 675.45,467.95 675.45,467.95C675.45,467.95 675.45,467.19 675.45,467.19C675.45,467.19 675.45,466.42 675.45,466.42Q675.45,466.42 674.76,465.73L674.76,465.58Q675.45,464.89 675.45,464.89C675.45,464.89 675.45,464.12 675.45,464.12C675.45,464.12 675.45,463.36 675.45,463.36C675.45,463.36 675.45,462.59 675.45,462.59C675.45,462.59 675.52,462.52 675.52,462.52C675.52,462.52 676.21,461.83 676.21,461.83C676.21,461.83 676.21,461.06 676.21,461.06C676.21,461.06 676.29,460.98 676.29,460.98C676.29,460.98 676.98,460.3 676.98,460.3C676.98,460.3 677.05,460.22 677.05,460.22C677.05,460.22 677.74,459.53 677.74,459.53C677.74,459.53 677.82,459.45 677.82,459.45C677.82,459.45 678.51,458.76 678.51,458.76C678.51,458.76 678.59,458.69 678.59,458.69C678.59,458.69 679.35,458.69 679.35,458.69C679.35,458.69 680.04,458 680.04,458C680.04,458 680.12,457.92 680.12,457.92C680.12,457.92 680.88,457.92 680.88,457.92C680.88,457.92 681.65,457.92 681.65,457.92C681.65,457.92 682.41,457.92 682.41,457.92Q682.41,457.92 683.1,457.23L683.26,457.23Q683.94,457.92 683.94,457.92C683.94,457.92 684.71,457.92 684.71,457.92C684.71,457.92 685.48,457.92 685.48,457.92C685.48,457.92 686.24,457.92 686.24,457.92C686.24,457.92 686.32,458 686.32,458C686.32,458 687.01,458.69 687.01,458.69C687.01,458.69 687.77,458.69 687.77,458.69C687.77,458.69 687.85,458.76 687.85,458.76C687.85,458.76 688.54,459.45 688.54,459.45C688.54,459.45 688.61,459.53 688.61,459.53C688.61,459.53 689.3,460.22 689.3,460.22C689.3,460.22 689.38,460.3 689.38,460.3C689.38,460.3 690.07,460.98 690.07,460.98C690.07,460.98 690.15,461.06 690.15,461.06C690.15,461.06 690.15,461.83 690.15,461.83C690.15,461.83 690.83,462.52 690.83,462.52C690.83,462.52 690.91,462.59 690.91,462.59C690.91,462.59 690.91,463.36 690.91,463.36C690.91,463.36 690.91,464.12 690.91,464.12C690.91,464.12 690.91,464.89 690.91,464.89Q690.91,464.89 691.6,465.58L691.6,465.73Q690.91,466.42 690.91,466.42C690.91,466.42 690.91,467.19 690.91,467.19C690.91,467.19 690.91,467.95 690.91,467.95C690.91,467.95 690.91,468.72 690.91,468.72C690.91,468.72 690.83,468.79 690.83,468.79C690.83,468.79 690.15,469.48 690.15,469.48C690.15,469.48 690.15,470.25 690.15,470.25C690.15,470.25 690.07,470.32 690.07,470.32C690.07,470.32 689.38,471.01 689.38,471.01C689.38,471.01 689.3,471.09 689.3,471.09C689.3,471.09 688.61,471.78 688.61,471.78C688.61,471.78 688.54,471.86 688.54,471.86C688.54,471.86 687.85,472.54 687.85,472.54C687.85,472.54 687.77,472.62 687.77,472.62C687.77,472.62 687.01,472.62 687.01,472.62C687.01,472.62 686.32,473.31 686.32,473.31C686.32,473.31 686.24,473.39 686.24,473.39C686.24,473.39 685.48,473.39 685.48,473.39C685.48,473.39 684.71,473.39 684.71,473.39C684.71,473.39 683.94,473.39 683.94,473.39Q683.94,473.39 683.26,474.08Z"/></clipPath><clipPath class="contourclip" id="clip22603c"><path d="M468.37,366.71Q467.68,366.02 467.68,366.02C467.68,366.02 466.92,366.02 466.92,366.02C466.92,366.02 466.15,366.02 466.15,366.02C466.15,366.02 465.39,366.02 465.39,366.02C465.39,366.02 465.31,365.94 465.31,365.94C465.31,365.94 464.62,365.25 464.62,365.25C464.62,365.25 463.85,365.25 463.85,365.25C463.85,365.25 463.78,365.18 463.78,365.18C463.78,365.18 463.09,364.49 463.09,364.49C463.09,364.49 463.01,364.41 463.01,364.41C463.01,364.41 462.32,363.72 462.32,363.72C462.32,363.72 462.25,363.65 462.25,363.65C462.25,363.65 461.56,362.96 461.56,362.96C461.56,362.96 461.48,362.88 461.48,362.88C461.48,362.88 461.48,362.12 461.48,362.12C461.48,362.12 460.79,361.43 460.79,361.43C460.79,361.43 460.72,361.35 460.72,361.35C460.72,361.35 460.72,360.59 460.72,360.59C460.72,360.59 460.72,359.82 460.72,359.82C460.72,359.82 460.72,359.05 460.72,359.05Q460.72,359.05 460.03,358.37L460.03,358.21Q460.72,357.52 460.72,357.52C460.72,357.52 460.72,356.76 460.72,356.76C460.72,356.76 460.72,355.99 460.72,355.99C460.72,355.99 460.72,355.23 460.72,355.23C460.72,355.23 460.79,355.15 460.79,355.15C460.79,355.15 461.48,354.46 461.48,354.46C461.48,354.46 461.48,353.7 461.48,353.7C461.48,353.7 461.56,353.62 461.56,353.62C461.56,353.62 462.25,352.93 462.25,352.93C462.25,352.93 462.32,352.85 462.32,352.85C462.32,352.85 463.01,352.16 463.01,352.16C463.01,352.16 463.09,352.09 463.09,352.09C463.09,352.09 463.78,351.4 463.78,351.4C463.78,351.4 463.85,351.32 463.85,351.32C463.85,351.32 464.62,351.32 464.62,351.32C464.62,351.32 465.31,350.63 465.31,350.63C465.31,350.63 465.39,350.56 465.39,350.56C465.39,350.56 466.15,350.56 466.15,350.56C466.15,350.56 466.92,350.56 466.92,350.56C466.92,350.56 467.68,350.56 467.68,350.56Q467.68,350.56 468.37,349.87L468.52,349.87Q469.21,350.56 469.21,350.56C469.21,350.56 469.98,350.56 469.98,350.56C469.98,350.56 470.74,350.56 470.74,350.56C470.74,350.56 471.51,350.56 471.51,350.56C471.51,350.56 471.59,350.63 471.59,350.63C471.59,350.63 472.27,351.32 472.27,351.32C472.27,351.32 473.04,351.32 473.04,351.32C473.04,351.32 473.12,351.4 473.12,351.4C473.12,351.4 473.81,352.09 473.81,352.09C473.81,352.09 473.88,352.16 473.88,352.16C473.88,352.16 474.57,352.85 474.57,352.85C474.57,352.85 474.65,352.93 474.65,352.93C474.65,352.93 475.34,353.62 475.34,353.62C475.34,353.62 475.41,353.7 475.41,353.7C475.41,353.7 475.41,354.46 475.41,354.46C475.41,354.46 476.1,355.15 476.1,355.15C476.1,355.15 476.18,355.23 476.18,355.23C476.18,355.23 476.18,355.99 476.18,355.99C476.18,355.99 476.18,356.76 476.18,356.76C476.18,356.76 476.18,357.52 476.18,357.52Q476.18,357.52 476.87,358.21L476.87,358.37Q476.18,359.05 476.18,359.05C476.18,359.05 476.18,359.82 476.18,359.82C476.18,359.82 476.18,360.59 476.18,360.59C476.18,360.59 476.18,361.35 476.18,361.35C476.18,361.35 476.1,361.43 476.1,361.43C476.1,361.43 475.41,362.12 475.41,362.12C475.41,362.12 475.41,362.88 475.41,362.88C475.41,362.88 475.34,362.96 475.34,362.96C475.34,362.96 474.65,363.65 474.65,363.65C474.65,363.65 474.57,363.72 474.57,363.72C474.57,363.72 473.88,364.41 473.88,364.41C473.88,364.41 473.81,364.49 473.81,364.49C473.81,364.49 473.12,365.18 473.12,365.18C473.12,365.18 473.04,365.25 473.04,365.25C473.04,365.25 472.27,365.25 472.27,365.25C472.27,365.25 471.59,365.94 471.59,365.94C471.59,365.94 471.51,366.02 471.51,366.02C471.51,366.02 470.74,366.02 470.74,366.02C470.74,366.02 469.98,366.02 469.98,366.02C469.98,366.02 469.21,366.02 469.21,366.02Q469.21,366.02 468.52,366.71Z"/></clipPath><clipPath class="contourclip" id="clip141c1a"><path d="M611.53,151.98Q610.84,151.29 610.84,151.29C610.84,151.29 610.07,151.29 610.07,151.29C610.07,151.29 609.31,151.29 609.31,151.29C609.31,151.29 608.54,151.29 608.54,151.29C608.54,151.29 608.46,151.21 608.46,151.21C608.46,151.21 607.77,150.52 607.77,150.52C607.77,150.52 607.01,150.52 607.01,150.52C607.01,150.52 606.93,150.45 606.93,150.45C606.93,150.45 606.24,149.76 606.24,149.76C606.24,149.76 606.17,149.68 606.17,149.68C606.17,149.68 605.48,148.99 605.48,148.99C605.48,148.99 605.4,148.92 605.4,148.92C605.4,148.92 604.71,148.23 604.71,148.23C604.71,148.23 604.64,148.15 604.64,148.15C604.64,148.15 604.64,147.38 604.64,147.38C604.64,147.38 603.95,146.7 603.95,146.7C603.95,146.7 603.87,146.62 603.87,146.62C603.87,146.62 603.87,145.85 603.87,145.85C603.87,145.85 603.87,145.09 603.87,145.09C603.87,145.09 603.87,144.32 603.87,144.32Q603.87,144.32 603.18,143.63L603.18,143.48Q603.87,142.79 603.87,142.79C603.87,142.79 603.87,142.03 603.87,142.03C603.87,142.03 603.87,141.26 603.87,141.26C603.87,141.26 603.87,140.49 603.87,140.49C603.87,140.49 603.95,140.42 603.95,140.42C603.95,140.42 604.64,139.73 604.64,139.73C604.64,139.73 604.64,138.96 604.64,138.96C604.64,138.96 604.71,138.89 604.71,138.89C604.71,138.89 605.4,138.2 605.4,138.2C605.4,138.2 605.48,138.12 605.48,138.12C605.48,138.12 606.17,137.43 606.17,137.43C606.17,137.43 606.24,137.36 606.24,137.36C606.24,137.36 606.93,136.67 606.93,136.67C606.93,136.67 607.01,136.59 607.01,136.59C607.01,136.59 607.77,136.59 607.77,136.59C607.77,136.59 608.46,135.9 608.46,135.9C608.46,135.9 608.54,135.82 608.54,135.82C608.54,135.82 609.31,135.82 609.31,135.82C609.31,135.82 610.07,135.82 610.07,135.82C610.07,135.82 610.84,135.82 610.84,135.82Q610.84,135.82 611.53,135.14L611.68,135.14Q612.37,135.82 612.37,135.82C612.37,135.82 613.13,135.82 613.13,135.82C613.13,135.82 613.9,135.82 613.9,135.82C613.9,135.82 614.66,135.82 614.66,135.82C614.66,135.82 614.74,135.9 614.74,135.9C614.74,135.9 615.43,136.59 615.43,136.59C615.43,136.59 616.2,136.59 616.2,136.59C616.2,136.59 616.27,136.67 616.27,136.67C616.27,136.67 616.96,137.36 616.96,137.36C616.96,137.36 617.04,137.43 617.04,137.43C617.04,137.43 617.73,138.12 617.73,138.12C617.73,138.12 617.8,138.2 617.8,138.2C617.8,138.2 618.49,138.89 618.49,138.89C618.49,138.89 618.57,138.96 618.57,138.96C618.57,138.96 618.57,139.73 618.57,139.73C618.57,139.73 619.26,140.42 619.26,140.42C619.26,140.42 619.33,140.49 619.33,140.49C619.33,140.49 619.33,141.26 619.33,141.26C619.33,141.26 619.33,142.03 619.33,142.03C619.33,142.03 619.33,142.79 619.33,142.79Q619.33,142.79 620.02,143.48L620.02,143.63Q619.33,144.32 619.33,144.32C619.33,144.32 619.33,145.09 619.33,145.09C619.33,145.09 619.33,145.85 619.33,145.85C619.33,145.85 619.33,146.62 619.33,146.62C619.33,146.62 619.26,146.7 619.26,146.7C619.26,146.7 618.57,147.38 618.57,147.38C618.57,147.38 618.57,148.15 618.57,148.15C618.57,148.15 618.49,148.23 618.49,148.23C618.49,148.23 617.8,148.92 617.8,148.92C617.8,148.92 617.73,148.99 617.73,148.99C617.73,148.99 617.04,149.68 617.04,149.68C617.04,149.68 616.96,149.76 616.96,149.76C616.96,149.76 616.27,150.45 616.27,150.45C616.27,150.45 616.2,150.52 616.2,150.52C616.2,150.52 615.43,150.52 615.43,150.52C615.43,150.52 614.74,151.21 614.74,151.21C614.74,151.21 614.66,151.29 614.66,151.29C614.66,151.29 613.9,151.29 613.9,151.29C613.9,151.29 613.13,151.29 613.13,151.29C613.13,151.29 612.37,151.29 612.37,151.29Q612.37,151.29 611.68,151.98Z"/></clipPath></g><g class="gradients"/><g class="patterns"/></defs><g class="bglayer"/><g class="layer-below"><g class="imagelayer"/><g class="shapelayer"/></g><g class="cartesianlayer"><g class="subplot xy"><g class="layer-subplot"><g class="shapelayer"/><g class="imagelayer"/></g><g class="minor-gridlayer"><g class="x"/><g class="y"/></g><g class="gridlayer"><g class="x"><path class="xgrid crisp" transform="translate(114.56,0)" d="M0,152v645" style="stroke: rgb(211, 211, 211); stroke-opacity: 1; stroke-width: 1px;"/><path class="xgrid crisp" transform="translate(257.72,0)" d="M0,152v645" style="stroke: rgb(211, 211, 211); stroke-opacity: 1; stroke-width: 1px;"/><path class="xgrid crisp" transform="translate(400.87,0)" d="M0,152v645" style="stroke: rgb(211, 211, 211); stroke-opacity: 1; stroke-width: 1px;"/><path class="xgrid crisp" transform="translate(544.02,0)" d="M0,152v645" style="stroke: rgb(211, 211, 211); stroke-opacity: 1; stroke-width: 1px;"/><path class="xgrid crisp" transform="translate(687.18,0)" d="M0,152v645" style="stroke: rgb(211, 211, 211); stroke-opacity: 1; stroke-width: 1px;"/><path class="xgrid crisp" transform="translate(830.33,0)" d="M0,152v645" style="stroke: rgb(211, 211, 211); stroke-opacity: 1; stroke-width: 1px;"/></g><g class="y"><path class="ygrid crisp" transform="translate(0,725.02)" d="M4,0h919" style="stroke: rgb(211, 211, 211); stroke-opacity: 1; stroke-width: 1px;"/><path class="ygrid crisp" transform="translate(0,581.87)" d="M4,0h919" style="stroke: rgb(211, 211, 211); stroke-opacity: 1; stroke-width: 1px;"/><path class="ygrid crisp" transform="translate(0,438.71)" d="M4,0h919" style="stroke: rgb(211, 211, 211); stroke-opacity: 1; stroke-width: 1px;"/><path class="ygrid crisp" transform="translate(0,295.56)" d="M4,0h919" style="stroke: rgb(211, 211, 211); stroke-opacity: 1; stroke-width: 1px;"/></g></g><g class="zerolinelayer"/><g class="layer-between"><g class="shapelayer"/><g class="imagelayer"/></g><path class="xlines-below"/><path class="ylines-below"/><g class="overlines-below"/><g class="xaxislayer-below"/><g class="yaxislayer-below"/><g class="overaxes-below"/><g class="plot" transform="translate(4,152)" clip-path="url(#clip894590xyplot)"><g class="contourlayer mlayer"><g class="contour" clip-path="url(#clipffc9b4)" style="opacity: 1;"><g class="heatmapcoloring"/><g class="contourbg"><path d="M782.12,290.22L798.97,290.22L798.97,307.06L782.12,307.06Z" style="stroke: none; fill: rgb(68, 1, 84);"/></g><g class="contourfill"/><g class="contourlines"><g class="contourlevel"/><g class="contourlevel"/><g class="contourlevel"/><g class="contourlevel"/><g class="contourlevel"/><g class="contourlevel"/><g class="contourlevel"/><g class="contourlevel"/><g class="contourlevel"/><g class="contourlevel"/><g class="contourlevel"/><g class="contourlevel"/><g class="contourlevel"/><g class="contourlevel"/><g class="contourlevel"/><g class="contourlevel"/></g></g><g class="contour" clip-path="url(#clip6f688b)" style="opacity: 1;"><g class="heatmapcoloring"/><g class="contourbg"><path d="M102.14,314.08L118.98,314.08L118.98,330.92L102.14,330.92Z" style="stroke: none; fill: rgb(68, 1, 84);"/></g><g class="contourfill"><path d="M102.14,314.08L118.98,314.08L118.98,330.92L102.14,330.92Z" style="stroke: none; fill: rgb(69, 13, 95);"/><path d="M102.14,314.08L118.98,314.08L118.98,330.92L102.14,330.92Z" style="stroke: none; fill: rgb(72, 36, 116);"/><path d="M102.14,314.08L118.98,314.08L118.98,330.92L102.14,330.92Z" style="stroke: none; fill: rgb(67, 57, 129);"/><path d="M102.14,314.08L118.98,314.08L118.98,330.92L102.14,330.92Z" style="stroke: none; fill: rgb(61, 76, 138);"/><path d="M102.14,314.08L118.98,314.08L118.98,330.92L102.14,330.92Z" style="stroke: none; fill: rgb(53, 95, 141);"/><path d="M102.14,314.08L118.98,314.08L118.98,330.92L102.14,330.92Z" style="stroke: none; fill: rgb(46, 112, 142);"/><path d="M102.14,314.08L118.98,314.08L118.98,330.92L102.14,330.92Z" style="stroke: none; fill: rgb(39, 127, 142);"/><path d="M102.14,314.08L118.98,314.08L118.98,330.92L102.14,330.92Z" style="stroke: none; fill: rgb(35, 144, 140);"/><path d="M102.14,314.08L118.98,314.08L118.98,330.92L102.14,330.92Z" style="stroke: none; fill: rgb(33, 161, 135);"/><path d="M102.14,314.08L118.98,314.08L118.98,330.92L102.14,330.92Z" style="stroke: none; fill: rgb(46, 176, 126);"/><path d="M102.14,314.08L118.98,314.08L118.98,330.92L102.14,330.92Z" style="stroke: none; fill: rgb(70, 190, 111);"/><path d="M102.14,314.08L118.98,314.08L118.98,330.92L102.14,330.92Z" style="stroke: none; fill: rgb(104, 204, 91);"/><path d="M102.14,314.08L118.98,314.08L118.98,330.92L102.14,330.92Z" style="stroke: none; fill: rgb(146, 214, 65);"/><path d="M102.14,314.08L118.98,314.08L118.98,330.92L102.14,330.92Z" style="stroke: none; fill: rgb(188, 223, 42);"/><path d="M102.14,314.08L118.98,314.08L118.98,330.92L102.14,330.92Z" style="stroke: none; fill: rgb(231, 228, 39);"/><path d="M102.14,314.08L118.98,314.08L118.98,330.92L102.14,330.92Z" style="stroke: none; fill: rgb(253, 231, 37);"/></g><g class="contourlines"><g class="contourlevel"/><g class="contourlevel"/><g class="contourlevel"/><g class="contourlevel"/><g class="contourlevel"/><g class="contourlevel"/><g class="contourlevel"/><g class="contourlevel"/><g class="contourlevel"/><g class="contourlevel"/><g class="contourlevel"/><g class="contourlevel"/><g class="contourlevel"/><g class="contourlevel"/><g class="contourlevel"/><g class="contourlevel"/></g></g><g class="contour" clip-path="url(#clipf6b260)" style="opacity: 1;"><g class="heatmapcoloring"/><g class="contourbg"><path d="M263.19,242.5L280.03,242.5L280.03,259.34L263.19,259.34Z" style="stroke: none; fill: rgb(68, 1, 84);"/></g><g class="contourfill"><path d="M263.19,242.5L280.03,242.5L280.03,259.34L263.19,259.34Z" style="stroke: none; fill: rgb(69, 13, 95);"/><path d="M263.19,242.5L280.03,242.5L280.03,259.34L263.19,259.34Z" style="stroke: none; fill: rgb(72, 36, 116);"/><path d="M263.19,242.5L280.03,242.5L280.03,259.34L263.19,259.34Z" style="stroke: none; fill: rgb(67, 57, 129);"/><path d="M263.19,242.5L280.03,242.5L280.03,259.34L263.19,259.34Z" style="stroke: none; fill: rgb(61, 76, 138);"/><path d="M263.19,242.5L280.03,242.5L280.03,259.34L263.19,259.34Z" style="stroke: none; fill: rgb(53, 95, 141);"/><path d="M263.19,242.5L280.03,242.5L280.03,259.34L263.19,259.34Z" style="stroke: none; fill: rgb(46, 112, 142);"/><path d="M263.19,242.5L280.03,242.5L280.03,259.34L263.19,259.34Z" style="stroke: none; fill: rgb(39, 127, 142);"/><path d="M263.19,242.5L280.03,242.5L280.03,259.34L263.19,259.34Z" style="stroke: none; fill: rgb(35, 144, 140);"/><path d="M263.19,242.5L280.03,242.5L280.03,259.34L263.19,259.34Z" style="stroke: none; fill: rgb(33, 161, 135);"/><path d="M263.19,242.5L280.03,242.5L280.03,259.34L263.19,259.34Z" style="stroke: none; fill: rgb(46, 176, 126);"/><path d="M263.19,242.5L280.03,242.5L280.03,259.34L263.19,259.34Z" style="stroke: none; fill: rgb(70, 190, 111);"/><path d="M263.19,242.5L280.03,242.5L280.03,259.34L263.19,259.34Z" style="stroke: none; fill: rgb(104, 204, 91);"/><path d="M263.19,242.5L280.03,242.5L280.03,259.34L263.19,259.34Z" style="stroke: none; fill: rgb(146, 214, 65);"/><path d="M263.19,242.5L280.03,242.5L280.03,259.34L263.19,259.34Z" style="stroke: none; fill: rgb(188, 223, 42);"/></g><g class="contourlines"><g class="contourlevel"/><g class="contourlevel"/><g class="contourlevel"/><g class="contourlevel"/><g class="contourlevel"/><g class="contourlevel"/><g class="contourlevel"/><g class="contourlevel"/><g class="contourlevel"/><g class="contourlevel"/><g class="contourlevel"/><g class="contourlevel"/><g class="contourlevel"/><g class="contourlevel"/><g class="contourlevel"/><g class="contourlevel"/></g></g><g class="contour" clip-path="url(#clip211bf7)" style="opacity: 1;"><g class="heatmapcoloring"/><g class="contourbg"><path d="M298.98,99.35L315.82,99.35L315.82,116.19L298.98,116.19Z" style="stroke: none; fill: rgb(68, 1, 84);"/></g><g class="contourfill"><path d="M298.98,99.35L315.82,99.35L315.82,116.19L298.98,116.19Z" style="stroke: none; fill: rgb(69, 13, 95);"/><path d="M298.98,99.35L315.82,99.35L315.82,116.19L298.98,116.19Z" style="stroke: none; fill: rgb(72, 36, 116);"/><path d="M298.98,99.35L315.82,99.35L315.82,116.19L298.98,116.19Z" style="stroke: none; fill: rgb(67, 57, 129);"/><path d="M298.98,99.35L315.82,99.35L315.82,116.19L298.98,116.19Z" style="stroke: none; fill: rgb(61, 76, 138);"/><path d="M298.98,99.35L315.82,99.35L315.82,116.19L298.98,116.19Z" style="stroke: none; fill: rgb(53, 95, 141);"/><path d="M298.98,99.35L315.82,99.35L315.82,116.19L298.98,116.19Z" style="stroke: none; fill: rgb(46, 112, 142);"/><path d="M298.98,99.35L315.82,99.35L315.82,116.19L298.98,116.19Z" style="stroke: none; fill: rgb(39, 127, 142);"/><path d="M298.98,99.35L315.82,99.35L315.82,116.19L298.98,116.19Z" style="stroke: none; fill: rgb(35, 144, 140);"/><path d="M298.98,99.35L315.82,99.35L315.82,116.19L298.98,116.19Z" style="stroke: none; fill: rgb(33, 161, 135);"/><path d="M298.98,99.35L315.82,99.35L315.82,116.19L298.98,116.19Z" style="stroke: none; fill: rgb(46, 176, 126);"/><path d="M298.98,99.35L315.82,99.35L315.82,116.19L298.98,116.19Z" style="stroke: none; fill: rgb(70, 190, 111);"/><path d="M298.98,99.35L315.82,99.35L315.82,116.19L298.98,116.19Z" style="stroke: none; fill: rgb(104, 204, 91);"/><path d="M298.98,99.35L315.82,99.35L315.82,116.19L298.98,116.19Z" style="stroke: none; fill: rgb(146, 214, 65);"/><path d="M298.98,99.35L315.82,99.35L315.82,116.19L298.98,116.19Z" style="stroke: none; fill: rgb(188, 223, 42);"/><path d="M298.98,99.35L315.82,99.35L315.82,116.19L298.98,116.19Z" style="stroke: none; fill: rgb(231, 228, 39);"/></g><g class="contourlines"><g class="contourlevel"/><g class="contourlevel"/><g class="contourlevel"/><g class="contourlevel"/><g class="contourlevel"/><g class="contourlevel"/><g class="contourlevel"/><g class="contourlevel"/><g class="contourlevel"/><g class="contourlevel"/><g class="contourlevel"/><g class="contourlevel"/><g class="contourlevel"/><g class="contourlevel"/><g class="contourlevel"/><g class="contourlevel"/></g></g><g class="contour" clip-path="url(#clip569b75)" style="opacity: 1;"><g class="heatmapcoloring"/><g class="contourbg"><path d="M288.24,507.34L305.08,507.34L305.08,524.18L288.24,524.18Z" style="stroke: none; fill: rgb(68, 1, 84);"/></g><g class="contourfill"><path d="M288.24,507.34L305.08,507.34L305.08,524.18L288.24,524.18Z" style="stroke: none; fill: rgb(69, 13, 95);"/><path d="M288.24,507.34L305.08,507.34L305.08,524.18L288.24,524.18Z" style="stroke: none; fill: rgb(72, 36, 116);"/><path d="M288.24,507.34L305.08,507.34L305.08,524.18L288.24,524.18Z" style="stroke: none; fill: rgb(67, 57, 129);"/><path d="M288.24,507.34L305.08,507.34L305.08,524.18L288.24,524.18Z" style="stroke: none; fill: rgb(61, 76, 138);"/><path d="M288.24,507.34L305.08,507.34L305.08,524.18L288.24,524.18Z" style="stroke: none; fill: rgb(53, 95, 141);"/><path d="M288.24,507.34L305.08,507.34L305.08,524.18L288.24,524.18Z" style="stroke: none; fill: rgb(46, 112, 142);"/><path d="M288.24,507.34L305.08,507.34L305.08,524.18L288.24,524.18Z" style="stroke: none; fill: rgb(39, 127, 142);"/><path d="M288.24,507.34L305.08,507.34L305.08,524.18L288.24,524.18Z" style="stroke: none; fill: rgb(35, 144, 140);"/><path d="M288.24,507.34L305.08,507.34L305.08,524.18L288.24,524.18Z" style="stroke: none; fill: rgb(33, 161, 135);"/><path d="M288.24,507.34L305.08,507.34L305.08,524.18L288.24,524.18Z" style="stroke: none; fill: rgb(46, 176, 126);"/><path d="M288.24,507.34L305.08,507.34L305.08,524.18L288.24,524.18Z" style="stroke: none; fill: rgb(70, 190, 111);"/><path d="M288.24,507.34L305.08,507.34L305.08,524.18L288.24,524.18Z" style="stroke: none; fill: rgb(104, 204, 91);"/></g><g class="contourlines"><g class="contourlevel"/><g class="contourlevel"/><g class="contourlevel"/><g class="contourlevel"/><g class="contourlevel"/><g class="contourlevel"/><g class="contourlevel"/><g class="contourlevel"/><g class="contourlevel"/><g class="contourlevel"/><g class="contourlevel"/><g class="contourlevel"/><g class="contourlevel"/><g class="contourlevel"/><g class="contourlevel"/><g class="contourlevel"/></g></g><g class="contour" clip-path="url(#clipca3899)" style="opacity: 1;"><g class="heatmapcoloring"/><g class="contourbg"><path d="M531.6,540.74L548.45,540.74L548.45,557.58L531.6,557.58Z" style="stroke: none; fill: rgb(68, 1, 84);"/></g><g class="contourfill"><path d="M531.6,540.74L548.45,540.74L548.45,557.58L531.6,557.58Z" style="stroke: none; fill: rgb(69, 13, 95);"/><path d="M531.6,540.74L548.45,540.74L548.45,557.58L531.6,557.58Z" style="stroke: none; fill: rgb(72, 36, 116);"/><path d="M531.6,540.74L548.45,540.74L548.45,557.58L531.6,557.58Z" style="stroke: none; fill: rgb(67, 57, 129);"/><path d="M531.6,540.74L548.45,540.74L548.45,557.58L531.6,557.58Z" style="stroke: none; fill: rgb(61, 76, 138);"/><path d="M531.6,540.74L548.45,540.74L548.45,557.58L531.6,557.58Z" style="stroke: none; fill: rgb(53, 95, 141);"/><path d="M531.6,540.74L548.45,540.74L548.45,557.58L531.6,557.58Z" style="stroke: none; fill: rgb(46, 112, 142);"/><path d="M531.6,540.74L548.45,540.74L548.45,557.58L531.6,557.58Z" style="stroke: none; fill: rgb(39, 127, 142);"/></g><g class="contourlines"><g class="contourlevel"/><g class="contourlevel"/><g class="contourlevel"/><g class="contourlevel"/><g class="contourlevel"/><g class="contourlevel"/><g class="contourlevel"/><g class="contourlevel"/><g class="contourlevel"/><g class="contourlevel"/><g class="contourlevel"/><g class="contourlevel"/><g class="contourlevel"/><g class="contourlevel"/><g class="contourlevel"/><g class="contourlevel"/></g></g><g class="contour" clip-path="url(#clip9f1dd7)" style="opacity: 1;"><g class="heatmapcoloring"/><g class="contourbg"><path d="M674.76,457.23L691.6,457.23L691.6,474.08L674.76,474.08Z" style="stroke: none; fill: rgb(68, 1, 84);"/></g><g class="contourfill"><path d="M674.76,457.23L691.6,457.23L691.6,474.08L674.76,474.08Z" style="stroke: none; fill: rgb(69, 13, 95);"/><path d="M674.76,457.23L691.6,457.23L691.6,474.08L674.76,474.08Z" style="stroke: none; fill: rgb(72, 36, 116);"/><path d="M674.76,457.23L691.6,457.23L691.6,474.08L674.76,474.08Z" style="stroke: none; fill: rgb(67, 57, 129);"/><path d="M674.76,457.23L691.6,457.23L691.6,474.08L674.76,474.08Z" style="stroke: none; fill: rgb(61, 76, 138);"/></g><g class="contourlines"><g class="contourlevel"/><g class="contourlevel"/><g class="contourlevel"/><g class="contourlevel"/><g class="contourlevel"/><g class="contourlevel"/><g class="contourlevel"/><g class="contourlevel"/><g class="contourlevel"/><g class="contourlevel"/><g class="contourlevel"/><g class="contourlevel"/><g class="contourlevel"/><g class="contourlevel"/><g class="contourlevel"/><g class="contourlevel"/></g></g><g class="contour" clip-path="url(#clip22603c)" style="opacity: 1;"><g class="heatmapcoloring"/><g class="contourbg"><path d="M460.03,349.87L476.87,349.87L476.87,366.71L460.03,366.71Z" style="stroke: none; fill: rgb(68, 1, 84);"/></g><g class="contourfill"><path d="M460.03,349.87L476.87,349.87L476.87,366.71L460.03,366.71Z" style="stroke: none; fill: rgb(69, 13, 95);"/><path d="M460.03,349.87L476.87,349.87L476.87,366.71L460.03,366.71Z" style="stroke: none; fill: rgb(72, 36, 116);"/><path d="M460.03,349.87L476.87,349.87L476.87,366.71L460.03,366.71Z" style="stroke: none; fill: rgb(67, 57, 129);"/><path d="M460.03,349.87L476.87,349.87L476.87,366.71L460.03,366.71Z" style="stroke: none; fill: rgb(61, 76, 138);"/><path d="M460.03,349.87L476.87,349.87L476.87,366.71L460.03,366.71Z" style="stroke: none; fill: rgb(53, 95, 141);"/><path d="M460.03,349.87L476.87,349.87L476.87,366.71L460.03,366.71Z" style="stroke: none; fill: rgb(46, 112, 142);"/><path d="M460.03,349.87L476.87,349.87L476.87,366.71L460.03,366.71Z" style="stroke: none; fill: rgb(39, 127, 142);"/><path d="M460.03,349.87L476.87,349.87L476.87,366.71L460.03,366.71Z" style="stroke: none; fill: rgb(35, 144, 140);"/><path d="M460.03,349.87L476.87,349.87L476.87,366.71L460.03,366.71Z" style="stroke: none; fill: rgb(33, 161, 135);"/><path d="M460.03,349.87L476.87,349.87L476.87,366.71L460.03,366.71Z" style="stroke: none; fill: rgb(46, 176, 126);"/></g><g class="contourlines"><g class="contourlevel"/><g class="contourlevel"/><g class="contourlevel"/><g class="contourlevel"/><g class="contourlevel"/><g class="contourlevel"/><g class="contourlevel"/><g class="contourlevel"/><g class="contourlevel"/><g class="contourlevel"/><g class="contourlevel"/><g class="contourlevel"/><g class="contourlevel"/><g class="contourlevel"/><g class="contourlevel"/><g class="contourlevel"/></g></g><g class="contour" clip-path="url(#clip141c1a)" style="opacity: 1;"><g class="heatmapcoloring"/><g class="contourbg"><path d="M603.18,135.14L620.02,135.14L620.02,151.98L603.18,151.98Z" style="stroke: none; fill: rgb(68, 1, 84);"/></g><g class="contourfill"><path d="M603.18,135.14L620.02,135.14L620.02,151.98L603.18,151.98Z" style="stroke: none; fill: rgb(69, 13, 95);"/><path d="M603.18,135.14L620.02,135.14L620.02,151.98L603.18,151.98Z" style="stroke: none; fill: rgb(72, 36, 116);"/><path d="M603.18,135.14L620.02,135.14L620.02,151.98L603.18,151.98Z" style="stroke: none; fill: rgb(67, 57, 129);"/><path d="M603.18,135.14L620.02,135.14L620.02,151.98L603.18,151.98Z" style="stroke: none; fill: rgb(61, 76, 138);"/><path d="M603.18,135.14L620.02,135.14L620.02,151.98L603.18,151.98Z" style="stroke: none; fill: rgb(53, 95, 141);"/><path d="M603.18,135.14L620.02,135.14L620.02,151.98L603.18,151.98Z" style="stroke: none; fill: rgb(46, 112, 142);"/></g><g class="contourlines"><g class="contourlevel"/><g class="contourlevel"/><g class="contourlevel"/><g class="contourlevel"/><g class="contourlevel"/><g class="contourlevel"/><g class="contourlevel"/><g class="contourlevel"/><g class="contourlevel"/><g class="contourlevel"/><g class="contourlevel"/><g class="contourlevel"/><g class="contourlevel"/><g class="contourlevel"/><g class="contourlevel"/><g class="contourlevel"/></g></g></g><g class="scatterlayer mlayer"><g class="trace scatter traceeb8c80" style="stroke-miterlimit: 2;"><g class="fills"><g><path class="js-fill" d="M790.55,286.71L790.55,286.71L790.55,290.22L793.99,290.96L794.04,290.98L797.07,293.32L797.11,293.36L798.83,297.13L798.84,297.18L798.6,301.11L798.58,301.16L796.74,304.34L796.71,304.38L793.87,306.38L793.82,306.4L790.2,307.05L790.15,307.05L786.65,306.11L786.6,306.08L784.04,303.98L784,303.94L782.43,300.9L782.42,300.85L782.23,297.28L782.24,297.23L783.64,293.83L783.67,293.78L786.21,291.42L786.25,291.39L790.17,290.23L790.23,290.23L790.55,290.22" style="fill: rgb(0, 0, 0); fill-opacity: 0; stroke-width: 0;"/></g></g><g class="errorbars"/><g class="lines"><path class="js-line" d="M790.55,290.22L793.99,290.96L794.04,290.98L797.07,293.32L797.11,293.36L798.83,297.13L798.84,297.18L798.6,301.11L798.58,301.16L796.74,304.34L796.71,304.38L793.87,306.38L793.82,306.4L790.2,307.05L790.15,307.05L786.65,306.11L786.6,306.08L784.04,303.98L784,303.94L782.43,300.9L782.42,300.85L782.23,297.28L782.24,297.23L783.64,293.83L783.67,293.78L786.21,291.42L786.25,291.39L790.17,290.23L790.23,290.23L790.55,290.22" style="vector-effect: none; fill: none; stroke: rgb(0, 0, 0); stroke-opacity: 1; stroke-width: 3px; opacity: 1;"/></g><g class="points"/><g class="text"/></g><g class="trace scatter trace7356c5" style="stroke-miterlimit: 2;"><g class="fills"><g><path class="js-fill" d="M110.56,286.71L110.56,286.71L110.56,314.08L114,314.82L114.05,314.84L116.63,316.66L116.67,316.7L118.56,319.86L118.57,319.91L118.94,323.36L118.93,323.41L117.77,326.85L117.74,326.89L115.49,329.33L115.45,329.36L112.11,330.78L112.06,330.79L108.18,330.58L108.13,330.56L105.25,329.04L105.21,329L102.99,326.2L102.97,326.15L102.14,322.62L102.14,322.57L102.89,319.02L102.91,318.97L105.23,315.98L105.27,315.95L108.31,314.39L108.36,314.37L110.56,314.08" style="fill: rgb(0, 0, 0); fill-opacity: 0; stroke-width: 0;"/></g></g><g class="errorbars"/><g class="lines"><path class="js-line" d="M110.56,314.08L114,314.82L114.05,314.84L116.63,316.66L116.67,316.7L118.56,319.86L118.57,319.91L118.94,323.36L118.93,323.41L117.77,326.85L117.74,326.89L115.49,329.33L115.45,329.36L112.11,330.78L112.06,330.79L108.18,330.58L108.13,330.56L105.25,329.04L105.21,329L102.99,326.2L102.97,326.15L102.14,322.62L102.14,322.57L102.89,319.02L102.91,318.97L105.23,315.98L105.27,315.95L108.31,314.39L108.36,314.37L110.56,314.08" style="vector-effect: none; fill: none; stroke: rgb(0, 0, 0); stroke-opacity: 1; stroke-width: 3px; opacity: 1;"/></g><g class="points"/><g class="text"/></g><g class="trace scatter trace170711" style="stroke-miterlimit: 2;"><g class="fills"><g><path class="js-fill" d="M271.61,286.71L271.61,286.71L271.61,242.5L275.05,243.24L275.1,243.26L277.97,245.4L278,245.44L279.71,248.63L279.73,248.69L279.92,252.31L279.91,252.36L278.53,255.71L278.5,255.76L275.97,258.13L275.92,258.16L272.69,259.27L272.64,259.28L269.13,258.97L269.08,258.95L266.3,257.46L266.26,257.42L264.04,254.62L264.02,254.57L263.2,251.31L263.2,251.25L263.74,247.93L263.76,247.88L265.76,244.86L265.8,244.82L269.31,242.82L269.36,242.81L271.61,242.5" style="fill: rgb(0, 0, 0); fill-opacity: 0; stroke-width: 0;"/></g></g><g class="errorbars"/><g class="lines"><path class="js-line" d="M271.61,242.5L275.05,243.24L275.1,243.26L277.97,245.4L278,245.44L279.71,248.63L279.73,248.69L279.92,252.31L279.91,252.36L278.53,255.71L278.5,255.76L275.97,258.13L275.92,258.16L272.69,259.27L272.64,259.28L269.13,258.97L269.08,258.95L266.3,257.46L266.26,257.42L264.04,254.62L264.02,254.57L263.2,251.31L263.2,251.25L263.74,247.93L263.76,247.88L265.76,244.86L265.8,244.82L269.31,242.82L269.36,242.81L271.61,242.5" style="vector-effect: none; fill: none; stroke: rgb(0, 0, 0); stroke-opacity: 1; stroke-width: 3px; opacity: 1;"/></g><g class="points"/><g class="text"/></g><g class="trace scatter trace5b80b1" style="stroke-miterlimit: 2;"><g class="fills"><g><path class="js-fill" d="M307.4,286.71L307.4,286.71L307.4,99.35L310.84,100.08L310.89,100.11L313.61,102.09L313.65,102.13L315.38,105.08L315.39,105.13L315.78,108.63L315.77,108.68L314.61,112.12L314.58,112.16L312.33,114.59L312.29,114.62L308.95,116.04L308.9,116.05L305.43,115.96L305.38,115.94L302.09,114.3L302.05,114.27L299.98,111.75L299.95,111.7L298.98,108.1L298.98,108.05L299.73,104.29L299.75,104.24L302.07,101.25L302.11,101.22L305.15,99.65L305.2,99.64L307.4,99.35" style="fill: rgb(0, 0, 0); fill-opacity: 0; stroke-width: 0;"/></g></g><g class="errorbars"/><g class="lines"><path class="js-line" d="M307.4,99.35L310.84,100.08L310.89,100.11L313.61,102.09L313.65,102.13L315.38,105.08L315.39,105.13L315.78,108.63L315.77,108.68L314.61,112.12L314.58,112.16L312.33,114.59L312.29,114.62L308.95,116.04L308.9,116.05L305.43,115.96L305.38,115.94L302.09,114.3L302.05,114.27L299.98,111.75L299.95,111.7L298.98,108.1L298.98,108.05L299.73,104.29L299.75,104.24L302.07,101.25L302.11,101.22L305.15,99.65L305.2,99.64L307.4,99.35" style="vector-effect: none; fill: none; stroke: rgb(0, 0, 0); stroke-opacity: 1; stroke-width: 3px; opacity: 1;"/></g><g class="points"/><g class="text"/></g><g class="trace scatter trace3d95fd" style="stroke-miterlimit: 2;"><g class="fills"><g><path class="js-fill" d="M296.66,286.71L296.66,286.71L296.66,507.34L300.11,508.07L300.15,508.1L302.73,509.92L302.77,509.96L304.66,513.12L304.67,513.17L305.04,516.62L305.03,516.67L303.85,520.15L303.82,520.2L301.02,522.96L300.97,522.99L297.74,524.11L297.69,524.12L293.73,523.65L293.68,523.63L290.95,521.95L290.91,521.91L288.78,518.73L288.76,518.68L288.28,514.93L288.29,514.87L289.49,511.34L289.52,511.3L291.71,508.95L291.75,508.92L295.13,507.48L295.19,507.47L296.66,507.34" style="fill: rgb(0, 0, 0); fill-opacity: 0; stroke-width: 0;"/></g></g><g class="errorbars"/><g class="lines"><path class="js-line" d="M296.66,507.34L300.11,508.07L300.15,508.1L302.73,509.92L302.77,509.96L304.66,513.12L304.67,513.17L305.04,516.62L305.03,516.67L303.85,520.15L303.82,520.2L301.02,522.96L300.97,522.99L297.74,524.11L297.69,524.12L293.73,523.65L293.68,523.63L290.95,521.95L290.91,521.91L288.78,518.73L288.76,518.68L288.28,514.93L288.29,514.87L289.49,511.34L289.52,511.3L291.71,508.95L291.75,508.92L295.13,507.48L295.19,507.47L296.66,507.34" style="vector-effect: none; fill: none; stroke: rgb(0, 0, 0); stroke-opacity: 1; stroke-width: 3px; opacity: 1;"/></g><g class="points"/><g class="text"/></g><g class="trace scatter trace0bbe94" style="stroke-miterlimit: 2;"><g class="fills"><g><path class="js-fill" d="M540.02,286.71L540.02,286.71L540.02,540.74L543.47,541.48L543.52,541.5L546.55,543.84L546.58,543.88L548.22,547.23L548.23,547.28L548.31,550.65L548.3,550.7L546.92,554L546.89,554.04L544.02,556.58L543.97,556.6L540.37,557.58L540.32,557.58L536.56,556.83L536.51,556.81L533.94,554.98L533.9,554.94L532.04,551.83L532.02,551.78L531.64,548.33L531.65,548.28L532.83,544.79L532.85,544.75L535.42,542.11L535.46,542.08L539.18,540.78L539.23,540.78L540.02,540.74" style="fill: rgb(0, 0, 0); fill-opacity: 0; stroke-width: 0;"/></g></g><g class="errorbars"/><g class="lines"><path class="js-line" d="M540.02,540.74L543.47,541.48L543.52,541.5L546.55,543.84L546.58,543.88L548.22,547.23L548.23,547.28L548.31,550.65L548.3,550.7L546.92,554L546.89,554.04L544.02,556.58L543.97,556.6L540.37,557.58L540.32,557.58L536.56,556.83L536.51,556.81L533.94,554.98L533.9,554.94L532.04,551.83L532.02,551.78L531.64,548.33L531.65,548.28L532.83,544.79L532.85,544.75L535.42,542.11L535.46,542.08L539.18,540.78L539.23,540.78L540.02,540.74" style="vector-effect: none; fill: none; stroke: rgb(0, 0, 0); stroke-opacity: 1; stroke-width: 3px; opacity: 1;"/></g><g class="points"/><g class="text"/></g><g class="trace scatter trace36036c" style="stroke-miterlimit: 2;"><g class="fills"><g><path class="js-fill" d="M683.18,286.71L683.18,286.71L683.18,457.23L687.1,458.2L687.15,458.23L689.71,460.33L689.74,460.37L691.38,463.73L691.39,463.78L691.39,467.51L691.38,467.56L689.72,470.96L689.69,471L686.89,473.22L686.84,473.24L683.52,474.07L683.47,474.07L679.71,473.33L679.66,473.31L676.67,471L676.64,470.96L674.99,467.61L674.98,467.56L674.89,464.19L674.9,464.14L676.27,460.84L676.3,460.8L678.84,458.44L678.89,458.41L682.33,457.28L682.39,457.27L683.18,457.23" style="fill: rgb(0, 0, 0); fill-opacity: 0; stroke-width: 0;"/></g></g><g class="errorbars"/><g class="lines"><path class="js-line" d="M683.18,457.23L687.1,458.2L687.15,458.23L689.71,460.33L689.74,460.37L691.38,463.73L691.39,463.78L691.39,467.51L691.38,467.56L689.72,470.96L689.69,471L686.89,473.22L686.84,473.24L683.52,474.07L683.47,474.07L679.71,473.33L679.66,473.31L676.67,471L676.64,470.96L674.99,467.61L674.98,467.56L674.89,464.19L674.9,464.14L676.27,460.84L676.3,460.8L678.84,458.44L678.89,458.41L682.33,457.28L682.39,457.27L683.18,457.23" style="vector-effect: none; fill: none; stroke: rgb(0, 0, 0); stroke-opacity: 1; stroke-width: 3px; opacity: 1;"/></g><g class="points"/><g class="text"/></g><g class="trace scatter trace811809" style="stroke-miterlimit: 2;"><g class="fills"><g><path class="js-fill" d="M468.45,286.71L468.45,286.71L468.45,349.87L471.89,350.6L471.94,350.63L474.66,352.61L474.7,352.65L476.57,356.05L476.58,356.1L476.74,359.78L476.73,359.83L475.37,363.08L475.34,363.12L472.81,365.49L472.76,365.52L469.27,366.67L469.21,366.67L466.02,366.35L465.97,366.34L462.74,364.48L462.7,364.44L460.7,361.6L460.68,361.55L460.03,357.93L460.04,357.88L460.99,354.38L461.01,354.33L463.49,351.48L463.54,351.45L466.92,350.01L466.97,350L468.45,349.87" style="fill: rgb(0, 0, 0); fill-opacity: 0; stroke-width: 0;"/></g></g><g class="errorbars"/><g class="lines"><path class="js-line" d="M468.45,349.87L471.89,350.6L471.94,350.63L474.66,352.61L474.7,352.65L476.57,356.05L476.58,356.1L476.74,359.78L476.73,359.83L475.37,363.08L475.34,363.12L472.81,365.49L472.76,365.52L469.27,366.67L469.21,366.67L466.02,366.35L465.97,366.34L462.74,364.48L462.7,364.44L460.7,361.6L460.68,361.55L460.03,357.93L460.04,357.88L460.99,354.38L461.01,354.33L463.49,351.48L463.54,351.45L466.92,350.01L466.97,350L468.45,349.87" style="vector-effect: none; fill: none; stroke: rgb(0, 0, 0); stroke-opacity: 1; stroke-width: 3px; opacity: 1;"/></g><g class="points"/><g class="text"/></g><g class="trace scatter trace5a4c74" style="stroke-miterlimit: 2;"><g class="fills"><g><path class="js-fill" d="M611.6,286.71L611.6,286.71L611.6,135.14L615.09,135.89L615.14,135.92L617.67,137.72L617.71,137.76L619.47,140.56L619.49,140.61L620.02,143.89L620.01,143.94L619.26,147.06L619.24,147.11L616.95,150.06L616.91,150.09L613.88,151.66L613.83,151.68L610.15,151.85L610.1,151.84L606.8,150.47L606.76,150.44L604.39,147.9L604.36,147.86L603.22,144.36L603.21,144.31L603.71,140.61L603.73,140.56L605.91,137.35L605.95,137.31L609.35,135.44L609.4,135.43L611.6,135.14" style="fill: rgb(0, 0, 0); fill-opacity: 0; stroke-width: 0;"/></g></g><g class="errorbars"/><g class="lines"><path class="js-line" d="M611.6,135.14L615.09,135.89L615.14,135.92L617.67,137.72L617.71,137.76L619.47,140.56L619.49,140.61L620.02,143.89L620.01,143.94L619.26,147.06L619.24,147.11L616.95,150.06L616.91,150.09L613.88,151.66L613.83,151.68L610.15,151.85L610.1,151.84L606.8,150.47L606.76,150.44L604.39,147.9L604.36,147.86L603.22,144.36L603.21,144.31L603.71,140.61L603.73,140.56L605.91,137.35L605.95,137.31L609.35,135.44L609.4,135.43L611.6,135.14" style="vector-effect: none; fill: none; stroke: rgb(0, 0, 0); stroke-opacity: 1; stroke-width: 3px; opacity: 1;"/></g><g class="points"/><g class="text"/></g><g class="trace scatter traceac8e04" style="stroke-miterlimit: 2; opacity: 1;"><g class="fills"/><g class="errorbars"/><g class="lines"><path class="js-line" d="M128.87,314.36L243.19917730020492,263.5479740592536" style="vector-effect: none; fill: none; stroke: rgb(204, 204, 204); stroke-opacity: 1; stroke-width: 7px; opacity: 1;"/></g><g class="points"><path class="point" transform="translate(128.87,314.36)" d="M0,0Z" style="opacity: 1; stroke-width: 0px; fill: rgb(204, 204, 204); fill-opacity: 1;"/><path class="point" transform="translate(263.76,254.41)" d="M0,0L-24.86473511457816,2.597103710263344L-18.58945400875838,16.71622564026512Z" style="opacity: 1; stroke-width: 0px; fill: rgb(204, 204, 204); fill-opacity: 1;"/></g><g class="text"/></g><g class="trace scatter tracea5de4c" style="stroke-miterlimit: 2; opacity: 1;"><g class="fills"/><g class="errorbars"/><g class="lines"><path class="js-line" d="M124.1,307.73L286.3863898042319,130.68614593614612" style="vector-effect: none; fill: none; stroke: rgb(204, 204, 204); stroke-opacity: 1; stroke-width: 7px; opacity: 1;"/></g><g class="points"><path class="point" transform="translate(124.1,307.73)" d="M0,0Z" style="opacity: 1; stroke-width: 0px; fill: rgb(204, 204, 204); fill-opacity: 1;"/><path class="point" transform="translate(301.59,114.1)" d="M0,0L-21.761337288107303,12.306266673253536L-10.371849625087254,22.74697200408391Z" style="opacity: 1; stroke-width: 0px; fill: rgb(204, 204, 204); fill-opacity: 1;"/></g><g class="text"/></g><g class="trace scatter trace5171e4" style="stroke-miterlimit: 2; opacity: 1;"><g class="fills"/><g class="errorbars"/><g class="lines"><path class="js-line" d="M124.46,336.94L275.09288162615763,493.36296893120544" style="vector-effect: none; fill: none; stroke: rgb(204, 204, 204); stroke-opacity: 1; stroke-width: 7px; opacity: 1;"/></g><g class="points"><path class="point" transform="translate(124.46,336.94)" d="M0,0Z" style="opacity: 1; stroke-width: 0px; fill: rgb(204, 204, 204); fill-opacity: 1;"/><path class="point" transform="translate(290.7,509.57)" d="M0,0L-10.92765608067035,-22.48524699847854L-22.057156057806328,-11.767831858145218Z" style="opacity: 1; stroke-width: 0px; fill: rgb(204, 204, 204); fill-opacity: 1;"/></g><g class="text"/></g><g class="trace scatter trace021a82" style="stroke-miterlimit: 2; opacity: 1;"><g class="fills"/><g class="errorbars"/><g class="lines"><path class="js-line" d="M289.2,260.52L441.1573496094264,343.4058270596871" style="vector-effect: none; fill: none; stroke: rgb(204, 204, 204); stroke-opacity: 1; stroke-width: 7px; opacity: 1;"/></g><g class="points"><path class="point" transform="translate(289.2,260.52)" d="M0,0Z" style="opacity: 1; stroke-width: 0px; fill: rgb(204, 204, 204); fill-opacity: 1;"/><path class="point" transform="translate(460.91,354.18)" d="M0,0L-17.17416672389522,-18.167223159851652L-24.57261859232701,-4.602870356204368Z" style="opacity: 1; stroke-width: 0px; fill: rgb(204, 204, 204); fill-opacity: 1;"/></g><g class="text"/></g><g class="trace scatter trace623714" style="stroke-miterlimit: 2; opacity: 1;"><g class="fills"/><g class="errorbars"/><g class="lines"><path class="js-line" d="M276.47,231.48L299.85383873432187,137.92842880838916" style="vector-effect: none; fill: none; stroke: rgb(204, 204, 204); stroke-opacity: 1; stroke-width: 7px; opacity: 1;"/></g><g class="points"><path class="point" transform="translate(276.47,231.48)" d="M0,0Z" style="opacity: 1; stroke-width: 0px; fill: rgb(204, 204, 204); fill-opacity: 1;"/><path class="point" transform="translate(305.31,116.1)" d="M0,0L-13.261390153370739,21.19281791551283L1.7281358221446368,24.940199409391663Z" style="opacity: 1; stroke-width: 0px; fill: rgb(204, 204, 204); fill-opacity: 1;"/></g><g class="text"/></g><g class="trace scatter tracefe1522" style="stroke-miterlimit: 2; opacity: 1;"><g class="fills"/><g class="errorbars"/><g class="lines"><path class="js-line" d="M273.5,270.88L293.73160119080234,484.8099467303046" style="vector-effect: none; fill: none; stroke: rgb(204, 204, 204); stroke-opacity: 1; stroke-width: 7px; opacity: 1;"/></g><g class="points"><path class="point" transform="translate(273.5,270.88)" d="M0,0Z" style="opacity: 1; stroke-width: 0px; fill: rgb(204, 204, 204); fill-opacity: 1;"/><path class="point" transform="translate(295.85,507.21)" d="M0,0L5.45226945288476,-24.398212184771648L-9.92993065921613,-22.94333186577659Z" style="opacity: 1; stroke-width: 0px; fill: rgb(204, 204, 204); fill-opacity: 1;"/></g><g class="text"/></g><g class="trace scatter tracead43c9" style="stroke-miterlimit: 2; opacity: 1;"><g class="fills"/><g class="errorbars"/><g class="lines"><path class="js-line" d="M294.77,495.81L274.53830997016877,281.8700616711268" style="vector-effect: none; fill: none; stroke: rgb(204, 204, 204); stroke-opacity: 1; stroke-width: 7px; opacity: 1;"/></g><g class="points"><path class="point" transform="translate(294.77,495.81)" d="M0,0Z" style="opacity: 1; stroke-width: 0px; fill: rgb(204, 204, 204); fill-opacity: 1;"/><path class="point" transform="translate(272.42,259.47)" d="M0,0L-5.45125066690823,24.398439830582046L9.930888681234872,22.942917207733654Z" style="opacity: 1; stroke-width: 0px; fill: rgb(204, 204, 204); fill-opacity: 1;"/></g><g class="text"/></g><g class="trace scatter trace9f8a75" style="stroke-miterlimit: 2; opacity: 1;"><g class="fills"/><g class="errorbars"/><g class="lines"><path class="js-line" d="M318.24,124.63L451.63308093408216,332.13340282978993" style="vector-effect: none; fill: none; stroke: rgb(204, 204, 204); stroke-opacity: 1; stroke-width: 7px; opacity: 1;"/></g><g class="points"><path class="point" transform="translate(318.24,124.63)" d="M0,0Z" style="opacity: 1; stroke-width: 0px; fill: rgb(204, 204, 204); fill-opacity: 1;"/><path class="point" transform="translate(463.8,351.06)" d="M0,0L-6.358922133443931,-24.177760634533477L-19.355807206299424,-15.822538588752662Z" style="opacity: 1; stroke-width: 0px; fill: rgb(204, 204, 204); fill-opacity: 1;"/></g><g class="text"/></g><g class="trace scatter tracefe01e4" style="stroke-miterlimit: 2; opacity: 1;"><g class="fills"/><g class="errorbars"/><g class="lines"><path class="js-line" d="M327.3,110.11L580.7240782177538,139.92135401742007" style="vector-effect: none; fill: none; stroke: rgb(204, 204, 204); stroke-opacity: 1; stroke-width: 7px; opacity: 1;"/></g><g class="points"><path class="point" transform="translate(327.3,110.11)" d="M0,0Z" style="opacity: 1; stroke-width: 0px; fill: rgb(204, 204, 204); fill-opacity: 1;"/><path class="point" transform="translate(603.07,142.55)" d="M0,0L-22.711085703548466,-10.450195508509704L-24.51612509835166,4.894855479171119Z" style="opacity: 1; stroke-width: 0px; fill: rgb(204, 204, 204); fill-opacity: 1;"/></g><g class="text"/></g><g class="trace scatter trace6c0c23" style="stroke-miterlimit: 2; opacity: 1;"><g class="fills"/><g class="errorbars"/><g class="lines"><path class="js-line" d="M316.52,518.48L509.2289921976031,544.9304295802384" style="vector-effect: none; fill: none; stroke: rgb(204, 204, 204); stroke-opacity: 1; stroke-width: 7px; opacity: 1;"/></g><g class="points"><path class="point" transform="translate(316.52,518.48)" d="M0,0Z" style="opacity: 1; stroke-width: 0px; fill: rgb(204, 204, 204); fill-opacity: 1;"/><path class="point" transform="translate(531.52,547.99)" d="M0,0L-22.50500594002606,-10.886905328852265L-24.606094659393918,4.420419167109167Z" style="opacity: 1; stroke-width: 0px; fill: rgb(204, 204, 204); fill-opacity: 1;"/></g><g class="text"/></g><g class="trace scatter trace959e7c" style="stroke-miterlimit: 2; opacity: 1;"><g class="fills"/><g class="errorbars"/><g class="lines"><path class="js-line" d="M520.17,546.44L327.4610078023969,519.9895704197615" style="vector-effect: none; fill: none; stroke: rgb(204, 204, 204); stroke-opacity: 1; stroke-width: 7px; opacity: 1;"/></g><g class="points"><path class="point" transform="translate(520.17,546.44)" d="M0,0Z" style="opacity: 1; stroke-width: 0px; fill: rgb(204, 204, 204); fill-opacity: 1;"/><path class="point" transform="translate(305.17,516.93)" d="M0,0L22.50493801452772,10.88704574079971L24.606122238583364,-4.420265645851294Z" style="opacity: 1; stroke-width: 0px; fill: rgb(204, 204, 204); fill-opacity: 1;"/></g><g class="text"/></g><g class="trace scatter trace433bad" style="stroke-miterlimit: 2; opacity: 1;"><g class="fills"/><g class="errorbars"/><g class="lines"><path class="js-line" d="M311.44,502.22L445.5343973713687,379.2942028875288" style="vector-effect: none; fill: none; stroke: rgb(204, 204, 204); stroke-opacity: 1; stroke-width: 7px; opacity: 1;"/></g><g class="points"><path class="point" transform="translate(311.44,502.22)" d="M0,0Z" style="opacity: 1; stroke-width: 0px; fill: rgb(204, 204, 204); fill-opacity: 1;"/><path class="point" transform="translate(462.12,364.09)" d="M0,0L-22.7470789911735,10.37161498366157L-12.306491146396784,21.76121034463978Z" style="opacity: 1; stroke-width: 0px; fill: rgb(204, 204, 204); fill-opacity: 1;"/></g><g class="text"/></g><g class="trace scatter trace2ba1d1" style="stroke-miterlimit: 2; opacity: 1;"><g class="fills"/><g class="errorbars"/><g class="lines"><path class="js-line" d="M557.34,539.06L656.3250937805058,481.31730215877946" style="vector-effect: none; fill: none; stroke: rgb(204, 204, 204); stroke-opacity: 1; stroke-width: 7px; opacity: 1;"/></g><g class="points"><path class="point" transform="translate(557.34,539.06)" d="M0,0Z" style="opacity: 1; stroke-width: 0px; fill: rgb(204, 204, 204); fill-opacity: 1;"/><path class="point" transform="translate(675.76,469.98)" d="M0,0L-24.429904095596505,5.308463608235172L-16.643970963035777,18.65417461539432Z" style="opacity: 1; stroke-width: 0px; fill: rgb(204, 204, 204); fill-opacity: 1;"/></g><g class="text"/></g><g class="trace scatter trace607457" style="stroke-miterlimit: 2; opacity: 1;"><g class="fills"/><g class="errorbars"/><g class="lines"><path class="js-line" d="M694.02,448.8L773.73328883167,324.7967308150783" style="vector-effect: none; fill: none; stroke: rgb(204, 204, 204); stroke-opacity: 1; stroke-width: 7px; opacity: 1;"/></g><g class="points"><path class="point" transform="translate(694.02,448.8)" d="M0,0Z" style="opacity: 1; stroke-width: 0px; fill: rgb(204, 204, 204); fill-opacity: 1;"/><path class="point" transform="translate(785.9,305.87)" d="M0,0L-19.355068384572768,15.823442350781693L-6.3577931961190055,24.178057524858833Z" style="opacity: 1; stroke-width: 0px; fill: rgb(204, 204, 204); fill-opacity: 1;"/></g><g class="text"/></g><g class="trace scatter tracedb45be" style="stroke-miterlimit: 2; opacity: 1;"><g class="fills"/><g class="errorbars"/><g class="lines"><path class="js-line" d="M665.25,456.69L496.2546117974981,372.19230589874905" style="vector-effect: none; fill: none; stroke: rgb(204, 204, 204); stroke-opacity: 1; stroke-width: 7px; opacity: 1;"/></g><g class="points"><path class="point" transform="translate(665.25,456.69)" d="M0,0Z" style="opacity: 1; stroke-width: 0px; fill: rgb(204, 204, 204); fill-opacity: 1;"/><path class="point" transform="translate(476.13,362.13)" d="M0,0L17.8109857578175,17.543340227414564L24.721106826268073,3.723825624843628Z" style="opacity: 1; stroke-width: 0px; fill: rgb(204, 204, 204); fill-opacity: 1;"/></g><g class="text"/></g><g class="trace scatter trace142270" style="stroke-miterlimit: 2; opacity: 1;"><g class="fills"/><g class="errorbars"/><g class="lines"><path class="js-line" d="M486.37,367.25L655.3751753922764,451.74811973295436" style="vector-effect: none; fill: none; stroke: rgb(204, 204, 204); stroke-opacity: 1; stroke-width: 7px; opacity: 1;"/></g><g class="points"><path class="point" transform="translate(486.37,367.25)" d="M0,0Z" style="opacity: 1; stroke-width: 0px; fill: rgb(204, 204, 204); fill-opacity: 1;"/><path class="point" transform="translate(675.5,461.81)" d="M0,0L-17.81172460341496,-17.54259007820972L-24.721263638273008,-3.7227844588426873Z" style="opacity: 1; stroke-width: 0px; fill: rgb(204, 204, 204); fill-opacity: 1;"/></g><g class="text"/></g><g class="trace scatter trace9c1361" style="stroke-miterlimit: 2; opacity: 1;"><g class="fills"/><g class="errorbars"/><g class="lines"><path class="js-line" d="M475.48,377.05L529.109300415632,520.0527518152568" style="vector-effect: none; fill: none; stroke: rgb(204, 204, 204); stroke-opacity: 1; stroke-width: 7px; opacity: 1;"/></g><g class="points"><path class="point" transform="translate(475.48,377.05)" d="M0,0Z" style="opacity: 1; stroke-width: 0px; fill: rgb(204, 204, 204); fill-opacity: 1;"/><path class="point" transform="translate(537.01,541.12)" d="M0,0L-1.1159118095208846,-24.975082398930574L-15.58277672700681,-19.54934959215408Z" style="opacity: 1; stroke-width: 0px; fill: rgb(204, 204, 204); fill-opacity: 1;"/></g><g class="text"/></g><g class="trace scatter trace22ce3e" style="stroke-miterlimit: 2; opacity: 1;"><g class="fills"/><g class="errorbars"/><g class="lines"><path class="js-line" d="M479.56,341.61L594.3587929992428,169.42082989090628" style="vector-effect: none; fill: none; stroke: rgb(204, 204, 204); stroke-opacity: 1; stroke-width: 7px; opacity: 1;"/></g><g class="points"><path class="point" transform="translate(479.56,341.61)" d="M0,0Z" style="opacity: 1; stroke-width: 0px; fill: rgb(204, 204, 204); fill-opacity: 1;"/><path class="point" transform="translate(606.84,150.7)" d="M0,0L-19.616909455606795,15.497640575601325L-6.7611285510326,24.06838467193866Z" style="opacity: 1; stroke-width: 0px; fill: rgb(204, 204, 204); fill-opacity: 1;"/></g><g class="text"/></g><g class="trace scatter tracec45702" style="stroke-miterlimit: 2; opacity: 1;"><g class="fills"/><g class="errorbars"/><g class="lines"><path class="js-line" d="M600.48,160.23L485.6905281140165,332.41871751200676" style="vector-effect: none; fill: none; stroke: rgb(204, 204, 204); stroke-opacity: 1; stroke-width: 7px; opacity: 1;"/></g><g class="points"><path class="point" transform="translate(600.48,160.23)" d="M0,0Z" style="opacity: 1; stroke-width: 0px; fill: rgb(204, 204, 204); fill-opacity: 1;"/><path class="point" transform="translate(473.21,351.14)" d="M0,0L19.616909455606795,-15.497640575601325L6.7611285510326,-24.06838467193866Z" style="opacity: 1; stroke-width: 0px; fill: rgb(204, 204, 204); fill-opacity: 1;"/></g><g class="text"/></g><g class="trace scatter traceb9d2b5" style="stroke-miterlimit: 2; opacity: 1;"><g class="fills"/><g class="errorbars"/><g class="lines"><path class="js-line" d="M626.75,156.68L767.0477089302551,278.283239895429" style="vector-effect: none; fill: none; stroke: rgb(204, 204, 204); stroke-opacity: 1; stroke-width: 7px; opacity: 1;"/></g><g class="points"><path class="point" transform="translate(626.75,156.68)" d="M0,0Z" style="opacity: 1; stroke-width: 0px; fill: rgb(204, 204, 204); fill-opacity: 1;"/><path class="point" transform="translate(784.05,293.02)" d="M0,0L-12.907546269674011,-21.410166960960964L-23.027004676619644,-9.73432358322533Z" style="opacity: 1; stroke-width: 0px; fill: rgb(204, 204, 204); fill-opacity: 1;"/></g><g class="text"/></g><g class="trace scatter trace958fba" style="stroke-miterlimit: 2; opacity: 1;"><g class="fills"/><g class="errorbars"/><g class="lines"><path class="js-line" d="M615.95,163.12L676.4388275125691,435.3058438553186" style="vector-effect: none; fill: none; stroke: rgb(204, 204, 204); stroke-opacity: 1; stroke-width: 7px; opacity: 1;"/></g><g class="points"><path class="point" transform="translate(615.95,163.12)" d="M0,0Z" style="opacity: 1; stroke-width: 0px; fill: rgb(204, 204, 204); fill-opacity: 1;"/><path class="point" transform="translate(681.32,457.27)" d="M0,0L2.3837208369255745,-24.88609802623961L-12.699210740010004,-21.534392180435802Z" style="opacity: 1; stroke-width: 0px; fill: rgb(204, 204, 204); fill-opacity: 1;"/></g><g class="text"/></g><g class="trace scatter trace6bd5a5" style="stroke-miterlimit: 2; opacity: 1;"><g class="fills"/><g class="errorbars"/><g class="lines"/><g class="points"/><g class="text"><g class="textpoint" transform="translate(0,10)"><text x="790.55" y="273.59" text-anchor="middle" style="font-family: 'Open Sans', verdana, arial, sans-serif; font-size: 40px; fill: rgb(42, 63, 95); fill-opacity: 1; white-space: pre;"><tspan style="font-style:italic">t</tspan></text></g></g></g><g class="trace scatter trace76db76" style="stroke-miterlimit: 2; opacity: 1;"><g class="fills"/><g class="errorbars"/><g class="lines"/><g class="points"/><g class="text"><g class="textpoint" transform="translate(0,10)"><text x="110.56" y="-35491.22" text-anchor="middle" style="font-family: 'Open Sans', verdana, arial, sans-serif; font-size: 40px; fill: rgb(42, 63, 95); fill-opacity: 1; white-space: pre;"><tspan style="font-style:italic">s</tspan></text></g></g></g></g></g><g class="overplot"/><path class="xlines-above crisp" d="M3,797.5H924M3,151.5H924" style="fill: none; stroke-width: 1px; stroke: rgb(0, 0, 0); stroke-opacity: 1;"/><path class="ylines-above crisp" d="M3.5,152V797M923.5,152V797" style="fill: none; stroke-width: 1px; stroke: rgb(0, 0, 0); stroke-opacity: 1;"/><g class="overlines-above"/><g class="xaxislayer-above"><g class="xtick"><text text-anchor="middle" x="0" y="799.2" transform="translate(114.56,0)" style="font-family: 'Open Sans', verdana, arial, sans-serif; font-size: 1px; fill: rgb(42, 63, 95); fill-opacity: 1; white-space: pre; opacity: 1;">0</text></g><g class="xtick"><text text-anchor="middle" x="0" y="799.2" style="font-family: 'Open Sans', verdana, arial, sans-serif; font-size: 1px; fill: rgb(42, 63, 95); fill-opacity: 1; white-space: pre; opacity: 1;" transform="translate(257.72,0)">2</text></g><g class="xtick"><text text-anchor="middle" x="0" y="799.2" style="font-family: 'Open Sans', verdana, arial, sans-serif; font-size: 1px; fill: rgb(42, 63, 95); fill-opacity: 1; white-space: pre; opacity: 1;" transform="translate(400.87,0)">4</text></g><g class="xtick"><text text-anchor="middle" x="0" y="799.2" style="font-family: 'Open Sans', verdana, arial, sans-serif; font-size: 1px; fill: rgb(42, 63, 95); fill-opacity: 1; white-space: pre; opacity: 1;" transform="translate(544.02,0)">6</text></g><g class="xtick"><text text-anchor="middle" x="0" y="799.2" style="font-family: 'Open Sans', verdana, arial, sans-serif; font-size: 1px; fill: rgb(42, 63, 95); fill-opacity: 1; white-space: pre; opacity: 1;" transform="translate(687.18,0)">8</text></g><g class="xtick"><text text-anchor="middle" x="0" y="799.2" style="font-family: 'Open Sans', verdana, arial, sans-serif; font-size: 1px; fill: rgb(42, 63, 95); fill-opacity: 1; white-space: pre; opacity: 1;" transform="translate(830.33,0)">10</text></g></g><g class="yaxislayer-above"><g class="ytick"><text text-anchor="end" x="2.8" y="0.35" transform="translate(0,725.02)" style="font-family: 'Open Sans', verdana, arial, sans-serif; font-size: 1px; fill: rgb(42, 63, 95); fill-opacity: 1; white-space: pre; opacity: 1;">4</text></g><g class="ytick"><text text-anchor="end" x="2.8" y="0.35" style="font-family: 'Open Sans', verdana, arial, sans-serif; font-size: 1px; fill: rgb(42, 63, 95); fill-opacity: 1; white-space: pre; opacity: 1;" transform="translate(0,581.87)">2</text></g><g class="ytick"><text text-anchor="end" x="2.8" y="0.35" style="font-family: 'Open Sans', verdana, arial, sans-serif; font-size: 1px; fill: rgb(42, 63, 95); fill-opacity: 1; white-space: pre; opacity: 1;" transform="translate(0,438.71)">0</text></g><g class="ytick"><text text-anchor="end" x="2.8" y="0.35" style="font-family: 'Open Sans', verdana, arial, sans-serif; font-size: 1px; fill: rgb(42, 63, 95); fill-opacity: 1; white-space: pre; opacity: 1;" transform="translate(0,295.56)">2</text></g><g class="ytick"><text text-anchor="end" x="2.8" y="0.35" style="font-family: 'Open Sans', verdana, arial, sans-serif; font-size: 1px; fill: rgb(42, 63, 95); fill-opacity: 1; white-space: pre; opacity: 1;" transform="translate(0,152.4)">4</text></g></g><g class="overaxes-above"/></g></g><g class="polarlayer"/><g class="smithlayer"/><g class="ternarylayer"/><g class="geolayer"/><g class="funnelarealayer"/><g class="pielayer"/><g class="iciclelayer"/><g class="treemaplayer"/><g class="sunburstlayer"/><g class="glimages"/><defs id="topdefs-894590"><g class="clips"/></defs><g class="layer-above"><g class="imagelayer"/><g class="shapelayer"/></g><g class="infolayer"><g class="cb6f688b colorbar" transform="translate(4,72.984375)"><rect class="cbbg" x="9" y="-32" height="79.015625" width="919" style="fill: rgb(0, 0, 0); fill-opacity: 0; stroke: rgb(68, 68, 68); stroke-opacity: 1; stroke-width: 0;"/><g class="cbfills" transform="translate(213,0)"><rect class="cbfill" style="" y="-22" x="0" height="30" width="2" fill="#440154"/><rect class="cbfill" style="" y="-22" x="0" height="30" width="47" fill="#450d5f"/><rect class="cbfill" style="" y="-22" x="47" height="30" width="47" fill="#482474"/><rect class="cbfill" style="" y="-22" x="94" height="30" width="47" fill="#433981"/><rect class="cbfill" style="" y="-22" x="141" height="30" width="47" fill="#3d4c8a"/><rect class="cbfill" style="" y="-22" x="188" height="30" width="47" fill="#355f8d"/><rect class="cbfill" style="" y="-22" x="235" height="30" width="47" fill="#2e708e"/><rect class="cbfill" style="" y="-22" x="282" height="30" width="47" fill="#277f8e"/><rect class="cbfill" style="" y="-22" x="329" height="30" width="47" fill="#23908c"/><rect class="cbfill" style="" y="-22" x="376" height="30" width="47" fill="#21a187"/><rect class="cbfill" style="" y="-22" x="423" height="30" width="47" fill="#2eb07e"/><rect class="cbfill" style="" y="-22" x="470" height="30" width="47" fill="#46be6f"/><rect class="cbfill" style="" y="-22" x="517" height="30" width="48" fill="#68cc5b"/><rect class="cbfill" style="" y="-22" x="565" height="30" width="47" fill="#92d641"/><rect class="cbfill" style="" y="-22" x="612" height="30" width="47" fill="#bcdf2a"/><rect class="cbfill" style="" y="-22" x="659" height="30" width="47" fill="#e7e427"/><rect class="cbfill" style="" y="-22" x="706" height="30" width="2" fill="#fde725"/></g><g class="cblines" transform="translate(213,0)"><path class="cbline" d="M0.25,-22v30" style="fill: none; stroke: rgb(0, 0, 0); stroke-opacity: 1; stroke-width: 0.5px;"/><path class="cbline" d="M47.25,-22v30" style="fill: none; stroke: rgb(0, 0, 0); stroke-opacity: 1; stroke-width: 0.5px;"/><path class="cbline" d="M94.25,-22v30" style="fill: none; stroke: rgb(0, 0, 0); stroke-opacity: 1; stroke-width: 0.5px;"/><path class="cbline" d="M141.25,-22v30" style="fill: none; stroke: rgb(0, 0, 0); stroke-opacity: 1; stroke-width: 0.5px;"/><path class="cbline" d="M188.25,-22v30" style="fill: none; stroke: rgb(0, 0, 0); stroke-opacity: 1; stroke-width: 0.5px;"/><path class="cbline" d="M235.25,-22v30" style="fill: none; stroke: rgb(0, 0, 0); stroke-opacity: 1; stroke-width: 0.5px;"/><path class="cbline" d="M282.25,-22v30" style="fill: none; stroke: rgb(0, 0, 0); stroke-opacity: 1; stroke-width: 0.5px;"/><path class="cbline" d="M329.25,-22v30" style="fill: none; stroke: rgb(0, 0, 0); stroke-opacity: 1; stroke-width: 0.5px;"/><path class="cbline" d="M376.25,-22v30" style="fill: none; stroke: rgb(0, 0, 0); stroke-opacity: 1; stroke-width: 0.5px;"/><path class="cbline" d="M423.25,-22v30" style="fill: none; stroke: rgb(0, 0, 0); stroke-opacity: 1; stroke-width: 0.5px;"/><path class="cbline" d="M470.25,-22v30" style="fill: none; stroke: rgb(0, 0, 0); stroke-opacity: 1; stroke-width: 0.5px;"/><path class="cbline" d="M517.25,-22v30" style="fill: none; stroke: rgb(0, 0, 0); stroke-opacity: 1; stroke-width: 0.5px;"/><path class="cbline" d="M565.25,-22v30" style="fill: none; stroke: rgb(0, 0, 0); stroke-opacity: 1; stroke-width: 0.5px;"/><path class="cbline" d="M612.25,-22v30" style="fill: none; stroke: rgb(0, 0, 0); stroke-opacity: 1; stroke-width: 0.5px;"/><path class="cbline" d="M659.25,-22v30" style="fill: none; stroke: rgb(0, 0, 0); stroke-opacity: 1; stroke-width: 0.5px;"/><path class="cbline" d="M706.25,-22v30" style="fill: none; stroke: rgb(0, 0, 0); stroke-opacity: 1; stroke-width: 0.5px;"/></g><g class="cbaxis crisp" transform="translate(-4,0)"><g class="xcb6f688btick"><text text-anchor="middle" x="0" y="37.3" transform="translate(216.565,0)" style="font-family: 'Open Sans', verdana, arial, sans-serif; font-size: 24px; fill: rgb(42, 63, 95); fill-opacity: 1; white-space: pre; opacity: 1;">0</text></g><g class="xcb6f688btick"><text text-anchor="middle" x="0" y="37.3" style="font-family: 'Open Sans', verdana, arial, sans-serif; font-size: 24px; fill: rgb(42, 63, 95); fill-opacity: 1; white-space: pre; opacity: 1;" transform="translate(334.16499999999996,0)">5</text></g><g class="xcb6f688btick"><text text-anchor="middle" x="0" y="37.3" style="font-family: 'Open Sans', verdana, arial, sans-serif; font-size: 24px; fill: rgb(42, 63, 95); fill-opacity: 1; white-space: pre; opacity: 1;" transform="translate(451.775,0)">10</text></g><g class="xcb6f688btick"><text text-anchor="middle" x="0" y="37.3" style="font-family: 'Open Sans', verdana, arial, sans-serif; font-size: 24px; fill: rgb(42, 63, 95); fill-opacity: 1; white-space: pre; opacity: 1;" transform="translate(569.375,0)">15</text></g><g class="xcb6f688btick"><text text-anchor="middle" x="0" y="37.3" style="font-family: 'Open Sans', verdana, arial, sans-serif; font-size: 24px; fill: rgb(42, 63, 95); fill-opacity: 1; white-space: pre; opacity: 1;" transform="translate(686.985,0)">20</text></g><g class="xcb6f688btick"><text text-anchor="middle" x="0" y="37.3" style="font-family: 'Open Sans', verdana, arial, sans-serif; font-size: 24px; fill: rgb(42, 63, 95); fill-opacity: 1; white-space: pre; opacity: 1;" transform="translate(804.585,0)">25</text></g></g><g class="cbtitleunshift" transform="translate(-4,-152)"><g class="cbtitle" transform=""><text class="xcb6f688btitle" x="23.19000000000001" y="157.49999999999997" text-anchor="middle" style="font-family: 'Open Sans', verdana, arial, sans-serif; font-size: 33px; fill: rgb(42, 63, 95); opacity: 1; white-space: pre;" transform="translate(65.8125,0)">Cost-to-go</text></g></g><rect class="cboutline" x="206.25" y="-22" height="30" width="711.75" style="stroke: rgb(68, 68, 68); stroke-opacity: 1; fill: none; stroke-width: 0;"/></g><g class="g-gtitle"/><g class="g-xtitle"/><g class="g-ytitle"/></g></svg>