<svg class="main-svg" xmlns="http://www.w3.org/2000/svg" xmlns:xlink="http://www.w3.org/1999/xlink" width="1200" height="700" style="" viewBox="0 0 1200 700"><rect x="0" y="0" width="1200" height="700" style="fill: rgb(255, 255, 255); fill-opacity: 1;"/><defs id="defs-4b88c5"><g class="clips"><clipPath id="clip4b88c5xyplot" class="plotclip"><rect width="1034" height="508"/></clipPath><clipPath class="axesclip" id="clip4b88c5x"><rect x="86" y="0" width="1034" height="700"/></clipPath><clipPath class="axesclip" id="clip4b88c5y"><rect x="0" y="108" width="1200" height="508"/></clipPath><clipPath class="axesclip" id="clip4b88c5xy"><rect x="86" y="108" width="1034" height="508"/></clipPath></g><g class="gradients"/><g class="patterns"/></defs><g class="bglayer"/><g class="layer-below"><g class="imagelayer"/><g class="shapelayer"/></g><g class="cartesianlayer"><g class="subplot xy"><g class="layer-subplot"><g class="shapelayer"/><g class="imagelayer"/></g><g class="minor-gridlayer"><g class="x"/><g class="y"/></g><g class="gridlayer"><g class="x"><path class="xgrid crisp" transform="translate(233.71,0)" d="M0,108v508" style="stroke: rgb(211, 211, 211); stroke-opacity: 1; stroke-width: 1px;"/><path class="xgrid crisp" transform="translate(381.43,0)" d="M0,108v508" style="stroke: rgb(211, 211, 211); stroke-opacity: 1; stroke-width: 1px;"/><path class="xgrid crisp" transform="translate(529.14,0)" d="M0,108v508" style="stroke: rgb(211, 211, 211); stroke-opacity: 1; stroke-width: 1px;"/><path class="xgrid crisp" transform="translate(676.86,0)" d="M0,108v508" style="stroke: rgb(211, 211, 211); stroke-opacity: 1; stroke-width: 1px;"/><path class="xgrid crisp" transform="translate(824.57,0)" d="M0,108v508" style="stroke: rgb(211, 211, 211); stroke-opacity: 1; stroke-width: 1px;"/><path class="xgrid crisp" transform="translate(972.29,0)" d="M0,108v508" style="stroke: rgb(211, 211, 211); stroke-opacity: 1; stroke-width: 1px;"/></g><g class="y"><path class="ygrid crisp" transform="translate(0,568.15)" d="M86,0h1034" style="stroke: rgb(211, 211, 211); stroke-opacity: 1; stroke-width: 1px;"/><path class="ygrid crisp" transform="translate(0,473.69)" d="M86,0h1034" style="stroke: rgb(211, 211, 211); stroke-opacity: 1; stroke-width: 1px;"/><path class="ygrid crisp" transform="translate(0,379.22)" d="M86,0h1034" style="stroke: rgb(211, 211, 211); stroke-opacity: 1; stroke-width: 1px;"/><path class="ygrid crisp" transform="translate(0,284.75)" d="M86,0h1034" style="stroke: rgb(211, 211, 211); stroke-opacity: 1; stroke-width: 1px;"/><path class="ygrid crisp" transform="translate(0,190.28)" d="M86,0h1034" style="stroke: rgb(211, 211, 211); stroke-opacity: 1; stroke-width: 1px;"/></g></g><g class="zerolinelayer"/><g class="layer-between"><g class="shapelayer"/><g class="imagelayer"/></g><path class="xlines-below"/><path class="ylines-below"/><g class="overlines-below"/><g class="xaxislayer-below"/><g class="yaxislayer-below"/><g class="overaxes-below"/><g class="plot" transform="translate(86,108)" clip-path="url(#clip4b88c5xyplot)"><g class="scatterlayer mlayer"><g class="trace scatter traceb3f661" style="stroke-miterlimit: 2; opacity: 1;"><g class="fills"/><g class="errorbars"/><g class="lines"><path class="js-line" d="M0,132.96L41.78,176.54L52.22,186.99L94,226.94L104.44,236.48L146.22,272.81L156.67,281.44L198.44,314.15L208.89,321.87L250.67,350.95L261.11,357.77L302.89,383.23L313.33,389.14L355.11,410.97L365.56,415.98L407.33,434.18L417.78,438.28L459.56,452.87L470,456.06L511.78,467.02L522.22,469.3L564,476.63L574.44,478.01L616.22,481.72L626.67,482.2L668.44,482.28L678.89,481.85L720.67,478.3L731.11,476.97L772.89,469.8L783.33,467.55L825.11,456.76L835.56,453.61L877.33,439.19L887.78,435.14L929.56,417.09L940,412.13L981.78,390.46L992.22,384.59L1034,359.3" style="vector-effect: none; fill: none; stroke: rgb(171, 99, 250); stroke-opacity: 1; stroke-width: 5px; opacity: 1;"/></g><g class="points"/><g class="text"/></g><g class="trace scatter traceaeb8ec" style="stroke-miterlimit: 2; opacity: 1;"><g class="fills"/><g class="errorbars"/><g class="lines"><path class="js-line" d="M0,81.64L31.33,123.2L41.78,136.13L73.11,172.11L83.56,183.2L114.89,213.66L125.33,222.89L156.67,247.83L167.11,255.22L198.44,274.64L208.89,280.2L229.78,289.83L240.22,293.52L261.11,298.4L271.56,299.59L292.44,299.45L302.89,298.13L323.78,292.96L334.22,289.13L355.11,278.95L365.56,272.6L386.44,257.4L396.89,248.54L417.78,228.26L428.22,216.72L438.67,204.24L449.11,199.25L470,223L480.44,233.46L501.33,251.53L511.78,259.16L532.67,271.58L543.11,276.37L553.56,284.85L564,298.88L584.89,324.93L595.33,336.94L616.22,358.96L626.67,368.97L647.56,386.94L658,394.7L678.89,407.38L689.33,412.31L710.22,419.33L720.67,421.42L741.56,422.75L752,422L772.89,417.71L783.33,414.13L804.22,404.15L814.67,397.74L835.56,382.08L846,372.84L866.89,351.52L877.33,339.44L898.22,312.45L908.67,297.54L929.56,264.89L940,247.14L960.89,208.82L971.33,188.24L1002.67,120.82L1013.11,96.48L1034,44.92" style="vector-effect: none; fill: none; stroke: rgb(50, 205, 50); stroke-opacity: 1; stroke-width: 5px; opacity: 1;"/></g><g class="points"/><g class="text"/></g><g class="trace scatter tracebc2928" style="stroke-miterlimit: 2; opacity: 1;"><g class="fills"/><g class="errorbars"/><g class="lines"><path class="js-line" d="M0,57.57L10.44,71.43L20.89,109.81L52.22,148.59L62.67,133.64L94,165.32L104.44,174.94L135.78,200.99L146.22,208.74L177.56,230.15L188,236.55L208.89,246.93L219.33,250.89L240.22,256.36L250.67,257.87L271.56,258.44L282,257.5L302.89,253.16L313.33,249.77L334.22,240.53L344.67,234.69L365.56,220.54L376,212.25L396.89,193.2L407.33,93.09L428.22,124.4L438.67,138.64L459.56,164.27L470,175.68L490.89,195.65L501.33,204.21L522.22,218.52L532.67,224.26L553.56,232.89L564,235.79L584.89,238.76L595.33,238.83L616.22,236.14L626.67,233.68L647.56,227.39L658,394.7L678.89,407.39L689.33,412.31L710.22,419.33L720.67,421.42L741.56,422.77L752,422.03L772.89,417.71L783.33,414.13L804.22,404.15L814.67,397.74L835.56,382.08L846,372.84L866.89,351.52L877.33,339.44L898.22,312.45L908.67,297.54L929.56,264.89L940,247.14L960.89,208.82L971.33,188.24L1002.67,120.84L1013.11,96.48L1023.56,71.18L1034,25.4" style="vector-effect: none; fill: none; stroke: rgb(0, 0, 255); stroke-opacity: 1; stroke-width: 5px; opacity: 1;"/></g><g class="points"/><g class="text"/></g><g class="trace scatter trace8be602" style="stroke-miterlimit: 2; opacity: 1;"><g class="fills"/><g class="errorbars"/><g class="lines"><path class="js-line" d="M0,81.64L31.33,123.2L41.78,136.13L73.11,172.13L83.56,183.2L114.89,213.67L125.33,222.9L156.67,247.83L167.11,255.22L198.44,274.65L208.89,280.2L229.78,289.83L240.22,293.52L261.11,298.4L271.56,299.59L292.44,299.45L302.89,298.12L323.78,292.96L334.22,289.13L355.11,278.95L365.56,272.6L386.44,257.4L396.89,248.54L407.33,238.85L417.78,156.54L438.67,185.96L449.11,199.25L470,223L480.44,233.46L501.33,251.54L511.78,259.17L532.67,271.58L543.11,276.36L564,283.12L574.44,285.07L595.33,286.15L605.78,285.28L616.22,283.61L626.67,368.97L647.56,386.94L658,394.7L678.89,407.39L689.33,412.31L710.22,419.33L720.67,421.42L741.56,422.77L752,422.03L772.89,417.71L783.33,414.13L804.22,404.15L814.67,397.74L835.56,382.08L846,372.84L866.89,351.52L877.33,339.44L898.22,312.45L908.67,297.54L929.56,264.89L940,247.14L960.89,208.82L971.33,188.24L1002.67,120.84L1013.11,96.48L1034,44.94" style="vector-effect: none; fill: none; stroke: rgb(255, 165, 0); stroke-opacity: 1; stroke-width: 5px; opacity: 1;"/></g><g class="points"/><g class="text"/></g></g></g><g class="overplot"/><path class="xlines-above crisp" d="M85,616.5H1121M85,107.5H1121" style="fill: none; stroke-width: 1px; stroke: rgb(0, 0, 0); stroke-opacity: 1;"/><path class="ylines-above crisp" d="M85.5,108V616M1120.5,108V616" style="fill: none; stroke-width: 1px; stroke: rgb(0, 0, 0); stroke-opacity: 1;"/><g class="overlines-above"/><g class="xaxislayer-above"><g class="xtick"><text text-anchor="middle" x="0" y="647" transform="translate(86,0)" style="font-family: 'Open Sans', verdana, arial, sans-serif; font-size: 25px; fill: rgb(42, 63, 95); fill-opacity: 1; white-space: pre; opacity: 1;">−4</text></g><g class="xtick"><text text-anchor="middle" x="0" y="647" style="font-family: 'Open Sans', verdana, arial, sans-serif; font-size: 25px; fill: rgb(42, 63, 95); fill-opacity: 1; white-space: pre; opacity: 1;" transform="translate(233.71,0)">−3</text></g><g class="xtick"><text text-anchor="middle" x="0" y="647" style="font-family: 'Open Sans', verdana, arial, sans-serif; font-size: 25px; fill: rgb(42, 63, 95); fill-opacity: 1; white-space: pre; opacity: 1;" transform="translate(381.43,0)">−2</text></g><g class="xtick"><text text-anchor="middle" x="0" y="647" style="font-family: 'Open Sans', verdana, arial, sans-serif; font-size: 25px; fill: rgb(42, 63, 95); fill-opacity: 1; white-space: pre; opacity: 1;" transform="translate(529.14,0)">−1</text></g><g class="xtick"><text text-anchor="middle" x="0" y="647" style="font-family: 'Open Sans', verdana, arial, sans-serif; font-size: 25px; fill: rgb(42, 63, 95); fill-opacity: 1; white-space: pre; opacity: 1;" transform="translate(676.86,0)">0</text></g><g class="xtick"><text text-anchor="middle" x="0" y="647" style="font-family: 'Open Sans', verdana, arial, sans-serif; font-size: 25px; fill: rgb(42, 63, 95); fill-opacity: 1; white-space: pre; opacity: 1;" transform="translate(824.57,0)">1</text></g><g class="xtick"><text text-anchor="middle" x="0" y="647" style="font-family: 'Open Sans', verdana, arial, sans-serif; font-size: 25px; fill: rgb(42, 63, 95); fill-opacity: 1; white-space: pre; opacity: 1;" transform="translate(972.29,0)">2</text></g><g class="xtick"><text text-anchor="middle" x="0" y="647" style="font-family: 'Open Sans', verdana, arial, sans-serif; font-size: 25px; fill: rgb(42, 63, 95); fill-opacity: 1; white-space: pre; opacity: 1;" transform="translate(1120,0)">3</text></g></g><g class="yaxislayer-above"><g class="ytick"><text text-anchor="end" x="80" y="8.75" transform="translate(0,568.15)" style="font-family: 'Open Sans', verdana, arial, sans-serif; font-size: 25px; fill: rgb(42, 63, 95); fill-opacity: 1; white-space: pre; opacity: 1;">23</text></g><g class="ytick"><text text-anchor="end" x="80" y="8.75" style="font-family: 'Open Sans', verdana, arial, sans-serif; font-size: 25px; fill: rgb(42, 63, 95); fill-opacity: 1; white-space: pre; opacity: 1;" transform="translate(0,473.69)">24</text></g><g class="ytick"><text text-anchor="end" x="80" y="8.75" style="font-family: 'Open Sans', verdana, arial, sans-serif; font-size: 25px; fill: rgb(42, 63, 95); fill-opacity: 1; white-space: pre; opacity: 1;" transform="translate(0,379.22)">25</text></g><g class="ytick"><text text-anchor="end" x="80" y="8.75" style="font-family: 'Open Sans', verdana, arial, sans-serif; font-size: 25px; fill: rgb(42, 63, 95); fill-opacity: 1; white-space: pre; opacity: 1;" transform="translate(0,284.75)">26</text></g><g class="ytick"><text text-anchor="end" x="80" y="8.75" style="font-family: 'Open Sans', verdana, arial, sans-serif; font-size: 25px; fill: rgb(42, 63, 95); fill-opacity: 1; white-space: pre; opacity: 1;" transform="translate(0,190.28)">27</text></g></g><g class="overaxes-above"/></g></g><g class="polarlayer"/><g class="smithlayer"/><g class="ternarylayer"/><g class="geolayer"/><g class="funnelarealayer"/><g class="pielayer"/><g class="iciclelayer"/><g class="treemaplayer"/><g class="sunburstlayer"/><g class="glimages"/><defs id="topdefs-4b88c5"><g class="clips"/><clipPath id="legend4b88c5"><rect width="821" height="81" x="1" y="1"/></clipPath></defs><g class="layer-above"><g class="imagelayer"/><g class="shapelayer"/></g><g class="infolayer"><g class="legend" pointer-events="all" transform="translate(191.5,12.30000000000004)"><rect class="bg" shape-rendering="crispEdges" style="stroke: rgb(0, 0, 0); stroke-opacity: 1; fill: rgb(255, 255, 255); fill-opacity: 1; stroke-width: 1px;" width="822" height="82" x="0.5" y="0.5"/><g class="scrollbox" transform="" clip-path="url(#legend4b88c5)"><g class="groups" transform=""><g class="traces" transform="translate(0,23.75)" style="opacity: 1;"><text class="legendtext" text-anchor="start" x="40" y="9.75" style="font-family: 'Open Sans', verdana, arial, sans-serif; font-size: 25px; fill: rgb(42, 63, 95); fill-opacity: 1; white-space: pre;">Quadratic potential</text><g class="layers" style="opacity: 1;"><g class="legendfill"/><g class="legendlines"><path class="js-line" d="M5,0h30" style="fill: none; stroke: rgb(171, 99, 250); stroke-opacity: 1; stroke-width: 5px;"/></g><g class="legendsymbols"><g class="legendpoints"/></g></g><rect class="legendtoggle" x="0" y="-17.75" width="370.46875" height="35.5" style="fill: rgb(0, 0, 0); fill-opacity: 0;"/></g><g class="traces" transform="translate(0,59.25)" style="opacity: 1;"><text class="legendtext" text-anchor="start" x="40" y="9.75" style="font-family: 'Open Sans', verdana, arial, sans-serif; font-size: 25px; fill: rgb(42, 63, 95); fill-opacity: 1; white-space: pre;">Ground truth cost-to-go   </text><g class="layers" style="opacity: 1;"><g class="legendfill"/><g class="legendlines"><path class="js-line" d="M5,0h30" style="fill: none; stroke: rgb(50, 205, 50); stroke-opacity: 1; stroke-width: 5px;"/></g><g class="legendsymbols"><g class="legendpoints"/></g></g><rect class="legendtoggle" x="0" y="-17.75" width="370.46875" height="35.5" style="fill: rgb(0, 0, 0); fill-opacity: 0;"/></g></g><g class="groups" transform="translate(372.96875,0)"><g class="traces" transform="translate(0,23.75)" style="opacity: 1;"><text class="legendtext" text-anchor="start" x="40" y="9.75" style="font-family: 'Open Sans', verdana, arial, sans-serif; font-size: 25px; fill: rgb(42, 63, 95); fill-opacity: 1; white-space: pre;">Cost of 1-step lookahead rollout</text><g class="layers" style="opacity: 1;"><g class="legendfill"/><g class="legendlines"><path class="js-line" d="M5,0h30" style="fill: none; stroke: rgb(0, 0, 255); stroke-opacity: 1; stroke-width: 5px;"/></g><g class="legendsymbols"><g class="legendpoints"/></g></g><rect class="legendtoggle" x="0" y="-17.75" width="446.453125" height="35.5" style="fill: rgb(0, 0, 0); fill-opacity: 0;"/></g><g class="traces" transform="translate(0,59.25)" style="opacity: 1;"><text class="legendtext" text-anchor="start" x="40" y="9.75" style="font-family: 'Open Sans', verdana, arial, sans-serif; font-size: 25px; fill: rgb(42, 63, 95); fill-opacity: 1; white-space: pre;">Cost of 2-step lookahead rollout</text><g class="layers" style="opacity: 1;"><g class="legendfill"/><g class="legendlines"><path class="js-line" d="M5,0h30" style="fill: none; stroke: rgb(255, 165, 0); stroke-opacity: 1; stroke-width: 5px;"/></g><g class="legendsymbols"><g class="legendpoints"/></g></g><rect class="legendtoggle" x="0" y="-17.75" width="446.453125" height="35.5" style="fill: rgb(0, 0, 0); fill-opacity: 0;"/></g></g></g><rect class="scrollbar" rx="20" ry="3" width="0" height="0" style="fill: rgb(128, 139, 164); fill-opacity: 1;" x="0" y="0"/></g><g class="g-gtitle"/><g class="g-xtitle"><text class="xtitle" x="603" y="687.5" text-anchor="middle" style="font-family: 'Open Sans', verdana, arial, sans-serif; font-size: 30px; fill: rgb(42, 63, 95); opacity: 1; white-space: pre;">Y</text></g><g class="g-ytitle" transform="translate(6.796875,0)"><text class="ytitle" transform="rotate(-90,23.203125,362)" x="23.203125" y="362" text-anchor="middle" style="font-family: 'Open Sans', verdana, arial, sans-serif; font-size: 30px; fill: rgb(42, 63, 95); opacity: 1; white-space: pre;">Potentials over source set</text></g></g></svg>